<svg xmlns="http://www.w3.org/2000/svg" width="269.3077697753906" height="42"><g data-id="oxw#?u$30bp,$^kbfAfi" class="blocklyDraggable" transform="translate(2,2)"><path class="blocklyPathDark" transform="translate(1,1)" fill="#59aa53" d=" m 0,0  m 0,8 a 8 8 0 0,1 8,-8  h 7  l 6,4  3,0  6,-4  h 230.30776977539062  v 5  H 260.3077697753906  V 5  H 260.3077697753906  V 25  H 260.3077697753906  V 25  V 29  h -230.80776977539062  l -6,4  -3,0  -6,-4  h -6.5 a 8 8 0 0,1 -8,-8 z&#10;"/><path class="blocklyPath" stroke="none" fill="#6fd568" d=" m 0,0  m 0,8 a 8 8 0 0,1 8,-8  h 7  l 6,4  3,0  6,-4  h 230.30776977539062  v 5  H 260.3077697753906  V 5  H 260.3077697753906  V 25  H 260.3077697753906  V 25  V 29  h -230.80776977539062  l -6,4  -3,0  -6,-4  h -6.5 a 8 8 0 0,1 -8,-8 z&#10;"/><g transform="translate(10,5)"><text class="blocklyText" fill="#fff" style="font: normal 11pt sans-serif;" x="0" y="16">Init built-in hardware at beginning</text></g></g></svg>