<svg xmlns="http://www.w3.org/2000/svg" width="257.43235778808594" height="42"><g data-id="S(R@3UQ1@PFvIKeH:fm," class="blocklyDraggable" transform="translate(2,2)"><path class="blocklyPathDark" transform="translate(1,1)" fill="#59aa53" d=" m 0,0  m 0,8 a 8 8 0 0,1 8,-8  h 7  l 6,4  3,0  6,-4  h 218.43235778808594  v 5  H 248.43235778808594  V 5  H 248.43235778808594  V 25  H 248.43235778808594  V 25  V 29  h -218.93235778808594  l -6,4  -3,0  -6,-4  h -6.5 a 8 8 0 0,1 -8,-8 z&#10;"/><path class="blocklyPath" stroke="none" fill="#6fd568" d=" m 0,0  m 0,8 a 8 8 0 0,1 8,-8  h 7  l 6,4  3,0  6,-4  h 218.43235778808594  v 5  H 248.43235778808594  V 5  H 248.43235778808594  V 25  H 248.43235778808594  V 25  V 29  h -218.93235778808594  l -6,4  -3,0  -6,-4  h -6.5 a 8 8 0 0,1 -8,-8 z&#10;"/><g transform="translate(10,5)"><text class="blocklyText" fill="#fff" style="font: normal 11pt sans-serif;" x="0" y="16">Update button,touch,etc. in loop</text></g></g></svg>