<svg xmlns="http://www.w3.org/2000/svg" width="607" height="53">
  <g data-id="*m%%G-KAht,C7@_y/8+," class="blocklyDraggable" transform="translate(2,2)">
    <path class="blocklyPathDark" transform="translate(1,1)" fill="#59aa53"
      d=" m 0,0  m 0,8 a 8 8 0 0,1 8,-8  h 7  l 6,4  3,0  6,-4  h 568  v 5  H 598  V 5  H 598  V 36  H 598  V 36  V 40  h -568.5  l -6,4  -3,0  -6,-4  h -6.5 a 8 8 0 0,1 -8,-8 z&#10; M 193.38723754882812,5  v 5  c 0,10  -8,-8  -8,7.5  s 8,-2.5  8,7.5  v 11  h 122.48818969726562  v -31 z M 465.5118103027344,5  v 5  c 0,10  -8,-8  -8,7.5  s 8,-2.5  8,7.5  v 11  h 122.48818969726562  v -31 z" />
    <path class="blocklyPath" stroke="none" fill="#6fd568"
      d=" m 0,0  m 0,8 a 8 8 0 0,1 8,-8  h 7  l 6,4  3,0  6,-4  h 568  v 5  H 598  V 5  H 598  V 36  H 598  V 36  V 40  h -568.5  l -6,4  -3,0  -6,-4  h -6.5 a 8 8 0 0,1 -8,-8 z&#10; M 193.38723754882812,5  v 5  c 0,10  -8,-8  -8,7.5  s 8,-2.5  8,7.5  v 11  h 122.48818969726562  v -31 z M 465.5118103027344,5  v 5  c 0,10  -8,-8  -8,7.5  s 8,-2.5  8,7.5  v 11  h 122.48818969726562  v -31 z" />
    <g data-id="i=%`b0i]W$=aI5;~WTR[" class="blocklyDraggable" style="display: block;"
      transform="translate(186.38723754882812,6)">
      <path class="blocklyPathDark" transform="translate(1,1)" fill="#2e9e54"
        d=" m 8,0  h 120.48818969726562  v 5  H 128.48818969726562  V 5  H 128.48818969726562  V 25  H 128.48818969726562  V 25  V 29  h -120.48818969726562  H 8  V 20  c 0,-10  -8,8  -8,-7.5  s 8,2.5  8,-7.5 z&#10;" />
      <path class="blocklyPath" stroke="none" fill="#3ac569"
        d=" m 8,0  h 120.48818969726562  v 5  H 128.48818969726562  V 5  H 128.48818969726562  V 25  H 128.48818969726562  V 25  V 29  h -120.48818969726562  H 8  V 20  c 0,-10  -8,8  -8,-7.5  s 8,2.5  8,-7.5 z&#10;" />
      <g class="blocklyEditableText" transform="translate(13,5)" style="cursor: default;">
        <rect rx="4" ry="4" x="0" y="0" height="20" width="74.48818969726562"
          class="blocklyFieldRect blocklyDropdownRect" fill="#fff" fill-opacity=".6" stroke="none" /><text
          class="blocklyFieldText blocklyDropdownText" fill="#000" style="font: normal 11pt sans-serif;"
          text-anchor="start" x="5" y="16">Palette<tspan style="fill: rgb(58, 197, 105);"> ▾</tspan></text>
        <image style="display: none;" />
      </g>
      <g class="blocklyEditableText" transform="translate(97.48818969726562,5)" style="cursor: default;">
        <rect rx="4" ry="4" x="0" y="0" height="16" width="26" class="blocklyFieldRect" fill="#fff" fill-opacity=".6"
          stroke="none" style="fill-opacity: 1; fill: rgb(102, 0, 204);" />
      </g>
    </g>
    <g data-id="=5CP].q1S/%XID;/OIE$" class="blocklyDraggable" style="display: block;"
      transform="translate(458.5118103027344,6)">
      <path class="blocklyPathDark" transform="translate(1,1)" fill="#2e9e54"
        d=" m 8,0  h 120.48818969726562  v 5  H 128.48818969726562  V 5  H 128.48818969726562  V 25  H 128.48818969726562  V 25  V 29  h -120.48818969726562  H 8  V 20  c 0,-10  -8,8  -8,-7.5  s 8,2.5  8,-7.5 z&#10;" />
      <path class="blocklyPath" stroke="none" fill="#3ac569"
        d=" m 8,0  h 120.48818969726562  v 5  H 128.48818969726562  V 5  H 128.48818969726562  V 25  H 128.48818969726562  V 25  V 29  h -120.48818969726562  H 8  V 20  c 0,-10  -8,8  -8,-7.5  s 8,2.5  8,-7.5 z&#10;" />
      <g class="blocklyEditableText" transform="translate(13,5)" style="cursor: default;">
        <rect rx="4" ry="4" x="0" y="0" height="20" width="74.48818969726562"
          class="blocklyFieldRect blocklyDropdownRect" fill="#fff" fill-opacity=".6" stroke="none" /><text
          class="blocklyFieldText blocklyDropdownText" fill="#000" style="font: normal 11pt sans-serif;"
          text-anchor="start" x="5" y="16">Palette<tspan style="fill: rgb(58, 197, 105);"> ▾</tspan></text>
        <image style="display: none;" />
      </g>
      <g class="blocklyEditableText" transform="translate(97.48818969726562,5)" style="cursor: default;">
        <rect rx="4" ry="4" x="0" y="0" height="16" width="26" class="blocklyFieldRect" fill="#fff" fill-opacity=".6"
          stroke="none" style="fill-opacity: 1; fill: rgb(102, 0, 204);" />
      </g>
    </g>
    <g transform="translate(10,10)"><text class="blocklyText" fill="#fff" style="font: normal 11pt sans-serif;" x="0"
        y="16">Set</text></g>
    <g class="blocklyEditableText" transform="translate(37.240509033203125,10)" style="cursor: default;">
      <rect rx="4" ry="4" x="0" y="0" height="20" width="68.76878356933594" class="blocklyFieldRect blocklyDropdownRect"
        fill="#fff" fill-opacity=".6" stroke="none" /><text class="blocklyFieldText blocklyDropdownText" fill="#000"
        style="font: normal 11pt sans-serif;" text-anchor="start" x="5" y="16">label0<tspan
          style="fill: rgb(111, 213, 104);"> ▾</tspan></text>
      <image style="display: none;" />
    </g>
    <g transform="translate(111.00929260253906,10)"><text class="blocklyText" fill="#fff"
        style="font: normal 11pt sans-serif;" x="0" y="16">text color</text></g>
    <g transform="translate(325.87542724609375,10)"><text class="blocklyText" fill="#fff"
        style="font: normal 11pt sans-serif;" x="0" y="16">background color</text></g>
  </g>
</svg>