<svg xmlns="http://www.w3.org/2000/svg" width="214.94558715820312" height="53">
  <g data-id="$2Ceq3r/A`_ty_JpLa:`" class="blocklyDraggable" transform="translate(2,2)">
    <path class="blocklyPathDark" transform="translate(1,1)" fill="#59aa53"
      d=" m 0,0  m 0,8 a 8 8 0 0,1 8,-8  h 7  l 6,4  3,0  6,-4  h 175.94558715820312  v 5  H 205.94558715820312  V 5  H 205.94558715820312  V 36  H 205.94558715820312  V 36  V 40  h -176.44558715820312  l -6,4  -3,0  -6,-4  h -6.5 a 8 8 0 0,1 -8,-8 z&#10; M 153.22259521484375,5  v 5  c 0,10  -8,-8  -8,7.5  s 8,-2.5  8,7.5  v 11  h 42.722991943359375  v -31 z" />
    <path class="blocklyPath" stroke="none" fill="#6fd568"
      d=" m 0,0  m 0,8 a 8 8 0 0,1 8,-8  h 7  l 6,4  3,0  6,-4  h 175.94558715820312  v 5  H 205.94558715820312  V 5  H 205.94558715820312  V 36  H 205.94558715820312  V 36  V 40  h -176.44558715820312  l -6,4  -3,0  -6,-4  h -6.5 a 8 8 0 0,1 -8,-8 z&#10; M 153.22259521484375,5  v 5  c 0,10  -8,-8  -8,7.5  s 8,-2.5  8,7.5  v 11  h 42.722991943359375  v -31 z" />
    <g data-id="}mFYi?U^9jDijgi2qysY" style="display: block;" transform="translate(146.22259521484375,6)">
      <path class="blocklyPathDark" transform="translate(1,1)" fill="#9acef9"
        d=" m 8,0  h 40.722991943359375  v 5  H 48.722991943359375  V 5  H 48.722991943359375  V 25  H 48.722991943359375  V 25  V 29  h -40.722991943359375  H 8  V 20  c 0,-10  -8,8  -8,-7.5  s 8,2.5  8,-7.5 z&#10;" />
      <path class="blocklyPath" stroke="none" fill="#9acef9"
        d=" m 8,0  h 40.722991943359375  v 5  H 48.722991943359375  V 5  H 48.722991943359375  V 25  H 48.722991943359375  V 25  V 29  h -40.722991943359375  H 8  V 20  c 0,-10  -8,8  -8,-7.5  s 8,2.5  8,-7.5 z&#10;" />
      <g class="blocklyEditableText" transform="translate(13,5)" style="cursor: text;">
        <rect rx="4" ry="4" x="0" y="0" height="20" width="30.722991943359375" class="blocklyFieldRect" fill="#fff"
          fill-opacity=".6" stroke="none" /><text class="blocklyFieldText" fill="#000"
          style="font: normal 11pt sans-serif;" x="5" y="16">1.5</text>
      </g>
    </g>
    <g transform="translate(10,10)"><text class="blocklyText" fill="#fff" style="font: normal 11pt sans-serif;" x="0"
        y="16">Set</text></g>
    <g class="blocklyEditableText" transform="translate(37.240509033203125,10)" style="cursor: default;">
      <rect rx="4" ry="4" x="0" y="0" height="20" width="68.76878356933594" class="blocklyFieldRect blocklyDropdownRect"
        fill="#fff" fill-opacity=".6" stroke="none" /><text class="blocklyFieldText blocklyDropdownText" fill="#000"
        style="font: normal 11pt sans-serif;" text-anchor="start" x="5" y="16">label0<tspan
          style="fill: rgb(111, 213, 104);"> ▾</tspan></text>
      <image style="display: none;" />
    </g>
    <g transform="translate(111.00929260253906,10)"><text class="blocklyText" fill="#fff"
        style="font: normal 11pt sans-serif;" x="0" y="16">size</text></g>
  </g>
</svg>