<svg xmlns="http://www.w3.org/2000/svg" width="379.2090759277344" height="49"><g data-id="V~*C|1b:Q+w{*Z.D@P9W" class="blocklyDraggable" transform="translate(2,2)"><path class="blocklyPathDark" transform="translate(1,1)" fill="#0c8ea8" d=" m 8,0  h 362.2090606689453  v 5  H 370.2090606689453  V 5  H 370.2090606689453  V 36  H 370.2090606689453  V 36  V 40  h -362.2090606689453  H 8  V 20  c 0,-10  -8,8  -8,-7.5  s 8,2.5  8,-7.5 z&#10; M 238.18759155273438,5  v 5  c 0,10  -8,-8  -8,7.5  s 8,-2.5  8,7.5  v 11  h 30.597000122070312  v -31 z"/><path class="blocklyPath" stroke="none" fill="#0fb1d2" d=" m 8,0  h 362.2090606689453  v 5  H 370.2090606689453  V 5  H 370.2090606689453  V 36  H 370.2090606689453  V 36  V 40  h -362.2090606689453  H 8  V 20  c 0,-10  -8,8  -8,-7.5  s 8,2.5  8,-7.5 z&#10; M 238.18759155273438,5  v 5  c 0,10  -8,-8  -8,7.5  s 8,-2.5  8,7.5  v 11  h 30.597000122070312  v -31 z"/><g data-id="tK|(UG+/c@UK^(+Xa:P_" style="display: block;" transform="translate(231.18759155273438,6)"><path class="blocklyPathDark" transform="translate(1,1)" fill="#bbc2e5" d=" m 8,0  h 28.597000122070312  v 5  H 36.59700012207031  V 5  H 36.59700012207031  V 25  H 36.59700012207031  V 25  V 29  h -28.597000122070312  H 8  V 20  c 0,-10  -8,8  -8,-7.5  s 8,2.5  8,-7.5 z&#10;"/><path class="blocklyPath" stroke="none" fill="#bbc2e5" d=" m 8,0  h 28.597000122070312  v 5  H 36.59700012207031  V 5  H 36.59700012207031  V 25  H 36.59700012207031  V 25  V 29  h -28.597000122070312  H 8  V 20  c 0,-10  -8,8  -8,-7.5  s 8,2.5  8,-7.5 z&#10;"/><g class="blocklyEditableText" transform="translate(13,5)" style="cursor: text;"><rect rx="4" ry="4" x="0" y="0" height="20" width="18.597000122070312" class="blocklyFieldRect" fill="#fff" fill-opacity=".6" stroke="none"/><text class="blocklyFieldText" fill="#000" style="font: normal 11pt sans-serif;" x="5" y="16">0</text></g></g><g transform="translate(18,10)"><text class="blocklyText" fill="#fff" style="font: normal 11pt sans-serif;" x="0" y="16">method</text></g><g class="blocklyEditableText" transform="translate(78.23982238769531,10)" style="cursor: default;"><rect rx="4" ry="4" x="0" y="0" height="20" width="84.18040466308594" class="blocklyFieldRect blocklyDropdownRect" fill="#fff" fill-opacity=".6" stroke="none"/><text class="blocklyFieldText blocklyDropdownText" fill="#000" style="font: normal 11pt sans-serif;" text-anchor="start" x="5" y="16">JoyCHat<tspan style="fill: rgb(15, 177, 210);"> ▾</tspan></text><image style="display: none;"/></g><g transform="translate(167.42022705078125,10)"><text class="blocklyText" fill="#fff" style="font: normal 11pt sans-serif;" x="0" y="16">channel</text></g><g transform="translate(278.7845916748047,10)"><text class="blocklyText" fill="#fff" style="font: normal 11pt sans-serif;" x="0" y="16">y-axis value</text></g></g></svg>