<svg xmlns="http://www.w3.org/2000/svg" width="468.040771484375" height="447"><g data-id="`bL8@z|KUXHMH/7]x$k9" class="blocklyDraggable" transform="translate(2, 2)"><path class="blocklyPathDark" transform="translate(1,1)" fill="#44a43d" d=" m 0,0  m 0,8 a 8 8 0 0,1 8,-8  h 276.69580078125  v 5  H 284.69580078125  V 5  H 284.69580078125  V 25  H 284.69580078125  V 29  H 50  l -6,4  -3,0  -6,-4  h -7 a 8 8 0 0,0 -8,8  v 58 a 8 8 0 0,0 8,8  H 50  H 50  V 103  V 113  h -42 a 8 8 0 0,1 -8,-8 z&#10;"/><path class="blocklyPath" stroke="none" fill="#55cd4c" d=" m 0,0  m 0,8 a 8 8 0 0,1 8,-8  h 276.69580078125  v 5  H 284.69580078125  V 5  H 284.69580078125  V 25  H 284.69580078125  V 29  H 50  l -6,4  -3,0  -6,-4  h -7 a 8 8 0 0,0 -8,8  v 58 a 8 8 0 0,0 8,8  H 50  H 50  V 103  V 113  h -42 a 8 8 0 0,1 -8,-8 z&#10;"/><g data-id="k|z}]t^!iFyB-d+k@*Ck" style="display: block;" class="blocklyDraggable" transform="translate(21,30)"><path class="blocklyPathDark" transform="translate(1,1)" fill="#6655b8" d=" m 0,0  m 0,8 a 8 8 0 0,1 8,-8  h 7  l 6,4  3,0  6,-4  h 134.23048400878906  v 5  H 164.23048400878906  V 5  H 164.23048400878906  V 25  H 164.23048400878906  V 25  V 29  h -134.73048400878906  l -6,4  -3,0  -6,-4  h -14.5  H 0 z&#10;"/><path class="blocklyPath" stroke="none" fill="#806ae6" d=" m 0,0  m 0,8 a 8 8 0 0,1 8,-8  h 7  l 6,4  3,0  6,-4  h 134.23048400878906  v 5  H 164.23048400878906  V 5  H 164.23048400878906  V 25  H 164.23048400878906  V 25  V 29  h -134.73048400878906  l -6,4  -3,0  -6,-4  h -14.5  H 0 z&#10;"/><g data-id=".|6%6}@QEgDZ+Bu`3pNN" class="blocklyDraggable" transform="translate(0,30)"><path class="blocklyPathDark" transform="translate(1,1)" fill="#44a43d" d=" m 0,0  h 15  l 6,4  3,0  6,-4  h 368.34356689453125  v 5  H 398.34356689453125  V 5  H 398.34356689453125  V 36  H 398.34356689453125  V 36  V 40  h -368.84356689453125  l -6,4  -3,0  -6,-4  h -6.5 a 8 8 0 0,1 -8,-8 z&#10; M 153.5590362548828,5  v 5  c 0,10  -8,-8  -8,7.5  s 8,-2.5  8,7.5  v 11  h 234.78453063964844  v -31 z"/><path class="blocklyPath" stroke="none" fill="#55cd4c" d=" m 0,0  h 15  l 6,4  3,0  6,-4  h 368.34356689453125  v 5  H 398.34356689453125  V 5  H 398.34356689453125  V 36  H 398.34356689453125  V 36  V 40  h -368.84356689453125  l -6,4  -3,0  -6,-4  h -6.5 a 8 8 0 0,1 -8,-8 z&#10; M 153.5590362548828,5  v 5  c 0,10  -8,-8  -8,7.5  s 8,-2.5  8,7.5  v 11  h 234.78453063964844  v -31 z"/><g data-id="KXigWGvPs*6q5U;fd#[P" class="blocklyDraggable" style="display: block;" transform="translate(146.5590362548828,6)"><path class="blocklyPathDark" transform="translate(1,1)" fill="#6655b8" d=" m 8,0  h 232.78453063964844  v 5  H 240.78453063964844  V 5  H 240.78453063964844  V 25  H 240.78453063964844  V 25  V 29  h -232.78453063964844  H 8  V 20  c 0,-10  -8,8  -8,-7.5  s 8,2.5  8,-7.5 z&#10;"/><path class="blocklyPath" stroke="none" fill="#806ae6" d=" m 8,0  h 232.78453063964844  v 5  H 240.78453063964844  V 5  H 240.78453063964844  V 25  H 240.78453063964844  V 25  V 29  h -232.78453063964844  H 8  V 20  c 0,-10  -8,8  -8,-7.5  s 8,2.5  8,-7.5 z&#10;"/><g class="blocklyEditableText" transform="translate(13,5)" style="cursor: default;"><rect rx="4" ry="4" x="0" y="0" height="20" width="68.85469055175781" class="blocklyFieldRect blocklyDropdownRect" fill="#fff" fill-opacity=".6" stroke="none"/><text class="blocklyFieldText blocklyDropdownText" fill="#000" style="font: normal 11pt sans-serif;" text-anchor="start" x="5" y="16">rotary<tspan style="fill: rgb(128, 106, 230);"> ▾</tspan></text><image style="display: none;"/></g><g transform="translate(86.85469055175781,5)"><text class="blocklyText" fill="#fff" style="font: normal 11pt sans-serif;" x="0" y="16">get value (return int)</text></g></g><g transform="translate(10,10)"><text class="blocklyText" fill="#fff" style="font: normal 11pt sans-serif;" x="0" y="16">Set</text></g><g class="blocklyEditableText" transform="translate(37.240509033203125,10)" style="cursor: default;"><rect rx="4" ry="4" x="0" y="0" height="20" width="68.76878356933594" class="blocklyFieldRect blocklyDropdownRect" fill="#fff" fill-opacity=".6" stroke="none"/><text class="blocklyFieldText blocklyDropdownText" fill="#000" style="font: normal 11pt sans-serif;" text-anchor="start" x="5" y="16">label0<tspan style="fill: rgb(85, 205, 76);"> ▾</tspan></text><image style="display: none;"/></g><g transform="translate(111.00929260253906,10)"><text class="blocklyText" fill="#fff" style="font: normal 11pt sans-serif;" x="0" y="16">text</text></g></g><g class="blocklyEditableText" transform="translate(5,5)" style="cursor: default;"><rect rx="4" ry="4" x="0" y="0" height="20" width="68.85469055175781" class="blocklyFieldRect blocklyDropdownRect" fill="#fff" fill-opacity=".6" stroke="none"/><text class="blocklyFieldText blocklyDropdownText" fill="#000" style="font: normal 11pt sans-serif;" text-anchor="start" x="5" y="16">rotary<tspan style="fill: rgb(128, 106, 230);"> ▾</tspan></text><image style="display: none;"/></g><g transform="translate(78.85469055175781,5)"><text class="blocklyText" fill="#fff" style="font: normal 11pt sans-serif;" x="0" y="16">reset value</text></g></g><g transform="translate(10,5)"><text class="blocklyText" fill="#fff" style="font: normal 11pt sans-serif;" x="0" y="16">When button</text></g><g class="blocklyEditableText" transform="translate(108.18540954589844,5)" style="cursor: default;"><rect rx="4" ry="4" x="0" y="0" height="20" width="60.59413146972656" class="blocklyFieldRect blocklyDropdownRect" fill="#fff" fill-opacity=".6" stroke="none"/><text class="blocklyFieldText blocklyDropdownText" fill="#000" style="font: normal 11pt sans-serif;" text-anchor="start" x="5" y="16">BtnA<tspan style="fill: rgb(85, 205, 76);"> ▾</tspan></text><image style="display: none;"/></g><g transform="translate(173.779541015625,5)"><text class="blocklyText" fill="#fff" style="font: normal 11pt sans-serif;" x="0" y="16">was</text></g><g class="blocklyEditableText" transform="translate(205.24339294433594,5)" style="cursor: default;"><rect rx="4" ry="4" x="0" y="0" height="20" width="74.45240783691406" class="blocklyFieldRect blocklyDropdownRect" fill="#fff" fill-opacity=".6" stroke="none"/><text class="blocklyFieldText blocklyDropdownText" fill="#000" style="font: normal 11pt sans-serif;" text-anchor="start" x="5" y="16">clicked<tspan style="fill: rgb(85, 205, 76);"> ▾</tspan></text><image style="display: none;"/></g></g><g data-id="setup_block" class="blocklyDraggable" transform="translate(2, 124)"><path class="blocklyPathDark" transform="translate(1,1)" fill="#cca038" d=" m 0,0  m 0,8 a 8 8 0 0,1 8,-8  h 205.27699279785156  v 5  H 213.27699279785156  V 5  H 213.27699279785156  V 25  H 213.27699279785156  V 35  H 213.27699279785156  V 55  H 213.27699279785156  V 59  H 50  l -6,4  -3,0  -6,-4  h -7 a 8 8 0 0,0 -8,8  v 47 a 8 8 0 0,0 8,8  H 213.27699279785156  H 213.27699279785156  V 122  V 132  h -205.27699279785156 a 8 8 0 0,1 -8,-8 z&#10;"/><path class="blocklyPath" stroke="none" fill="#ffc846" d=" m 0,0  m 0,8 a 8 8 0 0,1 8,-8  h 205.27699279785156  v 5  H 213.27699279785156  V 5  H 213.27699279785156  V 25  H 213.27699279785156  V 35  H 213.27699279785156  V 55  H 213.27699279785156  V 59  H 50  l -6,4  -3,0  -6,-4  h -7 a 8 8 0 0,0 -8,8  v 47 a 8 8 0 0,0 8,8  H 213.27699279785156  H 213.27699279785156  V 122  V 132  h -205.27699279785156 a 8 8 0 0,1 -8,-8 z&#10;"/><g data-id="system_m5_begin" style="display: block;" class="blocklyDraggable" transform="translate(21,60)"><path class="blocklyPathDark" transform="translate(1,1)" fill="#44a43d" d=" m 0,0  m 0,8 a 8 8 0 0,1 8,-8  h 7  l 6,4  3,0  6,-4  h 230.30776977539062  v 5  H 260.3077697753906  V 5  H 260.3077697753906  V 25  H 260.3077697753906  V 25  V 29  h -230.80776977539062  l -6,4  -3,0  -6,-4  h -14.5  H 0 z&#10;"/><path class="blocklyPath" stroke="none" fill="#55cd4c" d=" m 0,0  m 0,8 a 8 8 0 0,1 8,-8  h 7  l 6,4  3,0  6,-4  h 230.30776977539062  v 5  H 260.3077697753906  V 5  H 260.3077697753906  V 25  H 260.3077697753906  V 25  V 29  h -230.80776977539062  l -6,4  -3,0  -6,-4  h -14.5  H 0 z&#10;"/><g data-id="-WT2j@lAS~fSf3bawK`Z" class="blocklyDraggable" transform="translate(0,30)"><path class="blocklyPathDark" transform="translate(1,1)" fill="#6655b8" d=" m 0,0  h 15  l 6,4  3,0  6,-4  h 139.27699279785156  v 5  H 169.27699279785156  V 5  H 169.27699279785156  V 25  H 169.27699279785156  V 25  V 29  h -139.77699279785156  l -6,4  -3,0  -6,-4  h -6.5 a 8 8 0 0,1 -8,-8 z&#10;"/><path class="blocklyPath" stroke="none" fill="#806ae6" d=" m 0,0  h 15  l 6,4  3,0  6,-4  h 139.27699279785156  v 5  H 169.27699279785156  V 5  H 169.27699279785156  V 25  H 169.27699279785156  V 25  V 29  h -139.77699279785156  l -6,4  -3,0  -6,-4  h -6.5 a 8 8 0 0,1 -8,-8 z&#10;"/><g transform="translate(10,5)"><text class="blocklyText" fill="#fff" style="font: normal 11pt sans-serif;" x="0" y="16">Rotary init</text></g><g class="blocklyEditableText" transform="translate(87.62704467773438,5)" style="cursor: default;"><rect rx="4" ry="4" x="0" y="0" height="20" width="76.64994812011719" class="blocklyFieldRect blocklyDropdownRect" fill="#fff" fill-opacity=".6" stroke="none"/><text class="blocklyFieldText blocklyDropdownText" fill="#000" style="font: normal 11pt sans-serif;" text-anchor="start" x="5" y="16">built-in<tspan style="fill: rgb(128, 106, 230);"> ▾</tspan></text><image style="display: none;"/></g></g><g transform="translate(10,5)"><text class="blocklyText" fill="#fff" style="font: normal 11pt sans-serif;" x="0" y="16">Init built-in hardware at beginning</text></g></g><g transform="translate(10,5)"><text class="blocklyText" fill="#fff" style="font: normal 11pt sans-serif;" x="0" y="16">Setup              </text></g><g transform="translate(10,35)"><text class="blocklyText" fill="#fff" style="font: normal 11pt sans-serif;" x="0" y="16">Begin initialization</text></g><g class="blocklyEditableText" transform="translate(144.29847717285156,35)"><rect rx="10" ry="10" x="0" y="0" height="20" class="blocklyFieldSwitchInner blocklyFieldSwitchChecked" fill-opacity=".9" width="63.978515625" fill="#8253f9"/><text class="blocklyFieldSwitchLabel" y="16" fill="#fff" style="font: 11pt sans-serif; display: none;" x="-63.978515625">False</text><circle cy="10" r="7" class="blocklyFieldSwitchHandle" fill="#fff" cx="10"/><text class="blocklyFieldSwitchLabel" y="16" fill="#fff" style="font: 11pt sans-serif; display: block;" x="24">True</text></g></g><g data-id="loop_block" class="blocklyDraggable" transform="translate(2, 265)"><path class="blocklyPathDark" transform="translate(1,1)" fill="#0cae6e" d=" m 0,0  m 0,8 a 8 8 0 0,1 8,-8  h 125.60762023925781  v 5  H 133.6076202392578  V 5  H 133.6076202392578  V 25  H 133.6076202392578  V 29  H 50  l -6,4  -3,0  -6,-4  h -7 a 8 8 0 0,0 -8,8  v 101 a 8 8 0 0,0 8,8  H 133.6076202392578  H 133.6076202392578  V 151  H 133.6076202392578  V 171  H 133.6076202392578  V 171  V 175  h -125.60762023925781 a 8 8 0 0,1 -8,-8 z&#10;"/><path class="blocklyPath" stroke="none" fill="#0fd989" d=" m 0,0  m 0,8 a 8 8 0 0,1 8,-8  h 125.60762023925781  v 5  H 133.6076202392578  V 5  H 133.6076202392578  V 25  H 133.6076202392578  V 29  H 50  l -6,4  -3,0  -6,-4  h -7 a 8 8 0 0,0 -8,8  v 101 a 8 8 0 0,0 8,8  H 133.6076202392578  H 133.6076202392578  V 151  H 133.6076202392578  V 171  H 133.6076202392578  V 171  V 175  h -125.60762023925781 a 8 8 0 0,1 -8,-8 z&#10;"/><g data-id="system_m5_update" style="display: block;" class="blocklyDraggable" transform="translate(21,30)"><path class="blocklyPathDark" transform="translate(1,1)" fill="#44a43d" d=" m 0,0  m 0,8 a 8 8 0 0,1 8,-8  h 7  l 6,4  3,0  6,-4  h 218.43235778808594  v 5  H 248.43235778808594  V 5  H 248.43235778808594  V 25  H 248.43235778808594  V 25  V 29  h -218.93235778808594  l -6,4  -3,0  -6,-4  h -14.5  H 0 z&#10;"/><path class="blocklyPath" stroke="none" fill="#55cd4c" d=" m 0,0  m 0,8 a 8 8 0 0,1 8,-8  h 7  l 6,4  3,0  6,-4  h 218.43235778808594  v 5  H 248.43235778808594  V 5  H 248.43235778808594  V 25  H 248.43235778808594  V 25  V 29  h -218.93235778808594  l -6,4  -3,0  -6,-4  h -14.5  H 0 z&#10;"/><g data-id="geTuLRa7GqcA[k~An@kt" class="blocklyDraggable" transform="translate(0,30)"><path class="blocklyPathDark" transform="translate(1,1)" fill="#2443a6" d=" m 0,0  h 15  l 6,4  3,0  6,-4  h 38.69721984863281  v 5  H 68.69721984863281  V 5  H 68.69721984863281  c 0,10  -8,-8  -8,7.5  s 8,-2.5  8,7.5  v 5  H 68.69721984863281  V 29  H 68.69721984863281  l -6,4  -3,0  -6,-4  h -7 a 8 8 0 0,0 -8,8  v 28 a 8 8 0 0,0 8,8  H 68.69721984863281  H 68.69721984863281  V 73  V 83  h -39.19721984863281  l -6,4  -3,0  -6,-4  h -6.5 a 8 8 0 0,1 -8,-8 z&#10;"/><path class="blocklyPath" stroke="none" fill="#2d54cf" d=" m 0,0  h 15  l 6,4  3,0  6,-4  h 38.69721984863281  v 5  H 68.69721984863281  V 5  H 68.69721984863281  c 0,10  -8,-8  -8,7.5  s 8,-2.5  8,7.5  v 5  H 68.69721984863281  V 29  H 68.69721984863281  l -6,4  -3,0  -6,-4  h -7 a 8 8 0 0,0 -8,8  v 28 a 8 8 0 0,0 8,8  H 68.69721984863281  H 68.69721984863281  V 73  V 83  h -39.19721984863281  l -6,4  -3,0  -6,-4  h -6.5 a 8 8 0 0,1 -8,-8 z&#10;"/><g class="blocklyIconGroup" display="block" transform="translate(10,5)"><rect class="blocklyIconShape" rx="4" ry="4" height="16" width="16" fill="#00f" stroke="#fff" stroke-width="1px"/><path class="blocklyIconSymbol" d="m4.203,7.296 0,1.368 -0.92,0.677 -0.11,0.41 0.9,1.559 0.41,0.11 1.043,-0.457 1.187,0.683 0.127,1.134 0.3,0.3 1.8,0 0.3,-0.299 0.127,-1.138 1.185,-0.682 1.046,0.458 0.409,-0.11 0.9,-1.559 -0.11,-0.41 -0.92,-0.677 0,-1.366 0.92,-0.677 0.11,-0.41 -0.9,-1.559 -0.409,-0.109 -1.046,0.458 -1.185,-0.682 -0.127,-1.138 -0.3,-0.299 -1.8,0 -0.3,0.3 -0.126,1.135 -1.187,0.682 -1.043,-0.457 -0.41,0.11 -0.899,1.559 0.108,0.409z" fill="#fff"/><circle class="blocklyIconShape" r="2.7" cx="8" cy="8" fill="#00f" stroke="#fff" stroke-width="1px"/></g><g data-id="c~(0Ucz{*L:J[gXo~m,#" class="blocklyDraggable" style="display: block;" transform="translate(61.69721984863281,0)"><path class="blocklyPathDark" transform="translate(1,1)" fill="#6655b8" d=" m 8,0  h 320.1645965576172  v 5  H 328.1645965576172  V 5  H 328.1645965576172  V 25  H 328.1645965576172  V 25  V 29  h -320.1645965576172  H 8  V 20  c 0,-10  -8,8  -8,-7.5  s 8,2.5  8,-7.5 z&#10;"/><path class="blocklyPath" stroke="none" fill="#806ae6" d=" m 8,0  h 320.1645965576172  v 5  H 328.1645965576172  V 5  H 328.1645965576172  V 25  H 328.1645965576172  V 25  V 29  h -320.1645965576172  H 8  V 20  c 0,-10  -8,8  -8,-7.5  s 8,2.5  8,-7.5 z&#10;"/><g class="blocklyEditableText" transform="translate(13,5)" style="cursor: default;"><rect rx="4" ry="4" x="0" y="0" height="20" width="68.85469055175781" class="blocklyFieldRect blocklyDropdownRect" fill="#fff" fill-opacity=".6" stroke="none"/><text class="blocklyFieldText blocklyDropdownText" fill="#000" style="font: normal 11pt sans-serif;" text-anchor="start" x="5" y="16">rotary<tspan style="fill: rgb(128, 106, 230);"> ▾</tspan></text><image style="display: none;"/></g><g transform="translate(86.85469055175781,5)"><text class="blocklyText" fill="#fff" style="font: normal 11pt sans-serif;" x="0" y="16">had rotated (return True or False)</text></g></g><g data-id="uF]P8rfFF]/2$/M7ysY%" style="display: block;" class="blocklyDraggable" transform="translate(39.69721984863281,30)"><path class="blocklyPathDark" transform="translate(1,1)" fill="#44a43d" d=" m 0,0  m 0,8 a 8 8 0 0,1 8,-8  h 7  l 6,4  3,0  6,-4  h 368.34356689453125  v 5  H 398.34356689453125  V 5  H 398.34356689453125  V 36  H 398.34356689453125  V 36  V 40  h -368.84356689453125  l -6,4  -3,0  -6,-4  h -6.5 a 8 8 0 0,1 -8,-8 z&#10; M 153.5590362548828,5  v 5  c 0,10  -8,-8  -8,7.5  s 8,-2.5  8,7.5  v 11  h 234.78453063964844  v -31 z"/><path class="blocklyPath" stroke="none" fill="#55cd4c" d=" m 0,0  m 0,8 a 8 8 0 0,1 8,-8  h 7  l 6,4  3,0  6,-4  h 368.34356689453125  v 5  H 398.34356689453125  V 5  H 398.34356689453125  V 36  H 398.34356689453125  V 36  V 40  h -368.84356689453125  l -6,4  -3,0  -6,-4  h -6.5 a 8 8 0 0,1 -8,-8 z&#10; M 153.5590362548828,5  v 5  c 0,10  -8,-8  -8,7.5  s 8,-2.5  8,7.5  v 11  h 234.78453063964844  v -31 z"/><g data-id="DS])IBgqS2}Qe{L}=11u" class="blocklyDraggable" style="display: block;" transform="translate(146.5590362548828,6)"><path class="blocklyPathDark" transform="translate(1,1)" fill="#6655b8" d=" m 8,0  h 232.78453063964844  v 5  H 240.78453063964844  V 5  H 240.78453063964844  V 25  H 240.78453063964844  V 25  V 29  h -232.78453063964844  H 8  V 20  c 0,-10  -8,8  -8,-7.5  s 8,2.5  8,-7.5 z&#10;"/><path class="blocklyPath" stroke="none" fill="#806ae6" d=" m 8,0  h 232.78453063964844  v 5  H 240.78453063964844  V 5  H 240.78453063964844  V 25  H 240.78453063964844  V 25  V 29  h -232.78453063964844  H 8  V 20  c 0,-10  -8,8  -8,-7.5  s 8,2.5  8,-7.5 z&#10;"/><g class="blocklyEditableText" transform="translate(13,5)" style="cursor: default;"><rect rx="4" ry="4" x="0" y="0" height="20" width="68.85469055175781" class="blocklyFieldRect blocklyDropdownRect" fill="#fff" fill-opacity=".6" stroke="none"/><text class="blocklyFieldText blocklyDropdownText" fill="#000" style="font: normal 11pt sans-serif;" text-anchor="start" x="5" y="16">rotary<tspan style="fill: rgb(128, 106, 230);"> ▾</tspan></text><image style="display: none;"/></g><g transform="translate(86.85469055175781,5)"><text class="blocklyText" fill="#fff" style="font: normal 11pt sans-serif;" x="0" y="16">get value (return int)</text></g></g><g transform="translate(10,10)"><text class="blocklyText" fill="#fff" style="font: normal 11pt sans-serif;" x="0" y="16">Set</text></g><g class="blocklyEditableText" transform="translate(37.240509033203125,10)" style="cursor: default;"><rect rx="4" ry="4" x="0" y="0" height="20" width="68.76878356933594" class="blocklyFieldRect blocklyDropdownRect" fill="#fff" fill-opacity=".6" stroke="none"/><text class="blocklyFieldText blocklyDropdownText" fill="#000" style="font: normal 11pt sans-serif;" text-anchor="start" x="5" y="16">label0<tspan style="fill: rgb(85, 205, 76);"> ▾</tspan></text><image style="display: none;"/></g><g transform="translate(111.00929260253906,10)"><text class="blocklyText" fill="#fff" style="font: normal 11pt sans-serif;" x="0" y="16">text</text></g></g><g transform="translate(37,5)"><text class="blocklyText" fill="#fff" style="font: normal 11pt sans-serif;" x="0" y="16">if</text></g><g transform="translate(10,34)"><text class="blocklyText" fill="#fff" style="font: normal 11pt sans-serif;" x="0" y="16">do</text></g></g><g transform="translate(10,5)"><text class="blocklyText" fill="#fff" style="font: normal 11pt sans-serif;" x="0" y="16">Update button,touch,etc. in loop</text></g></g><g transform="translate(10,5)"><text class="blocklyText" fill="#fff" style="font: normal 11pt sans-serif;" x="0" y="16">Loop                  </text></g><g class="blocklyEditableText" transform="translate(43.16166687011719,151)"><rect rx="10" ry="10" x="0" y="0" height="20" class="blocklyFieldSwitchInner blocklyFieldSwitchChecked" fill-opacity=".9" width="85.44595336914062" fill="#8253f9"/><text class="blocklyFieldSwitchLabel" y="16" fill="#fff" style="font: 11pt sans-serif; display: none;" x="-85.44595336914062">No Update</text><circle cy="10" r="7" class="blocklyFieldSwitchHandle" fill="#fff" cx="10"/><text class="blocklyFieldSwitchLabel" y="16" fill="#fff" style="font: 11pt sans-serif; display: block;" x="24">Update</text></g></g></svg>