<svg xmlns="http://www.w3.org/2000/svg" width="396.25775146484375" height="432">
  <g data-id="setup_block" class="blocklyDraggable" transform="translate(2, 2)">
    <path class="blocklyPathDark" transform="translate(1,1)" fill="#cca038"
      d=" m 0,0  m 0,8 a 8 8 0 0,1 8,-8  h 205.27699279785156  v 5  H 213.27699279785156  V 5  H 213.27699279785156  V 25  H 213.27699279785156  V 35  H 213.27699279785156  V 55  H 213.27699279785156  V 59  H 50  l -6,4  -3,0  -6,-4  h -7 a 8 8 0 0,0 -8,8  v 238 a 8 8 0 0,0 8,8  H 213.27699279785156  H 213.27699279785156  V 313  V 323  h -205.27699279785156 a 8 8 0 0,1 -8,-8 z&#10;" />
    <path class="blocklyPath" stroke="none" fill="#ffc846"
      d=" m 0,0  m 0,8 a 8 8 0 0,1 8,-8  h 205.27699279785156  v 5  H 213.27699279785156  V 5  H 213.27699279785156  V 25  H 213.27699279785156  V 35  H 213.27699279785156  V 55  H 213.27699279785156  V 59  H 50  l -6,4  -3,0  -6,-4  h -7 a 8 8 0 0,0 -8,8  v 238 a 8 8 0 0,0 8,8  H 213.27699279785156  H 213.27699279785156  V 313  V 323  h -205.27699279785156 a 8 8 0 0,1 -8,-8 z&#10;" />
    <g transform="translate(10,5)"><text class="blocklyText" fill="#fff" style="font: normal 11pt sans-serif;" x="0"
        y="16">Setup              </text></g>
    <g transform="translate(10,35)"><text class="blocklyText" fill="#fff" style="font: normal 11pt sans-serif;" x="0"
        y="16">Begin initialization</text></g>
    <g class="blocklyEditableText" transform="translate(144.29847717285156,35)">
      <rect rx="10" ry="10" x="0" y="0" height="20" class="blocklyFieldSwitchInner blocklyFieldSwitchChecked"
        fill-opacity=".9" width="63.978515625" fill="#8253f9" /><text class="blocklyFieldSwitchLabel" y="16" fill="#fff"
        style="font: 11pt sans-serif; display: none;" x="-63.978515625">False</text>
      <circle cy="10" r="7" class="blocklyFieldSwitchHandle" fill="#fff" cx="10" /><text class="blocklyFieldSwitchLabel"
        y="16" fill="#fff" style="font: 11pt sans-serif; display: block;" x="24">True</text>
    </g>
    <g data-id="system_m5_begin" class="blocklyDraggable" style="display: block;" transform="translate(21,60)">
      <path class="blocklyPathDark" transform="translate(1,1)" fill="#59aa53"
        d=" m 0,0  m 0,8 a 8 8 0 0,1 8,-8  h 7  l 6,4  3,0  6,-4  h 230.30776977539062  v 5  H 260.3077697753906  V 5  H 260.3077697753906  V 25  H 260.3077697753906  V 25  V 29  h -230.80776977539062  l -6,4  -3,0  -6,-4  h -14.5  H 0 z&#10;" />
      <path class="blocklyPath" stroke="none" fill="#6fd568"
        d=" m 0,0  m 0,8 a 8 8 0 0,1 8,-8  h 7  l 6,4  3,0  6,-4  h 230.30776977539062  v 5  H 260.3077697753906  V 5  H 260.3077697753906  V 25  H 260.3077697753906  V 25  V 29  h -230.80776977539062  l -6,4  -3,0  -6,-4  h -14.5  H 0 z&#10;" />
      <g transform="translate(10,5)"><text class="blocklyText" fill="#fff" style="font: normal 11pt sans-serif;" x="0"
          y="16">Init built-in hardware at beginning</text></g>
      <g data-id="8ci^jTWD5Y|20yDRrhRM" class="blocklyDraggable" transform="translate(0,30)" style="display: block;">
        <path class="blocklyPathDark" transform="translate(1,1)" fill="#2443a6"
          d=" m 0,0  h 15  l 6,4  3,0  6,-4  h 336.2577667236328  v 5  H 366.2577667236328  V 5  H 366.2577667236328  V 36  H 366.2577667236328  V 36  V 40  h -336.7577667236328  l -6,4  -3,0  -6,-4  h -14.5  H 0 z&#10; M 139.5290069580078,5  v 5  c 0,10  -8,-8  -8,7.5  s 8,-2.5  8,7.5  v 11  h 30.597000122070312  v -31 z M 225.81105041503906,5  v 5  c 0,10  -8,-8  -8,7.5  s 8,-2.5  8,7.5  v 11  h 30.597000122070312  v -31 z" />
        <path class="blocklyPath" stroke="none" fill="#2d54cf"
          d=" m 0,0  h 15  l 6,4  3,0  6,-4  h 336.2577667236328  v 5  H 366.2577667236328  V 5  H 366.2577667236328  V 36  H 366.2577667236328  V 36  V 40  h -336.7577667236328  l -6,4  -3,0  -6,-4  h -14.5  H 0 z&#10; M 139.5290069580078,5  v 5  c 0,10  -8,-8  -8,7.5  s 8,-2.5  8,7.5  v 11  h 30.597000122070312  v -31 z M 225.81105041503906,5  v 5  c 0,10  -8,-8  -8,7.5  s 8,-2.5  8,7.5  v 11  h 30.597000122070312  v -31 z" />
        <g transform="translate(10,10)"><text class="blocklyText" fill="#fff" style="font: normal 11pt sans-serif;"
            x="0" y="16">Init</text></g>
        <g class="blocklyEditableText" transform="translate(37.70579528808594,10)" style="cursor: default;">
          <rect rx="4" ry="4" x="0" y="0" height="20" width="55.0322265625" class="blocklyFieldRect blocklyDropdownRect"
            fill="#fff" fill-opacity=".6" stroke="none" /><text class="blocklyFieldText blocklyDropdownText" fill="#000"
            style="font: normal 11pt sans-serif;" text-anchor="start" x="5" y="16">i2c0<tspan
              style="fill: rgb(45, 84, 207);"> ▾</tspan></text>
          <image style="display: none;" />
        </g>
        <g transform="translate(97.73802185058594,10)"><text class="blocklyText" fill="#fff"
            style="font: normal 11pt sans-serif;" x="0" y="16">SCL</text></g>
        <g transform="translate(180.12600708007812,10)"><text class="blocklyText" fill="#fff"
            style="font: normal 11pt sans-serif;" x="0" y="16">SDA</text></g>
        <g transform="translate(266.4080505371094,10)"><text class="blocklyText" fill="#fff"
            style="font: normal 11pt sans-serif;" x="0" y="16">freq</text></g>
        <g class="blocklyEditableText" transform="translate(299.5755615234375,10)" style="cursor: default;">
          <rect rx="4" ry="4" x="0" y="0" height="20" width="61.68220520019531"
            class="blocklyFieldRect blocklyDropdownRect" fill="#fff" fill-opacity=".6" stroke="none" /><text
            class="blocklyFieldText blocklyDropdownText" fill="#000" style="font: normal 11pt sans-serif;"
            text-anchor="start" x="5" y="16">100K<tspan style="fill: rgb(45, 84, 207);"> ▾</tspan></text>
          <image style="display: none;" />
        </g>
        <g data-id="DJc/[G!y,3I~$?x{gJ;k" style="display: block;" transform="translate(132.5290069580078,6)" class="">
          <path class="blocklyPathDark" transform="translate(1,1)" fill="#9acef9"
            d=" m 8,0  h 28.597000122070312  v 5  H 36.59700012207031  V 5  H 36.59700012207031  V 25  H 36.59700012207031  V 25  V 29  h -28.597000122070312  H 8  V 20  c 0,-10  -8,8  -8,-7.5  s 8,2.5  8,-7.5 z&#10;" />
          <path class="blocklyPath" stroke="none" fill="#9acef9"
            d=" m 8,0  h 28.597000122070312  v 5  H 36.59700012207031  V 5  H 36.59700012207031  V 25  H 36.59700012207031  V 25  V 29  h -28.597000122070312  H 8  V 20  c 0,-10  -8,8  -8,-7.5  s 8,2.5  8,-7.5 z&#10;" />
          <g class="blocklyEditableText" transform="translate(13,5)" style="cursor: text;">
            <rect rx="4" ry="4" x="0" y="0" height="20" width="18.597000122070312" class="blocklyFieldRect" fill="#fff"
              fill-opacity=".6" stroke="none" /><text class="blocklyFieldText" fill="#000"
              style="font: normal 11pt sans-serif;" x="5" y="16">1</text>
          </g>
        </g>
        <g data-id=";Zs8m7#-jPIxxz_5ZTWY" style="display: block;" transform="translate(218.81105041503906,6)" class="">
          <path class="blocklyPathDark" transform="translate(1,1)" fill="#9acef9"
            d=" m 8,0  h 28.597000122070312  v 5  H 36.59700012207031  V 5  H 36.59700012207031  V 25  H 36.59700012207031  V 25  V 29  h -28.597000122070312  H 8  V 20  c 0,-10  -8,8  -8,-7.5  s 8,2.5  8,-7.5 z&#10;" />
          <path class="blocklyPath" stroke="none" fill="#9acef9"
            d=" m 8,0  h 28.597000122070312  v 5  H 36.59700012207031  V 5  H 36.59700012207031  V 25  H 36.59700012207031  V 25  V 29  h -28.597000122070312  H 8  V 20  c 0,-10  -8,8  -8,-7.5  s 8,2.5  8,-7.5 z&#10;" />
          <g class="blocklyEditableText" transform="translate(13,5)" style="cursor: text;">
            <rect rx="4" ry="4" x="0" y="0" height="20" width="18.597000122070312" class="blocklyFieldRect" fill="#fff"
              fill-opacity=".6" stroke="none" /><text class="blocklyFieldText" fill="#000"
              style="font: normal 11pt sans-serif;" x="5" y="16">2</text>
          </g>
        </g>
        <g data-id="/[7MFA!V,9x4?B-~|}kJ" class="blocklyDraggable" transform="translate(0,41)" style="display: block;">
          <path class="blocklyPathDark" transform="translate(1,1)" fill="#c34443"
            d=" m 0,0  h 15  l 6,4  3,0  6,-4  h 79.506103515625  v 5  H 109.506103515625  V 5  H 109.506103515625  V 25  H 109.506103515625  V 25  V 29  h -80.006103515625  l -6,4  -3,0  -6,-4  h -14.5  H 0 z&#10;" />
          <path class="blocklyPath" stroke="none" fill="#f45554"
            d=" m 0,0  h 15  l 6,4  3,0  6,-4  h 79.506103515625  v 5  H 109.506103515625  V 5  H 109.506103515625  V 25  H 109.506103515625  V 25  V 29  h -80.006103515625  l -6,4  -3,0  -6,-4  h -14.5  H 0 z&#10;" />
          <g transform="translate(10,5)"><text class="blocklyText" fill="#fff" style="font: normal 11pt sans-serif;"
              x="0" y="16">Init</text></g>
          <g class="blocklyEditableText" transform="translate(37.70579528808594,5)" style="cursor: default;">
            <rect rx="4" ry="4" x="0" y="0" height="20" width="66.80030822753906"
              class="blocklyFieldRect blocklyDropdownRect" fill="#fff" fill-opacity=".6" stroke="none" /><text
              class="blocklyFieldText blocklyDropdownText" fill="#000" style="font: normal 11pt sans-serif;"
              text-anchor="start" x="5" y="16">env_0<tspan style="fill: rgb(244, 85, 84);"> ▾</tspan></text>
            <image style="display: none;" />
          </g>
          <g data-id="jHnEl~ktyAasxR+pb@iM" class="blocklyDraggable" transform="translate(0,30)"
            style="display: block;">
            <path class="blocklyPathDark" transform="translate(1,1)" fill="#c34443"
              d=" m 0,0  h 15  l 6,4  3,0  6,-4  h 88.10310363769531  v 5  H 118.10310363769531  V 5  H 118.10310363769531  V 25  H 118.10310363769531  V 25  V 29  h -88.60310363769531  l -6,4  -3,0  -6,-4  h -14.5  H 0 z&#10;" />
            <path class="blocklyPath" stroke="none" fill="#f45554"
              d=" m 0,0  h 15  l 6,4  3,0  6,-4  h 88.10310363769531  v 5  H 118.10310363769531  V 5  H 118.10310363769531  V 25  H 118.10310363769531  V 25  V 29  h -88.60310363769531  l -6,4  -3,0  -6,-4  h -14.5  H 0 z&#10;" />
            <g transform="translate(10,5)"><text class="blocklyText" fill="#fff" style="font: normal 11pt sans-serif;"
                x="0" y="16">Init</text></g>
            <g class="blocklyEditableText" transform="translate(37.70579528808594,5)" style="cursor: default;">
              <rect rx="4" ry="4" x="0" y="0" height="20" width="75.39730834960938"
                class="blocklyFieldRect blocklyDropdownRect" fill="#fff" fill-opacity=".6" stroke="none" /><text
                class="blocklyFieldText blocklyDropdownText" fill="#000" style="font: normal 11pt sans-serif;"
                text-anchor="start" x="5" y="16">env2_0<tspan style="fill: rgb(244, 85, 84);"> ▾</tspan></text>
              <image style="display: none;" />
            </g>
            <g data-id="T~so$ttpdHw+1iWwwdxI" class="blocklyDraggable" style="display: block;"
              transform="translate(0,30)">
              <path class="blocklyPathDark" transform="translate(1,1)" fill="#c34443"
                d=" m 0,0  h 15  l 6,4  3,0  6,-4  h 88.10310363769531  v 5  H 118.10310363769531  V 5  H 118.10310363769531  V 25  H 118.10310363769531  V 25  V 29  h -88.60310363769531  l -6,4  -3,0  -6,-4  h -14.5  H 0 z&#10;" />
              <path class="blocklyPath" stroke="none" fill="#f45554"
                d=" m 0,0  h 15  l 6,4  3,0  6,-4  h 88.10310363769531  v 5  H 118.10310363769531  V 5  H 118.10310363769531  V 25  H 118.10310363769531  V 25  V 29  h -88.60310363769531  l -6,4  -3,0  -6,-4  h -14.5  H 0 z&#10;" />
              <g transform="translate(10,5)"><text class="blocklyText" fill="#fff" style="font: normal 11pt sans-serif;"
                  x="0" y="16">Init</text></g>
              <g class="blocklyEditableText" transform="translate(37.70579528808594,5)" style="cursor: default;">
                <rect rx="4" ry="4" x="0" y="0" height="20" width="75.39730834960938"
                  class="blocklyFieldRect blocklyDropdownRect" fill="#fff" fill-opacity=".6" stroke="none" /><text
                  class="blocklyFieldText blocklyDropdownText" fill="#000" style="font: normal 11pt sans-serif;"
                  text-anchor="start" x="5" y="16">env3_0<tspan style="fill: rgb(244, 85, 84);"> ▾</tspan></text>
                <image style="display: none;" />
              </g>
              <g data-id=".R?PtZhgzj][m+`30i[(" class="blocklyDraggable" transform="translate(0,30)"
                style="display: block;">
                <path class="blocklyPathDark" transform="translate(1,1)" fill="#cc851f"
                  d=" m 0,0  h 15  l 6,4  3,0  6,-4  h 31.357177734375  v 5  H 61.357177734375  V 5  H 61.357177734375  c 0,10  -8,-8  -8,7.5  s 8,-2.5  8,7.5  v 5  H 61.357177734375  V 25  V 29  h -31.857177734375  l -6,4  -3,0  -6,-4  h -14.5  H 0 z&#10;" />
                <path class="blocklyPath" stroke="none" fill="#ffa627"
                  d=" m 0,0  h 15  l 6,4  3,0  6,-4  h 31.357177734375  v 5  H 61.357177734375  V 5  H 61.357177734375  c 0,10  -8,-8  -8,7.5  s 8,-2.5  8,7.5  v 5  H 61.357177734375  V 25  V 29  h -31.857177734375  l -6,4  -3,0  -6,-4  h -14.5  H 0 z&#10;" />
                <g transform="translate(10,5)"><text class="blocklyText" fill="#fff"
                    style="font: normal 11pt sans-serif;" x="0" y="16">print</text></g>
                <g data-id=":KetNLS?HL7P3x8/u%cP" class="blocklyDraggable" transform="translate(0,30)"
                  style="display: block;">
                  <path class="blocklyPathDark" transform="translate(1,1)" fill="#cc851f"
                    d=" m 0,0  h 15  l 6,4  3,0  6,-4  h 31.357177734375  v 5  H 61.357177734375  V 5  H 61.357177734375  c 0,10  -8,-8  -8,7.5  s 8,-2.5  8,7.5  v 5  H 61.357177734375  V 25  V 29  h -31.857177734375  l -6,4  -3,0  -6,-4  h -14.5  H 0 z&#10;" />
                  <path class="blocklyPath" stroke="none" fill="#ffa627"
                    d=" m 0,0  h 15  l 6,4  3,0  6,-4  h 31.357177734375  v 5  H 61.357177734375  V 5  H 61.357177734375  c 0,10  -8,-8  -8,7.5  s 8,-2.5  8,7.5  v 5  H 61.357177734375  V 25  V 29  h -31.857177734375  l -6,4  -3,0  -6,-4  h -14.5  H 0 z&#10;" />
                  <g transform="translate(10,5)"><text class="blocklyText" fill="#fff"
                      style="font: normal 11pt sans-serif;" x="0" y="16">print</text></g>
                  <g data-id="i0`@J%lc$v~TCH}$tTi+" class="blocklyDraggable" transform="translate(0,30)"
                    style="display: block;">
                    <path class="blocklyPathDark" transform="translate(1,1)" fill="#cc851f"
                      d=" m 0,0  h 15  l 6,4  3,0  6,-4  h 31.357177734375  v 5  H 61.357177734375  V 5  H 61.357177734375  c 0,10  -8,-8  -8,7.5  s 8,-2.5  8,7.5  v 5  H 61.357177734375  V 25  V 29  h -31.857177734375  l -6,4  -3,0  -6,-4  h -6.5 a 8 8 0 0,1 -8,-8 z&#10;" />
                    <path class="blocklyPath" stroke="none" fill="#ffa627"
                      d=" m 0,0  h 15  l 6,4  3,0  6,-4  h 31.357177734375  v 5  H 61.357177734375  V 5  H 61.357177734375  c 0,10  -8,-8  -8,7.5  s 8,-2.5  8,7.5  v 5  H 61.357177734375  V 25  V 29  h -31.857177734375  l -6,4  -3,0  -6,-4  h -6.5 a 8 8 0 0,1 -8,-8 z&#10;" />
                    <g transform="translate(10,5)"><text class="blocklyText" fill="#fff"
                        style="font: normal 11pt sans-serif;" x="0" y="16">print</text></g>
                    <g data-id="F;zJB^y[X-/lV=SnU0ne" class="blocklyDraggable" style="display: block;"
                      transform="translate(54.357177734375,0)">
                      <path class="blocklyPathDark" transform="translate(1,1)" fill="#c34443"
                        d=" m 8,0  h 179.34146118164062  v 5  H 187.34146118164062  V 5  H 187.34146118164062  V 25  H 187.34146118164062  V 25  V 29  h -179.34146118164062  H 8  V 20  c 0,-10  -8,8  -8,-7.5  s 8,2.5  8,-7.5 z&#10;" />
                      <path class="blocklyPath" stroke="none" fill="#f45554"
                        d=" m 8,0  h 179.34146118164062  v 5  H 187.34146118164062  V 5  H 187.34146118164062  V 25  H 187.34146118164062  V 25  V 29  h -179.34146118164062  H 8  V 20  c 0,-10  -8,8  -8,-7.5  s 8,2.5  8,-7.5 z&#10;" />
                      <g transform="translate(18,5)"><text class="blocklyText" fill="#fff"
                          style="font: normal 11pt sans-serif;" x="0" y="16">get</text></g>
                      <g class="blocklyEditableText" transform="translate(46.156768798828125,5)"
                        style="cursor: default;">
                        <rect rx="4" ry="4" x="0" y="0" height="20" width="66.80030822753906"
                          class="blocklyFieldRect blocklyDropdownRect" fill="#fff" fill-opacity=".6" stroke="none" />
                        <text class="blocklyFieldText blocklyDropdownText" fill="#000"
                          style="font: normal 11pt sans-serif;" text-anchor="start" x="5" y="16">env_0<tspan
                            style="fill: rgb(244, 85, 84);"> ▾</tspan></text>
                        <image style="display: none;" />
                      </g>
                      <g transform="translate(117.95707702636719,5)"><text class="blocklyText" fill="#fff"
                          style="font: normal 11pt sans-serif;" x="0" y="16">pressure</text></g>
                    </g>
                  </g>
                  <g data-id="*Yf!0o]a_zx]nPuC6%R+" class="blocklyDraggable" transform="translate(54.357177734375,0)"
                    style="display: block;">
                    <path class="blocklyPathDark" transform="translate(1,1)" fill="#c34443"
                      d=" m 8,0  h 182.1546630859375  v 5  H 190.1546630859375  V 5  H 190.1546630859375  V 25  H 190.1546630859375  V 25  V 29  h -182.1546630859375  H 8  V 20  c 0,-10  -8,8  -8,-7.5  s 8,2.5  8,-7.5 z&#10;" />
                    <path class="blocklyPath" stroke="none" fill="#f45554"
                      d=" m 8,0  h 182.1546630859375  v 5  H 190.1546630859375  V 5  H 190.1546630859375  V 25  H 190.1546630859375  V 25  V 29  h -182.1546630859375  H 8  V 20  c 0,-10  -8,8  -8,-7.5  s 8,2.5  8,-7.5 z&#10;" />
                    <g transform="translate(18,5)"><text class="blocklyText" fill="#fff"
                        style="font: normal 11pt sans-serif;" x="0" y="16">get</text></g>
                    <g class="blocklyEditableText" transform="translate(46.156768798828125,5)" style="cursor: default;">
                      <rect rx="4" ry="4" x="0" y="0" height="20" width="66.80030822753906"
                        class="blocklyFieldRect blocklyDropdownRect" fill="#fff" fill-opacity=".6" stroke="none" /><text
                        class="blocklyFieldText blocklyDropdownText" fill="#000" style="font: normal 11pt sans-serif;"
                        text-anchor="start" x="5" y="16">env_0<tspan style="fill: rgb(244, 85, 84);"> ▾</tspan></text>
                      <image style="display: none;" />
                    </g>
                    <g transform="translate(117.95707702636719,5)"><text class="blocklyText" fill="#fff"
                        style="font: normal 11pt sans-serif;" x="0" y="16">humidity</text></g>
                  </g>
                </g>
                <g data-id="x|_bLy-C:V8ybyhk?Ws5" class="blocklyDraggable" transform="translate(54.357177734375,0)"
                  style="display: block;">
                  <path class="blocklyPathDark" transform="translate(1,1)" fill="#c34443"
                    d=" m 8,0  h 206.93630981445312  v 5  H 214.93630981445312  V 5  H 214.93630981445312  V 25  H 214.93630981445312  V 25  V 29  h -206.93630981445312  H 8  V 20  c 0,-10  -8,8  -8,-7.5  s 8,2.5  8,-7.5 z&#10;" />
                  <path class="blocklyPath" stroke="none" fill="#f45554"
                    d=" m 8,0  h 206.93630981445312  v 5  H 214.93630981445312  V 5  H 214.93630981445312  V 25  H 214.93630981445312  V 25  V 29  h -206.93630981445312  H 8  V 20  c 0,-10  -8,8  -8,-7.5  s 8,2.5  8,-7.5 z&#10;" />
                  <g transform="translate(18,5)"><text class="blocklyText" fill="#fff"
                      style="font: normal 11pt sans-serif;" x="0" y="16">get</text></g>
                  <g class="blocklyEditableText" transform="translate(46.156768798828125,5)" style="cursor: default;">
                    <rect rx="4" ry="4" x="0" y="0" height="20" width="66.80030822753906"
                      class="blocklyFieldRect blocklyDropdownRect" fill="#fff" fill-opacity=".6" stroke="none" /><text
                      class="blocklyFieldText blocklyDropdownText" fill="#000" style="font: normal 11pt sans-serif;"
                      text-anchor="start" x="5" y="16">env_0<tspan style="fill: rgb(244, 85, 84);"> ▾</tspan></text>
                    <image style="display: none;" />
                  </g>
                  <g transform="translate(117.95707702636719,5)"><text class="blocklyText" fill="#fff"
                      style="font: normal 11pt sans-serif;" x="0" y="16">temperature</text></g>
                </g>
              </g>
            </g>
          </g>
        </g>
      </g>
    </g>
  </g>
  <g data-id="loop_block" class="blocklyDraggable" transform="translate(2, 334)">
    <path class="blocklyPathDark" transform="translate(1,1)" fill="#0cae6e"
      d=" m 0,0  m 0,8 a 8 8 0 0,1 8,-8  h 125.60762023925781  v 5  H 133.6076202392578  V 5  H 133.6076202392578  V 25  H 133.6076202392578  V 29  H 50  l -6,4  -3,0  -6,-4  h -7 a 8 8 0 0,0 -8,8  v 17 a 8 8 0 0,0 8,8  H 133.6076202392578  H 133.6076202392578  V 67  H 133.6076202392578  V 87  H 133.6076202392578  V 87  V 91  h -125.60762023925781 a 8 8 0 0,1 -8,-8 z&#10;" />
    <path class="blocklyPath" stroke="none" fill="#0fd989"
      d=" m 0,0  m 0,8 a 8 8 0 0,1 8,-8  h 125.60762023925781  v 5  H 133.6076202392578  V 5  H 133.6076202392578  V 25  H 133.6076202392578  V 29  H 50  l -6,4  -3,0  -6,-4  h -7 a 8 8 0 0,0 -8,8  v 17 a 8 8 0 0,0 8,8  H 133.6076202392578  H 133.6076202392578  V 67  H 133.6076202392578  V 87  H 133.6076202392578  V 87  V 91  h -125.60762023925781 a 8 8 0 0,1 -8,-8 z&#10;" />
    <g transform="translate(10,5)"><text class="blocklyText" fill="#fff" style="font: normal 11pt sans-serif;" x="0"
        y="16">Loop                  </text></g>
    <g class="blocklyEditableText" transform="translate(43.16166687011719,67)">
      <rect rx="10" ry="10" x="0" y="0" height="20" class="blocklyFieldSwitchInner blocklyFieldSwitchChecked"
        fill-opacity=".9" width="85.44595336914062" fill="#8253f9" /><text class="blocklyFieldSwitchLabel" y="16"
        fill="#fff" style="font: 11pt sans-serif; display: none;" x="-85.44595336914062">No Update</text>
      <circle cy="10" r="7" class="blocklyFieldSwitchHandle" fill="#fff" cx="10" /><text class="blocklyFieldSwitchLabel"
        y="16" fill="#fff" style="font: 11pt sans-serif; display: block;" x="24">Update</text>
    </g>
    <g data-id="system_m5_update" class="blocklyDraggable" transform="translate(21,30)" style="display: block;">
      <path class="blocklyPathDark" transform="translate(1,1)" fill="#59aa53"
        d=" m 0,0  m 0,8 a 8 8 0 0,1 8,-8  h 7  l 6,4  3,0  6,-4  h 218.43235778808594  v 5  H 248.43235778808594  V 5  H 248.43235778808594  V 25  H 248.43235778808594  V 25  V 29  h -218.93235778808594  l -6,4  -3,0  -6,-4  h -6.5 a 8 8 0 0,1 -8,-8 z&#10;" />
      <path class="blocklyPath" stroke="none" fill="#6fd568"
        d=" m 0,0  m 0,8 a 8 8 0 0,1 8,-8  h 7  l 6,4  3,0  6,-4  h 218.43235778808594  v 5  H 248.43235778808594  V 5  H 248.43235778808594  V 25  H 248.43235778808594  V 25  V 29  h -218.93235778808594  l -6,4  -3,0  -6,-4  h -6.5 a 8 8 0 0,1 -8,-8 z&#10;" />
      <g transform="translate(10,5)"><text class="blocklyText" fill="#fff" style="font: normal 11pt sans-serif;" x="0"
          y="16">Update button,touch,etc. in loop</text></g>
    </g>
  </g>
</svg>