<svg xmlns="http://www.w3.org/2000/svg" width="332.2684326171875" height="38"><g data-id="vQ`A#Ms8+]rKU;?yUvO_" class="blocklyDraggable" transform="translate(2,2)"><path class="blocklyPathDark" transform="translate(1,1)" fill="#6655b8" d=" m 8,0  h 315.26844787597656  v 5  H 323.26844787597656  V 5  H 323.26844787597656  V 25  H 323.26844787597656  V 25  V 29  h -315.26844787597656  H 8  V 20  c 0,-10  -8,8  -8,-7.5  s 8,2.5  8,-7.5 z&#10;"/><path class="blocklyPath" stroke="none" fill="#806ae6" d=" m 8,0  h 315.26844787597656  v 5  H 323.26844787597656  V 5  H 323.26844787597656  V 25  H 323.26844787597656  V 25  V 29  h -315.26844787597656  H 8  V 20  c 0,-10  -8,8  -8,-7.5  s 8,2.5  8,-7.5 z&#10;"/><g transform="translate(18,5)"><text class="blocklyText" fill="#fff" style="font: normal 11pt sans-serif;" x="0" y="16">get</text></g><g class="blocklyEditableText" transform="translate(46.156768798828125,5)" style="cursor: default;"><rect rx="4" ry="4" x="0" y="0" height="20" width="99.0694580078125" class="blocklyFieldRect blocklyDropdownRect" fill="#fff" fill-opacity=".6" stroke="none"/><text class="blocklyFieldText blocklyDropdownText" fill="#000" style="font: normal 11pt sans-serif;" text-anchor="start" x="5" y="16">encoder_0<tspan style="fill: rgb(128, 106, 230);"> ▾</tspan></text><image style="display: none;"/></g><g transform="translate(150.22622680664062,5)"><text class="blocklyText" fill="#fff" style="font: normal 11pt sans-serif;" x="0" y="16">rotary value (return int)</text></g></g></svg>