<svg xmlns="http://www.w3.org/2000/svg" width="416.54193115234375" height="53"><g data-id="BHB=yJg]uN6]V5dAoz~#" class="blocklyDraggable" transform="translate(2,2)"><path class="blocklyPathDark" transform="translate(1,1)" fill="#6655b8" d=" m 0,0  m 0,8 a 8 8 0 0,1 8,-8  h 7  l 6,4  3,0  6,-4  h 377.5419464111328  v 5  H 407.5419464111328  V 5  H 407.5419464111328  V 36  H 407.5419464111328  V 36  V 40  h -378.0419464111328  l -6,4  -3,0  -6,-4  h -6.5 a 8 8 0 0,1 -8,-8 z&#10; M 238.96351623535156,5  v 5  c 0,10  -8,-8  -8,7.5  s 8,-2.5  8,7.5  v 11  h 55.22120666503906  v -31 z"/><path class="blocklyPath" stroke="none" fill="#806ae6" d=" m 0,0  m 0,8 a 8 8 0 0,1 8,-8  h 7  l 6,4  3,0  6,-4  h 377.5419464111328  v 5  H 407.5419464111328  V 5  H 407.5419464111328  V 36  H 407.5419464111328  V 36  V 40  h -378.0419464111328  l -6,4  -3,0  -6,-4  h -6.5 a 8 8 0 0,1 -8,-8 z&#10; M 238.96351623535156,5  v 5  c 0,10  -8,-8  -8,7.5  s 8,-2.5  8,7.5  v 11  h 55.22120666503906  v -31 z"/><g data-id="{,v5y^Al;{},RYLy9jii" style="display: block;" transform="translate(231.96351623535156,6)"><path class="blocklyPathDark" transform="translate(1,1)" fill="#9acef9" d=" m 8,0  h 53.22120666503906  v 5  H 61.22120666503906  V 5  H 61.22120666503906  V 25  H 61.22120666503906  V 25  V 29  h -53.22120666503906  H 8  V 20  c 0,-10  -8,8  -8,-7.5  s 8,2.5  8,-7.5 z&#10;"/><path class="blocklyPath" stroke="none" fill="#9acef9" d=" m 8,0  h 53.22120666503906  v 5  H 61.22120666503906  V 5  H 61.22120666503906  V 25  H 61.22120666503906  V 25  V 29  h -53.22120666503906  H 8  V 20  c 0,-10  -8,8  -8,-7.5  s 8,2.5  8,-7.5 z&#10;"/><g class="blocklyEditableText" transform="translate(13,5)" style="cursor: text;"><rect rx="4" ry="4" x="0" y="0" height="20" width="43.22120666503906" class="blocklyFieldRect" fill="#fff" fill-opacity=".6" stroke="none"/><text class="blocklyFieldText" fill="#000" style="font: normal 11pt sans-serif;" x="5" y="16">0x40</text></g></g><g transform="translate(10,10)"><text class="blocklyText" fill="#fff" style="font: normal 11pt sans-serif;" x="0" y="16">Init</text></g><g class="blocklyEditableText" transform="translate(37.70579528808594,10)" style="cursor: default;"><rect rx="4" ry="4" x="0" y="0" height="20" width="99.0694580078125" class="blocklyFieldRect blocklyDropdownRect" fill="#fff" fill-opacity=".6" stroke="none"/><text class="blocklyFieldText blocklyDropdownText" fill="#000" style="font: normal 11pt sans-serif;" text-anchor="start" x="5" y="16">encoder_0<tspan style="fill: rgb(128, 106, 230);"> ▾</tspan></text><image style="display: none;"/></g><g transform="translate(141.77525329589844,10)"><text class="blocklyText" fill="#fff" style="font: normal 11pt sans-serif;" x="0" y="16">I2C address</text></g><g transform="translate(304.1847229003906,10)"><text class="blocklyText" fill="#fff" style="font: normal 11pt sans-serif;" x="0" y="16">(0x01 ~ 0x7f)</text></g></g></svg>