<svg xmlns="http://www.w3.org/2000/svg" width="203.44525146484375" height="42"><g data-id="bwo2NH?`#wi(ws0t`%/F" class="blocklyDraggable" transform="translate(2,2)"><path class="blocklyPathDark" transform="translate(1,1)" fill="#6655b8" d=" m 0,0  m 0,8 a 8 8 0 0,1 8,-8  h 7  l 6,4  3,0  6,-4  h 164.44525146484375  v 5  H 194.44525146484375  V 5  H 194.44525146484375  V 25  H 194.44525146484375  V 25  V 29  h -164.94525146484375  l -6,4  -3,0  -6,-4  h -6.5 a 8 8 0 0,1 -8,-8 z&#10;"/><path class="blocklyPath" stroke="none" fill="#806ae6" d=" m 0,0  m 0,8 a 8 8 0 0,1 8,-8  h 7  l 6,4  3,0  6,-4  h 164.44525146484375  v 5  H 194.44525146484375  V 5  H 194.44525146484375  V 25  H 194.44525146484375  V 25  V 29  h -164.94525146484375  l -6,4  -3,0  -6,-4  h -6.5 a 8 8 0 0,1 -8,-8 z&#10;"/><g class="blocklyEditableText" transform="translate(5,5)" style="cursor: default;"><rect rx="4" ry="4" x="0" y="0" height="20" width="99.0694580078125" class="blocklyFieldRect blocklyDropdownRect" fill="#fff" fill-opacity=".6" stroke="none"/><text class="blocklyFieldText blocklyDropdownText" fill="#000" style="font: normal 11pt sans-serif;" text-anchor="start" x="5" y="16">encoder_0<tspan style="fill: rgb(128, 106, 230);"> ▾</tspan></text><image style="display: none;"/></g><g transform="translate(109.0694580078125,5)"><text class="blocklyText" fill="#fff" style="font: normal 11pt sans-serif;" x="0" y="16">reset value</text></g></g></svg>