<svg xmlns="http://www.w3.org/2000/svg" width="206.11953735351562" height="53"><g data-id="FYCX$2@QCH|7)0oeetfA" class="blocklyDraggable" transform="translate(2,2)"><path class="blocklyPathDark" transform="translate(1,1)" fill="#6655b8" d=" m 0,0  m 0,8 a 8 8 0 0,1 8,-8  h 7  l 6,4  3,0  6,-4  h 167.11953735351562  v 5  H 197.11953735351562  V 5  H 197.11953735351562  V 36  H 197.11953735351562  V 36  V 40  h -167.61953735351562  l -6,4  -3,0  -6,-4  h -6.5 a 8 8 0 0,1 -8,-8 z&#10; M 156.5225372314453,5  v 5  c 0,10  -8,-8  -8,7.5  s 8,-2.5  8,7.5  v 11  h 30.597000122070312  v -31 z"/><path class="blocklyPath" stroke="none" fill="#806ae6" d=" m 0,0  m 0,8 a 8 8 0 0,1 8,-8  h 7  l 6,4  3,0  6,-4  h 167.11953735351562  v 5  H 197.11953735351562  V 5  H 197.11953735351562  V 36  H 197.11953735351562  V 36  V 40  h -167.61953735351562  l -6,4  -3,0  -6,-4  h -6.5 a 8 8 0 0,1 -8,-8 z&#10; M 156.5225372314453,5  v 5  c 0,10  -8,-8  -8,7.5  s 8,-2.5  8,7.5  v 11  h 30.597000122070312  v -31 z"/><g data-id="3S)%guPe7,cqrerszqFL" style="display: block;" transform="translate(149.5225372314453,6)"><path class="blocklyPathDark" transform="translate(1,1)" fill="#9acef9" d=" m 8,0  h 28.597000122070312  v 5  H 36.59700012207031  V 5  H 36.59700012207031  V 25  H 36.59700012207031  V 25  V 29  h -28.597000122070312  H 8  V 20  c 0,-10  -8,8  -8,-7.5  s 8,2.5  8,-7.5 z&#10;"/><path class="blocklyPath" stroke="none" fill="#9acef9" d=" m 8,0  h 28.597000122070312  v 5  H 36.59700012207031  V 5  H 36.59700012207031  V 25  H 36.59700012207031  V 25  V 29  h -28.597000122070312  H 8  V 20  c 0,-10  -8,8  -8,-7.5  s 8,2.5  8,-7.5 z&#10;"/><g class="blocklyEditableText" style="cursor: text;" transform="translate(13,5)"><rect rx="4" ry="4" x="0" y="0" height="20" width="18.597000122070312" class="blocklyFieldRect" fill="#fff" fill-opacity=".6" stroke="none"/><text class="blocklyFieldText" fill="#000" style="font: normal 11pt sans-serif;" x="5" y="16">0</text></g></g><g class="blocklyEditableText" transform="translate(5,10)" style="cursor: default;"><rect rx="4" ry="4" x="0" y="0" height="20" width="68.85469055175781" class="blocklyFieldRect blocklyDropdownRect" fill="#fff" fill-opacity=".6" stroke="none"/><text class="blocklyFieldText blocklyDropdownText" fill="#000" style="font: normal 11pt sans-serif;" text-anchor="start" x="5" y="16">rotary<tspan style="fill: rgb(128, 106, 230);"> ▾</tspan></text><image style="display: none;"/></g><g transform="translate(78.85469055175781,10)"><text class="blocklyText" fill="#fff" style="font: normal 11pt sans-serif;" x="0" y="16">set value</text></g></g></svg>