<svg xmlns="http://www.w3.org/2000/svg" width="286.5469055175781" height="162"><g data-id="/}I)wwd`[NejGh}GdxP}" class="blocklyDraggable" transform="translate(2,2)"><path class="blocklyPathDark" transform="translate(1,1)" fill="#c34443" d=" m 0,0  m 0,8 a 8 8 0 0,1 8,-8  h 7  l 6,4  3,0  6,-4  h 160.29779052734375  v 5  H 190.29779052734375  V 5  H 190.29779052734375  V 25  H 190.29779052734375  V 35  H 190.29779052734375  c 0,10  -8,-8  -8,7.5  s 8,-2.5  8,7.5  v 5  H 190.29779052734375  V 65  H 190.29779052734375  c 0,10  -8,-8  -8,7.5  s 8,-2.5  8,7.5  v 5  H 190.29779052734375  V 95  H 190.29779052734375  c 0,10  -8,-8  -8,7.5  s 8,-2.5  8,7.5  v 5  H 190.29779052734375  V 125  H 190.29779052734375  V 145  H 190.29779052734375  V 145  V 149  h -160.79779052734375  l -6,4  -3,0  -6,-4  h -6.5 a 8 8 0 0,1 -8,-8 z&#10;"/><path class="blocklyPath" stroke="none" fill="#f45554" d=" m 0,0  m 0,8 a 8 8 0 0,1 8,-8  h 7  l 6,4  3,0  6,-4  h 160.29779052734375  v 5  H 190.29779052734375  V 5  H 190.29779052734375  V 25  H 190.29779052734375  V 35  H 190.29779052734375  c 0,10  -8,-8  -8,7.5  s 8,-2.5  8,7.5  v 5  H 190.29779052734375  V 65  H 190.29779052734375  c 0,10  -8,-8  -8,7.5  s 8,-2.5  8,7.5  v 5  H 190.29779052734375  V 95  H 190.29779052734375  c 0,10  -8,-8  -8,7.5  s 8,-2.5  8,7.5  v 5  H 190.29779052734375  V 125  H 190.29779052734375  V 145  H 190.29779052734375  V 145  V 149  h -160.79779052734375  l -6,4  -3,0  -6,-4  h -6.5 a 8 8 0 0,1 -8,-8 z&#10;"/><g data-id="eZym/{9r;e:6`A@kA5$Y" style="display: block;" transform="translate(183.29779052734375,30)"><path class="blocklyPathDark" transform="translate(1,1)" fill="#fbbbbb" d=" m 8,0  h 73.978515625  v 5  H 81.978515625  V 5  H 81.978515625  V 25  H 81.978515625  V 25  V 29  h -73.978515625  H 8  V 20  c 0,-10  -8,8  -8,-7.5  s 8,2.5  8,-7.5 z&#10;"/><path class="blocklyPath" stroke="none" fill="#fbbbbb" d=" m 8,0  h 73.978515625  v 5  H 81.978515625  V 5  H 81.978515625  V 25  H 81.978515625  V 25  V 29  h -73.978515625  H 8  V 20  c 0,-10  -8,8  -8,-7.5  s 8,2.5  8,-7.5 z&#10;"/><g class="blocklyEditableText" transform="translate(13,5)"><rect rx="10" ry="10" x="0" y="0" height="20" class="blocklyFieldSwitchInner blocklyFieldSwitchChecked" fill-opacity=".9" width="63.978515625" fill="#3bd942"/><text class="blocklyFieldSwitchLabel" y="16" fill="#fff" style="font: 11pt sans-serif; display: none;" x="-63.978515625">False</text><circle cy="10" r="7" class="blocklyFieldSwitchHandle" fill="#fff" cx="10"/><text class="blocklyFieldSwitchLabel" y="16" fill="#fff" style="font: 11pt sans-serif; display: block;" x="24">True</text></g></g><g data-id="n:(@F5H+R3@]}CJBp2P!" style="display: block;" transform="translate(183.29779052734375,60)"><path class="blocklyPathDark" transform="translate(1,1)" fill="#fbbbbb" d=" m 8,0  h 86.24911499023438  v 5  H 94.24911499023438  V 5  H 94.24911499023438  V 25  H 94.24911499023438  V 25  V 29  h -86.24911499023438  H 8  V 20  c 0,-10  -8,8  -8,-7.5  s 8,2.5  8,-7.5 z&#10;"/><path class="blocklyPath" stroke="none" fill="#fbbbbb" d=" m 8,0  h 86.24911499023438  v 5  H 94.24911499023438  V 5  H 94.24911499023438  V 25  H 94.24911499023438  V 25  V 29  h -86.24911499023438  H 8  V 20  c 0,-10  -8,8  -8,-7.5  s 8,2.5  8,-7.5 z&#10;"/><g class="blocklyEditableText" transform="translate(13,5)" style="cursor: default;"><rect rx="4" ry="4" x="0" y="0" height="20" width="76.24911499023438" class="blocklyFieldRect blocklyDropdownRect" fill="#fff" fill-opacity=".6" stroke="none"/><text class="blocklyFieldText blocklyDropdownText" fill="#000" style="font: normal 11pt sans-serif;" text-anchor="start" x="5" y="16">normal<tspan style="fill: rgb(251, 187, 187);"> ▾</tspan></text><image style="display: none;"/></g></g><g data-id="lt]SI9_q1e,(SP3jD!mL" style="display: block;" transform="translate(183.29779052734375,90)"><path class="blocklyPathDark" transform="translate(1,1)" fill="#fbbbbb" d=" m 8,0  h 63.085205078125  v 5  H 71.085205078125  V 5  H 71.085205078125  V 25  H 71.085205078125  V 25  V 29  h -63.085205078125  H 8  V 20  c 0,-10  -8,8  -8,-7.5  s 8,2.5  8,-7.5 z&#10;"/><path class="blocklyPath" stroke="none" fill="#fbbbbb" d=" m 8,0  h 63.085205078125  v 5  H 71.085205078125  V 5  H 71.085205078125  V 25  H 71.085205078125  V 25  V 29  h -63.085205078125  H 8  V 20  c 0,-10  -8,8  -8,-7.5  s 8,2.5  8,-7.5 z&#10;"/><g class="blocklyEditableText" transform="translate(13,5)" style="cursor: default;"><rect rx="4" ry="4" x="0" y="0" height="20" width="53.085205078125" class="blocklyFieldRect blocklyDropdownRect" fill="#fff" fill-opacity=".6" stroke="none"/><text class="blocklyFieldText blocklyDropdownText" fill="#000" style="font: normal 11pt sans-serif;" text-anchor="start" x="5" y="16">25K<tspan style="fill: rgb(251, 187, 187);"> ▾</tspan></text><image style="display: none;"/></g></g><g transform="translate(10,5)"><text class="blocklyText" fill="#fff" style="font: normal 11pt sans-serif;" x="0" y="16">Configure</text></g><g class="blocklyEditableText" transform="translate(84.26272583007812,5)" style="cursor: default;"><rect rx="4" ry="4" x="0" y="0" height="20" width="66.24195861816406" class="blocklyFieldRect blocklyDropdownRect" fill="#fff" fill-opacity=".6" stroke="none"/><text class="blocklyFieldText blocklyDropdownText" fill="#000" style="font: normal 11pt sans-serif;" text-anchor="start" x="5" y="16">can_0<tspan style="fill: rgb(244, 85, 84);"> ▾</tspan></text><image style="display: none;"/></g><g transform="translate(10,35)"><text class="blocklyText" fill="#fff" style="font: normal 11pt sans-serif;" x="0" y="16">extended frame format</text></g><g transform="translate(10,65)"><text class="blocklyText" fill="#fff" style="font: normal 11pt sans-serif;" x="0" y="16">mode</text></g><g transform="translate(10,95)"><text class="blocklyText" fill="#fff" style="font: normal 11pt sans-serif;" x="0" y="16">baudrate</text></g><g class="blocklyEditableText" transform="translate(5,125)"><rect rx="10" ry="10" x="0" y="0" height="20" class="blocklyFieldSwitchInner blocklyFieldSwitchUnChecked" fill-opacity=".9" width="83.27702331542969" fill="#898989"/><text class="blocklyFieldSwitchLabel" y="16" fill="#fff" style="font: 11pt sans-serif; display: block;" x="10">default</text><circle cy="10" r="7" class="blocklyFieldSwitchHandle" fill="#fff" cx="73.27702331542969"/><text class="blocklyFieldSwitchLabel" y="16" fill="#fff" style="font: 11pt sans-serif; display: none;" x="83.27702331542969">advance</text></g></g></svg>