<svg xmlns="http://www.w3.org/2000/svg" width="153.4380340576172" height="42"><g data-id="!l-,m3j],@X]1~7vy1{=" class="blocklyDraggable" transform="translate(2,2)"><path class="blocklyPathDark" transform="translate(1,1)" fill="#007e43" d=" m 0,0  m 0,8 a 8 8 0 0,1 8,-8  h 7  l 6,4  3,0  6,-4  h 114.43803405761719  v 5  H 144.4380340576172  V 5  H 144.4380340576172  V 25  H 144.4380340576172  V 25  V 29  h -114.93803405761719  l -6,4  -3,0  -6,-4  h -6.5 a 8 8 0 0,1 -8,-8 z&#10;"/><path class="blocklyPath" stroke="none" fill="#009d54" d=" m 0,0  m 0,8 a 8 8 0 0,1 8,-8  h 7  l 6,4  3,0  6,-4  h 114.43803405761719  v 5  H 144.4380340576172  V 5  H 144.4380340576172  V 25  H 144.4380340576172  V 25  V 29  h -114.93803405761719  l -6,4  -3,0  -6,-4  h -6.5 a 8 8 0 0,1 -8,-8 z&#10;"/><g transform="translate(10,5)"><text class="blocklyText" fill="#fff" style="font: normal 11pt sans-serif;" x="0" y="16">Speaker play begin</text></g></g></svg>