<svg xmlns="http://www.w3.org/2000/svg" width="176.57049560546875" height="38"><g data-id="Ow=BK,HU%K[Eu[{uHppL" class="blocklyDraggable" transform="translate(2,2)"><path class="blocklyPathDark" transform="translate(1,1)" fill="#007e43" d=" m 8,0  h 159.57049560546875  v 5  H 167.57049560546875  V 5  H 167.57049560546875  V 25  H 167.57049560546875  V 25  V 29  h -159.57049560546875  H 8  V 20  c 0,-10  -8,8  -8,-7.5  s 8,2.5  8,-7.5 z&#10;"/><path class="blocklyPath" stroke="none" fill="#009d54" d=" m 8,0  h 159.57049560546875  v 5  H 167.57049560546875  V 5  H 167.57049560546875  V 25  H 167.57049560546875  V 25  V 29  h -159.57049560546875  H 8  V 20  c 0,-10  -8,8  -8,-7.5  s 8,2.5  8,-7.5 z&#10;"/><g transform="translate(18,5)"><text class="blocklyText" fill="#fff" style="font: normal 11pt sans-serif;" x="0" y="16">Speaker is running</text></g></g></svg>