<svg xmlns="http://www.w3.org/2000/svg" width="186.80133056640625" height="48"><g data-id="T|^vZoKe.p*SA,Uf|xNp" class="blocklyDraggable" transform="translate(2,2)"><path class="blocklyPathDark" transform="translate(1,1)" fill="#007e43" d=" m 0,0  m 0,8 a 8 8 0 0,1 8,-8  h 7  l 6,4  3,0  6,-4  h 147.80133056640625  v 5  H 177.80133056640625  V 5  H 177.80133056640625  V 31  H 177.80133056640625  V 31  V 35  h -148.30133056640625  l -6,4  -3,0  -6,-4  h -6.5 a 8 8 0 0,1 -8,-8 z&#10; M 153.30133056640625,5  v 5  c 0,10  -8,-8  -8,7.5  s 8,-2.5  8,7.5  v 6  h 14.5  v -26 z"/><path class="blocklyPath" stroke="none" fill="#009d54" d=" m 0,0  m 0,8 a 8 8 0 0,1 8,-8  h 7  l 6,4  3,0  6,-4  h 147.80133056640625  v 5  H 177.80133056640625  V 5  H 177.80133056640625  V 31  H 177.80133056640625  V 31  V 35  h -148.30133056640625  l -6,4  -3,0  -6,-4  h -6.5 a 8 8 0 0,1 -8,-8 z&#10; M 153.30133056640625,5  v 5  c 0,10  -8,-8  -8,7.5  s 8,-2.5  8,7.5  v 6  h 14.5  v -26 z"/><g transform="translate(10,10)"><text class="blocklyText" fill="#fff" style="font: normal 11pt sans-serif;" x="0" y="16">Speaker play WAV</text></g></g></svg>