<svg xmlns="http://www.w3.org/2000/svg" width="336.80133056640625" height="48">
    <g data-id="T|^vZoKe.p*SA,Uf|xNp" class="blocklyDraggable" transform="translate(2,2)">
        <path class="blocklyPathDark" transform="translate(1,1)" fill="#007e43"
            d=" m 0,0  m 0,8 a 8 8 0 0,1 8,-8  h 7  l 6,4  3,0  6,-4  h 297.80133056640625  v 5  H 327.80133056640625  V 5  H 327.80133056640625  V 31  H 327.80133056640625  V 31  V 35  h -298.30133056640625  l -6,4  -3,0  -6,-4  h -6.5 a 8 8 0 0,1 -8,-8 z&#10; M 153.30133056640625,5  v 5  c 0,10  -8,-8  -8,7.5  s 8,-2.5  8,7.5  v 6  h 14.5  v -26 z" />
        <path class="blocklyPath" stroke="none" fill="#009d54"
            d=" m 0,0  m 0,8 a 8 8 0 0,1 8,-8  h 7  l 6,4  3,0  6,-4  h 297.80133056640625  v 5  H 327.80133056640625  V 5  H 327.80133056640625  V 31  H 327.80133056640625  V 31  V 35  h -298.30133056640625  l -6,4  -3,0  -6,-4  h -6.5 a 8 8 0 0,1 -8,-8 z&#10; M 153.30133056640625,5  v 5  c 0,10  -8,-8  -8,7.5  s 8,-2.5  8,7.5  v 6  h 14.5  v -26 z" />
        <g transform="translate(10,10)"><text class="blocklyText" fill="#fff" style="font: normal 11pt sans-serif;"
                x="0" y="16">Speaker play PCM </text></g>
        <g transform="translate(175,10)"><text class="blocklyText" fill="#fff" style="font: normal 11pt sans-serif;"
                x="0" y="16">sample rate</text></g>
    </g>
    <g data-id="]2wxLXj$K)+h1CqaL?QP" class="" style="display: block;" transform="translate(267.14599609375,6)">
        <path class="blocklyPathDark" transform="translate(1,1)" fill="#9acef9"
            d=" m 8,0  h 54.38800048828125  v 5  H 62.38800048828125  V 5  H 62.38800048828125  V 25  H 62.38800048828125  V 25  V 29  h -54.38800048828125  H 8  V 20  c 0,-10  -8,8  -8,-7.5  s 8,2.5  8,-7.5 z&#10;" />
        <path class="blocklyPath" stroke="none" fill="#9acef9"
            d=" m 8,0  h 54.38800048828125  v 5  H 62.38800048828125  V 5  H 62.38800048828125  V 25  H 62.38800048828125  V 25  V 29  h -54.38800048828125  H 8  V 20  c 0,-10  -8,8  -8,-7.5  s 8,2.5  8,-7.5 z&#10;" />
        <g class="blocklyEditableText" transform="translate(13,5)" style="cursor: text;">
            <rect rx="4" ry="4" x="0" y="0" height="20" width="44.38800048828125" class="blocklyFieldRect"
                fill="#fff" fill-opacity=".6" stroke="none" /><text class="blocklyFieldText" fill="#000"
                style="font: normal 11pt sans-serif;" x="5" y="16">8000</text>
        </g>
    </g>
</svg>