<svg xmlns="http://www.w3.org/2000/svg" width="404.2555847167969" height="53">
    <g data-id="Bh`He^`AKPvIs`,YH}/3" class="blocklyDraggable" transform="translate(2,2)">
        <path class="blocklyPathDark" transform="translate(1,1)" fill="#007e43"
            d=" m 0,0  m 0,8 a 8 8 0 0,1 8,-8  h 7  l 6,4  3,0  6,-4  h 365.2555694580078  v 5  H 395.2555694580078  V 5  H 395.2555694580078  V 36  H 395.2555694580078  V 36  V 40  h -365.7555694580078  l -6,4  -3,0  -6,-4  h -6.5 a 8 8 0 0,1 -8,-8 z&#10; M 184.14599609375,5  v 5  c 0,10  -8,-8  -8,7.5  s 8,-2.5  8,7.5  v 11  h 56.38800048828125  v -31 z M 346.0615692138672,5  v 5  c 0,10  -8,-8  -8,7.5  s 8,-2.5  8,7.5  v 11  h 39.194000244140625  v -31 z" />
        <path class="blocklyPath" stroke="none" fill="#009d54"
            d=" m 0,0  m 0,8 a 8 8 0 0,1 8,-8  h 7  l 6,4  3,0  6,-4  h 365.2555694580078  v 5  H 395.2555694580078  V 5  H 395.2555694580078  V 36  H 395.2555694580078  V 36  V 40  h -365.7555694580078  l -6,4  -3,0  -6,-4  h -6.5 a 8 8 0 0,1 -8,-8 z&#10; M 184.14599609375,5  v 5  c 0,10  -8,-8  -8,7.5  s 8,-2.5  8,7.5  v 11  h 56.38800048828125  v -31 z M 346.0615692138672,5  v 5  c 0,10  -8,-8  -8,7.5  s 8,-2.5  8,7.5  v 11  h 39.194000244140625  v -31 z" />
        <g data-id="]2wxLXj$K)+h1CqaL?QP" class="" style="display: block;" transform="translate(177.14599609375,6)">
            <path class="blocklyPathDark" transform="translate(1,1)" fill="#9acef9"
                d=" m 8,0  h 54.38800048828125  v 5  H 62.38800048828125  V 5  H 62.38800048828125  V 25  H 62.38800048828125  V 25  V 29  h -54.38800048828125  H 8  V 20  c 0,-10  -8,8  -8,-7.5  s 8,2.5  8,-7.5 z&#10;" />
            <path class="blocklyPath" stroke="none" fill="#9acef9"
                d=" m 8,0  h 54.38800048828125  v 5  H 62.38800048828125  V 5  H 62.38800048828125  V 25  H 62.38800048828125  V 25  V 29  h -54.38800048828125  H 8  V 20  c 0,-10  -8,8  -8,-7.5  s 8,2.5  8,-7.5 z&#10;" />
            <g class="blocklyEditableText" transform="translate(13,5)" style="cursor: text;">
                <rect rx="4" ry="4" x="0" y="0" height="20" width="44.38800048828125" class="blocklyFieldRect"
                    fill="#fff" fill-opacity=".6" stroke="none" /><text class="blocklyFieldText" fill="#000"
                    style="font: normal 11pt sans-serif;" x="5" y="16">2000</text>
            </g>
        </g>
        <g data-id="T}A${_Mw89cH7rXOUidV" class="" style="display: block;" transform="translate(339.0615692138672,6)">
            <path class="blocklyPathDark" transform="translate(1,1)" fill="#9acef9"
                d=" m 8,0  h 37.194000244140625  v 5  H 45.194000244140625  V 5  H 45.194000244140625  V 25  H 45.194000244140625  V 25  V 29  h -37.194000244140625  H 8  V 20  c 0,-10  -8,8  -8,-7.5  s 8,2.5  8,-7.5 z&#10;" />
            <path class="blocklyPath" stroke="none" fill="#9acef9"
                d=" m 8,0  h 37.194000244140625  v 5  H 45.194000244140625  V 5  H 45.194000244140625  V 25  H 45.194000244140625  V 25  V 29  h -37.194000244140625  H 8  V 20  c 0,-10  -8,8  -8,-7.5  s 8,2.5  8,-7.5 z&#10;" />
            <g class="blocklyEditableText" transform="translate(13,5)" style="cursor: text;">
                <rect rx="4" ry="4" x="0" y="0" height="20" width="27.194000244140625" class="blocklyFieldRect"
                    fill="#fff" fill-opacity=".6" stroke="none" /><text class="blocklyFieldText" fill="#000"
                    style="font: normal 11pt sans-serif;" x="5" y="16">50</text>
            </g>
        </g>
        <g transform="translate(10,10)"><text class="blocklyText" fill="#fff" style="font: normal 11pt sans-serif;"
                x="0" y="16">Speaker play tone freq</text></g>
        <g transform="translate(250.53399658203125,10)"><text class="blocklyText" fill="#fff"
                style="font: normal 11pt sans-serif;" x="0" y="16">millisecond</text></g>
    </g>
</svg>