<svg xmlns="http://www.w3.org/2000/svg" width="353.658935546875" height="48"><g data-id="pj~lt.Q*=`JBOUYUF[~2" class="blocklyDraggable" transform="translate(2,2)"><path class="blocklyPathDark" transform="translate(1,1)" fill="#cc5295" d=" m 0,0  m 0,8 a 8 8 0 0,1 8,-8  h 7  l 6,4  3,0  6,-4  h 314.658935546875  v 5  H 344.658935546875  V 5  H 344.658935546875  V 31  H 344.658935546875  V 31  V 35  h -315.158935546875  l -6,4  -3,0  -6,-4  h -6.5 a 8 8 0 0,1 -8,-8 z&#10; M 320.158935546875,5  v 5  c 0,10  -8,-8  -8,7.5  s 8,-2.5  8,7.5  v 6  h 14.5  v -26 z"/><path class="blocklyPath" stroke="none" fill="#ff67ba" d=" m 0,0  m 0,8 a 8 8 0 0,1 8,-8  h 7  l 6,4  3,0  6,-4  h 314.658935546875  v 5  H 344.658935546875  V 5  H 344.658935546875  V 31  H 344.658935546875  V 31  V 35  h -315.158935546875  l -6,4  -3,0  -6,-4  h -6.5 a 8 8 0 0,1 -8,-8 z&#10; M 320.158935546875,5  v 5  c 0,10  -8,-8  -8,7.5  s 8,-2.5  8,7.5  v 6  h 14.5  v -26 z"/><g class="blocklyEditableText" transform="translate(5,10)" style="cursor: default;"><rect rx="4" ry="4" x="0" y="0" height="20" width="76.77882385253906" class="blocklyFieldRect blocklyDropdownRect" fill="#fff" fill-opacity=".6" stroke="none"/><text class="blocklyFieldText blocklyDropdownText" fill="#000" style="font: normal 11pt sans-serif;" text-anchor="start" x="5" y="16">accel_0<tspan style="fill: rgb(255, 103, 186);"> ▾</tspan></text><image style="display: none;"/></g><g transform="translate(86.77882385253906,10)"><text class="blocklyText" fill="#fff" style="font: normal 11pt sans-serif;" x="0" y="16">set motion detection threshold</text></g></g></svg>