<svg xmlns="http://www.w3.org/2000/svg" width="279.1596374511719" height="192"><g data-id=".7r{:.}YH.bn[9d^knq_" class="blocklyDraggable" transform="translate(2,2)"><path class="blocklyPathDark" transform="translate(1,1)" fill="#cc5295" d=" m 0,0  m 0,8 a 8 8 0 0,1 8,-8  h 7  l 6,4  3,0  6,-4  h 193.36863708496094  v 5  H 223.36863708496094  V 5  H 223.36863708496094  V 25  H 223.36863708496094  V 35  H 223.36863708496094  c 0,10  -8,-8  -8,7.5  s 8,-2.5  8,7.5  v 5  H 223.36863708496094  V 65  H 223.36863708496094  c 0,10  -8,-8  -8,7.5  s 8,-2.5  8,7.5  v 5  H 223.36863708496094  V 95  H 223.36863708496094  c 0,10  -8,-8  -8,7.5  s 8,-2.5  8,7.5  v 5  H 223.36863708496094  V 125  H 223.36863708496094  c 0,10  -8,-8  -8,7.5  s 8,-2.5  8,7.5  v 5  H 223.36863708496094  V 155  H 223.36863708496094  c 0,10  -8,-8  -8,7.5  s 8,-2.5  8,7.5  v 5  H 223.36863708496094  V 175  V 179  h -193.86863708496094  l -6,4  -3,0  -6,-4  h -6.5 a 8 8 0 0,1 -8,-8 z&#10;"/><path class="blocklyPath" stroke="none" fill="#ff67ba" d=" m 0,0  m 0,8 a 8 8 0 0,1 8,-8  h 7  l 6,4  3,0  6,-4  h 193.36863708496094  v 5  H 223.36863708496094  V 5  H 223.36863708496094  V 25  H 223.36863708496094  V 35  H 223.36863708496094  c 0,10  -8,-8  -8,7.5  s 8,-2.5  8,7.5  v 5  H 223.36863708496094  V 65  H 223.36863708496094  c 0,10  -8,-8  -8,7.5  s 8,-2.5  8,7.5  v 5  H 223.36863708496094  V 95  H 223.36863708496094  c 0,10  -8,-8  -8,7.5  s 8,-2.5  8,7.5  v 5  H 223.36863708496094  V 125  H 223.36863708496094  c 0,10  -8,-8  -8,7.5  s 8,-2.5  8,7.5  v 5  H 223.36863708496094  V 155  H 223.36863708496094  c 0,10  -8,-8  -8,7.5  s 8,-2.5  8,7.5  v 5  H 223.36863708496094  V 175  V 179  h -193.86863708496094  l -6,4  -3,0  -6,-4  h -6.5 a 8 8 0 0,1 -8,-8 z&#10;"/><g data-id=")xSTrP-6I=[)0{t=}qz@" style="display: block;" transform="translate(216.36863708496094,30)"><path class="blocklyPathDark" transform="translate(1,1)" fill="#9acef9" d=" m 8,0  h 28.597000122070312  v 5  H 36.59700012207031  V 5  H 36.59700012207031  V 25  H 36.59700012207031  V 25  V 29  h -28.597000122070312  H 8  V 20  c 0,-10  -8,8  -8,-7.5  s 8,2.5  8,-7.5 z&#10;"/><path class="blocklyPath" stroke="none" fill="#9acef9" d=" m 8,0  h 28.597000122070312  v 5  H 36.59700012207031  V 5  H 36.59700012207031  V 25  H 36.59700012207031  V 25  V 29  h -28.597000122070312  H 8  V 20  c 0,-10  -8,8  -8,-7.5  s 8,2.5  8,-7.5 z&#10;"/><g class="blocklyEditableText" transform="translate(13,5)" style="cursor: text;"><rect rx="4" ry="4" x="0" y="0" height="20" width="18.597000122070312" class="blocklyFieldRect" fill="#fff" fill-opacity=".6" stroke="none"/><text class="blocklyFieldText" fill="#000" style="font: normal 11pt sans-serif;" x="5" y="16">1</text></g></g><g data-id="8w$P_^A@wJH;YpK!qSIx" style="display: block;" transform="translate(216.36863708496094,60)"><path class="blocklyPathDark" transform="translate(1,1)" fill="#9acef9" d=" m 8,0  h 37.194000244140625  v 5  H 45.194000244140625  V 5  H 45.194000244140625  V 25  H 45.194000244140625  V 25  V 29  h -37.194000244140625  H 8  V 20  c 0,-10  -8,8  -8,-7.5  s 8,2.5  8,-7.5 z&#10;"/><path class="blocklyPath" stroke="none" fill="#9acef9" d=" m 8,0  h 37.194000244140625  v 5  H 45.194000244140625  V 5  H 45.194000244140625  V 25  H 45.194000244140625  V 25  V 29  h -37.194000244140625  H 8  V 20  c 0,-10  -8,8  -8,-7.5  s 8,2.5  8,-7.5 z&#10;"/><g class="blocklyEditableText" transform="translate(13,5)" style="cursor: text;"><rect rx="4" ry="4" x="0" y="0" height="20" width="27.194000244140625" class="blocklyFieldRect" fill="#fff" fill-opacity=".6" stroke="none"/><text class="blocklyFieldText" fill="#000" style="font: normal 11pt sans-serif;" x="5" y="16">20</text></g></g><g data-id="{Q`cs+L,*1KJ-f!Iap%h" style="display: block;" transform="translate(216.36863708496094,90)"><path class="blocklyPathDark" transform="translate(1,1)" fill="#9acef9" d=" m 8,0  h 37.194000244140625  v 5  H 45.194000244140625  V 5  H 45.194000244140625  V 25  H 45.194000244140625  V 25  V 29  h -37.194000244140625  H 8  V 20  c 0,-10  -8,8  -8,-7.5  s 8,2.5  8,-7.5 z&#10;"/><path class="blocklyPath" stroke="none" fill="#9acef9" d=" m 8,0  h 37.194000244140625  v 5  H 45.194000244140625  V 5  H 45.194000244140625  V 25  H 45.194000244140625  V 25  V 29  h -37.194000244140625  H 8  V 20  c 0,-10  -8,8  -8,-7.5  s 8,2.5  8,-7.5 z&#10;"/><g class="blocklyEditableText" transform="translate(13,5)" style="cursor: text;"><rect rx="4" ry="4" x="0" y="0" height="20" width="27.194000244140625" class="blocklyFieldRect" fill="#fff" fill-opacity=".6" stroke="none"/><text class="blocklyFieldText" fill="#000" style="font: normal 11pt sans-serif;" x="5" y="16">50</text></g></g><g data-id="#I=cJrHP8U[mPt@d-;8P" style="display: block;" transform="translate(216.36863708496094,120)"><path class="blocklyPathDark" transform="translate(1,1)" fill="#9acef9" d=" m 8,0  h 37.194000244140625  v 5  H 45.194000244140625  V 5  H 45.194000244140625  V 25  H 45.194000244140625  V 25  V 29  h -37.194000244140625  H 8  V 20  c 0,-10  -8,8  -8,-7.5  s 8,2.5  8,-7.5 z&#10;"/><path class="blocklyPath" stroke="none" fill="#9acef9" d=" m 8,0  h 37.194000244140625  v 5  H 45.194000244140625  V 5  H 45.194000244140625  V 25  H 45.194000244140625  V 25  V 29  h -37.194000244140625  H 8  V 20  c 0,-10  -8,8  -8,-7.5  s 8,2.5  8,-7.5 z&#10;"/><g class="blocklyEditableText" transform="translate(13,5)" style="cursor: text;"><rect rx="4" ry="4" x="0" y="0" height="20" width="27.194000244140625" class="blocklyFieldRect" fill="#fff" fill-opacity=".6" stroke="none"/><text class="blocklyFieldText" fill="#000" style="font: normal 11pt sans-serif;" x="5" y="16">20</text></g></g><g data-id="mxTjJ63LNn+Ws`Is-X~h" style="display: block;" transform="translate(216.36863708496094,150)"><path class="blocklyPathDark" transform="translate(1,1)" fill="#9acef9" d=" m 8,0  h 45.79100036621094  v 5  H 53.79100036621094  V 5  H 53.79100036621094  V 25  H 53.79100036621094  V 25  V 29  h -45.79100036621094  H 8  V 20  c 0,-10  -8,8  -8,-7.5  s 8,2.5  8,-7.5 z&#10;"/><path class="blocklyPath" stroke="none" fill="#9acef9" d=" m 8,0  h 45.79100036621094  v 5  H 53.79100036621094  V 5  H 53.79100036621094  V 25  H 53.79100036621094  V 25  V 29  h -45.79100036621094  H 8  V 20  c 0,-10  -8,8  -8,-7.5  s 8,2.5  8,-7.5 z&#10;"/><g class="blocklyEditableText" transform="translate(13,5)" style="cursor: text;"><rect rx="4" ry="4" x="0" y="0" height="20" width="35.79100036621094" class="blocklyFieldRect" fill="#fff" fill-opacity=".6" stroke="none"/><text class="blocklyFieldText" fill="#000" style="font: normal 11pt sans-serif;" x="5" y="16">255</text></g></g><g class="blocklyEditableText" transform="translate(5,5)" style="cursor: default;"><rect rx="4" ry="4" x="0" y="0" height="20" width="76.77882385253906" class="blocklyFieldRect blocklyDropdownRect" fill="#fff" fill-opacity=".6" stroke="none"/><text class="blocklyFieldText blocklyDropdownText" fill="#000" style="font: normal 11pt sans-serif;" text-anchor="start" x="5" y="16">accel_0<tspan style="fill: rgb(255, 103, 186);"> ▾</tspan></text><image style="display: none;"/></g><g transform="translate(86.77882385253906,5)"><text class="blocklyText" fill="#fff" style="font: normal 11pt sans-serif;" x="0" y="16">set tap detection</text></g><g transform="translate(137.90264892578125,35)"><text class="blocklyText" fill="#fff" style="font: normal 11pt sans-serif;" x="0" y="16">tap count</text></g><g transform="translate(138.76161193847656,65)"><text class="blocklyText" fill="#fff" style="font: normal 11pt sans-serif;" x="0" y="16">threshold</text></g><g transform="translate(145.54043579101562,95)"><text class="blocklyText" fill="#fff" style="font: normal 11pt sans-serif;" x="0" y="16">duration</text></g><g transform="translate(155.56190490722656,125)"><text class="blocklyText" fill="#fff" style="font: normal 11pt sans-serif;" x="0" y="16">latency</text></g><g transform="translate(150.58692932128906,155)"><text class="blocklyText" fill="#fff" style="font: normal 11pt sans-serif;" x="0" y="16">window</text></g></g></svg>