<svg xmlns="http://www.w3.org/2000/svg" width="276.00787353515625" height="42"><g data-id="Ml-l,fV!IJ1U8yWfu~X:" class="blocklyDraggable" transform="translate(2,2)"><path class="blocklyPathDark" transform="translate(1,1)" fill="#cc5295" d=" m 0,0  m 0,8 a 8 8 0 0,1 8,-8  h 7  l 6,4  3,0  6,-4  h 237.00787353515625  v 5  H 267.00787353515625  V 5  H 267.00787353515625  V 25  H 267.00787353515625  V 25  V 29  h -237.50787353515625  l -6,4  -3,0  -6,-4  h -6.5 a 8 8 0 0,1 -8,-8 z&#10;"/><path class="blocklyPath" stroke="none" fill="#ff67ba" d=" m 0,0  m 0,8 a 8 8 0 0,1 8,-8  h 7  l 6,4  3,0  6,-4  h 237.00787353515625  v 5  H 267.00787353515625  V 5  H 267.00787353515625  V 25  H 267.00787353515625  V 25  V 29  h -237.50787353515625  l -6,4  -3,0  -6,-4  h -6.5 a 8 8 0 0,1 -8,-8 z&#10;"/><g class="blocklyEditableText" transform="translate(5,5)" style="cursor: default;"><rect rx="4" ry="4" x="0" y="0" height="20" width="76.77882385253906" class="blocklyFieldRect blocklyDropdownRect" fill="#fff" fill-opacity=".6" stroke="none"/><text class="blocklyFieldText blocklyDropdownText" fill="#000" style="font: normal 11pt sans-serif;" text-anchor="start" x="5" y="16">accel_0<tspan style="fill: rgb(255, 103, 186);"> ▾</tspan></text><image style="display: none;"/></g><g transform="translate(86.77882385253906,5)"><text class="blocklyText" fill="#fff" style="font: normal 11pt sans-serif;" x="0" y="16">enable freefall detection</text></g></g></svg>