<svg xmlns="http://www.w3.org/2000/svg" width="305.64996337890625" height="38"><g data-id="h}REP};g4nAGet6m{9H1" class="blocklyDraggable" transform="translate(2,2)"><path class="blocklyPathDark" transform="translate(1,1)" fill="#cc5295" d=" m 8,0  h 288.64996337890625  v 5  H 296.64996337890625  V 5  H 296.64996337890625  V 25  H 296.64996337890625  V 25  V 29  h -288.64996337890625  H 8  V 20  c 0,-10  -8,8  -8,-7.5  s 8,2.5  8,-7.5 z&#10;"/><path class="blocklyPath" stroke="none" fill="#ff67ba" d=" m 8,0  h 288.64996337890625  v 5  H 296.64996337890625  V 5  H 296.64996337890625  V 25  H 296.64996337890625  V 25  V 29  h -288.64996337890625  H 8  V 20  c 0,-10  -8,8  -8,-7.5  s 8,2.5  8,-7.5 z&#10;"/><g class="blocklyIconGroup blocklyIconGroupReadonly" display="block" transform="translate(18,5)"><path class="blocklyIconSymbol" d="M8,14.3c1.7,0,3.3-0.7,4.5-1.8s1.8-2.7,1.8-4.5s-0.7-3.3-1.8-4.4S9.7,1.7,8,1.7S4.6,2.4,3.5,3.5S1.7,6.2,1.7,8   s0.7,3.3,1.8,4.5S6.2,14.3,8,14.3z M13.3,13.3c-1.4,1.4-3.3,2.2-5.4,2.2s-4-0.9-5.4-2.2S0.4,10.1,0.4,8s0.9-4,2.2-5.4   S5.9,0.4,8,0.4s4,0.9,5.4,2.2s2.2,3.3,2.2,5.4S14.7,12,13.3,13.3z" fill="#fff"/><path class="blocklyIconSymbol" d="M8.7,12c0,0.4-0.3,0.7-0.7,0.7c-0.4,0-0.7-0.3-0.7-0.7V6.9c0-0.4,0.3-0.7,0.7-0.7c0.4,0,0.7,0.3,0.7,0.7V12z" fill="#fff"/><path class="blocklyIconSymbol" d="M8,3.1c0.5,0,0.9,0.5,0.9,1s-0.4,1-0.9,1C7.4,5.2,7,4.7,7,4.1S7.4,3.1,8,3.1z" fill="#fff"/></g><g class="blocklyEditableText" transform="translate(45,5)" style="cursor: default;"><rect rx="4" ry="4" x="0" y="0" height="20" width="76.77882385253906" class="blocklyFieldRect blocklyDropdownRect" fill="#fff" fill-opacity=".6" stroke="none"/><text class="blocklyFieldText blocklyDropdownText" fill="#000" style="font: normal 11pt sans-serif;" text-anchor="start" x="5" y="16">accel_0<tspan style="fill: rgb(255, 103, 186);"> ▾</tspan></text><image style="display: none;"/></g><g transform="translate(126.77882385253906,5)"><text class="blocklyText" fill="#fff" style="font: normal 11pt sans-serif;" x="0" y="16">get accel (return tuple)</text></g></g></svg>