<svg xmlns="http://www.w3.org/2000/svg" width="204.0150146484375" height="38"><g data-id="#=70GT1w0Re}!Q:V}mpa" class="blocklyDraggable" transform="translate(2,2)"><path class="blocklyPathDark" transform="translate(1,1)" fill="#cc5295" d=" m 8,0  h 187.0150146484375  v 5  H 195.0150146484375  V 5  H 195.0150146484375  V 25  H 195.0150146484375  V 25  V 29  h -187.0150146484375  H 8  V 20  c 0,-10  -8,8  -8,-7.5  s 8,2.5  8,-7.5 z&#10;"/><path class="blocklyPath" stroke="none" fill="#ff67ba" d=" m 8,0  h 187.0150146484375  v 5  H 195.0150146484375  V 5  H 195.0150146484375  V 25  H 195.0150146484375  V 25  V 29  h -187.0150146484375  H 8  V 20  c 0,-10  -8,8  -8,-7.5  s 8,2.5  8,-7.5 z&#10;"/><g class="blocklyEditableText" transform="translate(13,5)" style="cursor: default;"><rect rx="4" ry="4" x="0" y="0" height="20" width="76.77882385253906" class="blocklyFieldRect blocklyDropdownRect" fill="#fff" fill-opacity=".6" stroke="none"/><text class="blocklyFieldText blocklyDropdownText" fill="#000" style="font: normal 11pt sans-serif;" text-anchor="start" x="5" y="16">accel_0<tspan style="fill: rgb(255, 103, 186);"> ▾</tspan></text><image style="display: none;"/></g><g transform="translate(94.77882385253906,5)"><text class="blocklyText" fill="#fff" style="font: normal 11pt sans-serif;" x="0" y="16">get data rate</text></g></g></svg>