<svg xmlns="http://www.w3.org/2000/svg" width="225.4252166748047" height="38"><g data-id="Mb9a7@=2Qh^]gY;~gIwP" class="blocklyDraggable" transform="translate(2,2)"><path class="blocklyPathDark" transform="translate(1,1)" fill="#0c8ea8" d=" m 8,0  h 208.4252166748047  v 5  H 216.4252166748047  V 5  H 216.4252166748047  V 25  H 216.4252166748047  V 25  V 29  h -208.4252166748047  H 8  V 20  c 0,-10  -8,8  -8,-7.5  s 8,2.5  8,-7.5 z&#10;"/><path class="blocklyPath" stroke="none" fill="#0fb1d2" d=" m 8,0  h 208.4252166748047  v 5  H 216.4252166748047  V 5  H 216.4252166748047  V 25  H 216.4252166748047  V 25  V 29  h -208.4252166748047  H 8  V 20  c 0,-10  -8,8  -8,-7.5  s 8,2.5  8,-7.5 z&#10;"/><g class="blocklyEditableText" transform="translate(13,5)" style="cursor: default;"><rect rx="4" ry="4" x="0" y="0" height="20" width="104.294921875" class="blocklyFieldRect blocklyDropdownRect" fill="#fff" fill-opacity=".6" stroke="none"/><text class="blocklyFieldText blocklyDropdownText" fill="#000" style="font: normal 11pt sans-serif;" text-anchor="start" x="5" y="16">ZigbeeUnit<tspan style="fill: rgb(15, 177, 210);"> ▾</tspan></text><image style="display: none;"/></g><g transform="translate(122.294921875,5)"><text class="blocklyText" fill="#fff" style="font: normal 11pt sans-serif;" x="0" y="16">isconnected</text></g></g></svg>