<svg xmlns="http://www.w3.org/2000/svg" width="407.031494140625" height="42"><g data-id="_IJSV(-Xy#w5hT7D6*$N" class="blocklyDraggable" transform="translate(2,2)"><path class="blocklyPathDark" transform="translate(1,1)" fill="#0c8ea8" d=" m 0,0  m 0,8 a 8 8 0 0,1 8,-8  h 7  l 6,4  3,0  6,-4  h 368.03150939941406  v 5  H 398.03150939941406  V 5  H 398.03150939941406  V 25  H 398.03150939941406  V 25  V 29  h -368.53150939941406  l -6,4  -3,0  -6,-4  h -6.5 a 8 8 0 0,1 -8,-8 z&#10;"/><path class="blocklyPath" stroke="none" fill="#0fb1d2" d=" m 0,0  m 0,8 a 8 8 0 0,1 8,-8  h 7  l 6,4  3,0  6,-4  h 368.03150939941406  v 5  H 398.03150939941406  V 5  H 398.03150939941406  V 25  H 398.03150939941406  V 25  V 29  h -368.53150939941406  l -6,4  -3,0  -6,-4  h -6.5 a 8 8 0 0,1 -8,-8 z&#10;"/><g transform="translate(10,5)"><text class="blocklyText" fill="#fff" style="font: normal 11pt sans-serif;" x="0" y="16">Set</text></g><g class="blocklyEditableText" transform="translate(37.240509033203125,5)" style="cursor: default;"><rect rx="4" ry="4" x="0" y="0" height="20" width="104.294921875" class="blocklyFieldRect blocklyDropdownRect" fill="#fff" fill-opacity=".6" stroke="none"/><text class="blocklyFieldText blocklyDropdownText" fill="#000" style="font: normal 11pt sans-serif;" text-anchor="start" x="5" y="16">ZigbeeUnit<tspan style="fill: rgb(15, 177, 210);"> ▾</tspan></text><image style="display: none;"/></g><g transform="translate(146.53543090820312,5)"><text class="blocklyText" fill="#fff" style="font: normal 11pt sans-serif;" x="0" y="16">transfer mode</text></g><g class="blocklyEditableText" transform="translate(250.6048583984375,5)" style="cursor: default;"><rect rx="4" ry="4" x="0" y="0" height="20" width="142.42665100097656" class="blocklyFieldRect blocklyDropdownRect" fill="#fff" fill-opacity=".6" stroke="none"/><text class="blocklyFieldText blocklyDropdownText" fill="#000" style="font: normal 11pt sans-serif;" text-anchor="start" x="5" y="16">PASS_THROUGH<tspan style="fill: rgb(15, 177, 210);"> ▾</tspan></text><image style="display: none;"/></g></g></svg>