<svg xmlns="http://www.w3.org/2000/svg" width="275.4967956542969" height="53"><g data-id="zjy*Wr-b(b(QT5_V9$}0" class="blocklyDraggable" transform="translate(2,2)"><path class="blocklyPathDark" transform="translate(1,1)" fill="#0c8ea8" d=" m 0,0  m 0,8 a 8 8 0 0,1 8,-8  h 7  l 6,4  3,0  6,-4  h 236.49679565429688  v 5  H 266.4967956542969  V 5  H 266.4967956542969  V 36  H 266.4967956542969  V 36  V 40  h -236.99679565429688  l -6,4  -3,0  -6,-4  h -6.5 a 8 8 0 0,1 -8,-8 z&#10; M 217.30279541015625,5  v 5  c 0,10  -8,-8  -8,7.5  s 8,-2.5  8,7.5  v 11  h 39.194000244140625  v -31 z"/><path class="blocklyPath" stroke="none" fill="#0fb1d2" d=" m 0,0  m 0,8 a 8 8 0 0,1 8,-8  h 7  l 6,4  3,0  6,-4  h 236.49679565429688  v 5  H 266.4967956542969  V 5  H 266.4967956542969  V 36  H 266.4967956542969  V 36  V 40  h -236.99679565429688  l -6,4  -3,0  -6,-4  h -6.5 a 8 8 0 0,1 -8,-8 z&#10; M 217.30279541015625,5  v 5  c 0,10  -8,-8  -8,7.5  s 8,-2.5  8,7.5  v 11  h 39.194000244140625  v -31 z"/><g data-id="b`x~PY7#MVHw|p|~,rQ}" style="display: block;" transform="translate(210.30279541015625,6)"><path class="blocklyPathDark" transform="translate(1,1)" fill="#bbc2e5" d=" m 8,0  h 37.194000244140625  v 5  H 45.194000244140625  V 5  H 45.194000244140625  V 25  H 45.194000244140625  V 25  V 29  h -37.194000244140625  H 8  V 20  c 0,-10  -8,8  -8,-7.5  s 8,2.5  8,-7.5 z&#10;"/><path class="blocklyPath" stroke="none" fill="#bbc2e5" d=" m 8,0  h 37.194000244140625  v 5  H 45.194000244140625  V 5  H 45.194000244140625  V 25  H 45.194000244140625  V 25  V 29  h -37.194000244140625  H 8  V 20  c 0,-10  -8,8  -8,-7.5  s 8,2.5  8,-7.5 z&#10;"/><g class="blocklyEditableText" transform="translate(13,5)" style="cursor: text;"><rect rx="4" ry="4" x="0" y="0" height="20" width="27.194000244140625" class="blocklyFieldRect" fill="#fff" fill-opacity=".6" stroke="none"/><text class="blocklyFieldText" fill="#000" style="font: normal 11pt sans-serif;" x="5" y="16">20</text></g></g><g transform="translate(10,10)"><text class="blocklyText" fill="#fff" style="font: normal 11pt sans-serif;" x="0" y="16">Set</text></g><g class="blocklyEditableText" transform="translate(37.240509033203125,10)" style="cursor: default;"><rect rx="4" ry="4" x="0" y="0" height="20" width="104.294921875" class="blocklyFieldRect blocklyDropdownRect" fill="#fff" fill-opacity=".6" stroke="none"/><text class="blocklyFieldText blocklyDropdownText" fill="#000" style="font: normal 11pt sans-serif;" text-anchor="start" x="5" y="16">ZigbeeUnit<tspan style="fill: rgb(15, 177, 210);"> ▾</tspan></text><image style="display: none;"/></g><g transform="translate(146.53543090820312,10)"><text class="blocklyText" fill="#fff" style="font: normal 11pt sans-serif;" x="0" y="16">channel</text></g></g></svg>