<svg xmlns="http://www.w3.org/2000/svg" width="281.8318176269531" height="53"><g data-id="2V42if[[H*+?D)z)4a_(" class="blocklyDraggable" transform="translate(2,2)"><path class="blocklyPathDark" transform="translate(1,1)" fill="#0c8ea8" d=" m 0,0  m 0,8 a 8 8 0 0,1 8,-8  h 7  l 6,4  3,0  6,-4  h 242.83180236816406  v 5  H 272.83180236816406  V 5  H 272.83180236816406  V 36  H 272.83180236816406  V 36  V 40  h -243.33180236816406  l -6,4  -3,0  -6,-4  h -6.5 a 8 8 0 0,1 -8,-8 z&#10; M 206.4438018798828,5  v 5  c 0,10  -8,-8  -8,7.5  s 8,-2.5  8,7.5  v 11  h 56.38800048828125  v -31 z"/><path class="blocklyPath" stroke="none" fill="#0fb1d2" d=" m 0,0  m 0,8 a 8 8 0 0,1 8,-8  h 7  l 6,4  3,0  6,-4  h 242.83180236816406  v 5  H 272.83180236816406  V 5  H 272.83180236816406  V 36  H 272.83180236816406  V 36  V 40  h -243.33180236816406  l -6,4  -3,0  -6,-4  h -6.5 a 8 8 0 0,1 -8,-8 z&#10; M 206.4438018798828,5  v 5  c 0,10  -8,-8  -8,7.5  s 8,-2.5  8,7.5  v 11  h 56.38800048828125  v -31 z"/><g data-id="X{^qU4U(G-:M+zj=@l^`" style="display: block;" transform="translate(199.4438018798828,6)"><path class="blocklyPathDark" transform="translate(1,1)" fill="#bbc2e5" d=" m 8,0  h 54.38800048828125  v 5  H 62.38800048828125  V 5  H 62.38800048828125  V 25  H 62.38800048828125  V 25  V 29  h -54.38800048828125  H 8  V 20  c 0,-10  -8,8  -8,-7.5  s 8,2.5  8,-7.5 z&#10;"/><path class="blocklyPath" stroke="none" fill="#bbc2e5" d=" m 8,0  h 54.38800048828125  v 5  H 62.38800048828125  V 5  H 62.38800048828125  V 25  H 62.38800048828125  V 25  V 29  h -54.38800048828125  H 8  V 20  c 0,-10  -8,8  -8,-7.5  s 8,2.5  8,-7.5 z&#10;"/><g class="blocklyEditableText" transform="translate(13,5)" style="cursor: text;"><rect rx="4" ry="4" x="0" y="0" height="20" width="44.38800048828125" class="blocklyFieldRect" fill="#fff" fill-opacity=".6" stroke="none"/><text class="blocklyFieldText" fill="#000" style="font: normal 11pt sans-serif;" x="5" y="16">5664</text></g></g><g transform="translate(10,10)"><text class="blocklyText" fill="#fff" style="font: normal 11pt sans-serif;" x="0" y="16">Set</text></g><g class="blocklyEditableText" transform="translate(37.240509033203125,10)" style="cursor: default;"><rect rx="4" ry="4" x="0" y="0" height="20" width="104.294921875" class="blocklyFieldRect blocklyDropdownRect" fill="#fff" fill-opacity=".6" stroke="none"/><text class="blocklyFieldText blocklyDropdownText" fill="#000" style="font: normal 11pt sans-serif;" text-anchor="start" x="5" y="16">ZigbeeUnit<tspan style="fill: rgb(15, 177, 210);"> ▾</tspan></text><image style="display: none;"/></g><g transform="translate(146.53543090820312,10)"><text class="blocklyText" fill="#fff" style="font: normal 11pt sans-serif;" x="0" y="16">pan id</text></g></g></svg>