<svg xmlns="http://www.w3.org/2000/svg" width="346.6277160644531" height="38"><g data-id="ei@ajVv#ku:xAy,uo;;q" class="blocklyDraggable" transform="translate(2,2)"><path class="blocklyPathDark" transform="translate(1,1)" fill="#44a43d" d=" m 8,0  h 329.6277160644531  v 5  H 337.6277160644531  V 5  H 337.6277160644531  V 25  H 337.6277160644531  V 25  V 29  h -329.6277160644531  H 8  V 20  c 0,-10  -8,8  -8,-7.5  s 8,2.5  8,-7.5 z&#10;"/><path class="blocklyPath" stroke="none" fill="#55cd4c" d=" m 8,0  h 329.6277160644531  v 5  H 337.6277160644531  V 5  H 337.6277160644531  V 25  H 337.6277160644531  V 25  V 29  h -329.6277160644531  H 8  V 20  c 0,-10  -8,8  -8,-7.5  s 8,2.5  8,-7.5 z&#10;"/><g transform="translate(18,5)"><text class="blocklyText" fill="#fff" style="font: normal 11pt sans-serif;" x="0" y="16">CAN count of available (return True or False)</text></g></g></svg>