<svg xmlns="http://www.w3.org/2000/svg" width="105.37078857421875" height="42"><g data-id="qzvhh9quB[lBe=ZXQ%`+" class="blocklyDraggable" transform="translate(2,2)"><path class="blocklyPathDark" transform="translate(1,1)" fill="#44a43d" d=" m 0,0  m 0,8 a 8 8 0 0,1 8,-8  h 7  l 6,4  3,0  6,-4  h 66.37078857421875  v 5  H 96.37078857421875  V 5  H 96.37078857421875  V 25  H 96.37078857421875  V 25  V 29  h -66.87078857421875  l -6,4  -3,0  -6,-4  h -6.5 a 8 8 0 0,1 -8,-8 z&#10;"/><path class="blocklyPath" stroke="none" fill="#55cd4c" d=" m 0,0  m 0,8 a 8 8 0 0,1 8,-8  h 7  l 6,4  3,0  6,-4  h 66.37078857421875  v 5  H 96.37078857421875  V 5  H 96.37078857421875  V 25  H 96.37078857421875  V 25  V 29  h -66.87078857421875  l -6,4  -3,0  -6,-4  h -6.5 a 8 8 0 0,1 -8,-8 z&#10;"/><g transform="translate(10,5)"><text class="blocklyText" fill="#fff" style="font: normal 11pt sans-serif;" x="0" y="16">CAN deinit</text></g></g></svg>