<svg xmlns="http://www.w3.org/2000/svg" width="229.33140563964844" height="282"><g data-id="8P)6Vfwd|a9X,c|Rn^Dn" class="blocklyDraggable" transform="translate(2,2)"><path class="blocklyPathDark" transform="translate(1,1)" fill="#44a43d" d=" m 0,0  m 0,8 a 8 8 0 0,1 8,-8  h 7  l 6,4  3,0  6,-4  h 103.08229064941406  v 5  H 133.08229064941406  V 5  H 133.08229064941406  V 25  H 133.08229064941406  V 35  H 133.08229064941406  c 0,10  -8,-8  -8,7.5  s 8,-2.5  8,7.5  v 5  H 133.08229064941406  V 65  H 133.08229064941406  c 0,10  -8,-8  -8,7.5  s 8,-2.5  8,7.5  v 5  H 133.08229064941406  V 95  H 133.08229064941406  c 0,10  -8,-8  -8,7.5  s 8,-2.5  8,7.5  v 5  H 133.08229064941406  V 125  H 133.08229064941406  c 0,10  -8,-8  -8,7.5  s 8,-2.5  8,7.5  v 5  H 133.08229064941406  V 155  H 133.08229064941406  c 0,10  -8,-8  -8,7.5  s 8,-2.5  8,7.5  v 5  H 133.08229064941406  V 185  H 133.08229064941406  c 0,10  -8,-8  -8,7.5  s 8,-2.5  8,7.5  v 5  H 133.08229064941406  V 215  H 133.08229064941406  c 0,10  -8,-8  -8,7.5  s 8,-2.5  8,7.5  v 5  H 133.08229064941406  V 245  H 133.08229064941406  c 0,10  -8,-8  -8,7.5  s 8,-2.5  8,7.5  v 5  H 133.08229064941406  V 265  V 269  h -103.58229064941406  l -6,4  -3,0  -6,-4  h -6.5 a 8 8 0 0,1 -8,-8 z&#10;"/><path class="blocklyPath" stroke="none" fill="#55cd4c" d=" m 0,0  m 0,8 a 8 8 0 0,1 8,-8  h 7  l 6,4  3,0  6,-4  h 103.08229064941406  v 5  H 133.08229064941406  V 5  H 133.08229064941406  V 25  H 133.08229064941406  V 35  H 133.08229064941406  c 0,10  -8,-8  -8,7.5  s 8,-2.5  8,7.5  v 5  H 133.08229064941406  V 65  H 133.08229064941406  c 0,10  -8,-8  -8,7.5  s 8,-2.5  8,7.5  v 5  H 133.08229064941406  V 95  H 133.08229064941406  c 0,10  -8,-8  -8,7.5  s 8,-2.5  8,7.5  v 5  H 133.08229064941406  V 125  H 133.08229064941406  c 0,10  -8,-8  -8,7.5  s 8,-2.5  8,7.5  v 5  H 133.08229064941406  V 155  H 133.08229064941406  c 0,10  -8,-8  -8,7.5  s 8,-2.5  8,7.5  v 5  H 133.08229064941406  V 185  H 133.08229064941406  c 0,10  -8,-8  -8,7.5  s 8,-2.5  8,7.5  v 5  H 133.08229064941406  V 215  H 133.08229064941406  c 0,10  -8,-8  -8,7.5  s 8,-2.5  8,7.5  v 5  H 133.08229064941406  V 245  H 133.08229064941406  c 0,10  -8,-8  -8,7.5  s 8,-2.5  8,7.5  v 5  H 133.08229064941406  V 265  V 269  h -103.58229064941406  l -6,4  -3,0  -6,-4  h -6.5 a 8 8 0 0,1 -8,-8 z&#10;"/><g data-id="h/)*YdHedY8jg/DmFXOj" style="display: block;" transform="translate(126.08229064941406,30)"><path class="blocklyPathDark" transform="translate(1,1)" fill="#9acef9" d=" m 8,0  h 86.24911499023438  v 5  H 94.24911499023438  V 5  H 94.24911499023438  V 25  H 94.24911499023438  V 25  V 29  h -86.24911499023438  H 8  V 20  c 0,-10  -8,8  -8,-7.5  s 8,2.5  8,-7.5 z&#10;"/><path class="blocklyPath" stroke="none" fill="#9acef9" d=" m 8,0  h 86.24911499023438  v 5  H 94.24911499023438  V 5  H 94.24911499023438  V 25  H 94.24911499023438  V 25  V 29  h -86.24911499023438  H 8  V 20  c 0,-10  -8,8  -8,-7.5  s 8,2.5  8,-7.5 z&#10;"/><g class="blocklyEditableText" transform="translate(13,5)" style="cursor: default;"><rect rx="4" ry="4" x="0" y="0" height="20" width="76.24911499023438" class="blocklyFieldRect blocklyDropdownRect" fill="#fff" fill-opacity=".6" stroke="none"/><text class="blocklyFieldText blocklyDropdownText" fill="#000" style="font: normal 11pt sans-serif;" text-anchor="start" x="5" y="16">normal<tspan style="fill: rgb(154, 206, 249);"> ▾</tspan></text><image style="display: none;"/></g></g><g data-id="DOZG0R/pj8a~Op4|HH4T" style="display: block;" transform="translate(126.08229064941406,60)"><path class="blocklyPathDark" transform="translate(1,1)" fill="#9acef9" d=" m 8,0  h 28.597000122070312  v 5  H 36.59700012207031  V 5  H 36.59700012207031  V 25  H 36.59700012207031  V 25  V 29  h -28.597000122070312  H 8  V 20  c 0,-10  -8,8  -8,-7.5  s 8,2.5  8,-7.5 z&#10;"/><path class="blocklyPath" stroke="none" fill="#9acef9" d=" m 8,0  h 28.597000122070312  v 5  H 36.59700012207031  V 5  H 36.59700012207031  V 25  H 36.59700012207031  V 25  V 29  h -28.597000122070312  H 8  V 20  c 0,-10  -8,8  -8,-7.5  s 8,2.5  8,-7.5 z&#10;"/><g class="blocklyEditableText" transform="translate(13,5)" style="cursor: text;"><rect rx="4" ry="4" x="0" y="0" height="20" width="18.597000122070312" class="blocklyFieldRect" fill="#fff" fill-opacity=".6" stroke="none"/><text class="blocklyFieldText" fill="#000" style="font: normal 11pt sans-serif;" x="5" y="16">0</text></g></g><g data-id="*2Tv0|!ymD!BJtYRUmKN" style="display: block;" transform="translate(126.08229064941406,90)"><path class="blocklyPathDark" transform="translate(1,1)" fill="#9acef9" d=" m 8,0  h 28.597000122070312  v 5  H 36.59700012207031  V 5  H 36.59700012207031  V 25  H 36.59700012207031  V 25  V 29  h -28.597000122070312  H 8  V 20  c 0,-10  -8,8  -8,-7.5  s 8,2.5  8,-7.5 z&#10;"/><path class="blocklyPath" stroke="none" fill="#9acef9" d=" m 8,0  h 28.597000122070312  v 5  H 36.59700012207031  V 5  H 36.59700012207031  V 25  H 36.59700012207031  V 25  V 29  h -28.597000122070312  H 8  V 20  c 0,-10  -8,8  -8,-7.5  s 8,2.5  8,-7.5 z&#10;"/><g class="blocklyEditableText" transform="translate(13,5)" style="cursor: text;"><rect rx="4" ry="4" x="0" y="0" height="20" width="18.597000122070312" class="blocklyFieldRect" fill="#fff" fill-opacity=".6" stroke="none"/><text class="blocklyFieldText" fill="#000" style="font: normal 11pt sans-serif;" x="5" y="16">0</text></g></g><g data-id="L;Z9zDB*~/fM*wU}b5$#" style="display: block;" transform="translate(126.08229064941406,120)"><path class="blocklyPathDark" transform="translate(1,1)" fill="#9acef9" d=" m 8,0  h 37.194000244140625  v 5  H 45.194000244140625  V 5  H 45.194000244140625  V 25  H 45.194000244140625  V 25  V 29  h -37.194000244140625  H 8  V 20  c 0,-10  -8,8  -8,-7.5  s 8,2.5  8,-7.5 z&#10;"/><path class="blocklyPath" stroke="none" fill="#9acef9" d=" m 8,0  h 37.194000244140625  v 5  H 45.194000244140625  V 5  H 45.194000244140625  V 25  H 45.194000244140625  V 25  V 29  h -37.194000244140625  H 8  V 20  c 0,-10  -8,8  -8,-7.5  s 8,2.5  8,-7.5 z&#10;"/><g class="blocklyEditableText" transform="translate(13,5)" style="cursor: text;"><rect rx="4" ry="4" x="0" y="0" height="20" width="27.194000244140625" class="blocklyFieldRect" fill="#fff" fill-opacity=".6" stroke="none"/><text class="blocklyFieldText" fill="#000" style="font: normal 11pt sans-serif;" x="5" y="16">32</text></g></g><g data-id="%Te5Qiz-OlSB#opCFm-/" style="display: block;" transform="translate(126.08229064941406,150)"><path class="blocklyPathDark" transform="translate(1,1)" fill="#9acef9" d=" m 8,0  h 28.597000122070312  v 5  H 36.59700012207031  V 5  H 36.59700012207031  V 25  H 36.59700012207031  V 25  V 29  h -28.597000122070312  H 8  V 20  c 0,-10  -8,8  -8,-7.5  s 8,2.5  8,-7.5 z&#10;"/><path class="blocklyPath" stroke="none" fill="#9acef9" d=" m 8,0  h 28.597000122070312  v 5  H 36.59700012207031  V 5  H 36.59700012207031  V 25  H 36.59700012207031  V 25  V 29  h -28.597000122070312  H 8  V 20  c 0,-10  -8,8  -8,-7.5  s 8,2.5  8,-7.5 z&#10;"/><g class="blocklyEditableText" transform="translate(13,5)" style="cursor: text;"><rect rx="4" ry="4" x="0" y="0" height="20" width="18.597000122070312" class="blocklyFieldRect" fill="#fff" fill-opacity=".6" stroke="none"/><text class="blocklyFieldText" fill="#000" style="font: normal 11pt sans-serif;" x="5" y="16">3</text></g></g><g data-id=";^yl$jFMF-c}PMoway|f" style="display: block;" transform="translate(126.08229064941406,180)"><path class="blocklyPathDark" transform="translate(1,1)" fill="#9acef9" d=" m 8,0  h 37.194000244140625  v 5  H 45.194000244140625  V 5  H 45.194000244140625  V 25  H 45.194000244140625  V 25  V 29  h -37.194000244140625  H 8  V 20  c 0,-10  -8,8  -8,-7.5  s 8,2.5  8,-7.5 z&#10;"/><path class="blocklyPath" stroke="none" fill="#9acef9" d=" m 8,0  h 37.194000244140625  v 5  H 45.194000244140625  V 5  H 45.194000244140625  V 25  H 45.194000244140625  V 25  V 29  h -37.194000244140625  H 8  V 20  c 0,-10  -8,8  -8,-7.5  s 8,2.5  8,-7.5 z&#10;"/><g class="blocklyEditableText" transform="translate(13,5)" style="cursor: text;"><rect rx="4" ry="4" x="0" y="0" height="20" width="27.194000244140625" class="blocklyFieldRect" fill="#fff" fill-opacity=".6" stroke="none"/><text class="blocklyFieldText" fill="#000" style="font: normal 11pt sans-serif;" x="5" y="16">15</text></g></g><g data-id="TRC{r#v#?bFy1JCK_u6J" style="display: block;" transform="translate(126.08229064941406,210)"><path class="blocklyPathDark" transform="translate(1,1)" fill="#9acef9" d=" m 8,0  h 28.597000122070312  v 5  H 36.59700012207031  V 5  H 36.59700012207031  V 25  H 36.59700012207031  V 25  V 29  h -28.597000122070312  H 8  V 20  c 0,-10  -8,8  -8,-7.5  s 8,2.5  8,-7.5 z&#10;"/><path class="blocklyPath" stroke="none" fill="#9acef9" d=" m 8,0  h 28.597000122070312  v 5  H 36.59700012207031  V 5  H 36.59700012207031  V 25  H 36.59700012207031  V 25  V 29  h -28.597000122070312  H 8  V 20  c 0,-10  -8,8  -8,-7.5  s 8,2.5  8,-7.5 z&#10;"/><g class="blocklyEditableText" transform="translate(13,5)" style="cursor: text;"><rect rx="4" ry="4" x="0" y="0" height="20" width="18.597000122070312" class="blocklyFieldRect" fill="#fff" fill-opacity=".6" stroke="none"/><text class="blocklyFieldText" fill="#000" style="font: normal 11pt sans-serif;" x="5" y="16">4</text></g></g><g data-id="Z-c9C.Z5hDbTZ];N/V[+" style="display: block;" transform="translate(126.08229064941406,240)"><path class="blocklyPathDark" transform="translate(1,1)" fill="#9acef9" d=" m 8,0  h 78.30921936035156  v 5  H 86.30921936035156  V 5  H 86.30921936035156  V 25  H 86.30921936035156  V 25  V 29  h -78.30921936035156  H 8  V 20  c 0,-10  -8,8  -8,-7.5  s 8,2.5  8,-7.5 z&#10;"/><path class="blocklyPath" stroke="none" fill="#9acef9" d=" m 8,0  h 78.30921936035156  v 5  H 86.30921936035156  V 5  H 86.30921936035156  V 25  H 86.30921936035156  V 25  V 29  h -78.30921936035156  H 8  V 20  c 0,-10  -8,8  -8,-7.5  s 8,2.5  8,-7.5 z&#10;"/><g class="blocklyEditableText" transform="translate(13,5)"><rect rx="10" ry="10" x="0" y="0" height="20" class="blocklyFieldSwitchInner blocklyFieldSwitchUnChecked" fill-opacity=".9" width="68.30921936035156" fill="#898989"/><text class="blocklyFieldSwitchLabel" y="16" fill="#fff" style="font: 11pt sans-serif; display: block;" x="10">False</text><circle cy="10" r="7" class="blocklyFieldSwitchHandle" fill="#fff" cx="58.30921936035156"/><text class="blocklyFieldSwitchLabel" y="16" fill="#fff" style="font: 11pt sans-serif; display: none;" x="68.30921936035156">True</text></g></g><g transform="translate(10,5)"><text class="blocklyText" fill="#fff" style="font: normal 11pt sans-serif;" x="0" y="16">Init CAN with</text></g><g transform="translate(10,35)"><text class="blocklyText" fill="#fff" style="font: normal 11pt sans-serif;" x="0" y="16">mode</text></g><g transform="translate(10,65)"><text class="blocklyText" fill="#fff" style="font: normal 11pt sans-serif;" x="0" y="16">TX</text></g><g transform="translate(10,95)"><text class="blocklyText" fill="#fff" style="font: normal 11pt sans-serif;" x="0" y="16">RX</text></g><g transform="translate(10,125)"><text class="blocklyText" fill="#fff" style="font: normal 11pt sans-serif;" x="0" y="16">prescaler</text></g><g transform="translate(10,155)"><text class="blocklyText" fill="#fff" style="font: normal 11pt sans-serif;" x="0" y="16">sjw</text></g><g transform="translate(10,185)"><text class="blocklyText" fill="#fff" style="font: normal 11pt sans-serif;" x="0" y="16">bs1</text></g><g transform="translate(10,215)"><text class="blocklyText" fill="#fff" style="font: normal 11pt sans-serif;" x="0" y="16">bs2</text></g><g transform="translate(10,245)"><text class="blocklyText" fill="#fff" style="font: normal 11pt sans-serif;" x="0" y="16">triple sampling</text></g></g></svg>