<svg xmlns="http://www.w3.org/2000/svg" width="362.3819274902344" height="53"><g data-id="$An*5$GmgfE,3FTCUUwQ" class="blocklyDraggable" transform="translate(2,2)"><path class="blocklyPathDark" transform="translate(1,1)" fill="#44a43d" d=" m 0,0  m 0,8 a 8 8 0 0,1 8,-8  h 7  l 6,4  3,0  6,-4  h 323.3819122314453  v 5  H 353.3819122314453  V 5  H 353.3819122314453  V 36  H 353.3819122314453  V 36  V 40  h -323.8819122314453  l -6,4  -3,0  -6,-4  h -6.5 a 8 8 0 0,1 -8,-8 z&#10; M 191.26126098632812,5  v 5  c 0,10  -8,-8  -8,7.5  s 8,-2.5  8,7.5  v 6  h 14.5  v -26 z M 286.99391174316406,5  v 5  c 0,10  -8,-8  -8,7.5  s 8,-2.5  8,7.5  v 11  h 56.38800048828125  v -31 z"/><path class="blocklyPath" stroke="none" fill="#55cd4c" d=" m 0,0  m 0,8 a 8 8 0 0,1 8,-8  h 7  l 6,4  3,0  6,-4  h 323.3819122314453  v 5  H 353.3819122314453  V 5  H 353.3819122314453  V 36  H 353.3819122314453  V 36  V 40  h -323.8819122314453  l -6,4  -3,0  -6,-4  h -6.5 a 8 8 0 0,1 -8,-8 z&#10; M 191.26126098632812,5  v 5  c 0,10  -8,-8  -8,7.5  s 8,-2.5  8,7.5  v 6  h 14.5  v -26 z M 286.99391174316406,5  v 5  c 0,10  -8,-8  -8,7.5  s 8,-2.5  8,7.5  v 11  h 56.38800048828125  v -31 z"/><g data-id="sPTeuyJ{V|PK1#$Y)wHN" style="display: block;" transform="translate(279.99391174316406,6)"><path class="blocklyPathDark" transform="translate(1,1)" fill="#9acef9" d=" m 8,0  h 54.38800048828125  v 5  H 62.38800048828125  V 5  H 62.38800048828125  V 25  H 62.38800048828125  V 25  V 29  h -54.38800048828125  H 8  V 20  c 0,-10  -8,8  -8,-7.5  s 8,2.5  8,-7.5 z&#10;"/><path class="blocklyPath" stroke="none" fill="#9acef9" d=" m 8,0  h 54.38800048828125  v 5  H 62.38800048828125  V 5  H 62.38800048828125  V 25  H 62.38800048828125  V 25  V 29  h -54.38800048828125  H 8  V 20  c 0,-10  -8,8  -8,-7.5  s 8,2.5  8,-7.5 z&#10;"/><g class="blocklyEditableText" transform="translate(13,5)" style="cursor: text;"><rect rx="4" ry="4" x="0" y="0" height="20" width="44.38800048828125" class="blocklyFieldRect" fill="#fff" fill-opacity=".6" stroke="none"/><text class="blocklyFieldText" fill="#000" style="font: normal 11pt sans-serif;" x="5" y="16">5000</text></g></g><g transform="translate(10,10)"><text class="blocklyText" fill="#fff" style="font: normal 11pt sans-serif;" x="0" y="16">CAN read message into</text></g><g transform="translate(215.76126098632812,10)"><text class="blocklyText" fill="#fff" style="font: normal 11pt sans-serif;" x="0" y="16">timeout</text></g></g></svg>