<svg xmlns="http://www.w3.org/2000/svg" width="405.3006591796875" height="49"><g data-id="Llrf.xN^oGS0.-XX8-=l" class="blocklyDraggable" transform="translate(2,2)"><path class="blocklyPathDark" transform="translate(1,1)" fill="#44a43d" d=" m 8,0  h 388.3006591796875  v 5  H 396.3006591796875  V 5  H 396.3006591796875  V 36  H 396.3006591796875  V 36  V 40  h -388.3006591796875  H 8  V 20  c 0,-10  -8,8  -8,-7.5  s 8,2.5  8,-7.5 z&#10; M 226.89906311035156,5  v 5  c 0,10  -8,-8  -8,7.5  s 8,-2.5  8,7.5  v 11  h 56.38800048828125  v -31 z"/><path class="blocklyPath" stroke="none" fill="#55cd4c" d=" m 8,0  h 388.3006591796875  v 5  H 396.3006591796875  V 5  H 396.3006591796875  V 36  H 396.3006591796875  V 36  V 40  h -388.3006591796875  H 8  V 20  c 0,-10  -8,8  -8,-7.5  s 8,2.5  8,-7.5 z&#10; M 226.89906311035156,5  v 5  c 0,10  -8,-8  -8,7.5  s 8,-2.5  8,7.5  v 11  h 56.38800048828125  v -31 z"/><g data-id="33yH)oz`to~]^!U)KwTn" style="display: block;" transform="translate(219.89906311035156,6)"><path class="blocklyPathDark" transform="translate(1,1)" fill="#9acef9" d=" m 8,0  h 54.38800048828125  v 5  H 62.38800048828125  V 5  H 62.38800048828125  V 25  H 62.38800048828125  V 25  V 29  h -54.38800048828125  H 8  V 20  c 0,-10  -8,8  -8,-7.5  s 8,2.5  8,-7.5 z&#10;"/><path class="blocklyPath" stroke="none" fill="#9acef9" d=" m 8,0  h 54.38800048828125  v 5  H 62.38800048828125  V 5  H 62.38800048828125  V 25  H 62.38800048828125  V 25  V 29  h -54.38800048828125  H 8  V 20  c 0,-10  -8,8  -8,-7.5  s 8,2.5  8,-7.5 z&#10;"/><g class="blocklyEditableText" transform="translate(13,5)" style="cursor: text;"><rect rx="4" ry="4" x="0" y="0" height="20" width="44.38800048828125" class="blocklyFieldRect" fill="#fff" fill-opacity=".6" stroke="none"/><text class="blocklyFieldText" fill="#000" style="font: normal 11pt sans-serif;" x="5" y="16">5000</text></g></g><g transform="translate(18,10)"><text class="blocklyText" fill="#fff" style="font: normal 11pt sans-serif;" x="0" y="16">CAN read message timeout</text></g><g transform="translate(293.2870635986328,10)"><text class="blocklyText" fill="#fff" style="font: normal 11pt sans-serif;" x="0" y="16">(return tuple)</text></g></g></svg>