<svg xmlns="http://www.w3.org/2000/svg" width="241.55186462402344" height="38"><g data-id="`Kpue3%eX}-J-2;xoS}r" class="blocklyDraggable" transform="translate(2,2)"><path class="blocklyPathDark" transform="translate(1,1)" fill="#44a43d" d=" m 8,0  h 224.55186462402344  v 5  H 232.55186462402344  V 5  H 232.55186462402344  V 25  H 232.55186462402344  V 25  V 29  h -224.55186462402344  H 8  V 20  c 0,-10  -8,8  -8,-7.5  s 8,2.5  8,-7.5 z&#10;"/><path class="blocklyPath" stroke="none" fill="#55cd4c" d=" m 8,0  h 224.55186462402344  v 5  H 232.55186462402344  V 5  H 232.55186462402344  V 25  H 232.55186462402344  V 25  V 29  h -224.55186462402344  H 8  V 20  c 0,-10  -8,8  -8,-7.5  s 8,2.5  8,-7.5 z&#10;"/><g class="blocklyIconGroup blocklyIconGroupReadonly" display="block" transform="translate(18,5)"><path class="blocklyIconSymbol" d="M8,14.3c1.7,0,3.3-0.7,4.5-1.8s1.8-2.7,1.8-4.5s-0.7-3.3-1.8-4.4S9.7,1.7,8,1.7S4.6,2.4,3.5,3.5S1.7,6.2,1.7,8   s0.7,3.3,1.8,4.5S6.2,14.3,8,14.3z M13.3,13.3c-1.4,1.4-3.3,2.2-5.4,2.2s-4-0.9-5.4-2.2S0.4,10.1,0.4,8s0.9-4,2.2-5.4   S5.9,0.4,8,0.4s4,0.9,5.4,2.2s2.2,3.3,2.2,5.4S14.7,12,13.3,13.3z" fill="#fff"/><path class="blocklyIconSymbol" d="M8.7,12c0,0.4-0.3,0.7-0.7,0.7c-0.4,0-0.7-0.3-0.7-0.7V6.9c0-0.4,0.3-0.7,0.7-0.7c0.4,0,0.7,0.3,0.7,0.7V12z" fill="#fff"/><path class="blocklyIconSymbol" d="M8,3.1c0.5,0,0.9,0.5,0.9,1s-0.4,1-0.9,1C7.4,5.2,7,4.7,7,4.1S7.4,3.1,8,3.1z" fill="#fff"/></g><g transform="translate(45,5)"><text class="blocklyText" fill="#fff" style="font: normal 11pt sans-serif;" x="0" y="16">CAN get state (return int)</text></g></g></svg>