<svg xmlns="http://www.w3.org/2000/svg" width="286.7208251953125" height="38"><g data-id="Br6VtPaNWT^dnt/vqj^/" class="blocklyDraggable" transform="translate(2,2)"><path class="blocklyPathDark" transform="translate(1,1)" fill="#0c8ea8" d=" m 8,0  h 269.72080993652344  v 5  H 277.72080993652344  V 5  H 277.72080993652344  V 25  H 277.72080993652344  V 25  V 29  h -269.72080993652344  H 8  V 20  c 0,-10  -8,8  -8,-7.5  s 8,2.5  8,-7.5 z&#10;"/><path class="blocklyPath" stroke="none" fill="#0fb1d2" d=" m 8,0  h 269.72080993652344  v 5  H 277.72080993652344  V 5  H 277.72080993652344  V 25  H 277.72080993652344  V 25  V 29  h -269.72080993652344  H 8  V 20  c 0,-10  -8,8  -8,-7.5  s 8,2.5  8,-7.5 z&#10;"/><g transform="translate(18,5)"><text class="blocklyText" fill="#fff" style="font: normal 11pt sans-serif;" x="0" y="16">get</text></g><g class="blocklyEditableText" transform="translate(46.156768798828125,5)" style="cursor: default;"><rect rx="4" ry="4" x="0" y="0" height="20" width="105.85540771484375" class="blocklyFieldRect blocklyDropdownRect" fill="#fff" fill-opacity=".6" stroke="none"/><text class="blocklyFieldText blocklyDropdownText" fill="#000" style="font: normal 11pt sans-serif;" text-anchor="start" x="5" y="16">JoystickHat<tspan style="fill: rgb(15, 177, 210);"> ▾</tspan></text><image style="display: none;"/></g><g transform="translate(157.01217651367188,5)"><text class="blocklyText" fill="#fff" style="font: normal 11pt sans-serif;" x="0" y="16">x-axis raw value</text></g></g></svg>