<svg xmlns="http://www.w3.org/2000/svg" width="724.6693115234375" height="336"><g data-id="setup_block" transform="translate(2, 2)" class="blocklyDraggable"><path class="blocklyPathDark" transform="translate(1,1)" fill="#cca038" d=" m 0,0  m 0,8 a 8 8 0 0,1 8,-8  h 205.27699279785156  v 5  H 213.27699279785156  V 5  H 213.27699279785156  V 25  H 213.27699279785156  V 35  H 213.27699279785156  V 55  H 213.27699279785156  V 59  H 50  l -6,4  -3,0  -6,-4  h -7 a 8 8 0 0,0 -8,8  v 58 a 8 8 0 0,0 8,8  H 213.27699279785156  H 213.27699279785156  V 133  V 143  h -205.27699279785156 a 8 8 0 0,1 -8,-8 z&#10;"/><path class="blocklyPath" stroke="none" fill="#ffc846" d=" m 0,0  m 0,8 a 8 8 0 0,1 8,-8  h 205.27699279785156  v 5  H 213.27699279785156  V 5  H 213.27699279785156  V 25  H 213.27699279785156  V 35  H 213.27699279785156  V 55  H 213.27699279785156  V 59  H 50  l -6,4  -3,0  -6,-4  h -7 a 8 8 0 0,0 -8,8  v 58 a 8 8 0 0,0 8,8  H 213.27699279785156  H 213.27699279785156  V 133  V 143  h -205.27699279785156 a 8 8 0 0,1 -8,-8 z&#10;"/><g transform="translate(10,5)"><text class="blocklyText" fill="#fff" style="font: normal 11pt sans-serif;" x="0" y="16">Setup              </text></g><g transform="translate(10,35)"><text class="blocklyText" fill="#fff" style="font: normal 11pt sans-serif;" x="0" y="16">Begin initialization</text></g><g class="blocklyEditableText" transform="translate(144.29847717285156,35)"><rect rx="10" ry="10" x="0" y="0" height="20" class="blocklyFieldSwitchInner blocklyFieldSwitchChecked" fill-opacity=".9" width="63.978515625" fill="#8253f9"/><text class="blocklyFieldSwitchLabel" y="16" fill="#fff" style="font: 11pt sans-serif; display: none;" x="-63.978515625">False</text><circle cy="10" r="7" class="blocklyFieldSwitchHandle" fill="#fff" cx="10"/><text class="blocklyFieldSwitchLabel" y="16" fill="#fff" style="font: 11pt sans-serif; display: block;" x="24">True</text></g><g data-id="system_m5_begin" class="blocklyDraggable" transform="translate(21,60)" style="display: block;"><path class="blocklyPathDark" transform="translate(1,1)" fill="#59aa53" d=" m 0,0  m 0,8 a 8 8 0 0,1 8,-8  h 7  l 6,4  3,0  6,-4  h 230.30776977539062  v 5  H 260.3077697753906  V 5  H 260.3077697753906  V 25  H 260.3077697753906  V 25  V 29  h -230.80776977539062  l -6,4  -3,0  -6,-4  h -14.5  H 0 z&#10;"/><path class="blocklyPath" stroke="none" fill="#6fd568" d=" m 0,0  m 0,8 a 8 8 0 0,1 8,-8  h 7  l 6,4  3,0  6,-4  h 230.30776977539062  v 5  H 260.3077697753906  V 5  H 260.3077697753906  V 25  H 260.3077697753906  V 25  V 29  h -230.80776977539062  l -6,4  -3,0  -6,-4  h -14.5  H 0 z&#10;"/><g transform="translate(10,5)"><text class="blocklyText" fill="#fff" style="font: normal 11pt sans-serif;" x="0" y="16">Init built-in hardware at beginning</text></g><g data-id="y!b0oYCmikrkR9ak%Kou" class="blocklyDraggable" transform="translate(0,30)"><path class="blocklyPathDark" transform="translate(1,1)" fill="#c34443" d=" m 0,0  h 15  l 6,4  3,0  6,-4  h 414.9435272216797  v 5  H 444.9435272216797  V 5  H 444.9435272216797  V 36  H 444.9435272216797  V 36  V 40  h -415.4435272216797  l -6,4  -3,0  -6,-4  h -6.5 a 8 8 0 0,1 -8,-8 z&#10; M 273.93846130371094,5  v 5  c 0,10  -8,-8  -8,7.5  s 8,-2.5  8,7.5  v 11  h 55.22120666503906  v -31 z"/><path class="blocklyPath" stroke="none" fill="#f45554" d=" m 0,0  h 15  l 6,4  3,0  6,-4  h 414.9435272216797  v 5  H 444.9435272216797  V 5  H 444.9435272216797  V 36  H 444.9435272216797  V 36  V 40  h -415.4435272216797  l -6,4  -3,0  -6,-4  h -6.5 a 8 8 0 0,1 -8,-8 z&#10; M 273.93846130371094,5  v 5  c 0,10  -8,-8  -8,7.5  s 8,-2.5  8,7.5  v 11  h 55.22120666503906  v -31 z"/><g data-id="{rO$w!0:86-HsD9Z13/#" transform="translate(266.93846130371094,6)" style="display: block;" class=""><path class="blocklyPathDark" transform="translate(1,1)" fill="#9acef9" d=" m 8,0  h 53.22120666503906  v 5  H 61.22120666503906  V 5  H 61.22120666503906  V 25  H 61.22120666503906  V 25  V 29  h -53.22120666503906  H 8  V 20  c 0,-10  -8,8  -8,-7.5  s 8,2.5  8,-7.5 z&#10;"/><path class="blocklyPath" stroke="none" fill="#9acef9" d=" m 8,0  h 53.22120666503906  v 5  H 61.22120666503906  V 5  H 61.22120666503906  V 25  H 61.22120666503906  V 25  V 29  h -53.22120666503906  H 8  V 20  c 0,-10  -8,8  -8,-7.5  s 8,2.5  8,-7.5 z&#10;"/><g class="blocklyEditableText" transform="translate(13,5)" style="cursor: text;"><rect rx="4" ry="4" x="0" y="0" height="20" width="43.22120666503906" class="blocklyFieldRect" fill="#fff" fill-opacity=".6" stroke="none"/><text class="blocklyFieldText" fill="#000" style="font: normal 11pt sans-serif;" x="5" y="16">0x11</text></g></g><g transform="translate(10,10)"><text class="blocklyText" fill="#fff" style="font: normal 11pt sans-serif;" x="0" y="16">Init DualKmeter</text></g><g class="blocklyEditableText" transform="translate(124.86399841308594,10)" style="cursor: text;"><rect rx="4" ry="4" x="0" y="0" height="20" width="46.886199951171875" class="blocklyFieldRect" fill="#fff" fill-opacity=".6" stroke="none"/><text class="blocklyFieldText" fill="#000" style="font: normal 11pt sans-serif;" x="5" y="16">km_0</text></g><g transform="translate(176.7501983642578,10)"><text class="blocklyText" fill="#fff" style="font: normal 11pt sans-serif;" x="0" y="16">I2C address</text></g><g transform="translate(339.15966796875,10)"><text class="blocklyText" fill="#fff" style="font: normal 11pt sans-serif;" x="0" y="16">(0x11 ~ 0x20)</text></g></g></g></g><g data-id="loop_block" class="blocklyDraggable" transform="translate(2, 154)"><path class="blocklyPathDark" transform="translate(1,1)" fill="#0cae6e" d=" m 0,0  m 0,8 a 8 8 0 0,1 8,-8  h 125.60762023925781  v 5  H 133.6076202392578  V 5  H 133.6076202392578  V 25  H 133.6076202392578  V 29  H 50  l -6,4  -3,0  -6,-4  h -7 a 8 8 0 0,0 -8,8  v 101 a 8 8 0 0,0 8,8  H 133.6076202392578  H 133.6076202392578  V 151  H 133.6076202392578  V 171  H 133.6076202392578  V 171  V 175  h -125.60762023925781 a 8 8 0 0,1 -8,-8 z&#10;"/><path class="blocklyPath" stroke="none" fill="#0fd989" d=" m 0,0  m 0,8 a 8 8 0 0,1 8,-8  h 125.60762023925781  v 5  H 133.6076202392578  V 5  H 133.6076202392578  V 25  H 133.6076202392578  V 29  H 50  l -6,4  -3,0  -6,-4  h -7 a 8 8 0 0,0 -8,8  v 101 a 8 8 0 0,0 8,8  H 133.6076202392578  H 133.6076202392578  V 151  H 133.6076202392578  V 171  H 133.6076202392578  V 171  V 175  h -125.60762023925781 a 8 8 0 0,1 -8,-8 z&#10;"/><g transform="translate(10,5)"><text class="blocklyText" fill="#fff" style="font: normal 11pt sans-serif;" x="0" y="16">Loop                  </text></g><g class="blocklyEditableText" transform="translate(43.16166687011719,151)"><rect rx="10" ry="10" x="0" y="0" height="20" class="blocklyFieldSwitchInner blocklyFieldSwitchChecked" fill-opacity=".9" width="85.44595336914062" fill="#8253f9"/><text class="blocklyFieldSwitchLabel" y="16" fill="#fff" style="font: 11pt sans-serif; display: none;" x="-85.44595336914062">No Update</text><circle cy="10" r="7" class="blocklyFieldSwitchHandle" fill="#fff" cx="10"/><text class="blocklyFieldSwitchLabel" y="16" fill="#fff" style="font: 11pt sans-serif; display: block;" x="24">Update</text></g><g data-id="system_m5_update" class="blocklyDraggable" transform="translate(21,30)" style="display: block;"><path class="blocklyPathDark" transform="translate(1,1)" fill="#59aa53" d=" m 0,0  m 0,8 a 8 8 0 0,1 8,-8  h 7  l 6,4  3,0  6,-4  h 218.43235778808594  v 5  H 248.43235778808594  V 5  H 248.43235778808594  V 25  H 248.43235778808594  V 25  V 29  h -218.93235778808594  l -6,4  -3,0  -6,-4  h -14.5  H 0 z&#10;"/><path class="blocklyPath" stroke="none" fill="#6fd568" d=" m 0,0  m 0,8 a 8 8 0 0,1 8,-8  h 7  l 6,4  3,0  6,-4  h 218.43235778808594  v 5  H 248.43235778808594  V 5  H 248.43235778808594  V 25  H 248.43235778808594  V 25  V 29  h -218.93235778808594  l -6,4  -3,0  -6,-4  h -14.5  H 0 z&#10;"/><g transform="translate(10,5)"><text class="blocklyText" fill="#fff" style="font: normal 11pt sans-serif;" x="0" y="16">Update button,touch,etc. in loop</text></g><g data-id="v#aqv;Y`olYB:Gbn:8I~" class="blocklyDraggable" transform="translate(0,30)"><path class="blocklyPathDark" transform="translate(1,1)" fill="#2443a6" d=" m 0,0  h 15  l 6,4  3,0  6,-4  h 38.69721984863281  v 5  H 68.69721984863281  V 5  H 68.69721984863281  c 0,10  -8,-8  -8,7.5  s 8,-2.5  8,7.5  v 5  H 68.69721984863281  V 29  H 68.69721984863281  l -6,4  -3,0  -6,-4  h -7 a 8 8 0 0,0 -8,8  v 28 a 8 8 0 0,0 8,8  H 68.69721984863281  H 68.69721984863281  V 73  V 83  h -39.19721984863281  l -6,4  -3,0  -6,-4  h -6.5 a 8 8 0 0,1 -8,-8 z&#10;"/><path class="blocklyPath" stroke="none" fill="#2d54cf" d=" m 0,0  h 15  l 6,4  3,0  6,-4  h 38.69721984863281  v 5  H 68.69721984863281  V 5  H 68.69721984863281  c 0,10  -8,-8  -8,7.5  s 8,-2.5  8,7.5  v 5  H 68.69721984863281  V 29  H 68.69721984863281  l -6,4  -3,0  -6,-4  h -7 a 8 8 0 0,0 -8,8  v 28 a 8 8 0 0,0 8,8  H 68.69721984863281  H 68.69721984863281  V 73  V 83  h -39.19721984863281  l -6,4  -3,0  -6,-4  h -6.5 a 8 8 0 0,1 -8,-8 z&#10;"/><g class="blocklyIconGroup" display="block" transform="translate(10,5)"><rect class="blocklyIconShape" rx="4" ry="4" height="16" width="16" fill="#00f" stroke="#fff" stroke-width="1px"/><path class="blocklyIconSymbol" d="m4.203,7.296 0,1.368 -0.92,0.677 -0.11,0.41 0.9,1.559 0.41,0.11 1.043,-0.457 1.187,0.683 0.127,1.134 0.3,0.3 1.8,0 0.3,-0.299 0.127,-1.138 1.185,-0.682 1.046,0.458 0.409,-0.11 0.9,-1.559 -0.11,-0.41 -0.92,-0.677 0,-1.366 0.92,-0.677 0.11,-0.41 -0.9,-1.559 -0.409,-0.109 -1.046,0.458 -1.185,-0.682 -0.127,-1.138 -0.3,-0.299 -1.8,0 -0.3,0.3 -0.126,1.135 -1.187,0.682 -1.043,-0.457 -0.41,0.11 -0.899,1.559 0.108,0.409z" fill="#fff"/><circle class="blocklyIconShape" r="2.7" cx="8" cy="8" fill="#00f" stroke="#fff" stroke-width="1px"/></g><g transform="translate(37,5)"><text class="blocklyText" fill="#fff" style="font: normal 11pt sans-serif;" x="0" y="16">if</text></g><g transform="translate(10,34)"><text class="blocklyText" fill="#fff" style="font: normal 11pt sans-serif;" x="0" y="16">do</text></g><g data-id="}tziRML8G=^5WAC#ie|+" class="blocklyDraggable" transform="translate(61.69721984863281,5.684341886080802e-14)" style="display: block;"><path class="blocklyPathDark" transform="translate(1,1)" fill="#c34443" d=" m 8,0  h 329.33428955078125  v 5  H 337.33428955078125  V 5  H 337.33428955078125  V 25  H 337.33428955078125  V 25  V 29  h -329.33428955078125  H 8  V 20  c 0,-10  -8,8  -8,-7.5  s 8,2.5  8,-7.5 z&#10;"/><path class="blocklyPath" stroke="none" fill="#f45554" d=" m 8,0  h 329.33428955078125  v 5  H 337.33428955078125  V 5  H 337.33428955078125  V 25  H 337.33428955078125  V 25  V 29  h -329.33428955078125  H 8  V 20  c 0,-10  -8,8  -8,-7.5  s 8,2.5  8,-7.5 z&#10;"/><g class="blocklyEditableText" transform="translate(13,5)" style="cursor: default;"><rect rx="4" ry="4" x="0" y="0" height="20" width="63.47174072265625" class="blocklyFieldRect blocklyDropdownRect" fill="#fff" fill-opacity=".6" stroke="none"/><text class="blocklyFieldText blocklyDropdownText" fill="#000" style="font: normal 11pt sans-serif;" text-anchor="start" x="5" y="16">km_0<tspan style="fill: rgb(244, 85, 84);"> ▾</tspan></text><image style="display: none;"/></g><g transform="translate(81.47174072265625,5)"><text class="blocklyText" fill="#fff" style="font: normal 11pt sans-serif;" x="0" y="16">is ready temperature measurement</text></g></g><g data-id="r^AdRnwjiFljD`K6oVtS" class="blocklyDraggable" transform="translate(39.69721984863281,30)" style="display: block;"><path class="blocklyPathDark" transform="translate(1,1)" fill="#59aa53" d=" m 0,0  m 0,8 a 8 8 0 0,1 8,-8  h 7  l 6,4  3,0  6,-4  h 624.9721069335938  v 5  H 654.9721069335938  V 5  H 654.9721069335938  V 36  H 654.9721069335938  V 36  V 40  h -625.4721069335938  l -6,4  -3,0  -6,-4  h -6.5 a 8 8 0 0,1 -8,-8 z&#10; M 153.5590362548828,5  v 5  c 0,10  -8,-8  -8,7.5  s 8,-2.5  8,7.5  v 11  h 491.41307067871094  v -31 z"/><path class="blocklyPath" stroke="none" fill="#6fd568" d=" m 0,0  m 0,8 a 8 8 0 0,1 8,-8  h 7  l 6,4  3,0  6,-4  h 624.9721069335938  v 5  H 654.9721069335938  V 5  H 654.9721069335938  V 36  H 654.9721069335938  V 36  V 40  h -625.4721069335938  l -6,4  -3,0  -6,-4  h -6.5 a 8 8 0 0,1 -8,-8 z&#10; M 153.5590362548828,5  v 5  c 0,10  -8,-8  -8,7.5  s 8,-2.5  8,7.5  v 11  h 491.41307067871094  v -31 z"/><g transform="translate(10,10)"><text class="blocklyText" fill="#fff" style="font: normal 11pt sans-serif;" x="0" y="16">Set</text></g><g class="blocklyEditableText" transform="translate(37.240509033203125,10)" style="cursor: default;"><rect rx="4" ry="4" x="0" y="0" height="20" width="68.76878356933594" class="blocklyFieldRect blocklyDropdownRect" fill="#fff" fill-opacity=".6" stroke="none"/><text class="blocklyFieldText blocklyDropdownText" fill="#000" style="font: normal 11pt sans-serif;" text-anchor="start" x="5" y="16">label0<tspan style="fill: rgb(111, 213, 104);"> ▾</tspan></text><image style="display: none;"/></g><g transform="translate(111.00929260253906,10)"><text class="blocklyText" fill="#fff" style="font: normal 11pt sans-serif;" x="0" y="16">text</text></g><g data-id="a$R28qO0$GDH3v^T|yOB" class="blocklyDraggable blocklySelected" transform="translate(146.5590362548828,6)" style="display: block;"><path class="blocklyPathDark" transform="translate(1,1)" fill="#c34443" d=" m 8,0  h 489.41307067871094  v 5  H 497.41307067871094  V 5  H 497.41307067871094  V 25  H 497.41307067871094  V 25  V 29  h -489.41307067871094  H 8  V 20  c 0,-10  -8,8  -8,-7.5  s 8,2.5  8,-7.5 z&#10;"/><path class="blocklyPath" stroke="none" fill="#f45554" d=" m 8,0  h 489.41307067871094  v 5  H 497.41307067871094  V 5  H 497.41307067871094  V 25  H 497.41307067871094  V 25  V 29  h -489.41307067871094  H 8  V 20  c 0,-10  -8,8  -8,-7.5  s 8,2.5  8,-7.5 z&#10;"/><g transform="translate(18,5)"><text class="blocklyText" fill="#fff" style="font: normal 11pt sans-serif;" x="0" y="16">get</text></g><g class="blocklyEditableText" transform="translate(46.156768798828125,5)" style="cursor: default;"><rect rx="4" ry="4" x="0" y="0" height="20" width="63.47174072265625" class="blocklyFieldRect blocklyDropdownRect" fill="#fff" fill-opacity=".6" stroke="none"/><text class="blocklyFieldText blocklyDropdownText" fill="#000" style="font: normal 11pt sans-serif;" text-anchor="start" x="5" y="16">km_0<tspan style="fill: rgb(244, 85, 84);"> ▾</tspan></text><image style="display: none;"/></g><g transform="translate(114.62850952148438,5)"><text class="blocklyText" fill="#fff" style="font: normal 11pt sans-serif;" x="0" y="16">thermocouple temperature</text></g><g class="blocklyEditableText" transform="translate(309.664306640625,5)" style="cursor: default;"><rect rx="4" ry="4" x="0" y="0" height="20" width="84.15176391601562" class="blocklyFieldRect blocklyDropdownRect" fill="#fff" fill-opacity=".6" stroke="none"/><text class="blocklyFieldText blocklyDropdownText" fill="#000" style="font: normal 11pt sans-serif;" text-anchor="start" x="5" y="16">CELSIUS<tspan style="fill: rgb(244, 85, 84);"> ▾</tspan></text><image style="display: none;"/></g><g transform="translate(398.8160705566406,5)"><text class="blocklyText" fill="#fff" style="font: normal 11pt sans-serif;" x="0" y="16">(return float)</text></g></g></g></g></g></g></svg>