<svg xmlns="http://www.w3.org/2000/svg" width="373.8145751953125" height="38"><g data-id="wJWm|T`q.CIvv$[$MS,?" class="blocklyDraggable" transform="translate(2,2)"><path class="blocklyPathDark" transform="translate(1,1)" fill="#44a43d" d=" m 8,0  h 356.81455993652344  v 5  H 364.81455993652344  V 5  H 364.81455993652344  V 25  H 364.81455993652344  V 25  V 29  h -356.81455993652344  H 8  V 20  c 0,-10  -8,8  -8,-7.5  s 8,2.5  8,-7.5 z&#10;"/><path class="blocklyPath" stroke="none" fill="#55cd4c" d=" m 8,0  h 356.81455993652344  v 5  H 364.81455993652344  V 5  H 364.81455993652344  V 25  H 364.81455993652344  V 25  V 29  h -356.81455993652344  H 8  V 20  c 0,-10  -8,8  -8,-7.5  s 8,2.5  8,-7.5 z&#10;"/><g transform="translate(18,5)"><text class="blocklyText" fill="#fff" style="font: normal 11pt sans-serif;" x="0" y="16">get</text></g><g class="blocklyEditableText" transform="translate(46.156768798828125,5)" style="cursor: default;"><rect rx="4" ry="4" x="0" y="0" height="20" width="112.87045288085938" class="blocklyFieldRect blocklyDropdownRect" fill="#fff" fill-opacity=".6" stroke="none"/><text class="blocklyFieldText blocklyDropdownText" fill="#000" style="font: normal 11pt sans-serif;" text-anchor="start" x="5" y="16">hall_effect_0<tspan style="fill: rgb(85, 205, 76);"> ▾</tspan></text><image style="display: none;"/></g><g transform="translate(164.0272216796875,5)"><text class="blocklyText" fill="#fff" style="font: normal 11pt sans-serif;" x="0" y="16">status (return True or False)</text></g></g></svg>