<svg xmlns="http://www.w3.org/2000/svg" width="270.35296630859375" height="72"><g data-id="^_qj4RwH,([K,D^8kHX~" class="blocklyDraggable" transform="translate(2,2)"><path class="blocklyPathDark" transform="translate(1,1)" fill="#44a43d" d=" m 0,0  m 0,8 a 8 8 0 0,1 8,-8  h 253.3529510498047  v 5  H 261.3529510498047  V 5  H 261.3529510498047  V 25  H 261.3529510498047  V 29  H 50  l -6,4  -3,0  -6,-4  h -7 a 8 8 0 0,0 -8,8  v 8 a 8 8 0 0,0 8,8  H 50  H 50  V 53  V 63  h -42 a 8 8 0 0,1 -8,-8 z&#10;"/><path class="blocklyPath" stroke="none" fill="#55cd4c" d=" m 0,0  m 0,8 a 8 8 0 0,1 8,-8  h 253.3529510498047  v 5  H 261.3529510498047  V 5  H 261.3529510498047  V 25  H 261.3529510498047  V 29  H 50  l -6,4  -3,0  -6,-4  h -7 a 8 8 0 0,0 -8,8  v 8 a 8 8 0 0,0 8,8  H 50  H 50  V 53  V 63  h -42 a 8 8 0 0,1 -8,-8 z&#10;"/><g transform="translate(10,5)"><text class="blocklyText" fill="#fff" style="font: normal 11pt sans-serif;" x="0" y="16">When</text></g><g class="blocklyEditableText" transform="translate(56.295654296875,5)" style="cursor: default;"><rect rx="4" ry="4" x="0" y="0" height="20" width="112.87045288085938" class="blocklyFieldRect blocklyDropdownRect" fill="#fff" fill-opacity=".6" stroke="none"/><text class="blocklyFieldText blocklyDropdownText" fill="#000" style="font: normal 11pt sans-serif;" text-anchor="start" x="5" y="16">hall_effect_0<tspan style="fill: rgb(85, 205, 76);"> ▾</tspan></text><image style="display: none;"/></g><g class="blocklyEditableText" transform="translate(179.16610717773438,5)" style="cursor: default;"><rect rx="4" ry="4" x="0" y="0" height="20" width="77.18684387207031" class="blocklyFieldRect blocklyDropdownRect" fill="#fff" fill-opacity=".6" stroke="none"/><text class="blocklyFieldText blocklyDropdownText" fill="#000" style="font: normal 11pt sans-serif;" text-anchor="start" x="5" y="16">ACTIVE<tspan style="fill: rgb(85, 205, 76);"> ▾</tspan></text><image style="display: none;"/></g></g></svg>