<svg xmlns="http://www.w3.org/2000/svg" width="324.0322265625" height="497"><g data-id="setup_block" class="blocklyDraggable" transform="translate(2, 2)"><path class="blocklyPathDark" transform="translate(1,1)" fill="#cca038" d=" m 0,0  m 0,8 a 8 8 0 0,1 8,-8  h 205.27699279785156  v 5  H 213.27699279785156  V 5  H 213.27699279785156  V 24  H 213.27699279785156  V 34  H 213.27699279785156  V 54  H 213.27699279785156  V 58  H 50  l -6,4  -3,0  -6,-4  h -7 a 8 8 0 0,0 -8,8  v 103 a 8 8 0 0,0 8,8  H 213.27699279785156  H 213.27699279785156  V 177  V 187  h -205.27699279785156 a 8 8 0 0,1 -8,-8 z&#10;"/><path class="blocklyPath" stroke="none" fill="#ffc846" d=" m 0,0  m 0,8 a 8 8 0 0,1 8,-8  h 205.27699279785156  v 5  H 213.27699279785156  V 5  H 213.27699279785156  V 24  H 213.27699279785156  V 34  H 213.27699279785156  V 54  H 213.27699279785156  V 58  H 50  l -6,4  -3,0  -6,-4  h -7 a 8 8 0 0,0 -8,8  v 103 a 8 8 0 0,0 8,8  H 213.27699279785156  H 213.27699279785156  V 177  V 187  h -205.27699279785156 a 8 8 0 0,1 -8,-8 z&#10;"/><g data-id="system_m5_begin" style="display: block;" class="blocklyDraggable" transform="translate(21,59)"><path class="blocklyPathDark" transform="translate(1,1)" fill="#44a43d" d=" m 0,0  m 0,8 a 8 8 0 0,1 8,-8  h 7  l 6,4  3,0  6,-4  h 230.30776977539062  v 5  H 260.3077697753906  V 5  H 260.3077697753906  V 24  H 260.3077697753906  V 24  V 28  h -230.80776977539062  l -6,4  -3,0  -6,-4  h -14.5  H 0 z&#10;"/><path class="blocklyPath" stroke="none" fill="#55cd4c" d=" m 0,0  m 0,8 a 8 8 0 0,1 8,-8  h 7  l 6,4  3,0  6,-4  h 230.30776977539062  v 5  H 260.3077697753906  V 5  H 260.3077697753906  V 24  H 260.3077697753906  V 24  V 28  h -230.80776977539062  l -6,4  -3,0  -6,-4  h -14.5  H 0 z&#10;"/><g data-id=")C4]#k%p+YeiC^h*ytY8" class="blocklyDraggable" transform="translate(0,29)"><path class="blocklyPathDark" transform="translate(1,1)" fill="#cc5295" d=" m 0,0  h 15  l 6,4  3,0  6,-4  h 110.55546569824219  v 5  H 140.5554656982422  V 5  H 140.5554656982422  V 24  H 140.5554656982422  V 34  H 140.5554656982422  c 0,10  -8,-8  -8,7.5  s 8,-2.5  8,7.5  v 4  H 140.5554656982422  V 63  H 140.5554656982422  c 0,10  -8,-8  -8,7.5  s 8,-2.5  8,7.5  v 4  H 140.5554656982422  V 82  V 86  h -111.05546569824219  l -6,4  -3,0  -6,-4  h -6.5 a 8 8 0 0,1 -8,-8 z&#10;"/><path class="blocklyPath" stroke="none" fill="#ff67ba" d=" m 0,0  h 15  l 6,4  3,0  6,-4  h 110.55546569824219  v 5  H 140.5554656982422  V 5  H 140.5554656982422  V 24  H 140.5554656982422  V 34  H 140.5554656982422  c 0,10  -8,-8  -8,7.5  s 8,-2.5  8,7.5  v 4  H 140.5554656982422  V 63  H 140.5554656982422  c 0,10  -8,-8  -8,7.5  s 8,-2.5  8,7.5  v 4  H 140.5554656982422  V 82  V 86  h -111.05546569824219  l -6,4  -3,0  -6,-4  h -6.5 a 8 8 0 0,1 -8,-8 z&#10;"/><g data-id="kA5hXduN~,4!Bymc:uG2" style="display: block;" transform="translate(133.5554656982422,29)"><path class="blocklyPathDark" transform="translate(1,1)" fill="#ffc2e3" d=" m 8,0  h 91.82536315917969  v 5  H 99.82536315917969  V 5  H 99.82536315917969  V 24  H 99.82536315917969  V 24  V 28  h -91.82536315917969  H 8  V 20  c 0,-10  -8,8  -8,-7.5  s 8,2.5  8,-7.5 z&#10;"/><path class="blocklyPath" stroke="none" fill="#ffc2e3" d=" m 8,0  h 91.82536315917969  v 5  H 99.82536315917969  V 5  H 99.82536315917969  V 24  H 99.82536315917969  V 24  V 28  h -91.82536315917969  H 8  V 20  c 0,-10  -8,8  -8,-7.5  s 8,2.5  8,-7.5 z&#10;"/><g class="blocklyEditableText" transform="translate(13,5)" style="cursor: default;"><rect rx="4" ry="4" x="0" y="0" height="19" width="81.82536315917969" class="blocklyFieldRect blocklyDropdownRect" fill="#fff" fill-opacity=".6" stroke="none"/><text class="blocklyFieldText blocklyDropdownText" fill="#000" style="font: normal 11pt sans-serif;" text-anchor="start" x="5" y="16">RGB565<tspan style="fill: rgb(255, 194, 227);"> ▾</tspan></text><image style="display: none;"/></g></g><g data-id="HEwp0BgH(;BC||;]#h|X" style="display: block;" transform="translate(133.5554656982422,58)"><path class="blocklyPathDark" transform="translate(1,1)" fill="#ffc2e3" d=" m 8,0  h 152.47677612304688  v 5  H 160.47677612304688  V 5  H 160.47677612304688  V 24  H 160.47677612304688  V 24  V 28  h -152.47677612304688  H 8  V 20  c 0,-10  -8,8  -8,-7.5  s 8,2.5  8,-7.5 z&#10;"/><path class="blocklyPath" stroke="none" fill="#ffc2e3" d=" m 8,0  h 152.47677612304688  v 5  H 160.47677612304688  V 5  H 160.47677612304688  V 24  H 160.47677612304688  V 24  V 28  h -152.47677612304688  H 8  V 20  c 0,-10  -8,8  -8,-7.5  s 8,2.5  8,-7.5 z&#10;"/><g class="blocklyEditableText" transform="translate(13,5)" style="cursor: default;"><rect rx="4" ry="4" x="0" y="0" height="19" width="142.47677612304688" class="blocklyFieldRect blocklyDropdownRect" fill="#fff" fill-opacity=".6" stroke="none"/><text class="blocklyFieldText blocklyDropdownText" fill="#000" style="font: normal 11pt sans-serif;" text-anchor="start" x="5" y="16">QVGA (320x240)<tspan style="fill: rgb(255, 194, 227);"> ▾</tspan></text><image style="display: none;"/></g></g><g transform="translate(10,5)"><text class="blocklyText" fill="#fff" style="font: normal 11pt sans-serif;" x="0" y="16">Init camera with</text></g><g transform="translate(10,34)"><text class="blocklyText" fill="#fff" style="font: normal 11pt sans-serif;" x="0" y="16">pixel format</text></g><g transform="translate(10,63)"><text class="blocklyText" fill="#fff" style="font: normal 11pt sans-serif;" x="0" y="16">frame size</text></g></g><g transform="translate(10,5)"><text class="blocklyText" fill="#fff" style="font: normal 11pt sans-serif;" x="0" y="16">Init built-in hardware at beginning</text></g></g><g transform="translate(10,5)"><text class="blocklyText" fill="#fff" style="font: normal 11pt sans-serif;" x="0" y="16">Setup              </text></g><g transform="translate(10,34)"><text class="blocklyText" fill="#fff" style="font: normal 11pt sans-serif;" x="0" y="16">Begin initialization</text></g><g class="blocklyEditableText" transform="translate(144.29847717285156,34)"><rect rx="10" ry="10" x="0" y="0" height="20" class="blocklyFieldSwitchInner blocklyFieldSwitchChecked" fill-opacity=".9" width="63.978515625" fill="#8253f9"/><text class="blocklyFieldSwitchLabel" y="16" fill="#fff" style="font: 11pt sans-serif; display: none;" x="-63.978515625">False</text><circle cy="10" r="7" class="blocklyFieldSwitchHandle" fill="#fff" cx="10"/><text class="blocklyFieldSwitchLabel" y="16" fill="#fff" style="font: 11pt sans-serif; display: block;" x="24">True</text></g></g><g data-id="loop_block" class="blocklyDraggable" transform="translate(2, 198)"><path class="blocklyPathDark" transform="translate(1,1)" fill="#0cae6e" d=" m 0,0  m 0,8 a 8 8 0 0,1 8,-8  h 125.60762023925781  v 5  H 133.6076202392578  V 5  H 133.6076202392578  V 24  H 133.6076202392578  V 28  H 50  l -6,4  -3,0  -6,-4  h -7 a 8 8 0 0,0 -8,8  v 219 a 8 8 0 0,0 8,8  H 133.6076202392578  H 133.6076202392578  V 268  H 133.6076202392578  V 288  H 133.6076202392578  V 288  V 292  h -125.60762023925781 a 8 8 0 0,1 -8,-8 z&#10;"/><path class="blocklyPath" stroke="none" fill="#0fd989" d=" m 0,0  m 0,8 a 8 8 0 0,1 8,-8  h 125.60762023925781  v 5  H 133.6076202392578  V 5  H 133.6076202392578  V 24  H 133.6076202392578  V 28  H 50  l -6,4  -3,0  -6,-4  h -7 a 8 8 0 0,0 -8,8  v 219 a 8 8 0 0,0 8,8  H 133.6076202392578  H 133.6076202392578  V 268  H 133.6076202392578  V 288  H 133.6076202392578  V 288  V 292  h -125.60762023925781 a 8 8 0 0,1 -8,-8 z&#10;"/><g data-id="system_m5_update" style="display: block;" class="blocklyDraggable" transform="translate(21,29)"><path class="blocklyPathDark" transform="translate(1,1)" fill="#44a43d" d=" m 0,0  m 0,8 a 8 8 0 0,1 8,-8  h 7  l 6,4  3,0  6,-4  h 218.43235778808594  v 5  H 248.43235778808594  V 5  H 248.43235778808594  V 24  H 248.43235778808594  V 24  V 28  h -218.93235778808594  l -6,4  -3,0  -6,-4  h -14.5  H 0 z&#10;"/><path class="blocklyPath" stroke="none" fill="#55cd4c" d=" m 0,0  m 0,8 a 8 8 0 0,1 8,-8  h 7  l 6,4  3,0  6,-4  h 218.43235778808594  v 5  H 248.43235778808594  V 5  H 248.43235778808594  V 24  H 248.43235778808594  V 24  V 28  h -218.93235778808594  l -6,4  -3,0  -6,-4  h -14.5  H 0 z&#10;"/><g data-id="{^#{opYnYA%[=7sMO,0N" class="blocklyDraggable" transform="translate(0,29)"><path class="blocklyPathDark" transform="translate(1,1)" fill="#483cba" d=" m 0,0  h 15  l 6,4  3,0  6,-4  h 96.82606506347656  v 5  H 126.82606506347656  V 5  H 126.82606506347656  c 0,10  -8,-8  -8,7.5  s 8,-2.5  8,7.5  v 4  H 126.82606506347656  V 24  V 28  h -97.32606506347656  l -6,4  -3,0  -6,-4  h -14.5  H 0 z&#10;"/><path class="blocklyPath" stroke="none" fill="#5a4be8" d=" m 0,0  h 15  l 6,4  3,0  6,-4  h 96.82606506347656  v 5  H 126.82606506347656  V 5  H 126.82606506347656  c 0,10  -8,-8  -8,7.5  s 8,-2.5  8,7.5  v 4  H 126.82606506347656  V 24  V 28  h -97.32606506347656  l -6,4  -3,0  -6,-4  h -14.5  H 0 z&#10;"/><g data-id="eLb$9T~{G^UQ$n5fQTUF" class="blocklyDraggable" style="display: block;" transform="translate(119.82606506347656,0)"><path class="blocklyPathDark" transform="translate(1,1)" fill="#cc5295" d=" m 8,0  h 139.4273223876953  v 5  H 147.4273223876953  V 5  H 147.4273223876953  V 24  H 147.4273223876953  V 24  V 28  h -139.4273223876953  H 8  V 20  c 0,-10  -8,8  -8,-7.5  s 8,2.5  8,-7.5 z&#10;"/><path class="blocklyPath" stroke="none" fill="#ff67ba" d=" m 8,0  h 139.4273223876953  v 5  H 147.4273223876953  V 5  H 147.4273223876953  V 24  H 147.4273223876953  V 24  V 28  h -139.4273223876953  H 8  V 20  c 0,-10  -8,8  -8,-7.5  s 8,2.5  8,-7.5 z&#10;"/><g transform="translate(18,5)"><text class="blocklyText" fill="#fff" style="font: normal 11pt sans-serif;" x="0" y="16">camera snapshot</text></g></g><g data-id="(-!.EpFH^dmfB+6J?(t7" class="blocklyDraggable" transform="translate(0,29)"><path class="blocklyPathDark" transform="translate(1,1)" fill="#cc6473" d=" m 0,0  h 15  l 6,4  3,0  6,-4  h 114.80747985839844  v 5  H 144.80747985839844  V 5  H 144.80747985839844  c 0,10  -8,-8  -8,7.5  s 8,-2.5  8,7.5  v 4  H 144.80747985839844  V 34  H 144.80747985839844  V 53  H 144.80747985839844  V 63  H 144.80747985839844  c 0,10  -8,-8  -8,7.5  s 8,-2.5  8,7.5  v 4  H 144.80747985839844  V 92  H 144.80747985839844  c 0,10  -8,-8  -8,7.5  s 8,-2.5  8,7.5  v 4  H 144.80747985839844  V 121  H 144.80747985839844  c 0,10  -8,-8  -8,7.5  s 8,-2.5  8,7.5  v 4  H 144.80747985839844  V 150  H 144.80747985839844  c 0,10  -8,-8  -8,7.5  s 8,-2.5  8,7.5  v 4  H 144.80747985839844  V 169  V 173  h -115.30747985839844  l -6,4  -3,0  -6,-4  h -6.5 a 8 8 0 0,1 -8,-8 z&#10;"/><path class="blocklyPath" stroke="none" fill="#ff7d90" d=" m 0,0  h 15  l 6,4  3,0  6,-4  h 114.80747985839844  v 5  H 144.80747985839844  V 5  H 144.80747985839844  c 0,10  -8,-8  -8,7.5  s 8,-2.5  8,7.5  v 4  H 144.80747985839844  V 34  H 144.80747985839844  V 53  H 144.80747985839844  V 63  H 144.80747985839844  c 0,10  -8,-8  -8,7.5  s 8,-2.5  8,7.5  v 4  H 144.80747985839844  V 92  H 144.80747985839844  c 0,10  -8,-8  -8,7.5  s 8,-2.5  8,7.5  v 4  H 144.80747985839844  V 121  H 144.80747985839844  c 0,10  -8,-8  -8,7.5  s 8,-2.5  8,7.5  v 4  H 144.80747985839844  V 150  H 144.80747985839844  c 0,10  -8,-8  -8,7.5  s 8,-2.5  8,7.5  v 4  H 144.80747985839844  V 169  V 173  h -115.30747985839844  l -6,4  -3,0  -6,-4  h -6.5 a 8 8 0 0,1 -8,-8 z&#10;"/><g data-id="rUwWV6?{}[`@iDp03]7{" class="blocklyDraggable" style="display: block;" transform="translate(137.80747985839844,0)"><path class="blocklyPathDark" transform="translate(1,1)" fill="#483cba" d=" m 8,0  h 63.6005859375  v 5  H 71.6005859375  V 5  H 71.6005859375  V 24  H 71.6005859375  V 24  V 28  h -63.6005859375  H 8  V 20  c 0,-10  -8,8  -8,-7.5  s 8,2.5  8,-7.5 z&#10;"/><path class="blocklyPath" stroke="none" fill="#5a4be8" d=" m 8,0  h 63.6005859375  v 5  H 71.6005859375  V 5  H 71.6005859375  V 24  H 71.6005859375  V 24  V 28  h -63.6005859375  H 8  V 20  c 0,-10  -8,8  -8,-7.5  s 8,2.5  8,-7.5 z&#10;"/><g class="blocklyEditableText" transform="translate(13,5)" style="cursor: default;"><rect rx="4" ry="4" x="0" y="0" height="19" width="53.6005859375" class="blocklyFieldRect blocklyDropdownRect" fill="#fff" fill-opacity=".6" stroke="none"/><text class="blocklyFieldText blocklyDropdownText" fill="#000" style="font: normal 11pt sans-serif;" text-anchor="start" x="5" y="16">img<tspan style="fill: rgb(90, 75, 232);"> ▾</tspan></text><image style="display: none;"/></g></g><g data-id="9d%-{mIZX-5SL9Oy60x4" class="" style="display: block;" transform="translate(137.80747985839844,58)"><path class="blocklyPathDark" transform="translate(1,1)" fill="#9acef9" d=" m 8,0  h 28.597000122070312  v 5  H 36.59700012207031  V 5  H 36.59700012207031  V 24  H 36.59700012207031  V 24  V 28  h -28.597000122070312  H 8  V 20  c 0,-10  -8,8  -8,-7.5  s 8,2.5  8,-7.5 z&#10;"/><path class="blocklyPath" stroke="none" fill="#9acef9" d=" m 8,0  h 28.597000122070312  v 5  H 36.59700012207031  V 5  H 36.59700012207031  V 24  H 36.59700012207031  V 24  V 28  h -28.597000122070312  H 8  V 20  c 0,-10  -8,8  -8,-7.5  s 8,2.5  8,-7.5 z&#10;"/><g class="blocklyEditableText" transform="translate(13,5)" style="cursor: text;"><rect rx="4" ry="4" x="0" y="0" height="19" width="18.597000122070312" class="blocklyFieldRect" fill="#fff" fill-opacity=".6" stroke="none"/><text class="blocklyFieldText" fill="#000" style="font: normal 11pt sans-serif;" x="5" y="16">0</text></g></g><g data-id=";pw[*sfC{yg`*+hv6}{$" class="" style="display: block;" transform="translate(137.80747985839844,87)"><path class="blocklyPathDark" transform="translate(1,1)" fill="#9acef9" d=" m 8,0  h 28.597000122070312  v 5  H 36.59700012207031  V 5  H 36.59700012207031  V 24  H 36.59700012207031  V 24  V 28  h -28.597000122070312  H 8  V 20  c 0,-10  -8,8  -8,-7.5  s 8,2.5  8,-7.5 z&#10;"/><path class="blocklyPath" stroke="none" fill="#9acef9" d=" m 8,0  h 28.597000122070312  v 5  H 36.59700012207031  V 5  H 36.59700012207031  V 24  H 36.59700012207031  V 24  V 28  h -28.597000122070312  H 8  V 20  c 0,-10  -8,8  -8,-7.5  s 8,2.5  8,-7.5 z&#10;"/><g class="blocklyEditableText" transform="translate(13,5)" style="cursor: text;"><rect rx="4" ry="4" x="0" y="0" height="19" width="18.597000122070312" class="blocklyFieldRect" fill="#fff" fill-opacity=".6" stroke="none"/><text class="blocklyFieldText" fill="#000" style="font: normal 11pt sans-serif;" x="5" y="16">0</text></g></g><g data-id="Ox1=1n.;H)h8_Ro4XMmG" class="" style="display: block;" transform="translate(137.80747985839844,116)"><path class="blocklyPathDark" transform="translate(1,1)" fill="#9acef9" d=" m 8,0  h 45.79100036621094  v 5  H 53.79100036621094  V 5  H 53.79100036621094  V 24  H 53.79100036621094  V 24  V 28  h -45.79100036621094  H 8  V 20  c 0,-10  -8,8  -8,-7.5  s 8,2.5  8,-7.5 z&#10;"/><path class="blocklyPath" stroke="none" fill="#9acef9" d=" m 8,0  h 45.79100036621094  v 5  H 53.79100036621094  V 5  H 53.79100036621094  V 24  H 53.79100036621094  V 24  V 28  h -45.79100036621094  H 8  V 20  c 0,-10  -8,8  -8,-7.5  s 8,2.5  8,-7.5 z&#10;"/><g class="blocklyEditableText" transform="translate(13,5)" style="cursor: text;"><rect rx="4" ry="4" x="0" y="0" height="19" width="35.79100036621094" class="blocklyFieldRect" fill="#fff" fill-opacity=".6" stroke="none"/><text class="blocklyFieldText" fill="#000" style="font: normal 11pt sans-serif;" x="5" y="16">320</text></g></g><g data-id="IH{3`HH,Wto8r1Wy11Br" class="" style="display: block;" transform="translate(137.80747985839844,145)"><path class="blocklyPathDark" transform="translate(1,1)" fill="#9acef9" d=" m 8,0  h 45.79100036621094  v 5  H 53.79100036621094  V 5  H 53.79100036621094  V 24  H 53.79100036621094  V 24  V 28  h -45.79100036621094  H 8  V 20  c 0,-10  -8,8  -8,-7.5  s 8,2.5  8,-7.5 z&#10;"/><path class="blocklyPath" stroke="none" fill="#9acef9" d=" m 8,0  h 45.79100036621094  v 5  H 53.79100036621094  V 5  H 53.79100036621094  V 24  H 53.79100036621094  V 24  V 28  h -45.79100036621094  H 8  V 20  c 0,-10  -8,8  -8,-7.5  s 8,2.5  8,-7.5 z&#10;"/><g class="blocklyEditableText" transform="translate(13,5)" style="cursor: text;"><rect rx="4" ry="4" x="0" y="0" height="19" width="35.79100036621094" class="blocklyFieldRect" fill="#fff" fill-opacity=".6" stroke="none"/><text class="blocklyFieldText" fill="#000" style="font: normal 11pt sans-serif;" x="5" y="16">240</text></g></g><g transform="translate(10,5)"><text class="blocklyText" fill="#fff" style="font: normal 11pt sans-serif;" x="0" y="16">LCD show image</text></g><g transform="translate(10,34)"><text class="blocklyText" fill="#fff" style="font: normal 11pt sans-serif;" x="0" y="16">with</text></g><g transform="translate(10,63)"><text class="blocklyText" fill="#fff" style="font: normal 11pt sans-serif;" x="0" y="16">x</text></g><g transform="translate(10,92)"><text class="blocklyText" fill="#fff" style="font: normal 11pt sans-serif;" x="0" y="16">y</text></g><g transform="translate(10,121)"><text class="blocklyText" fill="#fff" style="font: normal 11pt sans-serif;" x="0" y="16">width</text></g><g transform="translate(10,150)"><text class="blocklyText" fill="#fff" style="font: normal 11pt sans-serif;" x="0" y="16">height</text></g></g><g transform="translate(10,5)"><text class="blocklyText" fill="#fff" style="font: normal 11pt sans-serif;" x="0" y="16">set</text></g><g class="blocklyEditableText" transform="translate(35.56549072265625,5)" style="cursor: default;"><rect rx="4" ry="4" x="0" y="0" height="19" width="53.6005859375" class="blocklyFieldRect blocklyDropdownRect" fill="#fff" fill-opacity=".6" stroke="none"/><text class="blocklyFieldText blocklyDropdownText" fill="#000" style="font: normal 11pt sans-serif;" text-anchor="start" x="5" y="16">img<tspan style="fill: rgb(90, 75, 232);"> ▾</tspan></text><image style="display: none;"/></g><g transform="translate(94.16607666015625,5)"><text class="blocklyText" fill="#fff" style="font: normal 11pt sans-serif;" x="0" y="16">to</text></g></g><g transform="translate(10,5)"><text class="blocklyText" fill="#fff" style="font: normal 11pt sans-serif;" x="0" y="16">Update button,touch,etc. in loop</text></g></g><g transform="translate(10,5)"><text class="blocklyText" fill="#fff" style="font: normal 11pt sans-serif;" x="0" y="16">Loop                  </text></g><g class="blocklyEditableText" transform="translate(43.16166687011719,268)"><rect rx="10" ry="10" x="0" y="0" height="20" class="blocklyFieldSwitchInner blocklyFieldSwitchChecked" fill-opacity=".9" width="85.44595336914062" fill="#8253f9"/><text class="blocklyFieldSwitchLabel" y="16" fill="#fff" style="font: 11pt sans-serif; display: none;" x="-85.44595336914062">No Update</text><circle cy="10" r="7" class="blocklyFieldSwitchHandle" fill="#fff" cx="10"/><text class="blocklyFieldSwitchLabel" y="16" fill="#fff" style="font: 11pt sans-serif; display: block;" x="24">Update</text></g></g></svg>