<svg xmlns="http://www.w3.org/2000/svg" width="454.92559814453125" height="53"><g data-id="N2c?;j[#?]0DV,ov=1VD" class="blocklyDraggable" transform="translate(2,2)"><path class="blocklyPathDark" transform="translate(1,1)" fill="#c34443" d=" m 0,0  m 0,8 a 8 8 0 0,1 8,-8  h 7  l 6,4  3,0  6,-4  h 415.92559814453125  v 5  H 445.92559814453125  V 5  H 445.92559814453125  V 36  H 445.92559814453125  V 36  V 40  h -416.42559814453125  l -6,4  -3,0  -6,-4  h -6.5 a 8 8 0 0,1 -8,-8 z&#10; M 313.4374084472656,5  v 5  c 0,10  -8,-8  -8,7.5  s 8,-2.5  8,7.5  v 11  h 122.48818969726562  v -31 z"/><path class="blocklyPath" stroke="none" fill="#f45554" d=" m 0,0  m 0,8 a 8 8 0 0,1 8,-8  h 7  l 6,4  3,0  6,-4  h 415.92559814453125  v 5  H 445.92559814453125  V 5  H 445.92559814453125  V 36  H 445.92559814453125  V 36  V 40  h -416.42559814453125  l -6,4  -3,0  -6,-4  h -6.5 a 8 8 0 0,1 -8,-8 z&#10; M 313.4374084472656,5  v 5  c 0,10  -8,-8  -8,7.5  s 8,-2.5  8,7.5  v 11  h 122.48818969726562  v -31 z"/><g data-id="@b2H)ly%+p!Nz.qt0P,J" class="blocklyDraggable" style="display: block;" transform="translate(306.4374084472656,6)"><path class="blocklyPathDark" transform="translate(1,1)" fill="#2e9e54" d=" m 8,0  h 120.48818969726562  v 5  H 128.48818969726562  V 5  H 128.48818969726562  V 25  H 128.48818969726562  V 25  V 29  h -120.48818969726562  H 8  V 20  c 0,-10  -8,8  -8,-7.5  s 8,2.5  8,-7.5 z&#10;"/><path class="blocklyPath" stroke="none" fill="#3ac569" d=" m 8,0  h 120.48818969726562  v 5  H 128.48818969726562  V 5  H 128.48818969726562  V 25  H 128.48818969726562  V 25  V 29  h -120.48818969726562  H 8  V 20  c 0,-10  -8,8  -8,-7.5  s 8,2.5  8,-7.5 z&#10;"/><g class="blocklyEditableText" transform="translate(13,5)" style="cursor: default;"><rect rx="4" ry="4" x="0" y="0" height="20" width="74.48818969726562" class="blocklyFieldRect blocklyDropdownRect" fill="#fff" fill-opacity=".6" stroke="none"/><text class="blocklyFieldText blocklyDropdownText" fill="#000" style="font: normal 11pt sans-serif;" text-anchor="start" x="5" y="16">Palette<tspan style="fill: rgb(58, 197, 105);"> ▾</tspan></text><image style="display: none;"/></g><g class="blocklyEditableText" transform="translate(97.48818969726562,5)" style="cursor: default;"><rect rx="4" ry="4" x="0" y="0" height="16" width="26" class="blocklyFieldRect" fill="#fff" fill-opacity=".6" stroke="none" style="fill-opacity: 1; fill: rgb(102, 0, 204);"/></g></g><g class="blocklyEditableText" transform="translate(5,10)" style="cursor: default;"><rect rx="4" ry="4" x="0" y="0" height="20" width="165.94850158691406" class="blocklyFieldRect blocklyDropdownRect" fill="#fff" fill-opacity=".6" stroke="none"/><text class="blocklyFieldText blocklyDropdownText" fill="#000" style="font: normal 11pt sans-serif;" text-anchor="start" x="5" y="16">hat_miniencoderc_0<tspan style="fill: rgb(244, 85, 84);"> ▾</tspan></text><image style="display: none;"/></g><g transform="translate(175.94850158691406,10)"><text class="blocklyText" fill="#fff" style="font: normal 11pt sans-serif;" x="0" y="16">fill RGB LED color</text></g></g></svg>