<svg xmlns="http://www.w3.org/2000/svg" width="399.1474914550781" height="38"><g data-id=")j)-Zo@.eJU#C{t^j6$-" class="blocklyDraggable" transform="translate(2,2)"><path class="blocklyPathDark" transform="translate(1,1)" fill="#c34443" d=" m 8,0  h 382.1474914550781  v 5  H 390.1474914550781  V 5  H 390.1474914550781  V 25  H 390.1474914550781  V 25  V 29  h -382.1474914550781  H 8  V 20  c 0,-10  -8,8  -8,-7.5  s 8,2.5  8,-7.5 z&#10;"/><path class="blocklyPath" stroke="none" fill="#f45554" d=" m 8,0  h 382.1474914550781  v 5  H 390.1474914550781  V 5  H 390.1474914550781  V 25  H 390.1474914550781  V 25  V 29  h -382.1474914550781  H 8  V 20  c 0,-10  -8,8  -8,-7.5  s 8,2.5  8,-7.5 z&#10;"/><g transform="translate(18,5)"><text class="blocklyText" fill="#fff" style="font: normal 11pt sans-serif;" x="0" y="16">get</text></g><g class="blocklyEditableText" transform="translate(46.156768798828125,5)" style="cursor: default;"><rect rx="4" ry="4" x="0" y="0" height="20" width="165.94850158691406" class="blocklyFieldRect blocklyDropdownRect" fill="#fff" fill-opacity=".6" stroke="none"/><text class="blocklyFieldText blocklyDropdownText" fill="#000" style="font: normal 11pt sans-serif;" text-anchor="start" x="5" y="16">hat_miniencoderc_0<tspan style="fill: rgb(244, 85, 84);"> ▾</tspan></text><image style="display: none;"/></g><g transform="translate(217.1052703857422,5)"><text class="blocklyText" fill="#fff" style="font: normal 11pt sans-serif;" x="0" y="16">rotary value (return int)</text></g></g></svg>