<svg xmlns="http://www.w3.org/2000/svg" width="454.21551513671875" height="38"><g data-id="C-fl:WHW)8sX%*X`]pEA" class="blocklyDraggable" transform="translate(2,2)"><path class="blocklyPathDark" transform="translate(1,1)" fill="#c34443" d=" m 8,0  h 437.2154998779297  v 5  H 445.2154998779297  V 5  H 445.2154998779297  V 25  H 445.2154998779297  V 25  V 29  h -437.2154998779297  H 8  V 20  c 0,-10  -8,8  -8,-7.5  s 8,2.5  8,-7.5 z&#10;"/><path class="blocklyPath" stroke="none" fill="#f45554" d=" m 8,0  h 437.2154998779297  v 5  H 445.2154998779297  V 5  H 445.2154998779297  V 25  H 445.2154998779297  V 25  V 29  h -437.2154998779297  H 8  V 20  c 0,-10  -8,8  -8,-7.5  s 8,2.5  8,-7.5 z&#10;"/><g transform="translate(18,5)"><text class="blocklyText" fill="#fff" style="font: normal 11pt sans-serif;" x="0" y="16">get</text></g><g class="blocklyEditableText" transform="translate(46.156768798828125,5)" style="cursor: default;"><rect rx="4" ry="4" x="0" y="0" height="20" width="165.94850158691406" class="blocklyFieldRect blocklyDropdownRect" fill="#fff" fill-opacity=".6" stroke="none"/><text class="blocklyFieldText blocklyDropdownText" fill="#000" style="font: normal 11pt sans-serif;" text-anchor="start" x="5" y="16">hat_miniencoderc_0<tspan style="fill: rgb(244, 85, 84);"> ▾</tspan></text><image style="display: none;"/></g><g transform="translate(217.1052703857422,5)"><text class="blocklyText" fill="#fff" style="font: normal 11pt sans-serif;" x="0" y="16">firmware version (return string)</text></g></g></svg>