<svg xmlns="http://www.w3.org/2000/svg" width="270.3243103027344" height="42"><g data-id="jXRg8G9DL.JI3Lk/L]IW" class="blocklyDraggable" transform="translate(2,2)"><path class="blocklyPathDark" transform="translate(1,1)" fill="#c34443" d=" m 0,0  m 0,8 a 8 8 0 0,1 8,-8  h 7  l 6,4  3,0  6,-4  h 231.3242950439453  v 5  H 261.3242950439453  V 5  H 261.3242950439453  V 25  H 261.3242950439453  V 25  V 29  h -231.8242950439453  l -6,4  -3,0  -6,-4  h -6.5 a 8 8 0 0,1 -8,-8 z&#10;"/><path class="blocklyPath" stroke="none" fill="#f45554" d=" m 0,0  m 0,8 a 8 8 0 0,1 8,-8  h 7  l 6,4  3,0  6,-4  h 231.3242950439453  v 5  H 261.3242950439453  V 5  H 261.3242950439453  V 25  H 261.3242950439453  V 25  V 29  h -231.8242950439453  l -6,4  -3,0  -6,-4  h -6.5 a 8 8 0 0,1 -8,-8 z&#10;"/><g class="blocklyEditableText" transform="translate(5,5)" style="cursor: default;"><rect rx="4" ry="4" x="0" y="0" height="20" width="165.94850158691406" class="blocklyFieldRect blocklyDropdownRect" fill="#fff" fill-opacity=".6" stroke="none"/><text class="blocklyFieldText blocklyDropdownText" fill="#000" style="font: normal 11pt sans-serif;" text-anchor="start" x="5" y="16">hat_miniencoderc_0<tspan style="fill: rgb(244, 85, 84);"> ▾</tspan></text><image style="display: none;"/></g><g transform="translate(175.94850158691406,5)"><text class="blocklyText" fill="#fff" style="font: normal 11pt sans-serif;" x="0" y="16">reset value</text></g></g></svg>