<svg xmlns="http://www.w3.org/2000/svg" width="310.5605163574219" height="42"><g data-id="%4]*+C])Uu:bQ$|{)lJ3" class="blocklyDraggable" transform="translate(2,2)"><path class="blocklyPathDark" transform="translate(1,1)" fill="#c34443" d=" m 0,0  m 0,8 a 8 8 0 0,1 8,-8  h 7  l 6,4  3,0  6,-4  h 271.5605163574219  v 5  H 301.5605163574219  V 5  H 301.5605163574219  V 25  H 301.5605163574219  V 25  V 29  h -272.0605163574219  l -6,4  -3,0  -6,-4  h -6.5 a 8 8 0 0,1 -8,-8 z&#10;"/><path class="blocklyPath" stroke="none" fill="#f45554" d=" m 0,0  m 0,8 a 8 8 0 0,1 8,-8  h 7  l 6,4  3,0  6,-4  h 271.5605163574219  v 5  H 301.5605163574219  V 5  H 301.5605163574219  V 25  H 301.5605163574219  V 25  V 29  h -272.0605163574219  l -6,4  -3,0  -6,-4  h -6.5 a 8 8 0 0,1 -8,-8 z&#10;"/><g transform="translate(10,5)"><text class="blocklyText" fill="#fff" style="font: normal 11pt sans-serif;" x="0" y="16">Set</text></g><g class="blocklyEditableText" transform="translate(37.240509033203125,5)" style="cursor: default;"><rect rx="4" ry="4" x="0" y="0" height="20" width="165.94850158691406" class="blocklyFieldRect blocklyDropdownRect" fill="#fff" fill-opacity=".6" stroke="none"/><text class="blocklyFieldText blocklyDropdownText" fill="#000" style="font: normal 11pt sans-serif;" text-anchor="start" x="5" y="16">hat_miniencoderc_0<tspan style="fill: rgb(244, 85, 84);"> ▾</tspan></text><image style="display: none;"/></g><g transform="translate(208.1890106201172,5)"><text class="blocklyText" fill="#fff" style="font: normal 11pt sans-serif;" x="0" y="16">rotary value</text></g></g></svg>