<svg xmlns="http://www.w3.org/2000/svg" width="217.97352600097656" height="38"><g data-id="}2tOBeK:dDK952}9qdM~" class="blocklyDraggable" transform="translate(2,2)"><path class="blocklyPathDark" transform="translate(1,1)" fill="#0c8ea8" d=" m 8,0  h 200.97352600097656  v 5  H 208.97352600097656  V 5  H 208.97352600097656  V 25  H 208.97352600097656  V 25  V 29  h -200.97352600097656  H 8  V 20  c 0,-10  -8,8  -8,-7.5  s 8,2.5  8,-7.5 z&#10;"/><path class="blocklyPath" stroke="none" fill="#0fb1d2" d=" m 8,0  h 200.97352600097656  v 5  H 208.97352600097656  V 5  H 208.97352600097656  V 25  H 208.97352600097656  V 25  V 29  h -200.97352600097656  H 8  V 20  c 0,-10  -8,8  -8,-7.5  s 8,2.5  8,-7.5 z&#10;"/><g transform="translate(18,5)"><text class="blocklyText" fill="#fff" style="font: normal 11pt sans-serif;" x="0" y="16">get</text></g><g class="blocklyEditableText" transform="translate(46.156768798828125,5)" style="cursor: default;"><rect rx="4" ry="4" x="0" y="0" height="20" width="95.90550231933594" class="blocklyFieldRect blocklyDropdownRect" fill="#fff" fill-opacity=".6" stroke="none"/><text class="blocklyFieldText blocklyDropdownText" fill="#000" style="font: normal 11pt sans-serif;" text-anchor="start" x="5" y="16">speaker_0<tspan style="fill: rgb(15, 177, 210);"> ▾</tspan></text><image style="display: none;"/></g><g transform="translate(147.06227111816406,5)"><text class="blocklyText" fill="#fff" style="font: normal 11pt sans-serif;" x="0" y="16">volume</text></g></g></svg>