<svg xmlns="http://www.w3.org/2000/svg" width="644.3458251953125" height="53"><g data-id="c`a[1tQG;q_8%miHk*6h" class="blocklyDraggable" transform="translate(2,2)"><path class="blocklyPathDark" transform="translate(1,1)" fill="#0c8ea8" d=" m 0,0  m 0,8 a 8 8 0 0,1 8,-8  h 7  l 6,4  3,0  6,-4  h 605.3457946777344  v 5  H 635.3457946777344  V 5  H 635.3457946777344  V 36  H 635.3457946777344  V 36  V 40  h -605.8457946777344  l -6,4  -3,0  -6,-4  h -6.5 a 8 8 0 0,1 -8,-8 z&#10; M 219.8868865966797,5  v 5  c 0,10  -8,-8  -8,7.5  s 8,-2.5  8,7.5  v 11  h 56.38800048828125  v -31 z M 333.6922149658203,5  v 5  c 0,10  -8,-8  -8,7.5  s 8,-2.5  8,7.5  v 11  h 42.722991943359375  v -31 z M 490.91200256347656,5  v 5  c 0,10  -8,-8  -8,7.5  s 8,-2.5  8,7.5  v 11  h 36.93916320800781  v -31 z"/><path class="blocklyPath" stroke="none" fill="#0fb1d2" d=" m 0,0  m 0,8 a 8 8 0 0,1 8,-8  h 7  l 6,4  3,0  6,-4  h 605.3457946777344  v 5  H 635.3457946777344  V 5  H 635.3457946777344  V 36  H 635.3457946777344  V 36  V 40  h -605.8457946777344  l -6,4  -3,0  -6,-4  h -6.5 a 8 8 0 0,1 -8,-8 z&#10; M 219.8868865966797,5  v 5  c 0,10  -8,-8  -8,7.5  s 8,-2.5  8,7.5  v 11  h 56.38800048828125  v -31 z M 333.6922149658203,5  v 5  c 0,10  -8,-8  -8,7.5  s 8,-2.5  8,7.5  v 11  h 42.722991943359375  v -31 z M 490.91200256347656,5  v 5  c 0,10  -8,-8  -8,7.5  s 8,-2.5  8,7.5  v 11  h 36.93916320800781  v -31 z"/><g data-id="jToOnMOyYyDUr^FqK3]g" style="display: block;" transform="translate(212.8868865966797,6)"><path class="blocklyPathDark" transform="translate(1,1)" fill="#bbc2e5" d=" m 8,0  h 54.38800048828125  v 5  H 62.38800048828125  V 5  H 62.38800048828125  V 25  H 62.38800048828125  V 25  V 29  h -54.38800048828125  H 8  V 20  c 0,-10  -8,8  -8,-7.5  s 8,2.5  8,-7.5 z&#10;"/><path class="blocklyPath" stroke="none" fill="#bbc2e5" d=" m 8,0  h 54.38800048828125  v 5  H 62.38800048828125  V 5  H 62.38800048828125  V 25  H 62.38800048828125  V 25  V 29  h -54.38800048828125  H 8  V 20  c 0,-10  -8,8  -8,-7.5  s 8,2.5  8,-7.5 z&#10;"/><g class="blocklyEditableText" transform="translate(13,5)" style="cursor: text;"><rect rx="4" ry="4" x="0" y="0" height="20" width="44.38800048828125" class="blocklyFieldRect" fill="#fff" fill-opacity=".6" stroke="none"/><text class="blocklyFieldText" fill="#000" style="font: normal 11pt sans-serif;" x="5" y="16">2000</text></g></g><g data-id="dITgK4fqs9k^(Y%PN3Db" style="display: block;" transform="translate(326.6922149658203,6)"><path class="blocklyPathDark" transform="translate(1,1)" fill="#bbc2e5" d=" m 8,0  h 40.722991943359375  v 5  H 48.722991943359375  V 5  H 48.722991943359375  V 25  H 48.722991943359375  V 25  V 29  h -40.722991943359375  H 8  V 20  c 0,-10  -8,8  -8,-7.5  s 8,2.5  8,-7.5 z&#10;"/><path class="blocklyPath" stroke="none" fill="#bbc2e5" d=" m 8,0  h 40.722991943359375  v 5  H 48.722991943359375  V 5  H 48.722991943359375  V 25  H 48.722991943359375  V 25  V 29  h -40.722991943359375  H 8  V 20  c 0,-10  -8,8  -8,-7.5  s 8,2.5  8,-7.5 z&#10;"/><g class="blocklyEditableText" transform="translate(13,5)" style="cursor: text;"><rect rx="4" ry="4" x="0" y="0" height="20" width="30.722991943359375" class="blocklyFieldRect" fill="#fff" fill-opacity=".6" stroke="none"/><text class="blocklyFieldText" fill="#000" style="font: normal 11pt sans-serif;" x="5" y="16">0.1</text></g></g><g data-id="I.Y9j:s~BmTPsbeJFTwq" style="display: block;" transform="translate(483.91200256347656,6)"><path class="blocklyPathDark" transform="translate(1,1)" fill="#bbc2e5" d=" m 8,0  h 34.93916320800781  v 5  H 42.93916320800781  V 5  H 42.93916320800781  V 25  H 42.93916320800781  V 25  V 29  h -34.93916320800781  H 8  V 20  c 0,-10  -8,8  -8,-7.5  s 8,2.5  8,-7.5 z&#10;"/><path class="blocklyPath" stroke="none" fill="#bbc2e5" d=" m 8,0  h 34.93916320800781  v 5  H 42.93916320800781  V 5  H 42.93916320800781  V 25  H 42.93916320800781  V 25  V 29  h -34.93916320800781  H 8  V 20  c 0,-10  -8,8  -8,-7.5  s 8,2.5  8,-7.5 z&#10;"/><g class="blocklyEditableText" transform="translate(13,5)" style="cursor: text;"><rect rx="4" ry="4" x="0" y="0" height="20" width="24.939163208007812" class="blocklyFieldRect" fill="#fff" fill-opacity=".6" stroke="none"/><text class="blocklyFieldText" fill="#000" style="font: normal 11pt sans-serif;" x="5" y="16">-1</text></g></g><g class="blocklyEditableText" transform="translate(5,10)" style="cursor: default;"><rect rx="4" ry="4" x="0" y="0" height="20" width="95.90550231933594" class="blocklyFieldRect blocklyDropdownRect" fill="#fff" fill-opacity=".6" stroke="none"/><text class="blocklyFieldText blocklyDropdownText" fill="#000" style="font: normal 11pt sans-serif;" text-anchor="start" x="5" y="16">speaker_0<tspan style="fill: rgb(15, 177, 210);"> ▾</tspan></text><image style="display: none;"/></g><g transform="translate(105.90550231933594,10)"><text class="blocklyText" fill="#fff" style="font: normal 11pt sans-serif;" x="0" y="16">play tone freq</text></g><g transform="translate(286.27488708496094,10)"><text class="blocklyText" fill="#fff" style="font: normal 11pt sans-serif;" x="0" y="16">time</text></g><g transform="translate(386.4152069091797,10)"><text class="blocklyText" fill="#fff" style="font: normal 11pt sans-serif;" x="0" y="16">(sec) volume</text></g><g transform="translate(537.8511657714844,10)"><text class="blocklyText" fill="#fff" style="font: normal 11pt sans-serif;" x="0" y="16">sync</text></g><g class="blocklyEditableText" transform="translate(573.78173828125,10)" style="cursor: default;"><rect rx="4" ry="4" x="0" y="0" height="20" width="56.564056396484375" class="blocklyFieldRect blocklyDropdownRect" fill="#fff" fill-opacity=".6" stroke="none"/><text class="blocklyFieldText blocklyDropdownText" fill="#000" style="font: normal 11pt sans-serif;" text-anchor="start" x="5" y="16">True<tspan style="fill: rgb(15, 177, 210);"> ▾</tspan></text><image style="display: none;"/></g></g></svg>