<svg xmlns="http://www.w3.org/2000/svg" width="262.5762481689453" height="53"><g data-id="3}Q#Gctz0`DMeWkBFr.@" class="blocklyDraggable" transform="translate(2,2)"><path class="blocklyPathDark" transform="translate(1,1)" fill="#0c8ea8" d=" m 0,0  m 0,8 a 8 8 0 0,1 8,-8  h 7  l 6,4  3,0  6,-4  h 223.5762481689453  v 5  H 253.5762481689453  V 5  H 253.5762481689453  V 36  H 253.5762481689453  V 36  V 40  h -224.0762481689453  l -6,4  -3,0  -6,-4  h -6.5 a 8 8 0 0,1 -8,-8 z&#10; M 204.3822479248047,5  v 5  c 0,10  -8,-8  -8,7.5  s 8,-2.5  8,7.5  v 11  h 39.194000244140625  v -31 z"/><path class="blocklyPath" stroke="none" fill="#0fb1d2" d=" m 0,0  m 0,8 a 8 8 0 0,1 8,-8  h 7  l 6,4  3,0  6,-4  h 223.5762481689453  v 5  H 253.5762481689453  V 5  H 253.5762481689453  V 36  H 253.5762481689453  V 36  V 40  h -224.0762481689453  l -6,4  -3,0  -6,-4  h -6.5 a 8 8 0 0,1 -8,-8 z&#10; M 204.3822479248047,5  v 5  c 0,10  -8,-8  -8,7.5  s 8,-2.5  8,7.5  v 11  h 39.194000244140625  v -31 z"/><g data-id="SOShHT^.(N!:H)2t%iY{" style="display: block;" transform="translate(197.3822479248047,6)"><path class="blocklyPathDark" transform="translate(1,1)" fill="#bbc2e5" d=" m 8,0  h 37.194000244140625  v 5  H 45.194000244140625  V 5  H 45.194000244140625  V 25  H 45.194000244140625  V 25  V 29  h -37.194000244140625  H 8  V 20  c 0,-10  -8,8  -8,-7.5  s 8,2.5  8,-7.5 z&#10;"/><path class="blocklyPath" stroke="none" fill="#bbc2e5" d=" m 8,0  h 37.194000244140625  v 5  H 45.194000244140625  V 5  H 45.194000244140625  V 25  H 45.194000244140625  V 25  V 29  h -37.194000244140625  H 8  V 20  c 0,-10  -8,8  -8,-7.5  s 8,2.5  8,-7.5 z&#10;"/><g class="blocklyEditableText" transform="translate(13,5)" style="cursor: text;"><rect rx="4" ry="4" x="0" y="0" height="20" width="27.194000244140625" class="blocklyFieldRect" fill="#fff" fill-opacity=".6" stroke="none"/><text class="blocklyFieldText" fill="#000" style="font: normal 11pt sans-serif;" x="5" y="16">50</text></g></g><g transform="translate(10,10)"><text class="blocklyText" fill="#fff" style="font: normal 11pt sans-serif;" x="0" y="16">set</text></g><g class="blocklyEditableText" transform="translate(35.56549072265625,10)" style="cursor: default;"><rect rx="4" ry="4" x="0" y="0" height="20" width="95.90550231933594" class="blocklyFieldRect blocklyDropdownRect" fill="#fff" fill-opacity=".6" stroke="none"/><text class="blocklyFieldText blocklyDropdownText" fill="#000" style="font: normal 11pt sans-serif;" text-anchor="start" x="5" y="16">speaker_0<tspan style="fill: rgb(15, 177, 210);"> ▾</tspan></text><image style="display: none;"/></g><g transform="translate(136.4709930419922,10)"><text class="blocklyText" fill="#fff" style="font: normal 11pt sans-serif;" x="0" y="16">volume</text></g></g></svg>