<svg xmlns="http://www.w3.org/2000/svg" width="735.7445068359375" height="83"><g data-id="8eHyiOVp:Y~9^*r9Lys7" class="blocklyDraggable" transform="translate(2,2)"><path class="blocklyPathDark" transform="translate(1,1)" fill="#44a43d" d=" m 0,0  m 0,8 a 8 8 0 0,1 8,-8  h 718.7444763183594  v 5  H 726.7444763183594  V 5  H 726.7444763183594  V 36  H 726.7444763183594  V 40  H 50  l -6,4  -3,0  -6,-4  h -7 a 8 8 0 0,0 -8,8  v 8 a 8 8 0 0,0 8,8  H 50  H 50  V 64  V 74  h -42 a 8 8 0 0,1 -8,-8 z&#10; M 318.94920349121094,5  v 5  c 0,10  -8,-8  -8,7.5  s 8,-2.5  8,7.5  v 11  h 161.6492462158203  v -31 z M 587.3786926269531,5  v 5  c 0,10  -8,-8  -8,7.5  s 8,-2.5  8,7.5  v 11  h 129.36578369140625  v -31 z"/><path class="blocklyPath" stroke="none" fill="#55cd4c" d=" m 0,0  m 0,8 a 8 8 0 0,1 8,-8  h 718.7444763183594  v 5  H 726.7444763183594  V 5  H 726.7444763183594  V 36  H 726.7444763183594  V 40  H 50  l -6,4  -3,0  -6,-4  h -7 a 8 8 0 0,0 -8,8  v 8 a 8 8 0 0,0 8,8  H 50  H 50  V 64  V 74  h -42 a 8 8 0 0,1 -8,-8 z&#10; M 318.94920349121094,5  v 5  c 0,10  -8,-8  -8,7.5  s 8,-2.5  8,7.5  v 11  h 161.6492462158203  v -31 z M 587.3786926269531,5  v 5  c 0,10  -8,-8  -8,7.5  s 8,-2.5  8,7.5  v 11  h 129.36578369140625  v -31 z"/><g data-id="O-EA^ngs)M!.,-%pq*Pc" class="blocklyDraggable" style="display: block;" transform="translate(311.94920349121094,6)"><path class="blocklyPathDark" transform="translate(1,1)" fill="#483cba" d=" m 8,0  h 159.6492462158203  v 5  H 167.6492462158203  V 5  H 167.6492462158203  V 25  H 167.6492462158203  V 25  V 29  h -159.6492462158203  H 8  V 20  c 0,-10  -8,8  -8,-7.5  s 8,2.5  8,-7.5 z&#10;"/><path class="blocklyPath" stroke="none" fill="#5a4be8" d=" m 8,0  h 159.6492462158203  v 5  H 167.6492462158203  V 5  H 167.6492462158203  V 25  H 167.6492462158203  V 25  V 29  h -159.6492462158203  H 8  V 20  c 0,-10  -8,8  -8,-7.5  s 8,2.5  8,-7.5 z&#10;"/><g class="blocklyEditableText" transform="translate(13,5)" style="cursor: default;"><rect rx="4" ry="4" x="0" y="0" height="20" width="149.6492462158203" class="blocklyFieldRect blocklyDropdownRect" fill="#fff" fill-opacity=".6" stroke="none"/><text class="blocklyFieldText blocklyDropdownText" fill="#000" style="font: normal 11pt sans-serif;" text-anchor="start" x="5" y="16">lorae220_str_data<tspan style="fill: rgb(90, 75, 232);"> ▾</tspan></text><image style="display: none;"/></g></g><g data-id="H5F3%*u@V}6k:cuZ@D@!" class="blocklyDraggable" style="display: block;" transform="translate(580.3786926269531,6)"><path class="blocklyPathDark" transform="translate(1,1)" fill="#483cba" d=" m 8,0  h 127.36578369140625  v 5  H 135.36578369140625  V 5  H 135.36578369140625  V 25  H 135.36578369140625  V 25  V 29  h -127.36578369140625  H 8  V 20  c 0,-10  -8,8  -8,-7.5  s 8,2.5  8,-7.5 z&#10;"/><path class="blocklyPath" stroke="none" fill="#5a4be8" d=" m 8,0  h 127.36578369140625  v 5  H 135.36578369140625  V 5  H 135.36578369140625  V 25  H 135.36578369140625  V 25  V 29  h -127.36578369140625  H 8  V 20  c 0,-10  -8,8  -8,-7.5  s 8,2.5  8,-7.5 z&#10;"/><g class="blocklyEditableText" transform="translate(13,5)" style="cursor: default;"><rect rx="4" ry="4" x="0" y="0" height="20" width="117.36578369140625" class="blocklyFieldRect blocklyDropdownRect" fill="#fff" fill-opacity=".6" stroke="none"/><text class="blocklyFieldText blocklyDropdownText" fill="#000" style="font: normal 11pt sans-serif;" text-anchor="start" x="5" y="16">lorae220_rssi<tspan style="fill: rgb(90, 75, 232);"> ▾</tspan></text><image style="display: none;"/></g></g><g transform="translate(10,10)"><text class="blocklyText" fill="#fff" style="font: normal 11pt sans-serif;" x="0" y="16">When</text></g><g class="blocklyEditableText" transform="translate(56.295654296875,10)" style="cursor: default;"><rect rx="4" ry="4" x="0" y="0" height="20" width="102.78456115722656" class="blocklyFieldRect blocklyDropdownRect" fill="#fff" fill-opacity=".6" stroke="none"/><text class="blocklyFieldText blocklyDropdownText" fill="#000" style="font: normal 11pt sans-serif;" text-anchor="start" x="5" y="16">lorae220_0<tspan style="fill: rgb(85, 205, 76);"> ▾</tspan></text><image style="display: none;"/></g><g transform="translate(164.08021545410156,10)"><text class="blocklyText" fill="#fff" style="font: normal 11pt sans-serif;" x="0" y="16">receive data (string)</text></g><g transform="translate(490.59844970703125,10)"><text class="blocklyText" fill="#fff" style="font: normal 11pt sans-serif;" x="0" y="16">RSSI (in dB)</text></g></g></svg>