<svg xmlns="http://www.w3.org/2000/svg" width="906.151123046875" height="113"><g data-id=",umt7rZM64RRNZ}gt8|G" class="blocklyDraggable" transform="translate(2,2)"><path class="blocklyPathDark" transform="translate(1,1)" fill="#44a43d" d=" m 0,0  m 0,8 a 8 8 0 0,1 8,-8  h 7  l 6,4  3,0  6,-4  h 867.1511383056641  v 5  H 897.1511383056641  V 5  H 897.1511383056641  V 96  H 897.1511383056641  V 96  V 100  h -867.6511383056641  l -6,4  -3,0  -6,-4  h -6.5 a 8 8 0 0,1 -8,-8 z&#10; M 233.05799865722656,5  v 5  c 0,10  -8,-8  -8,7.5  s 8,-2.5  8,7.5  v 71  h 188.10736083984375  v -91 z M 501.30279541015625,5  v 5  c 0,10  -8,-8  -8,7.5  s 8,-2.5  8,7.5  v 11  h 72.41520690917969  v -31 z M 791.4216918945312,5  v 5  c 0,10  -8,-8  -8,7.5  s 8,-2.5  8,7.5  v 11  h 30.597000122070312  v -31 z"/><path class="blocklyPath" stroke="none" fill="#55cd4c" d=" m 0,0  m 0,8 a 8 8 0 0,1 8,-8  h 7  l 6,4  3,0  6,-4  h 867.1511383056641  v 5  H 897.1511383056641  V 5  H 897.1511383056641  V 96  H 897.1511383056641  V 96  V 100  h -867.6511383056641  l -6,4  -3,0  -6,-4  h -6.5 a 8 8 0 0,1 -8,-8 z&#10; M 233.05799865722656,5  v 5  c 0,10  -8,-8  -8,7.5  s 8,-2.5  8,7.5  v 71  h 188.10736083984375  v -91 z M 501.30279541015625,5  v 5  c 0,10  -8,-8  -8,7.5  s 8,-2.5  8,7.5  v 11  h 72.41520690917969  v -31 z M 791.4216918945312,5  v 5  c 0,10  -8,-8  -8,7.5  s 8,-2.5  8,7.5  v 11  h 30.597000122070312  v -31 z"/><g data-id="(Ae-r0L1/C4gU]Fe~oU]" style="display: block;" class="blocklyDraggable" transform="translate(226.05799865722656,6)"><path class="blocklyPathDark" transform="translate(1,1)" fill="#44a43d" d=" m 8,0  h 156.51036071777344  v 5  H 164.51036071777344  V 5  H 164.51036071777344  c 0,10  -8,-8  -8,7.5  s 8,-2.5  8,7.5  v 5  H 164.51036071777344  V 35  H 164.51036071777344  c 0,10  -8,-8  -8,7.5  s 8,-2.5  8,7.5  v 5  H 164.51036071777344  V 65  H 164.51036071777344  c 0,10  -8,-8  -8,7.5  s 8,-2.5  8,7.5  v 5  H 164.51036071777344  V 85  V 89  h -156.51036071777344  H 8  V 20  c 0,-10  -8,8  -8,-7.5  s 8,2.5  8,-7.5 z&#10;"/><path class="blocklyPath" stroke="none" fill="#55cd4c" d=" m 8,0  h 156.51036071777344  v 5  H 164.51036071777344  V 5  H 164.51036071777344  c 0,10  -8,-8  -8,7.5  s 8,-2.5  8,7.5  v 5  H 164.51036071777344  V 35  H 164.51036071777344  c 0,10  -8,-8  -8,7.5  s 8,-2.5  8,7.5  v 5  H 164.51036071777344  V 65  H 164.51036071777344  c 0,10  -8,-8  -8,7.5  s 8,-2.5  8,7.5  v 5  H 164.51036071777344  V 85  V 89  h -156.51036071777344  H 8  V 20  c 0,-10  -8,8  -8,-7.5  s 8,2.5  8,-7.5 z&#10;"/><g class="blocklyIconGroup blocklyIconGroupReadonly" display="block" transform="translate(18,5)"><rect class="blocklyIconShape" rx="4" ry="4" height="16" width="16" fill="#00f" stroke="#fff" stroke-width="1px"/><path class="blocklyIconSymbol" d="m4.203,7.296 0,1.368 -0.92,0.677 -0.11,0.41 0.9,1.559 0.41,0.11 1.043,-0.457 1.187,0.683 0.127,1.134 0.3,0.3 1.8,0 0.3,-0.299 0.127,-1.138 1.185,-0.682 1.046,0.458 0.409,-0.11 0.9,-1.559 -0.11,-0.41 -0.92,-0.677 0,-1.366 0.92,-0.677 0.11,-0.41 -0.9,-1.559 -0.409,-0.109 -1.046,0.458 -1.185,-0.682 -0.127,-1.138 -0.3,-0.299 -1.8,0 -0.3,0.3 -0.126,1.135 -1.187,0.682 -1.043,-0.457 -0.41,0.11 -0.899,1.559 0.108,0.409z" fill="#fff"/><circle class="blocklyIconShape" r="2.7" cx="8" cy="8" fill="#00f" stroke="#fff" stroke-width="1px"/></g><g data-id="Y3Br4-S@pZ;h;%GzqtJz" style="display: block;" transform="translate(157.51036071777344,0)"><path class="blocklyPathDark" transform="translate(1,1)" fill="#9acef9" d=" m 8,0  h 28.597000122070312  v 5  H 36.59700012207031  V 5  H 36.59700012207031  V 25  H 36.59700012207031  V 25  V 29  h -28.597000122070312  H 8  V 20  c 0,-10  -8,8  -8,-7.5  s 8,2.5  8,-7.5 z&#10;"/><path class="blocklyPath" stroke="none" fill="#9acef9" d=" m 8,0  h 28.597000122070312  v 5  H 36.59700012207031  V 5  H 36.59700012207031  V 25  H 36.59700012207031  V 25  V 29  h -28.597000122070312  H 8  V 20  c 0,-10  -8,8  -8,-7.5  s 8,2.5  8,-7.5 z&#10;"/><g class="blocklyEditableText" transform="translate(13,5)" style="cursor: text;"><rect rx="4" ry="4" x="0" y="0" height="20" width="18.597000122070312" class="blocklyFieldRect" fill="#fff" fill-opacity=".6" stroke="none"/><text class="blocklyFieldText" fill="#000" style="font: normal 11pt sans-serif;" x="5" y="16">0</text></g></g><g data-id="tKX/Ex((!w;y3MN9)I!V" style="display: block;" transform="translate(157.51036071777344,30)"><path class="blocklyPathDark" transform="translate(1,1)" fill="#9acef9" d=" m 8,0  h 28.597000122070312  v 5  H 36.59700012207031  V 5  H 36.59700012207031  V 25  H 36.59700012207031  V 25  V 29  h -28.597000122070312  H 8  V 20  c 0,-10  -8,8  -8,-7.5  s 8,2.5  8,-7.5 z&#10;"/><path class="blocklyPath" stroke="none" fill="#9acef9" d=" m 8,0  h 28.597000122070312  v 5  H 36.59700012207031  V 5  H 36.59700012207031  V 25  H 36.59700012207031  V 25  V 29  h -28.597000122070312  H 8  V 20  c 0,-10  -8,8  -8,-7.5  s 8,2.5  8,-7.5 z&#10;"/><g class="blocklyEditableText" transform="translate(13,5)" style="cursor: text;"><rect rx="4" ry="4" x="0" y="0" height="20" width="18.597000122070312" class="blocklyFieldRect" fill="#fff" fill-opacity=".6" stroke="none"/><text class="blocklyFieldText" fill="#000" style="font: normal 11pt sans-serif;" x="5" y="16">0</text></g></g><g data-id="=um_F7oqbWgbJSxq7zm7" style="display: block;" transform="translate(157.51036071777344,60)"><path class="blocklyPathDark" transform="translate(1,1)" fill="#9acef9" d=" m 8,0  h 28.597000122070312  v 5  H 36.59700012207031  V 5  H 36.59700012207031  V 25  H 36.59700012207031  V 25  V 29  h -28.597000122070312  H 8  V 20  c 0,-10  -8,8  -8,-7.5  s 8,2.5  8,-7.5 z&#10;"/><path class="blocklyPath" stroke="none" fill="#9acef9" d=" m 8,0  h 28.597000122070312  v 5  H 36.59700012207031  V 5  H 36.59700012207031  V 25  H 36.59700012207031  V 25  V 29  h -28.597000122070312  H 8  V 20  c 0,-10  -8,8  -8,-7.5  s 8,2.5  8,-7.5 z&#10;"/><g class="blocklyEditableText" transform="translate(13,5)" style="cursor: text;"><rect rx="4" ry="4" x="0" y="0" height="20" width="18.597000122070312" class="blocklyFieldRect" fill="#fff" fill-opacity=".6" stroke="none"/><text class="blocklyFieldText" fill="#000" style="font: normal 11pt sans-serif;" x="5" y="16">0</text></g></g><g transform="translate(45,5)"><text class="blocklyText" fill="#fff" style="font: normal 11pt sans-serif;" x="0" y="16">create list with</text></g></g><g data-id="i;9B`I@0at(.o^SGD=#@" style="display: block;" transform="translate(494.30279541015625,6)"><path class="blocklyPathDark" transform="translate(1,1)" fill="#9acef9" d=" m 8,0  h 70.41520690917969  v 5  H 78.41520690917969  V 5  H 78.41520690917969  V 25  H 78.41520690917969  V 25  V 29  h -70.41520690917969  H 8  V 20  c 0,-10  -8,8  -8,-7.5  s 8,2.5  8,-7.5 z&#10;"/><path class="blocklyPath" stroke="none" fill="#9acef9" d=" m 8,0  h 70.41520690917969  v 5  H 78.41520690917969  V 5  H 78.41520690917969  V 25  H 78.41520690917969  V 25  V 29  h -70.41520690917969  H 8  V 20  c 0,-10  -8,8  -8,-7.5  s 8,2.5  8,-7.5 z&#10;"/><g class="blocklyEditableText" transform="translate(13,5)" style="cursor: text;"><rect rx="4" ry="4" x="0" y="0" height="20" width="60.41520690917969" class="blocklyFieldRect" fill="#fff" fill-opacity=".6" stroke="none"/><text class="blocklyFieldText" fill="#000" style="font: normal 11pt sans-serif;" x="5" y="16">0x0000</text></g></g><g data-id="Hgon7kY6{zb}MCJx@,;f" class="" style="display: block;" transform="translate(784.4216918945312,6)"><path class="blocklyPathDark" transform="translate(1,1)" fill="#9acef9" d=" m 8,0  h 28.597000122070312  v 5  H 36.59700012207031  V 5  H 36.59700012207031  V 25  H 36.59700012207031  V 25  V 29  h -28.597000122070312  H 8  V 20  c 0,-10  -8,8  -8,-7.5  s 8,2.5  8,-7.5 z&#10;"/><path class="blocklyPath" stroke="none" fill="#9acef9" d=" m 8,0  h 28.597000122070312  v 5  H 36.59700012207031  V 5  H 36.59700012207031  V 25  H 36.59700012207031  V 25  V 29  h -28.597000122070312  H 8  V 20  c 0,-10  -8,8  -8,-7.5  s 8,2.5  8,-7.5 z&#10;"/><g class="blocklyEditableText" transform="translate(13,5)" style="cursor: text;"><rect rx="4" ry="4" x="0" y="0" height="20" width="18.597000122070312" class="blocklyFieldRect" fill="#fff" fill-opacity=".6" stroke="none"/><text class="blocklyFieldText" fill="#000" style="font: normal 11pt sans-serif;" x="5" y="16">0</text></g></g><g class="blocklyEditableText" transform="translate(5,10)" style="cursor: default;"><rect rx="4" ry="4" x="0" y="0" height="20" width="102.78456115722656" class="blocklyFieldRect blocklyDropdownRect" fill="#fff" fill-opacity=".6" stroke="none"/><text class="blocklyFieldText blocklyDropdownText" fill="#000" style="font: normal 11pt sans-serif;" text-anchor="start" x="5" y="16">lorae220_0<tspan style="fill: rgb(85, 205, 76);"> ▾</tspan></text><image style="display: none;"/></g><g transform="translate(112.78456115722656,10)"><text class="blocklyText" fill="#fff" style="font: normal 11pt sans-serif;" x="0" y="16">send Raw Data</text></g><g transform="translate(431.1653594970703,10)"><text class="blocklyText" fill="#fff" style="font: normal 11pt sans-serif;" x="0" y="16">address</text></g><g transform="translate(583.7180023193359,10)"><text class="blocklyText" fill="#fff" style="font: normal 11pt sans-serif;" x="0" y="16">(0x0000 ~ 0xFFFF)</text></g><g transform="translate(720.6543273925781,10)"><text class="blocklyText" fill="#fff" style="font: normal 11pt sans-serif;" x="0" y="16">channel</text></g><g transform="translate(832.0186920166016,10)"><text class="blocklyText" fill="#fff" style="font: normal 11pt sans-serif;" x="0" y="16">(0 ~ 30)</text></g></g></svg>