<svg xmlns="http://www.w3.org/2000/svg" width="343.54766845703125" height="162"><g data-id="(m8rT=evSu}md];`r]AN" class="blocklyDraggable" transform="translate(2,2)"><path class="blocklyPathDark" transform="translate(1,1)" fill="#44a43d" d=" m 0,0  m 0,8 a 8 8 0 0,1 8,-8  h 7  l 6,4  3,0  6,-4  h 233.13246154785156  v 5  H 263.13246154785156  V 5  H 263.13246154785156  V 25  H 263.13246154785156  V 35  H 263.13246154785156  c 0,10  -8,-8  -8,7.5  s 8,-2.5  8,7.5  v 5  H 263.13246154785156  V 65  H 263.13246154785156  c 0,10  -8,-8  -8,7.5  s 8,-2.5  8,7.5  v 5  H 263.13246154785156  V 95  H 263.13246154785156  c 0,10  -8,-8  -8,7.5  s 8,-2.5  8,7.5  v 5  H 263.13246154785156  V 125  H 263.13246154785156  V 145  H 263.13246154785156  V 145  V 149  h -233.63246154785156  l -6,4  -3,0  -6,-4  h -6.5 a 8 8 0 0,1 -8,-8 z&#10;"/><path class="blocklyPath" stroke="none" fill="#55cd4c" d=" m 0,0  m 0,8 a 8 8 0 0,1 8,-8  h 7  l 6,4  3,0  6,-4  h 233.13246154785156  v 5  H 263.13246154785156  V 5  H 263.13246154785156  V 25  H 263.13246154785156  V 35  H 263.13246154785156  c 0,10  -8,-8  -8,7.5  s 8,-2.5  8,7.5  v 5  H 263.13246154785156  V 65  H 263.13246154785156  c 0,10  -8,-8  -8,7.5  s 8,-2.5  8,7.5  v 5  H 263.13246154785156  V 95  H 263.13246154785156  c 0,10  -8,-8  -8,7.5  s 8,-2.5  8,7.5  v 5  H 263.13246154785156  V 125  H 263.13246154785156  V 145  H 263.13246154785156  V 145  V 149  h -233.63246154785156  l -6,4  -3,0  -6,-4  h -6.5 a 8 8 0 0,1 -8,-8 z&#10;"/><g data-id="!Yh-!JT-:rBF_P/DF.)0" style="display: block;" transform="translate(256.13246154785156,30)"><path class="blocklyPathDark" transform="translate(1,1)" fill="#9acef9" d=" m 8,0  h 70.41520690917969  v 5  H 78.41520690917969  V 5  H 78.41520690917969  V 25  H 78.41520690917969  V 25  V 29  h -70.41520690917969  H 8  V 20  c 0,-10  -8,8  -8,-7.5  s 8,2.5  8,-7.5 z&#10;"/><path class="blocklyPath" stroke="none" fill="#9acef9" d=" m 8,0  h 70.41520690917969  v 5  H 78.41520690917969  V 5  H 78.41520690917969  V 25  H 78.41520690917969  V 25  V 29  h -70.41520690917969  H 8  V 20  c 0,-10  -8,8  -8,-7.5  s 8,2.5  8,-7.5 z&#10;"/><g class="blocklyEditableText" transform="translate(13,5)" style="cursor: text;"><rect rx="4" ry="4" x="0" y="0" height="20" width="60.41520690917969" class="blocklyFieldRect" fill="#fff" fill-opacity=".6" stroke="none"/><text class="blocklyFieldText" fill="#000" style="font: normal 11pt sans-serif;" x="5" y="16">0x0000</text></g></g><g data-id="aCkCY2vqh3llYgPqh}t^" class="" style="display: block;" transform="translate(256.13246154785156,60)"><path class="blocklyPathDark" transform="translate(1,1)" fill="#9acef9" d=" m 8,0  h 28.597000122070312  v 5  H 36.59700012207031  V 5  H 36.59700012207031  V 25  H 36.59700012207031  V 25  V 29  h -28.597000122070312  H 8  V 20  c 0,-10  -8,8  -8,-7.5  s 8,2.5  8,-7.5 z&#10;"/><path class="blocklyPath" stroke="none" fill="#9acef9" d=" m 8,0  h 28.597000122070312  v 5  H 36.59700012207031  V 5  H 36.59700012207031  V 25  H 36.59700012207031  V 25  V 29  h -28.597000122070312  H 8  V 20  c 0,-10  -8,8  -8,-7.5  s 8,2.5  8,-7.5 z&#10;"/><g class="blocklyEditableText" transform="translate(13,5)" style="cursor: text;"><rect rx="4" ry="4" x="0" y="0" height="20" width="18.597000122070312" class="blocklyFieldRect" fill="#fff" fill-opacity=".6" stroke="none"/><text class="blocklyFieldText" fill="#000" style="font: normal 11pt sans-serif;" x="5" y="16">0</text></g></g><g data-id="}?;;Rdm@JtcaN3FED2V," style="display: block;" transform="translate(256.13246154785156,90)"><path class="blocklyPathDark" transform="translate(1,1)" fill="#9acef9" d=" m 8,0  h 70.41520690917969  v 5  H 78.41520690917969  V 5  H 78.41520690917969  V 25  H 78.41520690917969  V 25  V 29  h -70.41520690917969  H 8  V 20  c 0,-10  -8,8  -8,-7.5  s 8,2.5  8,-7.5 z&#10;"/><path class="blocklyPath" stroke="none" fill="#9acef9" d=" m 8,0  h 70.41520690917969  v 5  H 78.41520690917969  V 5  H 78.41520690917969  V 25  H 78.41520690917969  V 25  V 29  h -70.41520690917969  H 8  V 20  c 0,-10  -8,8  -8,-7.5  s 8,2.5  8,-7.5 z&#10;"/><g class="blocklyEditableText" transform="translate(13,5)" style="cursor: text;"><rect rx="4" ry="4" x="0" y="0" height="20" width="60.41520690917969" class="blocklyFieldRect" fill="#fff" fill-opacity=".6" stroke="none"/><text class="blocklyFieldText" fill="#000" style="font: normal 11pt sans-serif;" x="5" y="16">0x2333</text></g></g><g transform="translate(10,5)"><text class="blocklyText" fill="#fff" style="font: normal 11pt sans-serif;" x="0" y="16">Configure</text></g><g class="blocklyEditableText" transform="translate(84.26272583007812,5)" style="cursor: default;"><rect rx="4" ry="4" x="0" y="0" height="20" width="102.78456115722656" class="blocklyFieldRect blocklyDropdownRect" fill="#fff" fill-opacity=".6" stroke="none"/><text class="blocklyFieldText blocklyDropdownText" fill="#000" style="font: normal 11pt sans-serif;" text-anchor="start" x="5" y="16">lorae220_0<tspan style="fill: rgb(85, 205, 76);"> ▾</tspan></text><image style="display: none;"/></g><g transform="translate(10,35)"><text class="blocklyText" fill="#fff" style="font: normal 11pt sans-serif;" x="0" y="16">address (0x0000 ~ 0xFFFF)</text></g><g transform="translate(10,65)"><text class="blocklyText" fill="#fff" style="font: normal 11pt sans-serif;" x="0" y="16">channel (0 ~ 30)</text></g><g transform="translate(10,95)"><text class="blocklyText" fill="#fff" style="font: normal 11pt sans-serif;" x="0" y="16">encryption key (0x0000 ~ 0xFFFF)</text></g><g class="blocklyEditableText" transform="translate(5,125)"><rect rx="10" ry="10" x="0" y="0" height="20" class="blocklyFieldSwitchInner blocklyFieldSwitchUnChecked" fill-opacity=".9" width="83.27702331542969" fill="#898989"/><text class="blocklyFieldSwitchLabel" y="16" fill="#fff" style="font: 11pt sans-serif; display: block;" x="10">default</text><circle cy="10" r="7" class="blocklyFieldSwitchHandle" fill="#fff" cx="73.27702331542969"/><text class="blocklyFieldSwitchLabel" y="16" fill="#fff" style="font: 11pt sans-serif; display: none;" x="83.27702331542969">advance</text></g></g></svg>