<svg xmlns="http://www.w3.org/2000/svg" width="949.7495727539062" height="443"><g data-id="setup_block" class="blocklyDraggable" transform="translate(2, 2)"><path class="blocklyPathDark" transform="translate(1,1)" fill="#cca038" d=" m 0,0  m 0,8 a 8 8 0 0,1 8,-8  h 205.27699279785156  v 5  H 213.27699279785156  V 5  H 213.27699279785156  V 25  H 213.27699279785156  V 35  H 213.27699279785156  V 55  H 213.27699279785156  V 59  H 50  l -6,4  -3,0  -6,-4  h -7 a 8 8 0 0,0 -8,8  v 47 a 8 8 0 0,0 8,8  H 213.27699279785156  H 213.27699279785156  V 122  V 132  h -205.27699279785156 a 8 8 0 0,1 -8,-8 z&#10;"/><path class="blocklyPath" stroke="none" fill="#ffc846" d=" m 0,0  m 0,8 a 8 8 0 0,1 8,-8  h 205.27699279785156  v 5  H 213.27699279785156  V 5  H 213.27699279785156  V 25  H 213.27699279785156  V 35  H 213.27699279785156  V 55  H 213.27699279785156  V 59  H 50  l -6,4  -3,0  -6,-4  h -7 a 8 8 0 0,0 -8,8  v 47 a 8 8 0 0,0 8,8  H 213.27699279785156  H 213.27699279785156  V 122  V 132  h -205.27699279785156 a 8 8 0 0,1 -8,-8 z&#10;"/><g data-id="*#]#nLUq*Bq8W,jYfSXd" style="display: block;" class="blocklyDraggable" transform="translate(21,60)"><path class="blocklyPathDark" transform="translate(1,1)" fill="#44a43d" d=" m 0,0  m 0,8 a 8 8 0 0,1 8,-8  h 7  l 6,4  3,0  6,-4  h 115.4903564453125  v 5  H 145.4903564453125  V 5  H 145.4903564453125  V 25  H 145.4903564453125  V 25  V 29  h -115.9903564453125  l -6,4  -3,0  -6,-4  h -14.5  H 0 z&#10;"/><path class="blocklyPath" stroke="none" fill="#55cd4c" d=" m 0,0  m 0,8 a 8 8 0 0,1 8,-8  h 7  l 6,4  3,0  6,-4  h 115.4903564453125  v 5  H 145.4903564453125  V 5  H 145.4903564453125  V 25  H 145.4903564453125  V 25  V 29  h -115.9903564453125  l -6,4  -3,0  -6,-4  h -14.5  H 0 z&#10;"/><g data-id="system_m5_begin" class="blocklyDraggable" transform="translate(0,30)"><path class="blocklyPathDark" transform="translate(1,1)" fill="#44a43d" d=" m 0,0  h 15  l 6,4  3,0  6,-4  h 230.30776977539062  v 5  H 260.3077697753906  V 5  H 260.3077697753906  V 25  H 260.3077697753906  V 25  V 29  h -230.80776977539062  l -6,4  -3,0  -6,-4  h -6.5 a 8 8 0 0,1 -8,-8 z&#10;"/><path class="blocklyPath" stroke="none" fill="#55cd4c" d=" m 0,0  h 15  l 6,4  3,0  6,-4  h 230.30776977539062  v 5  H 260.3077697753906  V 5  H 260.3077697753906  V 25  H 260.3077697753906  V 25  V 29  h -230.80776977539062  l -6,4  -3,0  -6,-4  h -6.5 a 8 8 0 0,1 -8,-8 z&#10;"/><g transform="translate(10,5)"><text class="blocklyText" fill="#fff" style="font: normal 11pt sans-serif;" x="0" y="16">Init built-in hardware at beginning</text></g></g><g transform="translate(10,5)"><text class="blocklyText" fill="#fff" style="font: normal 11pt sans-serif;" x="0" y="16">Init</text></g><g class="blocklyEditableText" transform="translate(37.70579528808594,5)" style="cursor: default;"><rect rx="4" ry="4" x="0" y="0" height="20" width="102.78456115722656" class="blocklyFieldRect blocklyDropdownRect" fill="#fff" fill-opacity=".6" stroke="none"/><text class="blocklyFieldText blocklyDropdownText" fill="#000" style="font: normal 11pt sans-serif;" text-anchor="start" x="5" y="16">lorae220_0<tspan style="fill: rgb(85, 205, 76);"> ▾</tspan></text><image style="display: none;"/></g></g><g transform="translate(10,5)"><text class="blocklyText" fill="#fff" style="font: normal 11pt sans-serif;" x="0" y="16">Setup              </text></g><g transform="translate(10,35)"><text class="blocklyText" fill="#fff" style="font: normal 11pt sans-serif;" x="0" y="16">Begin initialization</text></g><g class="blocklyEditableText" transform="translate(144.29847717285156,35)"><rect rx="10" ry="10" x="0" y="0" height="20" class="blocklyFieldSwitchInner blocklyFieldSwitchChecked" fill-opacity=".9" width="63.978515625" fill="#8253f9"/><text class="blocklyFieldSwitchLabel" y="16" fill="#fff" style="font: 11pt sans-serif; display: none;" x="-63.978515625">False</text><circle cy="10" r="7" class="blocklyFieldSwitchHandle" fill="#fff" cx="10"/><text class="blocklyFieldSwitchLabel" y="16" fill="#fff" style="font: 11pt sans-serif; display: block;" x="24">True</text></g></g><g data-id="loop_block" class="blocklyDraggable" transform="translate(2, 143)"><path class="blocklyPathDark" transform="translate(1,1)" fill="#0cae6e" d=" m 0,0  m 0,8 a 8 8 0 0,1 8,-8  h 125.60762023925781  v 5  H 133.6076202392578  V 5  H 133.6076202392578  V 25  H 133.6076202392578  V 29  H 50  l -6,4  -3,0  -6,-4  h -7 a 8 8 0 0,0 -8,8  v 219 a 8 8 0 0,0 8,8  H 133.6076202392578  H 133.6076202392578  V 269  H 133.6076202392578  V 289  H 133.6076202392578  V 289  V 293  h -125.60762023925781 a 8 8 0 0,1 -8,-8 z&#10;"/><path class="blocklyPath" stroke="none" fill="#0fd989" d=" m 0,0  m 0,8 a 8 8 0 0,1 8,-8  h 125.60762023925781  v 5  H 133.6076202392578  V 5  H 133.6076202392578  V 25  H 133.6076202392578  V 29  H 50  l -6,4  -3,0  -6,-4  h -7 a 8 8 0 0,0 -8,8  v 219 a 8 8 0 0,0 8,8  H 133.6076202392578  H 133.6076202392578  V 269  H 133.6076202392578  V 289  H 133.6076202392578  V 289  V 293  h -125.60762023925781 a 8 8 0 0,1 -8,-8 z&#10;"/><g data-id="system_m5_update" style="display: block;" class="blocklyDraggable" transform="translate(21,30)"><path class="blocklyPathDark" transform="translate(1,1)" fill="#44a43d" d=" m 0,0  m 0,8 a 8 8 0 0,1 8,-8  h 7  l 6,4  3,0  6,-4  h 218.43235778808594  v 5  H 248.43235778808594  V 5  H 248.43235778808594  V 25  H 248.43235778808594  V 25  V 29  h -218.93235778808594  l -6,4  -3,0  -6,-4  h -14.5  H 0 z&#10;"/><path class="blocklyPath" stroke="none" fill="#55cd4c" d=" m 0,0  m 0,8 a 8 8 0 0,1 8,-8  h 7  l 6,4  3,0  6,-4  h 218.43235778808594  v 5  H 248.43235778808594  V 5  H 248.43235778808594  V 25  H 248.43235778808594  V 25  V 29  h -218.93235778808594  l -6,4  -3,0  -6,-4  h -14.5  H 0 z&#10;"/><g data-id="Rl8GuZMdbKJ:mz{bUDc?" class="blocklyDraggable" transform="translate(0,30)"><path class="blocklyPathDark" transform="translate(1,1)" fill="#44a43d" d=" m 0,0  h 15  l 6,4  3,0  6,-4  h 889.7495422363281  v 5  H 919.7495422363281  V 5  H 919.7495422363281  V 156  H 919.7495422363281  V 156  V 160  h -890.2495422363281  l -6,4  -3,0  -6,-4  h -14.5  H 0 z&#10; M 233.05799865722656,5  v 5  c 0,10  -8,-8  -8,7.5  s 8,-2.5  8,7.5  v 131  h 213.94129943847656  v -151 z M 527.1367340087891,5  v 5  c 0,10  -8,-8  -8,7.5  s 8,-2.5  8,7.5  v 11  h 69.17967224121094  v -31 z M 814.0200958251953,5  v 5  c 0,10  -8,-8  -8,7.5  s 8,-2.5  8,7.5  v 11  h 30.597000122070312  v -31 z"/><path class="blocklyPath" stroke="none" fill="#55cd4c" d=" m 0,0  h 15  l 6,4  3,0  6,-4  h 889.7495422363281  v 5  H 919.7495422363281  V 5  H 919.7495422363281  V 156  H 919.7495422363281  V 156  V 160  h -890.2495422363281  l -6,4  -3,0  -6,-4  h -14.5  H 0 z&#10; M 233.05799865722656,5  v 5  c 0,10  -8,-8  -8,7.5  s 8,-2.5  8,7.5  v 131  h 213.94129943847656  v -151 z M 527.1367340087891,5  v 5  c 0,10  -8,-8  -8,7.5  s 8,-2.5  8,7.5  v 11  h 69.17967224121094  v -31 z M 814.0200958251953,5  v 5  c 0,10  -8,-8  -8,7.5  s 8,-2.5  8,7.5  v 11  h 30.597000122070312  v -31 z"/><g data-id="%m$Ze2rRzL}t42XU#W6%" style="display: block;" class="blocklyDraggable" transform="translate(226.05799865722656,6)"><path class="blocklyPathDark" transform="translate(1,1)" fill="#44a43d" d=" m 8,0  h 156.51036071777344  v 5  H 164.51036071777344  V 5  H 164.51036071777344  c 0,10  -8,-8  -8,7.5  s 8,-2.5  8,7.5  v 5  H 164.51036071777344  V 35  H 164.51036071777344  c 0,10  -8,-8  -8,7.5  s 8,-2.5  8,7.5  v 5  H 164.51036071777344  V 65  H 164.51036071777344  c 0,10  -8,-8  -8,7.5  s 8,-2.5  8,7.5  v 5  H 164.51036071777344  V 95  H 164.51036071777344  c 0,10  -8,-8  -8,7.5  s 8,-2.5  8,7.5  v 5  H 164.51036071777344  V 125  H 164.51036071777344  c 0,10  -8,-8  -8,7.5  s 8,-2.5  8,7.5  v 5  H 164.51036071777344  V 145  V 149  h -156.51036071777344  H 8  V 20  c 0,-10  -8,8  -8,-7.5  s 8,2.5  8,-7.5 z&#10;"/><path class="blocklyPath" stroke="none" fill="#55cd4c" d=" m 8,0  h 156.51036071777344  v 5  H 164.51036071777344  V 5  H 164.51036071777344  c 0,10  -8,-8  -8,7.5  s 8,-2.5  8,7.5  v 5  H 164.51036071777344  V 35  H 164.51036071777344  c 0,10  -8,-8  -8,7.5  s 8,-2.5  8,7.5  v 5  H 164.51036071777344  V 65  H 164.51036071777344  c 0,10  -8,-8  -8,7.5  s 8,-2.5  8,7.5  v 5  H 164.51036071777344  V 95  H 164.51036071777344  c 0,10  -8,-8  -8,7.5  s 8,-2.5  8,7.5  v 5  H 164.51036071777344  V 125  H 164.51036071777344  c 0,10  -8,-8  -8,7.5  s 8,-2.5  8,7.5  v 5  H 164.51036071777344  V 145  V 149  h -156.51036071777344  H 8  V 20  c 0,-10  -8,8  -8,-7.5  s 8,2.5  8,-7.5 z&#10;"/><g class="blocklyIconGroup" display="block" transform="translate(18,5)"><rect class="blocklyIconShape" rx="4" ry="4" height="16" width="16" fill="#00f" stroke="#fff" stroke-width="1px"/><path class="blocklyIconSymbol" d="m4.203,7.296 0,1.368 -0.92,0.677 -0.11,0.41 0.9,1.559 0.41,0.11 1.043,-0.457 1.187,0.683 0.127,1.134 0.3,0.3 1.8,0 0.3,-0.299 0.127,-1.138 1.185,-0.682 1.046,0.458 0.409,-0.11 0.9,-1.559 -0.11,-0.41 -0.92,-0.677 0,-1.366 0.92,-0.677 0.11,-0.41 -0.9,-1.559 -0.409,-0.109 -1.046,0.458 -1.185,-0.682 -0.127,-1.138 -0.3,-0.299 -1.8,0 -0.3,0.3 -0.126,1.135 -1.187,0.682 -1.043,-0.457 -0.41,0.11 -0.899,1.559 0.108,0.409z" fill="#fff"/><circle class="blocklyIconShape" r="2.7" cx="8" cy="8" fill="#00f" stroke="#fff" stroke-width="1px"/></g><g data-id="La%tZLy*EVMhNnrB+(3j" class="" style="display: block;" transform="translate(157.51036071777344,0)"><path class="blocklyPathDark" transform="translate(1,1)" fill="#9acef9" d=" m 8,0  h 53.22120666503906  v 5  H 61.22120666503906  V 5  H 61.22120666503906  V 25  H 61.22120666503906  V 25  V 29  h -53.22120666503906  H 8  V 20  c 0,-10  -8,8  -8,-7.5  s 8,2.5  8,-7.5 z&#10;"/><path class="blocklyPath" stroke="none" fill="#9acef9" d=" m 8,0  h 53.22120666503906  v 5  H 61.22120666503906  V 5  H 61.22120666503906  V 25  H 61.22120666503906  V 25  V 29  h -53.22120666503906  H 8  V 20  c 0,-10  -8,8  -8,-7.5  s 8,2.5  8,-7.5 z&#10;"/><g class="blocklyEditableText" transform="translate(13,5)" style="cursor: text;"><rect rx="4" ry="4" x="0" y="0" height="20" width="43.22120666503906" class="blocklyFieldRect" fill="#fff" fill-opacity=".6" stroke="none"/><text class="blocklyFieldText" fill="#000" style="font: normal 11pt sans-serif;" x="5" y="16">0x68</text></g></g><g data-id="3?/cb@q$EKuCS5{M_:y;" class="" style="display: block;" transform="translate(157.51036071777344,30)"><path class="blocklyPathDark" transform="translate(1,1)" fill="#9acef9" d=" m 8,0  h 53.22120666503906  v 5  H 61.22120666503906  V 5  H 61.22120666503906  V 25  H 61.22120666503906  V 25  V 29  h -53.22120666503906  H 8  V 20  c 0,-10  -8,8  -8,-7.5  s 8,2.5  8,-7.5 z&#10;"/><path class="blocklyPath" stroke="none" fill="#9acef9" d=" m 8,0  h 53.22120666503906  v 5  H 61.22120666503906  V 5  H 61.22120666503906  V 25  H 61.22120666503906  V 25  V 29  h -53.22120666503906  H 8  V 20  c 0,-10  -8,8  -8,-7.5  s 8,2.5  8,-7.5 z&#10;"/><g class="blocklyEditableText" transform="translate(13,5)" style="cursor: text;"><rect rx="4" ry="4" x="0" y="0" height="20" width="43.22120666503906" class="blocklyFieldRect" fill="#fff" fill-opacity=".6" stroke="none"/><text class="blocklyFieldText" fill="#000" style="font: normal 11pt sans-serif;" x="5" y="16">0x65</text></g></g><g data-id="(5lPpR9rD{%eD1DYXj1K" class="" style="display: block;" transform="translate(157.51036071777344,60)"><path class="blocklyPathDark" transform="translate(1,1)" fill="#9acef9" d=" m 8,0  h 54.430938720703125  v 5  H 62.430938720703125  V 5  H 62.430938720703125  V 25  H 62.430938720703125  V 25  V 29  h -54.430938720703125  H 8  V 20  c 0,-10  -8,8  -8,-7.5  s 8,2.5  8,-7.5 z&#10;"/><path class="blocklyPath" stroke="none" fill="#9acef9" d=" m 8,0  h 54.430938720703125  v 5  H 62.430938720703125  V 5  H 62.430938720703125  V 25  H 62.430938720703125  V 25  V 29  h -54.430938720703125  H 8  V 20  c 0,-10  -8,8  -8,-7.5  s 8,2.5  8,-7.5 z&#10;"/><g class="blocklyEditableText" transform="translate(13,5)" style="cursor: text;"><rect rx="4" ry="4" x="0" y="0" height="20" width="44.430938720703125" class="blocklyFieldRect" fill="#fff" fill-opacity=".6" stroke="none"/><text class="blocklyFieldText" fill="#000" style="font: normal 11pt sans-serif;" x="5" y="16">0x6C</text></g></g><g data-id="o^~uQ2QM?k^LLhI%z^;r" class="blocklyDraggable" style="display: block;" transform="translate(157.51036071777344,90)"><path class="blocklyPathDark" transform="translate(1,1)" fill="#026ac0" d=" m 8,0  h 54.430938720703125  v 5  H 62.430938720703125  V 5  H 62.430938720703125  V 25  H 62.430938720703125  V 25  V 29  h -54.430938720703125  H 8  V 20  c 0,-10  -8,8  -8,-7.5  s 8,2.5  8,-7.5 z&#10;"/><path class="blocklyPath" stroke="none" fill="#0284f0" d=" m 8,0  h 54.430938720703125  v 5  H 62.430938720703125  V 5  H 62.430938720703125  V 25  H 62.430938720703125  V 25  V 29  h -54.430938720703125  H 8  V 20  c 0,-10  -8,8  -8,-7.5  s 8,2.5  8,-7.5 z&#10;"/><g class="blocklyEditableText" transform="translate(13,5)" style="cursor: text;"><rect rx="4" ry="4" x="0" y="0" height="20" width="44.430938720703125" class="blocklyFieldRect" fill="#fff" fill-opacity=".6" stroke="none"/><text class="blocklyFieldText" fill="#000" style="font: normal 11pt sans-serif;" x="5" y="16">0x6C</text></g></g><g data-id="js.h$,Isw1))eyk{0Tn," class="blocklyDraggable" style="display: block;" transform="translate(157.51036071777344,120)"><path class="blocklyPathDark" transform="translate(1,1)" fill="#026ac0" d=" m 8,0  h 52.412322998046875  v 5  H 60.412322998046875  V 5  H 60.412322998046875  V 25  H 60.412322998046875  V 25  V 29  h -52.412322998046875  H 8  V 20  c 0,-10  -8,8  -8,-7.5  s 8,2.5  8,-7.5 z&#10;"/><path class="blocklyPath" stroke="none" fill="#0284f0" d=" m 8,0  h 52.412322998046875  v 5  H 60.412322998046875  V 5  H 60.412322998046875  V 25  H 60.412322998046875  V 25  V 29  h -52.412322998046875  H 8  V 20  c 0,-10  -8,8  -8,-7.5  s 8,2.5  8,-7.5 z&#10;"/><g class="blocklyEditableText" transform="translate(13,5)" style="cursor: text;"><rect rx="4" ry="4" x="0" y="0" height="20" width="42.412322998046875" class="blocklyFieldRect" fill="#fff" fill-opacity=".6" stroke="none"/><text class="blocklyFieldText" fill="#000" style="font: normal 11pt sans-serif;" x="5" y="16">0x6F</text></g></g><g transform="translate(45,5)"><text class="blocklyText" fill="#fff" style="font: normal 11pt sans-serif;" x="0" y="16">create list with</text></g></g><g data-id="gZ3G_y+awzIXrBLk`;%|" class="" style="display: block;" transform="translate(520.1367340087891,6)"><path class="blocklyPathDark" transform="translate(1,1)" fill="#9acef9" d=" m 8,0  h 67.17967224121094  v 5  H 75.17967224121094  V 5  H 75.17967224121094  V 25  H 75.17967224121094  V 25  V 29  h -67.17967224121094  H 8  V 20  c 0,-10  -8,8  -8,-7.5  s 8,2.5  8,-7.5 z&#10;"/><path class="blocklyPath" stroke="none" fill="#9acef9" d=" m 8,0  h 67.17967224121094  v 5  H 75.17967224121094  V 5  H 75.17967224121094  V 25  H 75.17967224121094  V 25  V 29  h -67.17967224121094  H 8  V 20  c 0,-10  -8,8  -8,-7.5  s 8,2.5  8,-7.5 z&#10;"/><g class="blocklyEditableText" transform="translate(13,5)" style="cursor: text;"><rect rx="4" ry="4" x="0" y="0" height="20" width="57.17967224121094" class="blocklyFieldRect" fill="#fff" fill-opacity=".6" stroke="none"/><text class="blocklyFieldText" fill="#000" style="font: normal 11pt sans-serif;" x="5" y="16">0xFFFF</text></g></g><g data-id="cimIw4*ew/MSW48(=s6W" class="" style="display: block;" transform="translate(807.0200958251953,6)"><path class="blocklyPathDark" transform="translate(1,1)" fill="#9acef9" d=" m 8,0  h 28.597000122070312  v 5  H 36.59700012207031  V 5  H 36.59700012207031  V 25  H 36.59700012207031  V 25  V 29  h -28.597000122070312  H 8  V 20  c 0,-10  -8,8  -8,-7.5  s 8,2.5  8,-7.5 z&#10;"/><path class="blocklyPath" stroke="none" fill="#9acef9" d=" m 8,0  h 28.597000122070312  v 5  H 36.59700012207031  V 5  H 36.59700012207031  V 25  H 36.59700012207031  V 25  V 29  h -28.597000122070312  H 8  V 20  c 0,-10  -8,8  -8,-7.5  s 8,2.5  8,-7.5 z&#10;"/><g class="blocklyEditableText" transform="translate(13,5)" style="cursor: text;"><rect rx="4" ry="4" x="0" y="0" height="20" width="18.597000122070312" class="blocklyFieldRect" fill="#fff" fill-opacity=".6" stroke="none"/><text class="blocklyFieldText" fill="#000" style="font: normal 11pt sans-serif;" x="5" y="16">0</text></g></g><g data-id="y~v8tG?lg$7x%{Tv8Hyu" class="blocklyDraggable" transform="translate(0,161)"><path class="blocklyPathDark" transform="translate(1,1)" fill="#cc851f" d=" m 0,0  h 15  l 6,4  3,0  6,-4  h 141.9298553466797  v 5  H 171.9298553466797  V 5  H 171.9298553466797  V 36  H 171.9298553466797  V 36  V 40  h -142.4298553466797  l -6,4  -3,0  -6,-4  h -6.5 a 8 8 0 0,1 -8,-8 z&#10; M 64.36076354980469,5  v 5  c 0,10  -8,-8  -8,7.5  s 8,-2.5  8,7.5  v 11  h 30.597000122070312  v -31 z"/><path class="blocklyPath" stroke="none" fill="#ffa627" d=" m 0,0  h 15  l 6,4  3,0  6,-4  h 141.9298553466797  v 5  H 171.9298553466797  V 5  H 171.9298553466797  V 36  H 171.9298553466797  V 36  V 40  h -142.4298553466797  l -6,4  -3,0  -6,-4  h -6.5 a 8 8 0 0,1 -8,-8 z&#10; M 64.36076354980469,5  v 5  c 0,10  -8,-8  -8,7.5  s 8,-2.5  8,7.5  v 11  h 30.597000122070312  v -31 z"/><g data-id="iilo;y}eaor?!3Aj2oCw" class="" style="display: block;" transform="translate(57.36076354980469,6)"><path class="blocklyPathDark" transform="translate(1,1)" fill="#9acef9" d=" m 8,0  h 28.597000122070312  v 5  H 36.59700012207031  V 5  H 36.59700012207031  V 25  H 36.59700012207031  V 25  V 29  h -28.597000122070312  H 8  V 20  c 0,-10  -8,8  -8,-7.5  s 8,2.5  8,-7.5 z&#10;"/><path class="blocklyPath" stroke="none" fill="#9acef9" d=" m 8,0  h 28.597000122070312  v 5  H 36.59700012207031  V 5  H 36.59700012207031  V 25  H 36.59700012207031  V 25  V 29  h -28.597000122070312  H 8  V 20  c 0,-10  -8,8  -8,-7.5  s 8,2.5  8,-7.5 z&#10;"/><g class="blocklyEditableText" transform="translate(13,5)" style="cursor: text;"><rect rx="4" ry="4" x="0" y="0" height="20" width="18.597000122070312" class="blocklyFieldRect" fill="#fff" fill-opacity=".6" stroke="none"/><text class="blocklyFieldText" fill="#000" style="font: normal 11pt sans-serif;" x="5" y="16">1</text></g></g><g transform="translate(10,10)"><text class="blocklyText" fill="#fff" style="font: normal 11pt sans-serif;" x="0" y="16">Sleep</text></g><g transform="translate(104.957763671875,10)"><text class="blocklyText" fill="#fff" style="font: normal 11pt sans-serif;" x="0" y="16">seconds</text></g></g><g class="blocklyEditableText" transform="translate(5,10)" style="cursor: default;"><rect rx="4" ry="4" x="0" y="0" height="20" width="102.78456115722656" class="blocklyFieldRect blocklyDropdownRect" fill="#fff" fill-opacity=".6" stroke="none"/><text class="blocklyFieldText blocklyDropdownText" fill="#000" style="font: normal 11pt sans-serif;" text-anchor="start" x="5" y="16">lorae220_0<tspan style="fill: rgb(85, 205, 76);"> ▾</tspan></text><image style="display: none;"/></g><g transform="translate(112.78456115722656,10)"><text class="blocklyText" fill="#fff" style="font: normal 11pt sans-serif;" x="0" y="16">send Raw Data</text></g><g transform="translate(456.9992980957031,10)"><text class="blocklyText" fill="#fff" style="font: normal 11pt sans-serif;" x="0" y="16">address</text></g><g transform="translate(606.31640625,10)"><text class="blocklyText" fill="#fff" style="font: normal 11pt sans-serif;" x="0" y="16">(0x0000 ~ 0xFFFF)</text></g><g transform="translate(743.2527313232422,10)"><text class="blocklyText" fill="#fff" style="font: normal 11pt sans-serif;" x="0" y="16">channel</text></g><g transform="translate(854.6170959472656,10)"><text class="blocklyText" fill="#fff" style="font: normal 11pt sans-serif;" x="0" y="16">(0 ~ 30)</text></g></g><g transform="translate(10,5)"><text class="blocklyText" fill="#fff" style="font: normal 11pt sans-serif;" x="0" y="16">Update button,touch,etc. in loop</text></g></g><g transform="translate(10,5)"><text class="blocklyText" fill="#fff" style="font: normal 11pt sans-serif;" x="0" y="16">Loop                  </text></g><g class="blocklyEditableText" transform="translate(43.16166687011719,269)"><rect rx="10" ry="10" x="0" y="0" height="20" class="blocklyFieldSwitchInner blocklyFieldSwitchChecked" fill-opacity=".9" width="85.44595336914062" fill="#8253f9"/><text class="blocklyFieldSwitchLabel" y="16" fill="#fff" style="font: 11pt sans-serif; display: none;" x="-85.44595336914062">No Update</text><circle cy="10" r="7" class="blocklyFieldSwitchHandle" fill="#fff" cx="10"/><text class="blocklyFieldSwitchLabel" y="16" fill="#fff" style="font: 11pt sans-serif; display: block;" x="24">Update</text></g></g></svg>