<svg xmlns="http://www.w3.org/2000/svg" width="483.71868896484375" height="53"><g data-id="HzOkL4_M(HKnMt/dS2W(" class="blocklyDraggable" transform="translate(2,2)"><path class="blocklyPathDark" transform="translate(1,1)" fill="#0c8ea8" d=" m 0,0  m 0,8 a 8 8 0 0,1 8,-8  h 7  l 6,4  3,0  6,-4  h 444.7187042236328  v 5  H 474.7187042236328  V 5  H 474.7187042236328  V 36  H 474.7187042236328  V 36  V 40  h -445.2187042236328  l -6,4  -3,0  -6,-4  h -6.5 a 8 8 0 0,1 -8,-8 z&#10; M 207.58912658691406,5  v 5  c 0,10  -8,-8  -8,7.5  s 8,-2.5  8,7.5  v 11  h 56.38800048828125  v -31 z M 315.4889221191406,5  v 5  c 0,10  -8,-8  -8,7.5  s 8,-2.5  8,7.5  v 11  h 39.194000244140625  v -31 z"/><path class="blocklyPath" stroke="none" fill="#0fb1d2" d=" m 0,0  m 0,8 a 8 8 0 0,1 8,-8  h 7  l 6,4  3,0  6,-4  h 444.7187042236328  v 5  H 474.7187042236328  V 5  H 474.7187042236328  V 36  H 474.7187042236328  V 36  V 40  h -445.2187042236328  l -6,4  -3,0  -6,-4  h -6.5 a 8 8 0 0,1 -8,-8 z&#10; M 207.58912658691406,5  v 5  c 0,10  -8,-8  -8,7.5  s 8,-2.5  8,7.5  v 11  h 56.38800048828125  v -31 z M 315.4889221191406,5  v 5  c 0,10  -8,-8  -8,7.5  s 8,-2.5  8,7.5  v 11  h 39.194000244140625  v -31 z"/><g data-id="1H%D0-Bl9[?hI-:IGa)u" style="display: block;" transform="translate(200.58912658691406,6)"><path class="blocklyPathDark" transform="translate(1,1)" fill="#bbc2e5" d=" m 8,0  h 54.38800048828125  v 5  H 62.38800048828125  V 5  H 62.38800048828125  V 25  H 62.38800048828125  V 25  V 29  h -54.38800048828125  H 8  V 20  c 0,-10  -8,8  -8,-7.5  s 8,2.5  8,-7.5 z&#10;"/><path class="blocklyPath" stroke="none" fill="#bbc2e5" d=" m 8,0  h 54.38800048828125  v 5  H 62.38800048828125  V 5  H 62.38800048828125  V 25  H 62.38800048828125  V 25  V 29  h -54.38800048828125  H 8  V 20  c 0,-10  -8,8  -8,-7.5  s 8,2.5  8,-7.5 z&#10;"/><g class="blocklyEditableText" transform="translate(13,5)" style="cursor: text;"><rect rx="4" ry="4" x="0" y="0" height="20" width="44.38800048828125" class="blocklyFieldRect" fill="#fff" fill-opacity=".6" stroke="none"/><text class="blocklyFieldText" fill="#000" style="font: normal 11pt sans-serif;" x="5" y="16">8000</text></g></g><g data-id="FO/88-b`6EgQkoX9!k7]" style="display: block;" transform="translate(308.4889221191406,6)"><path class="blocklyPathDark" transform="translate(1,1)" fill="#bbc2e5" d=" m 8,0  h 37.194000244140625  v 5  H 45.194000244140625  V 5  H 45.194000244140625  V 25  H 45.194000244140625  V 25  V 29  h -37.194000244140625  H 8  V 20  c 0,-10  -8,8  -8,-7.5  s 8,2.5  8,-7.5 z&#10;"/><path class="blocklyPath" stroke="none" fill="#bbc2e5" d=" m 8,0  h 37.194000244140625  v 5  H 45.194000244140625  V 5  H 45.194000244140625  V 25  H 45.194000244140625  V 25  V 29  h -37.194000244140625  H 8  V 20  c 0,-10  -8,8  -8,-7.5  s 8,2.5  8,-7.5 z&#10;"/><g class="blocklyEditableText" transform="translate(13,5)" style="cursor: text;"><rect rx="4" ry="4" x="0" y="0" height="20" width="27.194000244140625" class="blocklyFieldRect" fill="#fff" fill-opacity=".6" stroke="none"/><text class="blocklyFieldText" fill="#000" style="font: normal 11pt sans-serif;" x="5" y="16">16</text></g></g><g transform="translate(10,10)"><text class="blocklyText" fill="#fff" style="font: normal 11pt sans-serif;" x="0" y="16">set</text></g><g class="blocklyEditableText" transform="translate(35.56549072265625,10)" style="cursor: default;"><rect rx="4" ry="4" x="0" y="0" height="20" width="100.81605529785156" class="blocklyFieldRect blocklyDropdownRect" fill="#fff" fill-opacity=".6" stroke="none"/><text class="blocklyFieldText blocklyDropdownText" fill="#000" style="font: normal 11pt sans-serif;" text-anchor="start" x="5" y="16">recorder_0<tspan style="fill: rgb(15, 177, 210);"> ▾</tspan></text><image style="display: none;"/></g><g transform="translate(141.3815460205078,10)"><text class="blocklyText" fill="#fff" style="font: normal 11pt sans-serif;" x="0" y="16">sample</text></g><g transform="translate(273.9771270751953,10)"><text class="blocklyText" fill="#fff" style="font: normal 11pt sans-serif;" x="0" y="16">bits</text></g><g transform="translate(364.68292236328125,10)"><text class="blocklyText" fill="#fff" style="font: normal 11pt sans-serif;" x="0" y="16">stereo</text></g><g class="blocklyEditableText" transform="translate(413.15464782714844,10)" style="cursor: default;"><rect rx="4" ry="4" x="0" y="0" height="20" width="56.564056396484375" class="blocklyFieldRect blocklyDropdownRect" fill="#fff" fill-opacity=".6" stroke="none"/><text class="blocklyFieldText blocklyDropdownText" fill="#000" style="font: normal 11pt sans-serif;" text-anchor="start" x="5" y="16">True<tspan style="fill: rgb(15, 177, 210);"> ▾</tspan></text><image style="display: none;"/></g></g></svg>