<svg xmlns="http://www.w3.org/2000/svg" width="463.20330810546875" height="53"><g data-id="zZ3rKUjK}7Ja@y%/L#:g" class="blocklyDraggable" transform="translate(2,2)"><path class="blocklyPathDark" transform="translate(1,1)" fill="#0c8ea8" d=" m 0,0  m 0,8 a 8 8 0 0,1 8,-8  h 7  l 6,4  3,0  6,-4  h 424.20330810546875  v 5  H 454.20330810546875  V 5  H 454.20330810546875  V 36  H 454.20330810546875  V 36  V 40  h -424.70330810546875  l -6,4  -3,0  -6,-4  h -6.5 a 8 8 0 0,1 -8,-8 z&#10; M 187.07373046875,5  v 5  c 0,10  -8,-8  -8,7.5  s 8,-2.5  8,7.5  v 11  h 56.38800048828125  v -31 z M 294.97352600097656,5  v 5  c 0,10  -8,-8  -8,7.5  s 8,-2.5  8,7.5  v 11  h 39.194000244140625  v -31 z"/><path class="blocklyPath" stroke="none" fill="#0fb1d2" d=" m 0,0  m 0,8 a 8 8 0 0,1 8,-8  h 7  l 6,4  3,0  6,-4  h 424.20330810546875  v 5  H 454.20330810546875  V 5  H 454.20330810546875  V 36  H 454.20330810546875  V 36  V 40  h -424.70330810546875  l -6,4  -3,0  -6,-4  h -6.5 a 8 8 0 0,1 -8,-8 z&#10; M 187.07373046875,5  v 5  c 0,10  -8,-8  -8,7.5  s 8,-2.5  8,7.5  v 11  h 56.38800048828125  v -31 z M 294.97352600097656,5  v 5  c 0,10  -8,-8  -8,7.5  s 8,-2.5  8,7.5  v 11  h 39.194000244140625  v -31 z"/><g data-id="nb/e0Z)0AMW(4V0i=56*" style="display: block;" transform="translate(180.07373046875,6)"><path class="blocklyPathDark" transform="translate(1,1)" fill="#bbc2e5" d=" m 8,0  h 54.38800048828125  v 5  H 62.38800048828125  V 5  H 62.38800048828125  V 25  H 62.38800048828125  V 25  V 29  h -54.38800048828125  H 8  V 20  c 0,-10  -8,8  -8,-7.5  s 8,2.5  8,-7.5 z&#10;"/><path class="blocklyPath" stroke="none" fill="#bbc2e5" d=" m 8,0  h 54.38800048828125  v 5  H 62.38800048828125  V 5  H 62.38800048828125  V 25  H 62.38800048828125  V 25  V 29  h -54.38800048828125  H 8  V 20  c 0,-10  -8,8  -8,-7.5  s 8,2.5  8,-7.5 z&#10;"/><g class="blocklyEditableText" transform="translate(13,5)" style="cursor: text;"><rect rx="4" ry="4" x="0" y="0" height="20" width="44.38800048828125" class="blocklyFieldRect" fill="#fff" fill-opacity=".6" stroke="none"/><text class="blocklyFieldText" fill="#000" style="font: normal 11pt sans-serif;" x="5" y="16">8000</text></g></g><g data-id="*n,%CF,:!oM[:{U?g{B8" style="display: block;" transform="translate(287.97352600097656,6)"><path class="blocklyPathDark" transform="translate(1,1)" fill="#bbc2e5" d=" m 8,0  h 37.194000244140625  v 5  H 45.194000244140625  V 5  H 45.194000244140625  V 25  H 45.194000244140625  V 25  V 29  h -37.194000244140625  H 8  V 20  c 0,-10  -8,8  -8,-7.5  s 8,2.5  8,-7.5 z&#10;"/><path class="blocklyPath" stroke="none" fill="#bbc2e5" d=" m 8,0  h 37.194000244140625  v 5  H 45.194000244140625  V 5  H 45.194000244140625  V 25  H 45.194000244140625  V 25  V 29  h -37.194000244140625  H 8  V 20  c 0,-10  -8,8  -8,-7.5  s 8,2.5  8,-7.5 z&#10;"/><g class="blocklyEditableText" transform="translate(13,5)" style="cursor: text;"><rect rx="4" ry="4" x="0" y="0" height="20" width="27.194000244140625" class="blocklyFieldRect" fill="#fff" fill-opacity=".6" stroke="none"/><text class="blocklyFieldText" fill="#000" style="font: normal 11pt sans-serif;" x="5" y="16">16</text></g></g><g class="blocklyEditableText" transform="translate(5,10)" style="cursor: text;"><rect rx="4" ry="4" x="0" y="0" height="20" width="84.23051452636719" class="blocklyFieldRect" fill="#fff" fill-opacity=".6" stroke="none"/><text class="blocklyFieldText" fill="#000" style="font: normal 11pt sans-serif;" x="5" y="16">recorder_0</text></g><g transform="translate(94.23051452636719,10)"><text class="blocklyText" fill="#fff" style="font: normal 11pt sans-serif;" x="0" y="16">init sample</text></g><g transform="translate(253.46173095703125,10)"><text class="blocklyText" fill="#fff" style="font: normal 11pt sans-serif;" x="0" y="16">bits</text></g><g transform="translate(344.1675262451172,10)"><text class="blocklyText" fill="#fff" style="font: normal 11pt sans-serif;" x="0" y="16">stereo</text></g><g class="blocklyEditableText" transform="translate(392.6392517089844,10)" style="cursor: default;"><rect rx="4" ry="4" x="0" y="0" height="20" width="56.564056396484375" class="blocklyFieldRect blocklyDropdownRect" fill="#fff" fill-opacity=".6" stroke="none"/><text class="blocklyFieldText blocklyDropdownText" fill="#000" style="font: normal 11pt sans-serif;" text-anchor="start" x="5" y="16">True<tspan style="fill: rgb(15, 177, 210);"> ▾</tspan></text><image style="display: none;"/></g></g></svg>