<svg xmlns="http://www.w3.org/2000/svg" width="171.21189880371094" height="42"><g data-id="bKS6ZMYJ[w_LZ1(7h,[j" class="blocklyDraggable" transform="translate(2,2)"><path class="blocklyPathDark" transform="translate(1,1)" fill="#0c8ea8" d=" m 0,0  m 0,8 a 8 8 0 0,1 8,-8  h 7  l 6,4  3,0  6,-4  h 132.21189880371094  v 5  H 162.21189880371094  V 5  H 162.21189880371094  V 25  H 162.21189880371094  V 25  V 29  h -132.71189880371094  l -6,4  -3,0  -6,-4  h -6.5 a 8 8 0 0,1 -8,-8 z&#10;"/><path class="blocklyPath" stroke="none" fill="#0fb1d2" d=" m 0,0  m 0,8 a 8 8 0 0,1 8,-8  h 7  l 6,4  3,0  6,-4  h 132.21189880371094  v 5  H 162.21189880371094  V 5  H 162.21189880371094  V 25  H 162.21189880371094  V 25  V 29  h -132.71189880371094  l -6,4  -3,0  -6,-4  h -6.5 a 8 8 0 0,1 -8,-8 z&#10;"/><g class="blocklyEditableText" transform="translate(5,5)" style="cursor: default;"><rect rx="4" ry="4" x="0" y="0" height="20" width="100.81605529785156" class="blocklyFieldRect blocklyDropdownRect" fill="#fff" fill-opacity=".6" stroke="none"/><text class="blocklyFieldText blocklyDropdownText" fill="#000" style="font: normal 11pt sans-serif;" text-anchor="start" x="5" y="16">recorder_0<tspan style="fill: rgb(15, 177, 210);"> ▾</tspan></text><image style="display: none;"/></g><g transform="translate(110.81605529785156,5)"><text class="blocklyText" fill="#fff" style="font: normal 11pt sans-serif;" x="0" y="16">pause</text></g></g></svg>