<svg xmlns="http://www.w3.org/2000/svg" width="979.8475341796875" height="912"><g data-id="setup_block" class="blocklyDraggable" transform="translate(2, 2)"><path class="blocklyPathDark" transform="translate(1,1)" fill="#cca038" d=" m 0,0  m 0,8 a 8 8 0 0,1 8,-8  h 205.27699279785156  v 5  H 213.27699279785156  V 5  H 213.27699279785156  V 24  H 213.27699279785156  V 34  H 213.27699279785156  V 54  H 213.27699279785156  V 58  H 50  l -6,4  -3,0  -6,-4  h -7 a 8 8 0 0,0 -8,8  v 132 a 8 8 0 0,0 8,8  H 213.27699279785156  H 213.27699279785156  V 206  V 216  h -205.27699279785156 a 8 8 0 0,1 -8,-8 z&#10;"/><path class="blocklyPath" stroke="none" fill="#ffc846" d=" m 0,0  m 0,8 a 8 8 0 0,1 8,-8  h 205.27699279785156  v 5  H 213.27699279785156  V 5  H 213.27699279785156  V 24  H 213.27699279785156  V 34  H 213.27699279785156  V 54  H 213.27699279785156  V 58  H 50  l -6,4  -3,0  -6,-4  h -7 a 8 8 0 0,0 -8,8  v 132 a 8 8 0 0,0 8,8  H 213.27699279785156  H 213.27699279785156  V 206  V 216  h -205.27699279785156 a 8 8 0 0,1 -8,-8 z&#10;"/><g data-id="system_m5_begin" style="display: block;" class="blocklyDraggable" transform="translate(21,59)"><path class="blocklyPathDark" transform="translate(1,1)" fill="#44a43d" d=" m 0,0  m 0,8 a 8 8 0 0,1 8,-8  h 7  l 6,4  3,0  6,-4  h 230.30776977539062  v 5  H 260.3077697753906  V 5  H 260.3077697753906  V 24  H 260.3077697753906  V 24  V 28  h -230.80776977539062  l -6,4  -3,0  -6,-4  h -14.5  H 0 z&#10;"/><path class="blocklyPath" stroke="none" fill="#55cd4c" d=" m 0,0  m 0,8 a 8 8 0 0,1 8,-8  h 7  l 6,4  3,0  6,-4  h 230.30776977539062  v 5  H 260.3077697753906  V 5  H 260.3077697753906  V 24  H 260.3077697753906  V 24  V 28  h -230.80776977539062  l -6,4  -3,0  -6,-4  h -14.5  H 0 z&#10;"/><g data-id="6~I$c($r/$o#6T%mx|`j" class="blocklyDraggable" transform="translate(0,29)"><path class="blocklyPathDark" transform="translate(1,1)" fill="#cc5295" d=" m 0,0  h 15  l 6,4  3,0  6,-4  h 110.55546569824219  v 5  H 140.5554656982422  V 5  H 140.5554656982422  V 24  H 140.5554656982422  V 34  H 140.5554656982422  c 0,10  -8,-8  -8,7.5  s 8,-2.5  8,7.5  v 4  H 140.5554656982422  V 63  H 140.5554656982422  c 0,10  -8,-8  -8,7.5  s 8,-2.5  8,7.5  v 4  H 140.5554656982422  V 82  V 86  h -111.05546569824219  l -6,4  -3,0  -6,-4  h -14.5  H 0 z&#10;"/><path class="blocklyPath" stroke="none" fill="#ff67ba" d=" m 0,0  h 15  l 6,4  3,0  6,-4  h 110.55546569824219  v 5  H 140.5554656982422  V 5  H 140.5554656982422  V 24  H 140.5554656982422  V 34  H 140.5554656982422  c 0,10  -8,-8  -8,7.5  s 8,-2.5  8,7.5  v 4  H 140.5554656982422  V 63  H 140.5554656982422  c 0,10  -8,-8  -8,7.5  s 8,-2.5  8,7.5  v 4  H 140.5554656982422  V 82  V 86  h -111.05546569824219  l -6,4  -3,0  -6,-4  h -14.5  H 0 z&#10;"/><g data-id="NyR#CbjtL[iN!ws7!2V~" style="display: block;" transform="translate(133.5554656982422,29)"><path class="blocklyPathDark" transform="translate(1,1)" fill="#ffc2e3" d=" m 8,0  h 91.82536315917969  v 5  H 99.82536315917969  V 5  H 99.82536315917969  V 24  H 99.82536315917969  V 24  V 28  h -91.82536315917969  H 8  V 20  c 0,-10  -8,8  -8,-7.5  s 8,2.5  8,-7.5 z&#10;"/><path class="blocklyPath" stroke="none" fill="#ffc2e3" d=" m 8,0  h 91.82536315917969  v 5  H 99.82536315917969  V 5  H 99.82536315917969  V 24  H 99.82536315917969  V 24  V 28  h -91.82536315917969  H 8  V 20  c 0,-10  -8,8  -8,-7.5  s 8,2.5  8,-7.5 z&#10;"/><g class="blocklyEditableText" transform="translate(13,5)" style="cursor: default;"><rect rx="4" ry="4" x="0" y="0" height="19" width="81.82536315917969" class="blocklyFieldRect blocklyDropdownRect" fill="#fff" fill-opacity=".6" stroke="none"/><text class="blocklyFieldText blocklyDropdownText" fill="#000" style="font: normal 11pt sans-serif;" text-anchor="start" x="5" y="16">RGB565<tspan style="fill: rgb(255, 194, 227);"> ▾</tspan></text><image style="display: none;"/></g></g><g data-id="bw:dHcmk$_}(Z/-Yfg@c" style="display: block;" transform="translate(133.5554656982422,58)"><path class="blocklyPathDark" transform="translate(1,1)" fill="#ffc2e3" d=" m 8,0  h 152.47677612304688  v 5  H 160.47677612304688  V 5  H 160.47677612304688  V 24  H 160.47677612304688  V 24  V 28  h -152.47677612304688  H 8  V 20  c 0,-10  -8,8  -8,-7.5  s 8,2.5  8,-7.5 z&#10;"/><path class="blocklyPath" stroke="none" fill="#ffc2e3" d=" m 8,0  h 152.47677612304688  v 5  H 160.47677612304688  V 5  H 160.47677612304688  V 24  H 160.47677612304688  V 24  V 28  h -152.47677612304688  H 8  V 20  c 0,-10  -8,8  -8,-7.5  s 8,2.5  8,-7.5 z&#10;"/><g class="blocklyEditableText" transform="translate(13,5)" style="cursor: default;"><rect rx="4" ry="4" x="0" y="0" height="19" width="142.47677612304688" class="blocklyFieldRect blocklyDropdownRect" fill="#fff" fill-opacity=".6" stroke="none"/><text class="blocklyFieldText blocklyDropdownText" fill="#000" style="font: normal 11pt sans-serif;" text-anchor="start" x="5" y="16">QVGA (320x240)<tspan style="fill: rgb(255, 194, 227);"> ▾</tspan></text><image style="display: none;"/></g></g><g data-id="{sl:WW,9uxPG[E1yrJR," class="blocklyDraggable" transform="translate(0,87)"><path class="blocklyPathDark" transform="translate(1,1)" fill="#483cba" d=" m 0,0  h 15  l 6,4  3,0  6,-4  h 128.77308654785156  v 5  H 158.77308654785156  V 5  H 158.77308654785156  c 0,10  -8,-8  -8,7.5  s 8,-2.5  8,7.5  v 4  H 158.77308654785156  V 24  V 28  h -129.27308654785156  l -6,4  -3,0  -6,-4  h -6.5 a 8 8 0 0,1 -8,-8 z&#10;"/><path class="blocklyPath" stroke="none" fill="#5a4be8" d=" m 0,0  h 15  l 6,4  3,0  6,-4  h 128.77308654785156  v 5  H 158.77308654785156  V 5  H 158.77308654785156  c 0,10  -8,-8  -8,7.5  s 8,-2.5  8,7.5  v 4  H 158.77308654785156  V 24  V 28  h -129.27308654785156  l -6,4  -3,0  -6,-4  h -6.5 a 8 8 0 0,1 -8,-8 z&#10;"/><g data-id="0C3s$bTjdO}ezQ|$J$qR" class="blocklyDraggable" style="display: block;" transform="translate(151.77308654785156,0)"><path class="blocklyPathDark" transform="translate(1,1)" fill="#026ac0" d=" m 8,0  h 469.5848388671875  v 5  H 477.5848388671875  V 5  H 477.5848388671875  V 24  H 477.5848388671875  V 24  V 28  h -469.5848388671875  H 8  V 20  c 0,-10  -8,8  -8,-7.5  s 8,2.5  8,-7.5 z&#10;"/><path class="blocklyPath" stroke="none" fill="#0284f0" d=" m 8,0  h 469.5848388671875  v 5  H 477.5848388671875  V 5  H 477.5848388671875  V 24  H 477.5848388671875  V 24  V 28  h -469.5848388671875  H 8  V 20  c 0,-10  -8,8  -8,-7.5  s 8,2.5  8,-7.5 z&#10;"/><g transform="translate(18,5)"><text class="blocklyText" fill="#fff" style="font: normal 11pt sans-serif;" x="0" y="16">create ESP-DL detector object with</text></g><g class="blocklyEditableText" transform="translate(266.35003662109375,5)" style="cursor: default;"><rect rx="4" ry="4" x="0" y="0" height="19" width="151.5819549560547" class="blocklyFieldRect blocklyDropdownRect" fill="#fff" fill-opacity=".6" stroke="none"/><text class="blocklyFieldText blocklyDropdownText" fill="#000" style="font: normal 11pt sans-serif;" text-anchor="start" x="5" y="16">pedestrian_detect<tspan style="fill: rgb(2, 132, 240);"> ▾</tspan></text><image style="display: none;"/></g><g transform="translate(422.93199157714844,5)"><text class="blocklyText" fill="#fff" style="font: normal 11pt sans-serif;" x="0" y="16">model</text></g></g><g transform="translate(10,5)"><text class="blocklyText" fill="#fff" style="font: normal 11pt sans-serif;" x="0" y="16">set</text></g><g class="blocklyEditableText" transform="translate(35.56549072265625,5)" style="cursor: default;"><rect rx="4" ry="4" x="0" y="0" height="19" width="85.547607421875" class="blocklyFieldRect blocklyDropdownRect" fill="#fff" fill-opacity=".6" stroke="none"/><text class="blocklyFieldText blocklyDropdownText" fill="#000" style="font: normal 11pt sans-serif;" text-anchor="start" x="5" y="16">detector<tspan style="fill: rgb(90, 75, 232);"> ▾</tspan></text><image style="display: none;"/></g><g transform="translate(126.11309814453125,5)"><text class="blocklyText" fill="#fff" style="font: normal 11pt sans-serif;" x="0" y="16">to</text></g></g><g transform="translate(10,5)"><text class="blocklyText" fill="#fff" style="font: normal 11pt sans-serif;" x="0" y="16">Init camera with</text></g><g transform="translate(10,34)"><text class="blocklyText" fill="#fff" style="font: normal 11pt sans-serif;" x="0" y="16">pixel format</text></g><g transform="translate(10,63)"><text class="blocklyText" fill="#fff" style="font: normal 11pt sans-serif;" x="0" y="16">frame size</text></g></g><g transform="translate(10,5)"><text class="blocklyText" fill="#fff" style="font: normal 11pt sans-serif;" x="0" y="16">Init built-in hardware at beginning</text></g></g><g transform="translate(10,5)"><text class="blocklyText" fill="#fff" style="font: normal 11pt sans-serif;" x="0" y="16">Setup              </text></g><g transform="translate(10,34)"><text class="blocklyText" fill="#fff" style="font: normal 11pt sans-serif;" x="0" y="16">Begin initialization</text></g><g class="blocklyEditableText" transform="translate(144.29847717285156,34)"><rect rx="10" ry="10" x="0" y="0" height="20" class="blocklyFieldSwitchInner blocklyFieldSwitchChecked" fill-opacity=".9" width="63.978515625" fill="#8253f9"/><text class="blocklyFieldSwitchLabel" y="16" fill="#fff" style="font: 11pt sans-serif; display: none;" x="-63.978515625">False</text><circle cy="10" r="7" class="blocklyFieldSwitchHandle" fill="#fff" cx="10"/><text class="blocklyFieldSwitchLabel" y="16" fill="#fff" style="font: 11pt sans-serif; display: block;" x="24">True</text></g></g><g data-id="loop_block" class="blocklyDraggable" transform="translate(2, 227)"><path class="blocklyPathDark" transform="translate(1,1)" fill="#0cae6e" d=" m 0,0  m 0,8 a 8 8 0 0,1 8,-8  h 125.60762023925781  v 5  H 133.6076202392578  V 5  H 133.6076202392578  V 24  H 133.6076202392578  V 28  H 50  l -6,4  -3,0  -6,-4  h -7 a 8 8 0 0,0 -8,8  v 605 a 8 8 0 0,0 8,8  H 133.6076202392578  H 133.6076202392578  V 654  H 133.6076202392578  V 674  H 133.6076202392578  V 674  V 678  h -125.60762023925781 a 8 8 0 0,1 -8,-8 z&#10;"/><path class="blocklyPath" stroke="none" fill="#0fd989" d=" m 0,0  m 0,8 a 8 8 0 0,1 8,-8  h 125.60762023925781  v 5  H 133.6076202392578  V 5  H 133.6076202392578  V 24  H 133.6076202392578  V 28  H 50  l -6,4  -3,0  -6,-4  h -7 a 8 8 0 0,0 -8,8  v 605 a 8 8 0 0,0 8,8  H 133.6076202392578  H 133.6076202392578  V 654  H 133.6076202392578  V 674  H 133.6076202392578  V 674  V 678  h -125.60762023925781 a 8 8 0 0,1 -8,-8 z&#10;"/><g data-id="system_m5_update" style="display: block;" class="blocklyDraggable" transform="translate(21,29)"><path class="blocklyPathDark" transform="translate(1,1)" fill="#44a43d" d=" m 0,0  m 0,8 a 8 8 0 0,1 8,-8  h 7  l 6,4  3,0  6,-4  h 218.43235778808594  v 5  H 248.43235778808594  V 5  H 248.43235778808594  V 24  H 248.43235778808594  V 24  V 28  h -218.93235778808594  l -6,4  -3,0  -6,-4  h -14.5  H 0 z&#10;"/><path class="blocklyPath" stroke="none" fill="#55cd4c" d=" m 0,0  m 0,8 a 8 8 0 0,1 8,-8  h 7  l 6,4  3,0  6,-4  h 218.43235778808594  v 5  H 248.43235778808594  V 5  H 248.43235778808594  V 24  H 248.43235778808594  V 24  V 28  h -218.93235778808594  l -6,4  -3,0  -6,-4  h -14.5  H 0 z&#10;"/><g data-id="2%j{cmCOh?vKCUQ#@WpW" class="blocklyDraggable" transform="translate(0,29)"><path class="blocklyPathDark" transform="translate(1,1)" fill="#483cba" d=" m 0,0  h 15  l 6,4  3,0  6,-4  h 96.82606506347656  v 5  H 126.82606506347656  V 5  H 126.82606506347656  c 0,10  -8,-8  -8,7.5  s 8,-2.5  8,7.5  v 4  H 126.82606506347656  V 24  V 28  h -97.32606506347656  l -6,4  -3,0  -6,-4  h -14.5  H 0 z&#10;"/><path class="blocklyPath" stroke="none" fill="#5a4be8" d=" m 0,0  h 15  l 6,4  3,0  6,-4  h 96.82606506347656  v 5  H 126.82606506347656  V 5  H 126.82606506347656  c 0,10  -8,-8  -8,7.5  s 8,-2.5  8,7.5  v 4  H 126.82606506347656  V 24  V 28  h -97.32606506347656  l -6,4  -3,0  -6,-4  h -14.5  H 0 z&#10;"/><g data-id="8V;CvuH/-V)Szm%;yQ3_" class="blocklyDraggable" style="display: block;" transform="translate(119.82606506347656,0)"><path class="blocklyPathDark" transform="translate(1,1)" fill="#cc5295" d=" m 8,0  h 139.4273223876953  v 5  H 147.4273223876953  V 5  H 147.4273223876953  V 24  H 147.4273223876953  V 24  V 28  h -139.4273223876953  H 8  V 20  c 0,-10  -8,8  -8,-7.5  s 8,2.5  8,-7.5 z&#10;"/><path class="blocklyPath" stroke="none" fill="#ff67ba" d=" m 8,0  h 139.4273223876953  v 5  H 147.4273223876953  V 5  H 147.4273223876953  V 24  H 147.4273223876953  V 24  V 28  h -139.4273223876953  H 8  V 20  c 0,-10  -8,8  -8,-7.5  s 8,2.5  8,-7.5 z&#10;"/><g transform="translate(18,5)"><text class="blocklyText" fill="#fff" style="font: normal 11pt sans-serif;" x="0" y="16">camera snapshot</text></g></g><g data-id="|St^*w|IWN$F@hEdzwVW" class="blocklyDraggable" transform="translate(0,29)"><path class="blocklyPathDark" transform="translate(1,1)" fill="#483cba" d=" m 0,0  h 15  l 6,4  3,0  6,-4  h 181.69363403320312  v 5  H 211.69363403320312  V 5  H 211.69363403320312  c 0,10  -8,-8  -8,7.5  s 8,-2.5  8,7.5  v 15  H 211.69363403320312  V 35  V 39  h -182.19363403320312  l -6,4  -3,0  -6,-4  h -14.5  H 0 z&#10;"/><path class="blocklyPath" stroke="none" fill="#5a4be8" d=" m 0,0  h 15  l 6,4  3,0  6,-4  h 181.69363403320312  v 5  H 211.69363403320312  V 5  H 211.69363403320312  c 0,10  -8,-8  -8,7.5  s 8,-2.5  8,7.5  v 15  H 211.69363403320312  V 35  V 39  h -182.19363403320312  l -6,4  -3,0  -6,-4  h -14.5  H 0 z&#10;"/><g data-id="C~Qur`I|=@AhIKV)]4Fc" style="display: block;" class="blocklyDraggable" transform="translate(204.69363403320312,0)"><path class="blocklyPathDark" transform="translate(1,1)" fill="#026ac0" d=" m 8,0  h 462.7029724121094  v 5  H 470.7029724121094  V 5  H 470.7029724121094  V 35  H 470.7029724121094  V 35  V 39  h -462.7029724121094  H 8  V 20  c 0,-10  -8,8  -8,-7.5  s 8,2.5  8,-7.5 z&#10; M 308.1159973144531,5  v 5  c 0,10  -8,-8  -8,7.5  s 8,-2.5  8,7.5  v 10  h 65.6005859375  v -30 z"/><path class="blocklyPath" stroke="none" fill="#0284f0" d=" m 8,0  h 462.7029724121094  v 5  H 470.7029724121094  V 5  H 470.7029724121094  V 35  H 470.7029724121094  V 35  V 39  h -462.7029724121094  H 8  V 20  c 0,-10  -8,8  -8,-7.5  s 8,2.5  8,-7.5 z&#10; M 308.1159973144531,5  v 5  c 0,10  -8,-8  -8,7.5  s 8,-2.5  8,7.5  v 10  h 65.6005859375  v -30 z"/><g data-id="c3;hhv$C~IMOp4]Y2}R=" class="blocklyDraggable" style="display: block;" transform="translate(301.1159973144531,6)"><path class="blocklyPathDark" transform="translate(1,1)" fill="#483cba" d=" m 8,0  h 63.6005859375  v 5  H 71.6005859375  V 5  H 71.6005859375  V 24  H 71.6005859375  V 24  V 28  h -63.6005859375  H 8  V 20  c 0,-10  -8,8  -8,-7.5  s 8,2.5  8,-7.5 z&#10;"/><path class="blocklyPath" stroke="none" fill="#5a4be8" d=" m 8,0  h 63.6005859375  v 5  H 71.6005859375  V 5  H 71.6005859375  V 24  H 71.6005859375  V 24  V 28  h -63.6005859375  H 8  V 20  c 0,-10  -8,8  -8,-7.5  s 8,2.5  8,-7.5 z&#10;"/><g class="blocklyEditableText" transform="translate(13,5)" style="cursor: default;"><rect rx="4" ry="4" x="0" y="0" height="19" width="53.6005859375" class="blocklyFieldRect blocklyDropdownRect" fill="#fff" fill-opacity=".6" stroke="none"/><text class="blocklyFieldText blocklyDropdownText" fill="#000" style="font: normal 11pt sans-serif;" text-anchor="start" x="5" y="16">img<tspan style="fill: rgb(90, 75, 232);"> ▾</tspan></text><image style="display: none;"/></g></g><g transform="translate(18,10)"><text class="blocklyText" fill="#fff" style="font: normal 11pt sans-serif;" x="0" y="16">ESP-DL detector</text></g><g class="blocklyEditableText" transform="translate(136.82249450683594,10)" style="cursor: default;"><rect rx="4" ry="4" x="0" y="0" height="19" width="85.547607421875" class="blocklyFieldRect blocklyDropdownRect" fill="#fff" fill-opacity=".6" stroke="none"/><text class="blocklyFieldText blocklyDropdownText" fill="#000" style="font: normal 11pt sans-serif;" text-anchor="start" x="5" y="16">detector<tspan style="fill: rgb(2, 132, 240);"> ▾</tspan></text><image style="display: none;"/></g><g transform="translate(227.37010192871094,10)"><text class="blocklyText" fill="#fff" style="font: normal 11pt sans-serif;" x="0" y="16">inference</text></g><g transform="translate(383.7165832519531,10)"><text class="blocklyText" fill="#fff" style="font: normal 11pt sans-serif;" x="0" y="16">(return list)</text></g></g><g data-id=".-ZJRRZ;Fz,QS,fD(+jX" class="blocklyDraggable" transform="translate(0,40)"><path class="blocklyPathDark" transform="translate(1,1)" fill="#2443a6" d=" m 0,0  h 15  l 6,4  3,0  6,-4  h 38.69721984863281  v 5  H 68.69721984863281  V 5  H 68.69721984863281  c 0,10  -8,-8  -8,7.5  s 8,-2.5  8,7.5  v 4  H 68.69721984863281  V 28  H 68.69721984863281  l -6,4  -3,0  -6,-4  h -7 a 8 8 0 0,0 -8,8  v 291 a 8 8 0 0,0 8,8  H 68.69721984863281  H 68.69721984863281  V 335  V 345  h -39.19721984863281  l -6,4  -3,0  -6,-4  h -14.5  H 0 z&#10;"/><path class="blocklyPath" stroke="none" fill="#2d54cf" d=" m 0,0  h 15  l 6,4  3,0  6,-4  h 38.69721984863281  v 5  H 68.69721984863281  V 5  H 68.69721984863281  c 0,10  -8,-8  -8,7.5  s 8,-2.5  8,7.5  v 4  H 68.69721984863281  V 28  H 68.69721984863281  l -6,4  -3,0  -6,-4  h -7 a 8 8 0 0,0 -8,8  v 291 a 8 8 0 0,0 8,8  H 68.69721984863281  H 68.69721984863281  V 335  V 345  h -39.19721984863281  l -6,4  -3,0  -6,-4  h -14.5  H 0 z&#10;"/><g class="blocklyIconGroup" display="block" transform="translate(10,5)"><rect class="blocklyIconShape" rx="4" ry="4" height="16" width="16" fill="#00f" stroke="#fff" stroke-width="1px"/><path class="blocklyIconSymbol" d="m4.203,7.296 0,1.368 -0.92,0.677 -0.11,0.41 0.9,1.559 0.41,0.11 1.043,-0.457 1.187,0.683 0.127,1.134 0.3,0.3 1.8,0 0.3,-0.299 0.127,-1.138 1.185,-0.682 1.046,0.458 0.409,-0.11 0.9,-1.559 -0.11,-0.41 -0.92,-0.677 0,-1.366 0.92,-0.677 0.11,-0.41 -0.9,-1.559 -0.409,-0.109 -1.046,0.458 -1.185,-0.682 -0.127,-1.138 -0.3,-0.299 -1.8,0 -0.3,0.3 -0.126,1.135 -1.187,0.682 -1.043,-0.457 -0.41,0.11 -0.899,1.559 0.108,0.409z" fill="#fff"/><circle class="blocklyIconShape" r="2.7" cx="8" cy="8" fill="#00f" stroke="#fff" stroke-width="1px"/></g><g data-id="][QJc,Xz@Pdx]07Txr+u" class="blocklyDraggable" style="display: block;" transform="translate(61.69721984863281,0)"><path class="blocklyPathDark" transform="translate(1,1)" fill="#483cba" d=" m 8,0  h 148.46815490722656  v 5  H 156.46815490722656  V 5  H 156.46815490722656  V 24  H 156.46815490722656  V 24  V 28  h -148.46815490722656  H 8  V 20  c 0,-10  -8,8  -8,-7.5  s 8,2.5  8,-7.5 z&#10;"/><path class="blocklyPath" stroke="none" fill="#5a4be8" d=" m 8,0  h 148.46815490722656  v 5  H 156.46815490722656  V 5  H 156.46815490722656  V 24  H 156.46815490722656  V 24  V 28  h -148.46815490722656  H 8  V 20  c 0,-10  -8,8  -8,-7.5  s 8,2.5  8,-7.5 z&#10;"/><g class="blocklyEditableText" transform="translate(13,5)" style="cursor: default;"><rect rx="4" ry="4" x="0" y="0" height="19" width="138.46815490722656" class="blocklyFieldRect blocklyDropdownRect" fill="#fff" fill-opacity=".6" stroke="none"/><text class="blocklyFieldText blocklyDropdownText" fill="#000" style="font: normal 11pt sans-serif;" text-anchor="start" x="5" y="16">detection_result<tspan style="fill: rgb(90, 75, 232);"> ▾</tspan></text><image style="display: none;"/></g></g><g data-id="ey]D-uEgwS|QRXAh0kEy" style="display: block;" class="blocklyDraggable" transform="translate(39.69721984863281,29)"><path class="blocklyPathDark" transform="translate(1,1)" fill="#44a43d" d=" m 0,0  m 0,8 a 8 8 0 0,1 8,-8  h 7  l 6,4  3,0  6,-4  h 185.1724853515625  v 5  H 215.1724853515625  V 5  H 215.1724853515625  c 0,10  -8,-8  -8,7.5  s 8,-2.5  8,7.5  v 4  H 215.1724853515625  V 28  H 68.69721984863281  l -6,4  -3,0  -6,-4  h -7 a 8 8 0 0,0 -8,8  v 249 a 8 8 0 0,0 8,8  H 215.1724853515625  H 215.1724853515625  V 293  V 303  h -185.6724853515625  l -6,4  -3,0  -6,-4  h -6.5 a 8 8 0 0,1 -8,-8 z&#10;"/><path class="blocklyPath" stroke="none" fill="#55cd4c" d=" m 0,0  m 0,8 a 8 8 0 0,1 8,-8  h 7  l 6,4  3,0  6,-4  h 185.1724853515625  v 5  H 215.1724853515625  V 5  H 215.1724853515625  c 0,10  -8,-8  -8,7.5  s 8,-2.5  8,7.5  v 4  H 215.1724853515625  V 28  H 68.69721984863281  l -6,4  -3,0  -6,-4  h -7 a 8 8 0 0,0 -8,8  v 249 a 8 8 0 0,0 8,8  H 215.1724853515625  H 215.1724853515625  V 293  V 303  h -185.6724853515625  l -6,4  -3,0  -6,-4  h -6.5 a 8 8 0 0,1 -8,-8 z&#10;"/><g data-id="odctkdYE[cXzZfm0~*[@" class="blocklyDraggable" style="display: block;" transform="translate(208.1724853515625,0)"><path class="blocklyPathDark" transform="translate(1,1)" fill="#483cba" d=" m 8,0  h 148.46815490722656  v 5  H 156.46815490722656  V 5  H 156.46815490722656  V 24  H 156.46815490722656  V 24  V 28  h -148.46815490722656  H 8  V 20  c 0,-10  -8,8  -8,-7.5  s 8,2.5  8,-7.5 z&#10;"/><path class="blocklyPath" stroke="none" fill="#5a4be8" d=" m 8,0  h 148.46815490722656  v 5  H 156.46815490722656  V 5  H 156.46815490722656  V 24  H 156.46815490722656  V 24  V 28  h -148.46815490722656  H 8  V 20  c 0,-10  -8,8  -8,-7.5  s 8,2.5  8,-7.5 z&#10;"/><g class="blocklyEditableText" transform="translate(13,5)" style="cursor: default;"><rect rx="4" ry="4" x="0" y="0" height="19" width="138.46815490722656" class="blocklyFieldRect blocklyDropdownRect" fill="#fff" fill-opacity=".6" stroke="none"/><text class="blocklyFieldText blocklyDropdownText" fill="#000" style="font: normal 11pt sans-serif;" text-anchor="start" x="5" y="16">detection_result<tspan style="fill: rgb(90, 75, 232);"> ▾</tspan></text><image style="display: none;"/></g></g><g data-id="N9bELzx7fwitwELkm~i}" style="display: block;" class="blocklyDraggable" transform="translate(39.69721984863281,29)"><path class="blocklyPathDark" transform="translate(1,1)" fill="#483cba" d=" m 0,0  m 0,8 a 8 8 0 0,1 8,-8  h 7  l 6,4  3,0  6,-4  h 87.15531921386719  v 5  H 117.15531921386719  V 5  H 117.15531921386719  c 0,10  -8,-8  -8,7.5  s 8,-2.5  8,7.5  v 4  H 117.15531921386719  V 24  V 28  h -87.65531921386719  l -6,4  -3,0  -6,-4  h -14.5  H 0 z&#10;"/><path class="blocklyPath" stroke="none" fill="#5a4be8" d=" m 0,0  m 0,8 a 8 8 0 0,1 8,-8  h 7  l 6,4  3,0  6,-4  h 87.15531921386719  v 5  H 117.15531921386719  V 5  H 117.15531921386719  c 0,10  -8,-8  -8,7.5  s 8,-2.5  8,7.5  v 4  H 117.15531921386719  V 24  V 28  h -87.65531921386719  l -6,4  -3,0  -6,-4  h -14.5  H 0 z&#10;"/><g data-id="dOC{S_EYDx)Ml|pSNmY_" class="blocklyDraggable" style="display: block;" transform="translate(110.15531921386719,0)"><path class="blocklyPathDark" transform="translate(1,1)" fill="#026ac0" d=" m 8,0  h 534.0658569335938  v 5  H 542.0658569335938  V 5  H 542.0658569335938  V 24  H 542.0658569335938  V 24  V 28  h -534.0658569335938  H 8  V 20  c 0,-10  -8,8  -8,-7.5  s 8,2.5  8,-7.5 z&#10;"/><path class="blocklyPath" stroke="none" fill="#0284f0" d=" m 8,0  h 534.0658569335938  v 5  H 542.0658569335938  V 5  H 542.0658569335938  V 24  H 542.0658569335938  V 24  V 28  h -534.0658569335938  H 8  V 20  c 0,-10  -8,8  -8,-7.5  s 8,2.5  8,-7.5 z&#10;"/><g transform="translate(18,5)"><text class="blocklyText" fill="#fff" style="font: normal 11pt sans-serif;" x="0" y="16">get</text></g><g class="blocklyEditableText" transform="translate(46.156768798828125,5)" style="cursor: default;"><rect rx="4" ry="4" x="0" y="0" height="19" width="87.40873718261719" class="blocklyFieldRect blocklyDropdownRect" fill="#fff" fill-opacity=".6" stroke="none"/><text class="blocklyFieldText blocklyDropdownText" fill="#000" style="font: normal 11pt sans-serif;" text-anchor="start" x="5" y="16">keypoint<tspan style="fill: rgb(2, 132, 240);"> ▾</tspan></text><image style="display: none;"/></g><g transform="translate(138.5655059814453,5)"><text class="blocklyText" fill="#fff" style="font: normal 11pt sans-serif;" x="0" y="16">in ESP-DL detector inference result</text></g><g class="blocklyEditableText" transform="translate(386.9728088378906,5)" style="cursor: default;"><rect rx="4" ry="4" x="0" y="0" height="19" width="47.07945251464844" class="blocklyFieldRect blocklyDropdownRect" fill="#fff" fill-opacity=".6" stroke="none"/><text class="blocklyFieldText blocklyDropdownText" fill="#000" style="font: normal 11pt sans-serif;" text-anchor="start" x="5" y="16">res<tspan style="fill: rgb(2, 132, 240);"> ▾</tspan></text><image style="display: none;"/></g><g transform="translate(439.05226135253906,5)"><text class="blocklyText" fill="#fff" style="font: normal 11pt sans-serif;" x="0" y="16">(return tuple)</text></g></g><g data-id="z[0*}Q.{herId{oGwamy" class="blocklyDraggable" transform="translate(0,29)"><path class="blocklyPathDark" transform="translate(1,1)" fill="#44a43d" d=" m 0,0  h 15  l 6,4  3,0  6,-4  h 190.14747619628906  v 5  H 220.14747619628906  V 5  H 220.14747619628906  V 24  H 220.14747619628906  V 34  H 220.14747619628906  c 0,10  -8,-8  -8,7.5  s 8,-2.5  8,7.5  v 4  H 220.14747619628906  V 63  H 220.14747619628906  c 0,10  -8,-8  -8,7.5  s 8,-2.5  8,7.5  v 4  H 220.14747619628906  V 92  H 220.14747619628906  c 0,10  -8,-8  -8,7.5  s 8,-2.5  8,7.5  v 4  H 220.14747619628906  V 121  H 220.14747619628906  c 0,10  -8,-8  -8,7.5  s 8,-2.5  8,7.5  v 4  H 220.14747619628906  V 150  H 220.14747619628906  c 0,10  -8,-8  -8,7.5  s 8,-2.5  8,7.5  v 4  H 220.14747619628906  V 179  H 220.14747619628906  c 0,10  -8,-8  -8,7.5  s 8,-2.5  8,7.5  v 4  H 220.14747619628906  V 208  H 220.14747619628906  c 0,10  -8,-8  -8,7.5  s 8,-2.5  8,7.5  v 5  H 220.14747619628906  V 228  V 232  h -190.64747619628906  l -6,4  -3,0  -6,-4  h -6.5 a 8 8 0 0,1 -8,-8 z&#10;"/><path class="blocklyPath" stroke="none" fill="#55cd4c" d=" m 0,0  h 15  l 6,4  3,0  6,-4  h 190.14747619628906  v 5  H 220.14747619628906  V 5  H 220.14747619628906  V 24  H 220.14747619628906  V 34  H 220.14747619628906  c 0,10  -8,-8  -8,7.5  s 8,-2.5  8,7.5  v 4  H 220.14747619628906  V 63  H 220.14747619628906  c 0,10  -8,-8  -8,7.5  s 8,-2.5  8,7.5  v 4  H 220.14747619628906  V 92  H 220.14747619628906  c 0,10  -8,-8  -8,7.5  s 8,-2.5  8,7.5  v 4  H 220.14747619628906  V 121  H 220.14747619628906  c 0,10  -8,-8  -8,7.5  s 8,-2.5  8,7.5  v 4  H 220.14747619628906  V 150  H 220.14747619628906  c 0,10  -8,-8  -8,7.5  s 8,-2.5  8,7.5  v 4  H 220.14747619628906  V 179  H 220.14747619628906  c 0,10  -8,-8  -8,7.5  s 8,-2.5  8,7.5  v 4  H 220.14747619628906  V 208  H 220.14747619628906  c 0,10  -8,-8  -8,7.5  s 8,-2.5  8,7.5  v 5  H 220.14747619628906  V 228  V 232  h -190.64747619628906  l -6,4  -3,0  -6,-4  h -6.5 a 8 8 0 0,1 -8,-8 z&#10;"/><g data-id="rI$4}{*Od2-+c3|Or@UN" class="blocklyDraggable" style="display: block;" transform="translate(213.14747619628906,29)"><path class="blocklyPathDark" transform="translate(1,1)" fill="#026ac0" d=" m 8,0  h 611.6249084472656  v 5  H 619.6249084472656  V 5  H 619.6249084472656  V 24  H 619.6249084472656  V 24  V 28  h -611.6249084472656  H 8  V 20  c 0,-10  -8,8  -8,-7.5  s 8,2.5  8,-7.5 z&#10;"/><path class="blocklyPath" stroke="none" fill="#0284f0" d=" m 8,0  h 611.6249084472656  v 5  H 619.6249084472656  V 5  H 619.6249084472656  V 24  H 619.6249084472656  V 24  V 28  h -611.6249084472656  H 8  V 20  c 0,-10  -8,8  -8,-7.5  s 8,2.5  8,-7.5 z&#10;"/><g transform="translate(18,5)"><text class="blocklyText" fill="#fff" style="font: normal 11pt sans-serif;" x="0" y="16">get</text></g><g class="blocklyEditableText" transform="translate(46.156768798828125,5)" style="cursor: default;"><rect rx="4" ry="4" x="0" y="0" height="19" width="182.64852905273438" class="blocklyFieldRect blocklyDropdownRect" fill="#fff" fill-opacity=".6" stroke="none"/><text class="blocklyFieldText blocklyDropdownText" fill="#000" style="font: normal 11pt sans-serif;" text-anchor="start" x="5" y="16">x of the bounding box<tspan style="fill: rgb(2, 132, 240);"> ▾</tspan></text><image style="display: none;"/></g><g transform="translate(233.8052978515625,5)"><text class="blocklyText" fill="#fff" style="font: normal 11pt sans-serif;" x="0" y="16">in ESP-DL detector inference result</text></g><g class="blocklyEditableText" transform="translate(482.2126007080078,5)" style="cursor: default;"><rect rx="4" ry="4" x="0" y="0" height="19" width="47.07945251464844" class="blocklyFieldRect blocklyDropdownRect" fill="#fff" fill-opacity=".6" stroke="none"/><text class="blocklyFieldText blocklyDropdownText" fill="#000" style="font: normal 11pt sans-serif;" text-anchor="start" x="5" y="16">res<tspan style="fill: rgb(2, 132, 240);"> ▾</tspan></text><image style="display: none;"/></g><g transform="translate(534.2920532226562,5)"><text class="blocklyText" fill="#fff" style="font: normal 11pt sans-serif;" x="0" y="16">(return int)</text></g></g><g data-id="#fYqfest=abFxPlBP^D+" class="blocklyDraggable" style="display: block;" transform="translate(213.14747619628906,58)"><path class="blocklyPathDark" transform="translate(1,1)" fill="#026ac0" d=" m 8,0  h 611.9541931152344  v 5  H 619.9541931152344  V 5  H 619.9541931152344  V 24  H 619.9541931152344  V 24  V 28  h -611.9541931152344  H 8  V 20  c 0,-10  -8,8  -8,-7.5  s 8,2.5  8,-7.5 z&#10;"/><path class="blocklyPath" stroke="none" fill="#0284f0" d=" m 8,0  h 611.9541931152344  v 5  H 619.9541931152344  V 5  H 619.9541931152344  V 24  H 619.9541931152344  V 24  V 28  h -611.9541931152344  H 8  V 20  c 0,-10  -8,8  -8,-7.5  s 8,2.5  8,-7.5 z&#10;"/><g transform="translate(18,5)"><text class="blocklyText" fill="#fff" style="font: normal 11pt sans-serif;" x="0" y="16">get</text></g><g class="blocklyEditableText" transform="translate(46.156768798828125,5)" style="cursor: default;"><rect rx="4" ry="4" x="0" y="0" height="19" width="182.97781372070312" class="blocklyFieldRect blocklyDropdownRect" fill="#fff" fill-opacity=".6" stroke="none"/><text class="blocklyFieldText blocklyDropdownText" fill="#000" style="font: normal 11pt sans-serif;" text-anchor="start" x="5" y="16">y of the bounding box<tspan style="fill: rgb(2, 132, 240);"> ▾</tspan></text><image style="display: none;"/></g><g transform="translate(234.13458251953125,5)"><text class="blocklyText" fill="#fff" style="font: normal 11pt sans-serif;" x="0" y="16">in ESP-DL detector inference result</text></g><g class="blocklyEditableText" transform="translate(482.54188537597656,5)" style="cursor: default;"><rect rx="4" ry="4" x="0" y="0" height="19" width="47.07945251464844" class="blocklyFieldRect blocklyDropdownRect" fill="#fff" fill-opacity=".6" stroke="none"/><text class="blocklyFieldText blocklyDropdownText" fill="#000" style="font: normal 11pt sans-serif;" text-anchor="start" x="5" y="16">res<tspan style="fill: rgb(2, 132, 240);"> ▾</tspan></text><image style="display: none;"/></g><g transform="translate(534.621337890625,5)"><text class="blocklyText" fill="#fff" style="font: normal 11pt sans-serif;" x="0" y="16">(return int)</text></g></g><g data-id="~lq/1!z7M#G/zz2HYI4t" class="blocklyDraggable" style="display: block;" transform="translate(213.14747619628906,87)"><path class="blocklyPathDark" transform="translate(1,1)" fill="#026ac0" d=" m 8,0  h 643.5361633300781  v 5  H 651.5361633300781  V 5  H 651.5361633300781  V 24  H 651.5361633300781  V 24  V 28  h -643.5361633300781  H 8  V 20  c 0,-10  -8,8  -8,-7.5  s 8,2.5  8,-7.5 z&#10;"/><path class="blocklyPath" stroke="none" fill="#0284f0" d=" m 8,0  h 643.5361633300781  v 5  H 651.5361633300781  V 5  H 651.5361633300781  V 24  H 651.5361633300781  V 24  V 28  h -643.5361633300781  H 8  V 20  c 0,-10  -8,8  -8,-7.5  s 8,2.5  8,-7.5 z&#10;"/><g transform="translate(18,5)"><text class="blocklyText" fill="#fff" style="font: normal 11pt sans-serif;" x="0" y="16">get</text></g><g class="blocklyEditableText" transform="translate(46.156768798828125,5)" style="cursor: default;"><rect rx="4" ry="4" x="0" y="0" height="19" width="214.55978393554688" class="blocklyFieldRect blocklyDropdownRect" fill="#fff" fill-opacity=".6" stroke="none"/><text class="blocklyFieldText blocklyDropdownText" fill="#000" style="font: normal 11pt sans-serif;" text-anchor="start" x="5" y="16">width of the bounding box<tspan style="fill: rgb(2, 132, 240);"> ▾</tspan></text><image style="display: none;"/></g><g transform="translate(265.716552734375,5)"><text class="blocklyText" fill="#fff" style="font: normal 11pt sans-serif;" x="0" y="16">in ESP-DL detector inference result</text></g><g class="blocklyEditableText" transform="translate(514.1238555908203,5)" style="cursor: default;"><rect rx="4" ry="4" x="0" y="0" height="19" width="47.07945251464844" class="blocklyFieldRect blocklyDropdownRect" fill="#fff" fill-opacity=".6" stroke="none"/><text class="blocklyFieldText blocklyDropdownText" fill="#000" style="font: normal 11pt sans-serif;" text-anchor="start" x="5" y="16">res<tspan style="fill: rgb(2, 132, 240);"> ▾</tspan></text><image style="display: none;"/></g><g transform="translate(566.2033081054688,5)"><text class="blocklyText" fill="#fff" style="font: normal 11pt sans-serif;" x="0" y="16">(return int)</text></g></g><g data-id="!RbSQ_~en/h^%mv5ekVO" class="blocklyDraggable" style="display: block;" transform="translate(213.14747619628906,116)"><path class="blocklyPathDark" transform="translate(1,1)" fill="#026ac0" d=" m 8,0  h 649.3056640625  v 5  H 657.3056640625  V 5  H 657.3056640625  V 24  H 657.3056640625  V 24  V 28  h -649.3056640625  H 8  V 20  c 0,-10  -8,8  -8,-7.5  s 8,2.5  8,-7.5 z&#10;"/><path class="blocklyPath" stroke="none" fill="#0284f0" d=" m 8,0  h 649.3056640625  v 5  H 657.3056640625  V 5  H 657.3056640625  V 24  H 657.3056640625  V 24  V 28  h -649.3056640625  H 8  V 20  c 0,-10  -8,8  -8,-7.5  s 8,2.5  8,-7.5 z&#10;"/><g transform="translate(18,5)"><text class="blocklyText" fill="#fff" style="font: normal 11pt sans-serif;" x="0" y="16">get</text></g><g class="blocklyEditableText" transform="translate(46.156768798828125,5)" style="cursor: default;"><rect rx="4" ry="4" x="0" y="0" height="19" width="220.32928466796875" class="blocklyFieldRect blocklyDropdownRect" fill="#fff" fill-opacity=".6" stroke="none"/><text class="blocklyFieldText blocklyDropdownText" fill="#000" style="font: normal 11pt sans-serif;" text-anchor="start" x="5" y="16">height of the bounding box<tspan style="fill: rgb(2, 132, 240);"> ▾</tspan></text><image style="display: none;"/></g><g transform="translate(271.4860534667969,5)"><text class="blocklyText" fill="#fff" style="font: normal 11pt sans-serif;" x="0" y="16">in ESP-DL detector inference result</text></g><g class="blocklyEditableText" transform="translate(519.8933563232422,5)" style="cursor: default;"><rect rx="4" ry="4" x="0" y="0" height="19" width="47.07945251464844" class="blocklyFieldRect blocklyDropdownRect" fill="#fff" fill-opacity=".6" stroke="none"/><text class="blocklyFieldText blocklyDropdownText" fill="#000" style="font: normal 11pt sans-serif;" text-anchor="start" x="5" y="16">res<tspan style="fill: rgb(2, 132, 240);"> ▾</tspan></text><image style="display: none;"/></g><g transform="translate(571.9728088378906,5)"><text class="blocklyText" fill="#fff" style="font: normal 11pt sans-serif;" x="0" y="16">(return int)</text></g></g><g data-id="`t*WjXh}X}HS-AHpv%V_" class="blocklyDraggable" style="display: block;" transform="translate(213.14747619628906,145)"><path class="blocklyPathDark" transform="translate(1,1)" fill="#2e9e54" d=" m 8,0  h 120.48818969726562  v 5  H 128.48818969726562  V 5  H 128.48818969726562  V 24  H 128.48818969726562  V 24  V 28  h -120.48818969726562  H 8  V 20  c 0,-10  -8,8  -8,-7.5  s 8,2.5  8,-7.5 z&#10;"/><path class="blocklyPath" stroke="none" fill="#3ac569" d=" m 8,0  h 120.48818969726562  v 5  H 128.48818969726562  V 5  H 128.48818969726562  V 24  H 128.48818969726562  V 24  V 28  h -120.48818969726562  H 8  V 20  c 0,-10  -8,8  -8,-7.5  s 8,2.5  8,-7.5 z&#10;"/><g class="blocklyEditableText" transform="translate(13,5)" style="cursor: default;"><rect rx="4" ry="4" x="0" y="0" height="19" width="74.48818969726562" class="blocklyFieldRect blocklyDropdownRect" fill="#fff" fill-opacity=".6" stroke="none"/><text class="blocklyFieldText blocklyDropdownText" fill="#000" style="font: normal 11pt sans-serif;" text-anchor="start" x="5" y="16">Palette<tspan style="fill: rgb(58, 197, 105);"> ▾</tspan></text><image style="display: none;"/></g><g class="blocklyEditableText" transform="translate(97.48818969726562,5)" style="cursor: default;"><rect rx="4" ry="4" x="0" y="0" height="16" width="26" class="blocklyFieldRect" fill="#fff" fill-opacity=".6" stroke="none" style="fill-opacity: 1; fill: rgb(51, 102, 255);"/></g></g><g data-id="{Tb@5WsefiB^OKVhT[w[" class="" style="display: block;" transform="translate(213.14747619628906,174)"><path class="blocklyPathDark" transform="translate(1,1)" fill="#9acef9" d=" m 8,0  h 28.597000122070312  v 5  H 36.59700012207031  V 5  H 36.59700012207031  V 24  H 36.59700012207031  V 24  V 28  h -28.597000122070312  H 8  V 20  c 0,-10  -8,8  -8,-7.5  s 8,2.5  8,-7.5 z&#10;"/><path class="blocklyPath" stroke="none" fill="#9acef9" d=" m 8,0  h 28.597000122070312  v 5  H 36.59700012207031  V 5  H 36.59700012207031  V 24  H 36.59700012207031  V 24  V 28  h -28.597000122070312  H 8  V 20  c 0,-10  -8,8  -8,-7.5  s 8,2.5  8,-7.5 z&#10;"/><g class="blocklyEditableText" transform="translate(13,5)" style="cursor: text;"><rect rx="4" ry="4" x="0" y="0" height="19" width="18.597000122070312" class="blocklyFieldRect" fill="#fff" fill-opacity=".6" stroke="none"/><text class="blocklyFieldText" fill="#000" style="font: normal 11pt sans-serif;" x="5" y="16">3</text></g></g><g data-id="%@mNsYjB9E+|^-`z~bP-" style="display: block;" transform="translate(213.14747619628906,203)"><path class="blocklyPathDark" transform="translate(1,1)" fill="#bbebb7" d=" m 8,0  h 78.30921936035156  v 5  H 86.30921936035156  V 5  H 86.30921936035156  V 25  H 86.30921936035156  V 25  V 29  h -78.30921936035156  H 8  V 20  c 0,-10  -8,8  -8,-7.5  s 8,2.5  8,-7.5 z&#10;"/><path class="blocklyPath" stroke="none" fill="#bbebb7" d=" m 8,0  h 78.30921936035156  v 5  H 86.30921936035156  V 5  H 86.30921936035156  V 25  H 86.30921936035156  V 25  V 29  h -78.30921936035156  H 8  V 20  c 0,-10  -8,8  -8,-7.5  s 8,2.5  8,-7.5 z&#10;"/><g class="blocklyEditableText" transform="translate(13,5)"><rect rx="10" ry="10" x="0" y="0" height="20" class="blocklyFieldSwitchInner blocklyFieldSwitchUnChecked" fill-opacity=".9" width="68.30921936035156" fill="#898989"/><text class="blocklyFieldSwitchLabel" y="16" fill="#fff" style="font: 11pt sans-serif; display: block;" x="10">False</text><circle cy="10" r="7" class="blocklyFieldSwitchHandle" fill="#fff" cx="58.30921936035156"/><text class="blocklyFieldSwitchLabel" y="16" fill="#fff" style="font: 11pt sans-serif; display: none;" x="68.30921936035156">True</text></g></g><g class="blocklyEditableText" transform="translate(5,5)" style="cursor: default;"><rect rx="4" ry="4" x="0" y="0" height="19" width="53.6005859375" class="blocklyFieldRect blocklyDropdownRect" fill="#fff" fill-opacity=".6" stroke="none"/><text class="blocklyFieldText blocklyDropdownText" fill="#000" style="font: normal 11pt sans-serif;" text-anchor="start" x="5" y="16">img<tspan style="fill: rgb(85, 205, 76);"> ▾</tspan></text><image style="display: none;"/></g><g transform="translate(63.6005859375,5)"><text class="blocklyText" fill="#fff" style="font: normal 11pt sans-serif;" x="0" y="16">draw rectangle with</text></g><g transform="translate(10,34)"><text class="blocklyText" fill="#fff" style="font: normal 11pt sans-serif;" x="0" y="16">x</text></g><g transform="translate(10,63)"><text class="blocklyText" fill="#fff" style="font: normal 11pt sans-serif;" x="0" y="16">y</text></g><g transform="translate(10,92)"><text class="blocklyText" fill="#fff" style="font: normal 11pt sans-serif;" x="0" y="16">width</text></g><g transform="translate(10,121)"><text class="blocklyText" fill="#fff" style="font: normal 11pt sans-serif;" x="0" y="16">height</text></g><g transform="translate(10,150)"><text class="blocklyText" fill="#fff" style="font: normal 11pt sans-serif;" x="0" y="16">color</text></g><g transform="translate(10,179)"><text class="blocklyText" fill="#fff" style="font: normal 11pt sans-serif;" x="0" y="16">thickness</text></g><g transform="translate(10,208)"><text class="blocklyText" fill="#fff" style="font: normal 11pt sans-serif;" x="0" y="16">fill</text></g></g><g transform="translate(10,5)"><text class="blocklyText" fill="#fff" style="font: normal 11pt sans-serif;" x="0" y="16">set</text></g><g class="blocklyEditableText" transform="translate(35.56549072265625,5)" style="cursor: default;"><rect rx="4" ry="4" x="0" y="0" height="19" width="43.929840087890625" class="blocklyFieldRect blocklyDropdownRect" fill="#fff" fill-opacity=".6" stroke="none"/><text class="blocklyFieldText blocklyDropdownText" fill="#000" style="font: normal 11pt sans-serif;" text-anchor="start" x="5" y="16">kp<tspan style="fill: rgb(90, 75, 232);"> ▾</tspan></text><image style="display: none;"/></g><g transform="translate(84.49533081054688,5)"><text class="blocklyText" fill="#fff" style="font: normal 11pt sans-serif;" x="0" y="16">to</text></g></g><g transform="translate(10,5)"><text class="blocklyText" fill="#fff" style="font: normal 11pt sans-serif;" x="0" y="16">for each item</text></g><g class="blocklyEditableText" transform="translate(107.77021789550781,5)" style="cursor: default;"><rect rx="4" ry="4" x="0" y="0" height="19" width="47.07945251464844" class="blocklyFieldRect blocklyDropdownRect" fill="#fff" fill-opacity=".6" stroke="none"/><text class="blocklyFieldText blocklyDropdownText" fill="#000" style="font: normal 11pt sans-serif;" text-anchor="start" x="5" y="16">res<tspan style="fill: rgb(85, 205, 76);"> ▾</tspan></text><image style="display: none;"/></g><g transform="translate(159.84967041015625,5)"><text class="blocklyText" fill="#fff" style="font: normal 11pt sans-serif;" x="0" y="16">in list</text></g><g transform="translate(10,33)"><text class="blocklyText" fill="#fff" style="font: normal 11pt sans-serif;" x="0" y="16">do</text></g></g><g data-id="grP2bg13kh)nOTZIahm!" class="blocklyDraggable" transform="translate(0,346)"><path class="blocklyPathDark" transform="translate(1,1)" fill="#cc6473" d=" m 0,0  h 15  l 6,4  3,0  6,-4  h 114.80747985839844  v 5  H 144.80747985839844  V 5  H 144.80747985839844  c 0,10  -8,-8  -8,7.5  s 8,-2.5  8,7.5  v 4  H 144.80747985839844  V 34  H 144.80747985839844  V 53  H 144.80747985839844  V 63  H 144.80747985839844  c 0,10  -8,-8  -8,7.5  s 8,-2.5  8,7.5  v 4  H 144.80747985839844  V 92  H 144.80747985839844  c 0,10  -8,-8  -8,7.5  s 8,-2.5  8,7.5  v 4  H 144.80747985839844  V 121  H 144.80747985839844  c 0,10  -8,-8  -8,7.5  s 8,-2.5  8,7.5  v 4  H 144.80747985839844  V 150  H 144.80747985839844  c 0,10  -8,-8  -8,7.5  s 8,-2.5  8,7.5  v 4  H 144.80747985839844  V 169  V 173  h -115.30747985839844  l -6,4  -3,0  -6,-4  h -6.5 a 8 8 0 0,1 -8,-8 z&#10;"/><path class="blocklyPath" stroke="none" fill="#ff7d90" d=" m 0,0  h 15  l 6,4  3,0  6,-4  h 114.80747985839844  v 5  H 144.80747985839844  V 5  H 144.80747985839844  c 0,10  -8,-8  -8,7.5  s 8,-2.5  8,7.5  v 4  H 144.80747985839844  V 34  H 144.80747985839844  V 53  H 144.80747985839844  V 63  H 144.80747985839844  c 0,10  -8,-8  -8,7.5  s 8,-2.5  8,7.5  v 4  H 144.80747985839844  V 92  H 144.80747985839844  c 0,10  -8,-8  -8,7.5  s 8,-2.5  8,7.5  v 4  H 144.80747985839844  V 121  H 144.80747985839844  c 0,10  -8,-8  -8,7.5  s 8,-2.5  8,7.5  v 4  H 144.80747985839844  V 150  H 144.80747985839844  c 0,10  -8,-8  -8,7.5  s 8,-2.5  8,7.5  v 4  H 144.80747985839844  V 169  V 173  h -115.30747985839844  l -6,4  -3,0  -6,-4  h -6.5 a 8 8 0 0,1 -8,-8 z&#10;"/><g data-id="yq/(EEv4^FC-?.$W8|xq" class="blocklyDraggable" style="display: block;" transform="translate(137.80747985839844,0)"><path class="blocklyPathDark" transform="translate(1,1)" fill="#483cba" d=" m 8,0  h 63.6005859375  v 5  H 71.6005859375  V 5  H 71.6005859375  V 24  H 71.6005859375  V 24  V 28  h -63.6005859375  H 8  V 20  c 0,-10  -8,8  -8,-7.5  s 8,2.5  8,-7.5 z&#10;"/><path class="blocklyPath" stroke="none" fill="#5a4be8" d=" m 8,0  h 63.6005859375  v 5  H 71.6005859375  V 5  H 71.6005859375  V 24  H 71.6005859375  V 24  V 28  h -63.6005859375  H 8  V 20  c 0,-10  -8,8  -8,-7.5  s 8,2.5  8,-7.5 z&#10;"/><g class="blocklyEditableText" transform="translate(13,5)" style="cursor: default;"><rect rx="4" ry="4" x="0" y="0" height="19" width="53.6005859375" class="blocklyFieldRect blocklyDropdownRect" fill="#fff" fill-opacity=".6" stroke="none"/><text class="blocklyFieldText blocklyDropdownText" fill="#000" style="font: normal 11pt sans-serif;" text-anchor="start" x="5" y="16">img<tspan style="fill: rgb(90, 75, 232);"> ▾</tspan></text><image style="display: none;"/></g></g><g data-id="$qYS[8#xB@)6c#ixe`n/" class="" style="display: block;" transform="translate(137.80747985839844,58)"><path class="blocklyPathDark" transform="translate(1,1)" fill="#9acef9" d=" m 8,0  h 28.597000122070312  v 5  H 36.59700012207031  V 5  H 36.59700012207031  V 24  H 36.59700012207031  V 24  V 28  h -28.597000122070312  H 8  V 20  c 0,-10  -8,8  -8,-7.5  s 8,2.5  8,-7.5 z&#10;"/><path class="blocklyPath" stroke="none" fill="#9acef9" d=" m 8,0  h 28.597000122070312  v 5  H 36.59700012207031  V 5  H 36.59700012207031  V 24  H 36.59700012207031  V 24  V 28  h -28.597000122070312  H 8  V 20  c 0,-10  -8,8  -8,-7.5  s 8,2.5  8,-7.5 z&#10;"/><g class="blocklyEditableText" transform="translate(13,5)" style="cursor: text;"><rect rx="4" ry="4" x="0" y="0" height="19" width="18.597000122070312" class="blocklyFieldRect" fill="#fff" fill-opacity=".6" stroke="none"/><text class="blocklyFieldText" fill="#000" style="font: normal 11pt sans-serif;" x="5" y="16">0</text></g></g><g data-id=";MBl{AK~HEk*i~p4EpYz" class="" style="display: block;" transform="translate(137.80747985839844,87)"><path class="blocklyPathDark" transform="translate(1,1)" fill="#9acef9" d=" m 8,0  h 28.597000122070312  v 5  H 36.59700012207031  V 5  H 36.59700012207031  V 24  H 36.59700012207031  V 24  V 28  h -28.597000122070312  H 8  V 20  c 0,-10  -8,8  -8,-7.5  s 8,2.5  8,-7.5 z&#10;"/><path class="blocklyPath" stroke="none" fill="#9acef9" d=" m 8,0  h 28.597000122070312  v 5  H 36.59700012207031  V 5  H 36.59700012207031  V 24  H 36.59700012207031  V 24  V 28  h -28.597000122070312  H 8  V 20  c 0,-10  -8,8  -8,-7.5  s 8,2.5  8,-7.5 z&#10;"/><g class="blocklyEditableText" transform="translate(13,5)" style="cursor: text;"><rect rx="4" ry="4" x="0" y="0" height="19" width="18.597000122070312" class="blocklyFieldRect" fill="#fff" fill-opacity=".6" stroke="none"/><text class="blocklyFieldText" fill="#000" style="font: normal 11pt sans-serif;" x="5" y="16">0</text></g></g><g data-id="KWW#:uE[.,SL#ivi?1y6" class="" style="display: block;" transform="translate(137.80747985839844,116)"><path class="blocklyPathDark" transform="translate(1,1)" fill="#9acef9" d=" m 8,0  h 45.79100036621094  v 5  H 53.79100036621094  V 5  H 53.79100036621094  V 24  H 53.79100036621094  V 24  V 28  h -45.79100036621094  H 8  V 20  c 0,-10  -8,8  -8,-7.5  s 8,2.5  8,-7.5 z&#10;"/><path class="blocklyPath" stroke="none" fill="#9acef9" d=" m 8,0  h 45.79100036621094  v 5  H 53.79100036621094  V 5  H 53.79100036621094  V 24  H 53.79100036621094  V 24  V 28  h -45.79100036621094  H 8  V 20  c 0,-10  -8,8  -8,-7.5  s 8,2.5  8,-7.5 z&#10;"/><g class="blocklyEditableText" transform="translate(13,5)" style="cursor: text;"><rect rx="4" ry="4" x="0" y="0" height="19" width="35.79100036621094" class="blocklyFieldRect" fill="#fff" fill-opacity=".6" stroke="none"/><text class="blocklyFieldText" fill="#000" style="font: normal 11pt sans-serif;" x="5" y="16">320</text></g></g><g data-id="K/6;.0+1@a%h,+8e!ef`" class="" style="display: block;" transform="translate(137.80747985839844,145)"><path class="blocklyPathDark" transform="translate(1,1)" fill="#9acef9" d=" m 8,0  h 45.79100036621094  v 5  H 53.79100036621094  V 5  H 53.79100036621094  V 24  H 53.79100036621094  V 24  V 28  h -45.79100036621094  H 8  V 20  c 0,-10  -8,8  -8,-7.5  s 8,2.5  8,-7.5 z&#10;"/><path class="blocklyPath" stroke="none" fill="#9acef9" d=" m 8,0  h 45.79100036621094  v 5  H 53.79100036621094  V 5  H 53.79100036621094  V 24  H 53.79100036621094  V 24  V 28  h -45.79100036621094  H 8  V 20  c 0,-10  -8,8  -8,-7.5  s 8,2.5  8,-7.5 z&#10;"/><g class="blocklyEditableText" transform="translate(13,5)" style="cursor: text;"><rect rx="4" ry="4" x="0" y="0" height="19" width="35.79100036621094" class="blocklyFieldRect" fill="#fff" fill-opacity=".6" stroke="none"/><text class="blocklyFieldText" fill="#000" style="font: normal 11pt sans-serif;" x="5" y="16">240</text></g></g><g transform="translate(10,5)"><text class="blocklyText" fill="#fff" style="font: normal 11pt sans-serif;" x="0" y="16">LCD show image</text></g><g transform="translate(10,34)"><text class="blocklyText" fill="#fff" style="font: normal 11pt sans-serif;" x="0" y="16">with</text></g><g transform="translate(10,63)"><text class="blocklyText" fill="#fff" style="font: normal 11pt sans-serif;" x="0" y="16">x</text></g><g transform="translate(10,92)"><text class="blocklyText" fill="#fff" style="font: normal 11pt sans-serif;" x="0" y="16">y</text></g><g transform="translate(10,121)"><text class="blocklyText" fill="#fff" style="font: normal 11pt sans-serif;" x="0" y="16">width</text></g><g transform="translate(10,150)"><text class="blocklyText" fill="#fff" style="font: normal 11pt sans-serif;" x="0" y="16">height</text></g></g><g transform="translate(37,5)"><text class="blocklyText" fill="#fff" style="font: normal 11pt sans-serif;" x="0" y="16">if</text></g><g transform="translate(10,33)"><text class="blocklyText" fill="#fff" style="font: normal 11pt sans-serif;" x="0" y="16">do</text></g></g><g transform="translate(10,5)"><text class="blocklyText" fill="#fff" style="font: normal 11pt sans-serif;" x="0" y="16">set</text></g><g class="blocklyEditableText" transform="translate(35.56549072265625,5)" style="cursor: default;"><rect rx="4" ry="4" x="0" y="0" height="19" width="138.46815490722656" class="blocklyFieldRect blocklyDropdownRect" fill="#fff" fill-opacity=".6" stroke="none"/><text class="blocklyFieldText blocklyDropdownText" fill="#000" style="font: normal 11pt sans-serif;" text-anchor="start" x="5" y="16">detection_result<tspan style="fill: rgb(90, 75, 232);"> ▾</tspan></text><image style="display: none;"/></g><g transform="translate(179.0336456298828,5)"><text class="blocklyText" fill="#fff" style="font: normal 11pt sans-serif;" x="0" y="16">to</text></g></g><g transform="translate(10,5)"><text class="blocklyText" fill="#fff" style="font: normal 11pt sans-serif;" x="0" y="16">set</text></g><g class="blocklyEditableText" transform="translate(35.56549072265625,5)" style="cursor: default;"><rect rx="4" ry="4" x="0" y="0" height="19" width="53.6005859375" class="blocklyFieldRect blocklyDropdownRect" fill="#fff" fill-opacity=".6" stroke="none"/><text class="blocklyFieldText blocklyDropdownText" fill="#000" style="font: normal 11pt sans-serif;" text-anchor="start" x="5" y="16">img<tspan style="fill: rgb(90, 75, 232);"> ▾</tspan></text><image style="display: none;"/></g><g transform="translate(94.16607666015625,5)"><text class="blocklyText" fill="#fff" style="font: normal 11pt sans-serif;" x="0" y="16">to</text></g></g><g transform="translate(10,5)"><text class="blocklyText" fill="#fff" style="font: normal 11pt sans-serif;" x="0" y="16">Update button,touch,etc. in loop</text></g></g><g transform="translate(10,5)"><text class="blocklyText" fill="#fff" style="font: normal 11pt sans-serif;" x="0" y="16">Loop                  </text></g><g class="blocklyEditableText" transform="translate(43.16166687011719,654)"><rect rx="10" ry="10" x="0" y="0" height="20" class="blocklyFieldSwitchInner blocklyFieldSwitchChecked" fill-opacity=".9" width="85.44595336914062" fill="#8253f9"/><text class="blocklyFieldSwitchLabel" y="16" fill="#fff" style="font: 11pt sans-serif; display: none;" x="-85.44595336914062">No Update</text><circle cy="10" r="7" class="blocklyFieldSwitchHandle" fill="#fff" cx="10"/><text class="blocklyFieldSwitchLabel" y="16" fill="#fff" style="font: 11pt sans-serif; display: block;" x="24">Update</text></g></g></svg>