<svg xmlns="http://www.w3.org/2000/svg" width="292.16961669921875" height="42"><g data-id="u#@vbyZtm5LU0DU(+NQd" class="blocklyDraggable" transform="translate(2,2)"><path class="blocklyPathDark" transform="translate(1,1)" fill="#026ac0" d=" m 0,0  m 0,8 a 8 8 0 0,1 8,-8  h 7  l 6,4  3,0  6,-4  h 253.1696319580078  v 5  H 283.1696319580078  V 5  H 283.1696319580078  V 25  H 283.1696319580078  V 25  V 29  h -253.6696319580078  l -6,4  -3,0  -6,-4  h -6.5 a 8 8 0 0,1 -8,-8 z&#10;"/><path class="blocklyPath" stroke="none" fill="#0284f0" d=" m 0,0  m 0,8 a 8 8 0 0,1 8,-8  h 7  l 6,4  3,0  6,-4  h 253.1696319580078  v 5  H 283.1696319580078  V 5  H 283.1696319580078  V 25  H 283.1696319580078  V 25  V 29  h -253.6696319580078  l -6,4  -3,0  -6,-4  h -6.5 a 8 8 0 0,1 -8,-8 z&#10;"/><g transform="translate(10,5)"><text class="blocklyText" fill="#fff" style="font: normal 11pt sans-serif;" x="0" y="16">MQTT connect clean session</text></g><g class="blocklyEditableText" transform="translate(214.1911163330078,5)"><rect rx="10" ry="10" x="0" y="0" height="20" class="blocklyFieldSwitchInner blocklyFieldSwitchChecked" fill-opacity=".9" width="63.978515625" fill="#3bd942"/><text class="blocklyFieldSwitchLabel" y="16" fill="#fff" style="font: 11pt sans-serif; display: none;" x="-63.978515625">False</text><circle cy="10" r="7" class="blocklyFieldSwitchHandle" fill="#fff" cx="10"/><text class="blocklyFieldSwitchLabel" y="16" fill="#fff" style="font: 11pt sans-serif; display: block;" x="24">True</text></g></g></svg>