<svg xmlns="http://www.w3.org/2000/svg" width="193.27774047851562" height="38"><g data-id="VN39@az[yRX9ipX5,gX$" class="blocklyDraggable" transform="translate(2,2)"><path class="blocklyPathDark" transform="translate(1,1)" fill="#026ac0" d=" m 8,0  h 176.27774047851562  v 5  H 184.27774047851562  V 5  H 184.27774047851562  V 25  H 184.27774047851562  V 25  V 29  h -176.27774047851562  H 8  V 20  c 0,-10  -8,8  -8,-7.5  s 8,2.5  8,-7.5 z&#10;"/><path class="blocklyPath" stroke="none" fill="#0284f0" d=" m 8,0  h 176.27774047851562  v 5  H 184.27774047851562  V 5  H 184.27774047851562  V 25  H 184.27774047851562  V 25  V 29  h -176.27774047851562  H 8  V 20  c 0,-10  -8,8  -8,-7.5  s 8,2.5  8,-7.5 z&#10;"/><g transform="translate(18,5)"><text class="blocklyText" fill="#fff" style="font: normal 11pt sans-serif;" x="0" y="16">get msg (return bytes)</text></g></g></svg>