<svg xmlns="http://www.w3.org/2000/svg" width="218.5919647216797" height="42"><g data-id="xdGdmPg6^{cNJ-%KF~bt" class="blocklyDraggable" transform="translate(2,2)"><path class="blocklyPathDark" transform="translate(1,1)" fill="#026ac0" d=" m 0,0  m 0,8 a 8 8 0 0,1 8,-8  h 7  l 6,4  3,0  6,-4  h 179.5919647216797  v 5  H 209.5919647216797  V 5  H 209.5919647216797  V 25  H 209.5919647216797  V 25  V 29  h -180.0919647216797  l -6,4  -3,0  -6,-4  h -6.5 a 8 8 0 0,1 -8,-8 z&#10;"/><path class="blocklyPath" stroke="none" fill="#0284f0" d=" m 0,0  m 0,8 a 8 8 0 0,1 8,-8  h 7  l 6,4  3,0  6,-4  h 179.5919647216797  v 5  H 209.5919647216797  V 5  H 209.5919647216797  V 25  H 209.5919647216797  V 25  V 29  h -180.0919647216797  l -6,4  -3,0  -6,-4  h -6.5 a 8 8 0 0,1 -8,-8 z&#10;"/><g transform="translate(10,5)"><text class="blocklyText" fill="#fff" style="font: normal 11pt sans-serif;" x="0" y="16">MQTT apply for messaging</text></g></g></svg>