<svg xmlns="http://www.w3.org/2000/svg" width="464.72296142578125" height="323"><g data-id="setup_block" transform="translate(2, 2)" class="blocklyDraggable"><path class="blocklyPathDark" transform="translate(1,1)" fill="#cca038" d=" m 0,0  m 0,8 a 8 8 0 0,1 8,-8  h 205.27699279785156  v 5  H 213.27699279785156  V 5  H 213.27699279785156  V 25  H 213.27699279785156  V 35  H 213.27699279785156  V 55  H 213.27699279785156  V 59  H 50  l -6,4  -3,0  -6,-4  h -7 a 8 8 0 0,0 -8,8  v 129 a 8 8 0 0,0 8,8  H 213.27699279785156  H 213.27699279785156  V 204  V 214  h -205.27699279785156 a 8 8 0 0,1 -8,-8 z&#10;"/><path class="blocklyPath" stroke="none" fill="#ffc846" d=" m 0,0  m 0,8 a 8 8 0 0,1 8,-8  h 205.27699279785156  v 5  H 213.27699279785156  V 5  H 213.27699279785156  V 25  H 213.27699279785156  V 35  H 213.27699279785156  V 55  H 213.27699279785156  V 59  H 50  l -6,4  -3,0  -6,-4  h -7 a 8 8 0 0,0 -8,8  v 129 a 8 8 0 0,0 8,8  H 213.27699279785156  H 213.27699279785156  V 204  V 214  h -205.27699279785156 a 8 8 0 0,1 -8,-8 z&#10;"/><g transform="translate(10,5)"><text class="blocklyText" fill="#fff" style="font: normal 11pt sans-serif;" x="0" y="16">Setup              </text></g><g transform="translate(10,35)"><text class="blocklyText" fill="#fff" style="font: normal 11pt sans-serif;" x="0" y="16">Begin initialization</text></g><g class="blocklyEditableText" transform="translate(144.29847717285156,35)"><rect rx="10" ry="10" x="0" y="0" height="20" class="blocklyFieldSwitchInner blocklyFieldSwitchChecked" fill-opacity=".9" width="63.978515625" fill="#8253f9"/><text class="blocklyFieldSwitchLabel" y="16" fill="#fff" style="font: 11pt sans-serif; display: none;" x="-63.978515625">False</text><circle cy="10" r="7" class="blocklyFieldSwitchHandle" fill="#fff" cx="10"/><text class="blocklyFieldSwitchLabel" y="16" fill="#fff" style="font: 11pt sans-serif; display: block;" x="24">True</text></g><g data-id="system_m5_begin" class="blocklyDraggable" transform="translate(21,60)" style="display: block;"><path class="blocklyPathDark" transform="translate(1,1)" fill="#59aa53" d=" m 0,0  m 0,8 a 8 8 0 0,1 8,-8  h 7  l 6,4  3,0  6,-4  h 230.30776977539062  v 5  H 260.3077697753906  V 5  H 260.3077697753906  V 25  H 260.3077697753906  V 25  V 29  h -230.80776977539062  l -6,4  -3,0  -6,-4  h -14.5  H 0 z&#10;"/><path class="blocklyPath" stroke="none" fill="#6fd568" d=" m 0,0  m 0,8 a 8 8 0 0,1 8,-8  h 7  l 6,4  3,0  6,-4  h 230.30776977539062  v 5  H 260.3077697753906  V 5  H 260.3077697753906  V 25  H 260.3077697753906  V 25  V 29  h -230.80776977539062  l -6,4  -3,0  -6,-4  h -14.5  H 0 z&#10;"/><g transform="translate(10,5)"><text class="blocklyText" fill="#fff" style="font: normal 11pt sans-serif;" x="0" y="16">Init built-in hardware at beginning</text></g><g data-id="O?]#PNonH-0I(j]L7p9y" class="blocklyDraggable" transform="translate(0,30)"><path class="blocklyPathDark" transform="translate(1,1)" fill="#cc851f" d=" m 0,0  h 15  l 6,4  3,0  6,-4  h 280.0400695800781  v 5  H 310.0400695800781  V 5  H 310.0400695800781  V 36  H 310.0400695800781  V 36  V 40  h -280.5400695800781  l -6,4  -3,0  -6,-4  h -14.5  H 0 z&#10; M 175.7637481689453,5  v 5  c 0,10  -8,-8  -8,7.5  s 8,-2.5  8,7.5  v 11  h 47.79100036621094  v -31 z"/><path class="blocklyPath" stroke="none" fill="#ffa627" d=" m 0,0  h 15  l 6,4  3,0  6,-4  h 280.0400695800781  v 5  H 310.0400695800781  V 5  H 310.0400695800781  V 36  H 310.0400695800781  V 36  V 40  h -280.5400695800781  l -6,4  -3,0  -6,-4  h -14.5  H 0 z&#10; M 175.7637481689453,5  v 5  c 0,10  -8,-8  -8,7.5  s 8,-2.5  8,7.5  v 11  h 47.79100036621094  v -31 z"/><g data-id="c%E]+DXVk?yO?l-)vq0t" transform="translate(168.7637481689453,6)" style="display: block;" class=""><path class="blocklyPathDark" transform="translate(1,1)" fill="#9acef9" d=" m 8,0  h 45.79100036621094  v 5  H 53.79100036621094  V 5  H 53.79100036621094  V 25  H 53.79100036621094  V 25  V 29  h -45.79100036621094  H 8  V 20  c 0,-10  -8,8  -8,-7.5  s 8,2.5  8,-7.5 z&#10;"/><path class="blocklyPath" stroke="none" fill="#9acef9" d=" m 8,0  h 45.79100036621094  v 5  H 53.79100036621094  V 5  H 53.79100036621094  V 25  H 53.79100036621094  V 25  V 29  h -45.79100036621094  H 8  V 20  c 0,-10  -8,8  -8,-7.5  s 8,2.5  8,-7.5 z&#10;"/><g class="blocklyEditableText" transform="translate(13,5)" style="cursor: text;"><rect rx="4" ry="4" x="0" y="0" height="20" width="35.79100036621094" class="blocklyFieldRect" fill="#fff" fill-opacity=".6" stroke="none"/><text class="blocklyFieldText" fill="#000" style="font: normal 11pt sans-serif;" x="5" y="16">100</text></g></g><g transform="translate(10,10)"><text class="blocklyText" fill="#fff" style="font: normal 11pt sans-serif;" x="0" y="16">Set screen brightness</text></g><g class="blocklyEditableText" transform="translate(228.55474853515625,10)" style="cursor: default;"><rect rx="4" ry="4" x="0" y="0" height="20" width="76.48532104492188" class="blocklyFieldRect blocklyDropdownRect" fill="#fff" fill-opacity=".6" stroke="none"/><text class="blocklyFieldText blocklyDropdownText" fill="#000" style="font: normal 11pt sans-serif;" text-anchor="start" x="5" y="16">Built-in<tspan style="fill: rgb(255, 166, 39);"> ▾</tspan></text><image style="display: none;"/></g><g data-id="jKy3o%CVnsy|/b3O8ktl" class="blocklyDraggable" transform="translate(0,41)"><path class="blocklyPathDark" transform="translate(1,1)" fill="#cc851f" d=" m 0,0  h 15  l 6,4  3,0  6,-4  h 404.7229766845703  v 5  H 434.7229766845703  V 5  H 434.7229766845703  V 36  H 434.7229766845703  V 36  V 40  h -405.2229766845703  l -6,4  -3,0  -6,-4  h -14.5  H 0 z&#10; M 225.7494659423828,5  v 5  c 0,10  -8,-8  -8,7.5  s 8,-2.5  8,7.5  v 11  h 122.48818969726562  v -31 z"/><path class="blocklyPath" stroke="none" fill="#ffa627" d=" m 0,0  h 15  l 6,4  3,0  6,-4  h 404.7229766845703  v 5  H 434.7229766845703  V 5  H 434.7229766845703  V 36  H 434.7229766845703  V 36  V 40  h -405.2229766845703  l -6,4  -3,0  -6,-4  h -14.5  H 0 z&#10; M 225.7494659423828,5  v 5  c 0,10  -8,-8  -8,7.5  s 8,-2.5  8,7.5  v 11  h 122.48818969726562  v -31 z"/><g data-id="?)m(:$9n|3_hItPzRzD-" transform="translate(218.7494659423828,6)" class="blocklyDraggable" style="display: block;"><path class="blocklyPathDark" transform="translate(1,1)" fill="#2e9e54" d=" m 8,0  h 120.48818969726562  v 5  H 128.48818969726562  V 5  H 128.48818969726562  V 25  H 128.48818969726562  V 25  V 29  h -120.48818969726562  H 8  V 20  c 0,-10  -8,8  -8,-7.5  s 8,2.5  8,-7.5 z&#10;"/><path class="blocklyPath" stroke="none" fill="#3ac569" d=" m 8,0  h 120.48818969726562  v 5  H 128.48818969726562  V 5  H 128.48818969726562  V 25  H 128.48818969726562  V 25  V 29  h -120.48818969726562  H 8  V 20  c 0,-10  -8,8  -8,-7.5  s 8,2.5  8,-7.5 z&#10;"/><g class="blocklyEditableText" transform="translate(13,5)" style="cursor: default;"><rect rx="4" ry="4" x="0" y="0" height="20" width="74.48818969726562" class="blocklyFieldRect blocklyDropdownRect" fill="#fff" fill-opacity=".6" stroke="none"/><text class="blocklyFieldText blocklyDropdownText" fill="#000" style="font: normal 11pt sans-serif;" text-anchor="start" x="5" y="16">Palette<tspan style="fill: rgb(58, 197, 105);"> ▾</tspan></text><image style="display: none;"/></g><g class="blocklyEditableText" transform="translate(97.48818969726562,5)" style="cursor: default;"><rect rx="4" ry="4" x="0" y="0" height="16" width="26" class="blocklyFieldRect" fill="#fff" fill-opacity=".6" stroke="none" style="fill-opacity: 1; fill: rgb(102, 0, 204);"/></g></g><g transform="translate(10,10)"><text class="blocklyText" fill="#fff" style="font: normal 11pt sans-serif;" x="0" y="16">Set screen background color</text></g><g class="blocklyEditableText" transform="translate(353.23765563964844,10)" style="cursor: default;"><rect rx="4" ry="4" x="0" y="0" height="20" width="76.48532104492188" class="blocklyFieldRect blocklyDropdownRect" fill="#fff" fill-opacity=".6" stroke="none"/><text class="blocklyFieldText blocklyDropdownText" fill="#000" style="font: normal 11pt sans-serif;" text-anchor="start" x="5" y="16">Built-in<tspan style="fill: rgb(255, 166, 39);"> ▾</tspan></text><image style="display: none;"/></g><g data-id="hB;m[;^UVu0jOIc1Z.Ru" class="blocklyDraggable blocklySelected" transform="translate(0,41)"><path class="blocklyPathDark" transform="translate(1,1)" fill="#cc851f" d=" m 0,0  h 15  l 6,4  3,0  6,-4  h 249.74945068359375  v 5  H 279.74945068359375  V 5  H 279.74945068359375  V 25  H 279.74945068359375  V 25  V 29  h -250.24945068359375  l -6,4  -3,0  -6,-4  h -6.5 a 8 8 0 0,1 -8,-8 z&#10;"/><path class="blocklyPath" stroke="none" fill="#ffa627" d=" m 0,0  h 15  l 6,4  3,0  6,-4  h 249.74945068359375  v 5  H 279.74945068359375  V 5  H 279.74945068359375  V 25  H 279.74945068359375  V 25  V 29  h -250.24945068359375  l -6,4  -3,0  -6,-4  h -6.5 a 8 8 0 0,1 -8,-8 z&#10;"/><g transform="translate(10,5)"><text class="blocklyText" fill="#fff" style="font: normal 11pt sans-serif;" x="0" y="16">Set screen rotation</text></g><g class="blocklyEditableText" transform="translate(147.1044921875,5)" style="cursor: default;"><rect rx="4" ry="4" x="0" y="0" height="20" width="41.159637451171875" class="blocklyFieldRect blocklyDropdownRect" fill="#fff" fill-opacity=".6" stroke="none"/><text class="blocklyFieldText blocklyDropdownText" fill="#000" style="font: normal 11pt sans-serif;" text-anchor="start" x="5" y="16">0°<tspan style="fill: rgb(255, 166, 39);"> ▾</tspan></text><image style="display: none;"/></g><g class="blocklyEditableText" transform="translate(198.26412963867188,5)" style="cursor: default;"><rect rx="4" ry="4" x="0" y="0" height="20" width="76.48532104492188" class="blocklyFieldRect blocklyDropdownRect" fill="#fff" fill-opacity=".6" stroke="none"/><text class="blocklyFieldText blocklyDropdownText" fill="#000" style="font: normal 11pt sans-serif;" text-anchor="start" x="5" y="16">Built-in<tspan style="fill: rgb(255, 166, 39);"> ▾</tspan></text><image style="display: none;"/></g></g></g></g></g></g><g data-id="loop_block" transform="translate(2, 225)" class="blocklyDraggable"><path class="blocklyPathDark" transform="translate(1,1)" fill="#0cae6e" d=" m 0,0  m 0,8 a 8 8 0 0,1 8,-8  h 125.60762023925781  v 5  H 133.6076202392578  V 5  H 133.6076202392578  V 25  H 133.6076202392578  V 29  H 50  l -6,4  -3,0  -6,-4  h -7 a 8 8 0 0,0 -8,8  v 17 a 8 8 0 0,0 8,8  H 133.6076202392578  H 133.6076202392578  V 67  H 133.6076202392578  V 87  H 133.6076202392578  V 87  V 91  h -125.60762023925781 a 8 8 0 0,1 -8,-8 z&#10;"/><path class="blocklyPath" stroke="none" fill="#0fd989" d=" m 0,0  m 0,8 a 8 8 0 0,1 8,-8  h 125.60762023925781  v 5  H 133.6076202392578  V 5  H 133.6076202392578  V 25  H 133.6076202392578  V 29  H 50  l -6,4  -3,0  -6,-4  h -7 a 8 8 0 0,0 -8,8  v 17 a 8 8 0 0,0 8,8  H 133.6076202392578  H 133.6076202392578  V 67  H 133.6076202392578  V 87  H 133.6076202392578  V 87  V 91  h -125.60762023925781 a 8 8 0 0,1 -8,-8 z&#10;"/><g transform="translate(10,5)"><text class="blocklyText" fill="#fff" style="font: normal 11pt sans-serif;" x="0" y="16">Loop                  </text></g><g class="blocklyEditableText" transform="translate(43.16166687011719,67)"><rect rx="10" ry="10" x="0" y="0" height="20" class="blocklyFieldSwitchInner blocklyFieldSwitchChecked" fill-opacity=".9" width="85.44595336914062" fill="#8253f9"/><text class="blocklyFieldSwitchLabel" y="16" fill="#fff" style="font: 11pt sans-serif; display: none;" x="-85.44595336914062">No Update</text><circle cy="10" r="7" class="blocklyFieldSwitchHandle" fill="#fff" cx="10"/><text class="blocklyFieldSwitchLabel" y="16" fill="#fff" style="font: 11pt sans-serif; display: block;" x="24">Update</text></g><g data-id="system_m5_update" class="blocklyDraggable" transform="translate(21,30)" style="display: block;"><path class="blocklyPathDark" transform="translate(1,1)" fill="#59aa53" d=" m 0,0  m 0,8 a 8 8 0 0,1 8,-8  h 7  l 6,4  3,0  6,-4  h 218.43235778808594  v 5  H 248.43235778808594  V 5  H 248.43235778808594  V 25  H 248.43235778808594  V 25  V 29  h -218.93235778808594  l -6,4  -3,0  -6,-4  h -6.5 a 8 8 0 0,1 -8,-8 z&#10;"/><path class="blocklyPath" stroke="none" fill="#6fd568" d=" m 0,0  m 0,8 a 8 8 0 0,1 8,-8  h 7  l 6,4  3,0  6,-4  h 218.43235778808594  v 5  H 248.43235778808594  V 5  H 248.43235778808594  V 25  H 248.43235778808594  V 25  V 29  h -218.93235778808594  l -6,4  -3,0  -6,-4  h -6.5 a 8 8 0 0,1 -8,-8 z&#10;"/><g transform="translate(10,5)"><text class="blocklyText" fill="#fff" style="font: normal 11pt sans-serif;" x="0" y="16">Update button,touch,etc. in loop</text></g></g></g></svg>