<?xml version="1.0" encoding="utf-8"?>

<svg xmlns="http://www.w3.org/2000/svg" width="484.88446044921875" height="53">
  <g data-id="Vs]Z#ya3t9=i(;5l_I1?" class="blocklyDraggable" transform="translate(2,2)">
    <path class="blocklyPathDark" transform="translate(1,1)" fill="#cc5295" d=" m 0,0  m 0,8 a 8 8 0 0,1 8,-8  h 7  l 6,4  3,0  6,-4  h 275.8844451904297  v 5  H 305.8844451904297  V 5  H 305.8844451904297  V 36  H 305.8844451904297  V 36  V 40  h -276.3844451904297  l -6,4  -3,0  -6,-4  h -6.5 a 8 8 0 0,1 -8,-8 z"/>
    <path class="blocklyPath" stroke="none" fill="#ff67ba" d=" m 0,0  m 0,8 a 8 8 0 0,1 8,-8  h 7  l 6,4  3,0  6,-4  h 275.8844451904297  v 5  H 305.8844451904297  V 5  H 305.8844451904297  V 36  H 305.8844451904297  V 36  V 40  h -276.3844451904297  l -6,4  -3,0  -6,-4  h -6.5 a 8 8 0 0,1 -8,-8 z"/>
    <g class="blocklyEditableText" transform="translate(5,10)" style="cursor: default;">
      <rect rx="4" ry="4" x="0" y="0" height="20" width="80" class="blocklyFieldRect blocklyDropdownRect" fill="#fff" fill-opacity=".6" stroke="none"/>
      <text class="blocklyFieldText blocklyDropdownText" fill="#000" style="font: normal 11pt sans-serif;" text-anchor="start" x="5" y="16">Mic
        <tspan style="fill: rgb(255, 103, 186);">▾</tspan>
      </text>
      <image style="display: none;"/>
    </g>
    <g transform="translate(100,10)">
      <text class="blocklyText" fill="#fff" style="font: normal 11pt sans-serif;" x="0" y="16">set samplerate</text>
      <g transform="translate(90, -4)">
      <g data-id="i@PQ+;5I/R2l}u.-*IWF" style="display: block;" transform="translate(20, 0)">
        <path class="blocklyPathDark" transform="translate(1,1)" fill="#9acef9" d=" m 8,0  h 40.597000122070312  v 5  H 48.597000122070312  V 5  H 48.597000122070312  V 25  H 48.597000122070312  V 25  V 29  h -40.597000122070312  H 8  V 20  c 0,-10  -8,8  -8,-7.5  s 8,2.5  8,-7.5 z"/>
        <path class="blocklyPath" stroke="none" fill="#9acef9" d=" m 8,0  h 40.597000122070312  v 5  H 48.597000122070312  V 5  H 48.597000122070312  V 25  H 48.597000122070312  V 25  V 29  h -40.597000122070312  H 8  V 20  c 0,-10  -8,8  -8,-7.5  s 8,2.5  8,-7.5 z"/>
        <g class="blocklyEditableText" transform="translate(13,5)" style="cursor: text;">
          <rect rx="4" ry="4" x="0" y="0" height="20" width="30.597000122070312" class="blocklyFieldRect" fill="#fff" fill-opacity=".6" stroke="none"/>
          <text class="blocklyFieldText" fill="#000" style="font: normal 11pt sans-serif;" x="5" y="16">1.0</text>
        </g>
      </g>
      </g>
    </g>
  </g>
</svg>
