<svg xmlns="http://www.w3.org/2000/svg" width="372.23980712890625" height="38"><g data-id="c}eC_~OeRl50B~0=FM4l" class="blocklyDraggable" transform="translate(2,2)"><path class="blocklyPathDark" transform="translate(1,1)" fill="#483cba" d=" m 8,0  h 355.2397918701172  v 5  H 363.2397918701172  V 5  H 363.2397918701172  V 25  H 363.2397918701172  V 25  V 29  h -355.2397918701172  H 8  V 20  c 0,-10  -8,8  -8,-7.5  s 8,2.5  8,-7.5 z&#10;"/><path class="blocklyPath" stroke="none" fill="#5a4be8" d=" m 8,0  h 355.2397918701172  v 5  H 363.2397918701172  V 5  H 363.2397918701172  V 25  H 363.2397918701172  V 25  V 29  h -355.2397918701172  H 8  V 20  c 0,-10  -8,8  -8,-7.5  s 8,2.5  8,-7.5 z&#10;"/><g transform="translate(18,5)"><text class="blocklyText" fill="#fff" style="font: normal 11pt sans-serif;" x="0" y="16">get</text></g><g class="blocklyEditableText" transform="translate(46.156768798828125,5)" style="cursor: default;"><rect rx="4" ry="4" x="0" y="0" height="20" width="114.89620971679688" class="blocklyFieldRect blocklyDropdownRect" fill="#fff" fill-opacity=".6" stroke="none"/><text class="blocklyFieldText blocklyDropdownText" fill="#000" style="font: normal 11pt sans-serif;" text-anchor="start" x="5" y="16">reflectiveir_0<tspan style="fill: rgb(90, 75, 232);"> ▾</tspan></text><image style="display: none;"/></g><g transform="translate(166.052978515625,5)"><text class="blocklyText" fill="#fff" style="font: normal 11pt sans-serif;" x="0" y="16">digital value (return 0 or 1)</text></g></g></svg>