<svg xmlns="http://www.w3.org/2000/svg" width="166.6020050048828" height="42"><g data-id="Y|P]}fC9FvM=D:Zjo*]r" class="blocklyDraggable" transform="translate(2,2)"><path class="blocklyPathDark" transform="translate(1,1)" fill="#483cba" d=" m 0,0  m 0,8 a 8 8 0 0,1 8,-8  h 7  l 6,4  3,0  6,-4  h 127.60200500488281  v 5  H 157.6020050048828  V 5  H 157.6020050048828  V 25  H 157.6020050048828  V 25  V 29  h -128.1020050048828  l -6,4  -3,0  -6,-4  h -6.5 a 8 8 0 0,1 -8,-8 z&#10;"/><path class="blocklyPath" stroke="none" fill="#5a4be8" d=" m 0,0  m 0,8 a 8 8 0 0,1 8,-8  h 7  l 6,4  3,0  6,-4  h 127.60200500488281  v 5  H 157.6020050048828  V 5  H 157.6020050048828  V 25  H 157.6020050048828  V 25  V 29  h -128.1020050048828  l -6,4  -3,0  -6,-4  h -6.5 a 8 8 0 0,1 -8,-8 z&#10;"/><g transform="translate(10,5)"><text class="blocklyText" fill="#fff" style="font: normal 11pt sans-serif;" x="0" y="16">Init</text></g><g class="blocklyEditableText" transform="translate(37.70579528808594,5)" style="cursor: default;"><rect rx="4" ry="4" x="0" y="0" height="20" width="114.89620971679688" class="blocklyFieldRect blocklyDropdownRect" fill="#fff" fill-opacity=".6" stroke="none"/><text class="blocklyFieldText blocklyDropdownText" fill="#000" style="font: normal 11pt sans-serif;" text-anchor="start" x="5" y="16">reflectiveir_0<tspan style="fill: rgb(90, 75, 232);"> ▾</tspan></text><image style="display: none;"/></g></g></svg>