<svg xmlns="http://www.w3.org/2000/svg" width="383.35076904296875" height="72"><g data-id="_t!G+RhnA22/8Rk;MwNR" class="blocklyDraggable" transform="translate(2,2)"><path class="blocklyPathDark" transform="translate(1,1)" fill="#483cba" d=" m 0,0  m 0,8 a 8 8 0 0,1 8,-8  h 366.35076904296875  v 5  H 374.35076904296875  V 5  H 374.35076904296875  V 25  H 374.35076904296875  V 29  H 50  l -6,4  -3,0  -6,-4  h -7 a 8 8 0 0,0 -8,8  v 8 a 8 8 0 0,0 8,8  H 50  H 50  V 53  V 63  h -42 a 8 8 0 0,1 -8,-8 z&#10;"/><path class="blocklyPath" stroke="none" fill="#5a4be8" d=" m 0,0  m 0,8 a 8 8 0 0,1 8,-8  h 366.35076904296875  v 5  H 374.35076904296875  V 5  H 374.35076904296875  V 25  H 374.35076904296875  V 29  H 50  l -6,4  -3,0  -6,-4  h -7 a 8 8 0 0,0 -8,8  v 8 a 8 8 0 0,0 8,8  H 50  H 50  V 53  V 63  h -42 a 8 8 0 0,1 -8,-8 z&#10;"/><g transform="translate(10,5)"><text class="blocklyText" fill="#fff" style="font: normal 11pt sans-serif;" x="0" y="16">When</text></g><g class="blocklyEditableText" transform="translate(56.295654296875,5)" style="cursor: default;"><rect rx="4" ry="4" x="0" y="0" height="20" width="114.89620971679688" class="blocklyFieldRect blocklyDropdownRect" fill="#fff" fill-opacity=".6" stroke="none"/><text class="blocklyFieldText blocklyDropdownText" fill="#000" style="font: normal 11pt sans-serif;" text-anchor="start" x="5" y="16">reflectiveir_0<tspan style="fill: rgb(90, 75, 232);"> ▾</tspan></text><image style="display: none;"/></g><g class="blocklyEditableText" transform="translate(181.19186401367188,5)"><rect rx="10" ry="10" x="0" y="0" height="20" class="blocklyFieldSwitchInner blocklyFieldSwitchUnChecked" fill-opacity=".9" width="188.15890502929688" fill="#898989"/><text class="blocklyFieldSwitchLabel" y="16" fill="#fff" style="font: 11pt sans-serif; display: block;" x="10">no obstacles detected</text><circle cy="10" r="7" class="blocklyFieldSwitchHandle" fill="#fff" cx="178.15890502929688"/><text class="blocklyFieldSwitchLabel" y="16" fill="#fff" style="font: 11pt sans-serif; display: none;" x="188.15890502929688">obstacles detected</text></g></g></svg>