<svg xmlns="http://www.w3.org/2000/svg" width="128.6964874267578" height="38"><g data-id="NI6[H}biU;WSaX%0O-3%" class="blocklyDraggable" transform="translate(2,2)"><path class="blocklyPathDark" transform="translate(1,1)" fill="#cc851f" d=" m 8,0  h 111.69648742675781  v 5  H 119.69648742675781  V 5  H 119.69648742675781  V 25  H 119.69648742675781  V 25  V 29  h -111.69648742675781  H 8  V 20  c 0,-10  -8,8  -8,-7.5  s 8,2.5  8,-7.5 z&#10;"/><path class="blocklyPath" stroke="none" fill="#ffa627" d=" m 8,0  h 111.69648742675781  v 5  H 119.69648742675781  V 5  H 119.69648742675781  V 25  H 119.69648742675781  V 25  V 29  h -111.69648742675781  H 8  V 20  c 0,-10  -8,8  -8,-7.5  s 8,2.5  8,-7.5 z&#10;"/><g transform="translate(18,5)"><text class="blocklyText" fill="#fff" style="font: normal 11pt sans-serif;" x="0" y="16">get UTC time</text></g></g></svg>