<svg xmlns="http://www.w3.org/2000/svg" width="132.82676696777344" height="38"><g data-id="0BcY!H,c!^1ej(ux[r}s" class="blocklyDraggable" transform="translate(2,2)"><path class="blocklyPathDark" transform="translate(1,1)" fill="#cc851f" d=" m 8,0  h 115.82676696777344  v 5  H 123.82676696777344  V 5  H 123.82676696777344  V 25  H 123.82676696777344  V 25  V 29  h -115.82676696777344  H 8  V 20  c 0,-10  -8,8  -8,-7.5  s 8,2.5  8,-7.5 z&#10;"/><path class="blocklyPath" stroke="none" fill="#ffa627" d=" m 8,0  h 115.82676696777344  v 5  H 123.82676696777344  V 5  H 123.82676696777344  V 25  H 123.82676696777344  V 25  V 29  h -115.82676696777344  H 8  V 20  c 0,-10  -8,8  -8,-7.5  s 8,2.5  8,-7.5 z&#10;"/><g transform="translate(18,5)"><text class="blocklyText" fill="#fff" style="font: normal 11pt sans-serif;" x="0" y="16">get local time</text></g></g></svg>