<svg xmlns="http://www.w3.org/2000/svg" width="302.6048583984375" height="38"><g data-id=",XxvtLZ8gkRoJ7i!p7z{" class="blocklyDraggable" transform="translate(2,2)"><path class="blocklyPathDark" transform="translate(1,1)" fill="#cc851f" d=" m 8,0  h 285.6048583984375  v 5  H 293.6048583984375  V 5  H 293.6048583984375  V 25  H 293.6048583984375  V 25  V 29  h -285.6048583984375  H 8  V 20  c 0,-10  -8,8  -8,-7.5  s 8,2.5  8,-7.5 z&#10;"/><path class="blocklyPath" stroke="none" fill="#ffa627" d=" m 8,0  h 285.6048583984375  v 5  H 293.6048583984375  V 5  H 293.6048583984375  V 25  H 293.6048583984375  V 25  V 29  h -285.6048583984375  H 8  V 20  c 0,-10  -8,8  -8,-7.5  s 8,2.5  8,-7.5 z&#10;"/><g transform="translate(18,5)"><text class="blocklyText" fill="#fff" style="font: normal 11pt sans-serif;" x="0" y="16">get local time stamp since Jan 1, 1970</text></g></g></svg>