<svg xmlns="http://www.w3.org/2000/svg" width="261.6907653808594" height="278"><g data-id="`gT,bn.=V!E;yJol8GN*" class="blocklyDraggable" transform="translate(2,2)"><path class="blocklyPathDark" transform="translate(1,1)" fill="#cc851f" d=" m 8,0  h 174.42803955078125  v 5  H 182.42803955078125  V 5  H 182.42803955078125  V 25  H 182.42803955078125  V 35  H 182.42803955078125  c 0,10  -8,-8  -8,7.5  s 8,-2.5  8,7.5  v 5  H 182.42803955078125  V 65  H 182.42803955078125  c 0,10  -8,-8  -8,7.5  s 8,-2.5  8,7.5  v 5  H 182.42803955078125  V 95  H 182.42803955078125  c 0,10  -8,-8  -8,7.5  s 8,-2.5  8,7.5  v 5  H 182.42803955078125  V 125  H 182.42803955078125  c 0,10  -8,-8  -8,7.5  s 8,-2.5  8,7.5  v 5  H 182.42803955078125  V 155  H 182.42803955078125  c 0,10  -8,-8  -8,7.5  s 8,-2.5  8,7.5  v 5  H 182.42803955078125  V 185  H 182.42803955078125  c 0,10  -8,-8  -8,7.5  s 8,-2.5  8,7.5  v 5  H 182.42803955078125  V 215  H 182.42803955078125  c 0,10  -8,-8  -8,7.5  s 8,-2.5  8,7.5  v 5  H 182.42803955078125  V 245  H 182.42803955078125  c 0,10  -8,-8  -8,7.5  s 8,-2.5  8,7.5  v 5  H 182.42803955078125  V 265  V 269  h -174.42803955078125  H 8  V 20  c 0,-10  -8,8  -8,-7.5  s 8,2.5  8,-7.5 z&#10;"/><path class="blocklyPath" stroke="none" fill="#ffa627" d=" m 8,0  h 174.42803955078125  v 5  H 182.42803955078125  V 5  H 182.42803955078125  V 25  H 182.42803955078125  V 35  H 182.42803955078125  c 0,10  -8,-8  -8,7.5  s 8,-2.5  8,7.5  v 5  H 182.42803955078125  V 65  H 182.42803955078125  c 0,10  -8,-8  -8,7.5  s 8,-2.5  8,7.5  v 5  H 182.42803955078125  V 95  H 182.42803955078125  c 0,10  -8,-8  -8,7.5  s 8,-2.5  8,7.5  v 5  H 182.42803955078125  V 125  H 182.42803955078125  c 0,10  -8,-8  -8,7.5  s 8,-2.5  8,7.5  v 5  H 182.42803955078125  V 155  H 182.42803955078125  c 0,10  -8,-8  -8,7.5  s 8,-2.5  8,7.5  v 5  H 182.42803955078125  V 185  H 182.42803955078125  c 0,10  -8,-8  -8,7.5  s 8,-2.5  8,7.5  v 5  H 182.42803955078125  V 215  H 182.42803955078125  c 0,10  -8,-8  -8,7.5  s 8,-2.5  8,7.5  v 5  H 182.42803955078125  V 245  H 182.42803955078125  c 0,10  -8,-8  -8,7.5  s 8,-2.5  8,7.5  v 5  H 182.42803955078125  V 265  V 269  h -174.42803955078125  H 8  V 20  c 0,-10  -8,8  -8,-7.5  s 8,2.5  8,-7.5 z&#10;"/><g data-id=":omU,*3aZG,6un_gj?fa" class="" style="display: block;" transform="translate(175.42803955078125,30)"><path class="blocklyPathDark" transform="translate(1,1)" fill="#9acef9" d=" m 8,0  h 54.38800048828125  v 5  H 62.38800048828125  V 5  H 62.38800048828125  V 25  H 62.38800048828125  V 25  V 29  h -54.38800048828125  H 8  V 20  c 0,-10  -8,8  -8,-7.5  s 8,2.5  8,-7.5 z&#10;"/><path class="blocklyPath" stroke="none" fill="#9acef9" d=" m 8,0  h 54.38800048828125  v 5  H 62.38800048828125  V 5  H 62.38800048828125  V 25  H 62.38800048828125  V 25  V 29  h -54.38800048828125  H 8  V 20  c 0,-10  -8,8  -8,-7.5  s 8,2.5  8,-7.5 z&#10;"/><g class="blocklyEditableText" transform="translate(13,5)" style="cursor: text;"><rect rx="4" ry="4" x="0" y="0" height="20" width="44.38800048828125" class="blocklyFieldRect" fill="#fff" fill-opacity=".6" stroke="none"/><text class="blocklyFieldText" fill="#000" style="font: normal 11pt sans-serif;" x="5" y="16">2000</text></g></g><g data-id="`[JwFvV9InrW`Z#K-qCq" class="" style="display: block;" transform="translate(175.42803955078125,60)"><path class="blocklyPathDark" transform="translate(1,1)" fill="#9acef9" d=" m 8,0  h 28.597000122070312  v 5  H 36.59700012207031  V 5  H 36.59700012207031  V 25  H 36.59700012207031  V 25  V 29  h -28.597000122070312  H 8  V 20  c 0,-10  -8,8  -8,-7.5  s 8,2.5  8,-7.5 z&#10;"/><path class="blocklyPath" stroke="none" fill="#9acef9" d=" m 8,0  h 28.597000122070312  v 5  H 36.59700012207031  V 5  H 36.59700012207031  V 25  H 36.59700012207031  V 25  V 29  h -28.597000122070312  H 8  V 20  c 0,-10  -8,8  -8,-7.5  s 8,2.5  8,-7.5 z&#10;"/><g class="blocklyEditableText" transform="translate(13,5)" style="cursor: text;"><rect rx="4" ry="4" x="0" y="0" height="20" width="18.597000122070312" class="blocklyFieldRect" fill="#fff" fill-opacity=".6" stroke="none"/><text class="blocklyFieldText" fill="#000" style="font: normal 11pt sans-serif;" x="5" y="16">1</text></g></g><g data-id="uNmux@7c*MxbI=s+b@/o" class="" style="display: block;" transform="translate(175.42803955078125,90)"><path class="blocklyPathDark" transform="translate(1,1)" fill="#9acef9" d=" m 8,0  h 28.597000122070312  v 5  H 36.59700012207031  V 5  H 36.59700012207031  V 25  H 36.59700012207031  V 25  V 29  h -28.597000122070312  H 8  V 20  c 0,-10  -8,8  -8,-7.5  s 8,2.5  8,-7.5 z&#10;"/><path class="blocklyPath" stroke="none" fill="#9acef9" d=" m 8,0  h 28.597000122070312  v 5  H 36.59700012207031  V 5  H 36.59700012207031  V 25  H 36.59700012207031  V 25  V 29  h -28.597000122070312  H 8  V 20  c 0,-10  -8,8  -8,-7.5  s 8,2.5  8,-7.5 z&#10;"/><g class="blocklyEditableText" transform="translate(13,5)" style="cursor: text;"><rect rx="4" ry="4" x="0" y="0" height="20" width="18.597000122070312" class="blocklyFieldRect" fill="#fff" fill-opacity=".6" stroke="none"/><text class="blocklyFieldText" fill="#000" style="font: normal 11pt sans-serif;" x="5" y="16">1</text></g></g><g data-id="B6[)H22x$miF{5FN*5v9" class="" style="display: block;" transform="translate(175.42803955078125,120)"><path class="blocklyPathDark" transform="translate(1,1)" fill="#9acef9" d=" m 8,0  h 28.597000122070312  v 5  H 36.59700012207031  V 5  H 36.59700012207031  V 25  H 36.59700012207031  V 25  V 29  h -28.597000122070312  H 8  V 20  c 0,-10  -8,8  -8,-7.5  s 8,2.5  8,-7.5 z&#10;"/><path class="blocklyPath" stroke="none" fill="#9acef9" d=" m 8,0  h 28.597000122070312  v 5  H 36.59700012207031  V 5  H 36.59700012207031  V 25  H 36.59700012207031  V 25  V 29  h -28.597000122070312  H 8  V 20  c 0,-10  -8,8  -8,-7.5  s 8,2.5  8,-7.5 z&#10;"/><g class="blocklyEditableText" transform="translate(13,5)" style="cursor: text;"><rect rx="4" ry="4" x="0" y="0" height="20" width="18.597000122070312" class="blocklyFieldRect" fill="#fff" fill-opacity=".6" stroke="none"/><text class="blocklyFieldText" fill="#000" style="font: normal 11pt sans-serif;" x="5" y="16">0</text></g></g><g data-id="n.:)#J^UZD-9u(Wu)Un(" class="" style="display: block;" transform="translate(175.42803955078125,150)"><path class="blocklyPathDark" transform="translate(1,1)" fill="#9acef9" d=" m 8,0  h 28.597000122070312  v 5  H 36.59700012207031  V 5  H 36.59700012207031  V 25  H 36.59700012207031  V 25  V 29  h -28.597000122070312  H 8  V 20  c 0,-10  -8,8  -8,-7.5  s 8,2.5  8,-7.5 z&#10;"/><path class="blocklyPath" stroke="none" fill="#9acef9" d=" m 8,0  h 28.597000122070312  v 5  H 36.59700012207031  V 5  H 36.59700012207031  V 25  H 36.59700012207031  V 25  V 29  h -28.597000122070312  H 8  V 20  c 0,-10  -8,8  -8,-7.5  s 8,2.5  8,-7.5 z&#10;"/><g class="blocklyEditableText" transform="translate(13,5)" style="cursor: text;"><rect rx="4" ry="4" x="0" y="0" height="20" width="18.597000122070312" class="blocklyFieldRect" fill="#fff" fill-opacity=".6" stroke="none"/><text class="blocklyFieldText" fill="#000" style="font: normal 11pt sans-serif;" x="5" y="16">0</text></g></g><g data-id="!sYZm-7-PA~*FGFN3]Uy" class="" style="display: block;" transform="translate(175.42803955078125,180)"><path class="blocklyPathDark" transform="translate(1,1)" fill="#9acef9" d=" m 8,0  h 28.597000122070312  v 5  H 36.59700012207031  V 5  H 36.59700012207031  V 25  H 36.59700012207031  V 25  V 29  h -28.597000122070312  H 8  V 20  c 0,-10  -8,8  -8,-7.5  s 8,2.5  8,-7.5 z&#10;"/><path class="blocklyPath" stroke="none" fill="#9acef9" d=" m 8,0  h 28.597000122070312  v 5  H 36.59700012207031  V 5  H 36.59700012207031  V 25  H 36.59700012207031  V 25  V 29  h -28.597000122070312  H 8  V 20  c 0,-10  -8,8  -8,-7.5  s 8,2.5  8,-7.5 z&#10;"/><g class="blocklyEditableText" transform="translate(13,5)" style="cursor: text;"><rect rx="4" ry="4" x="0" y="0" height="20" width="18.597000122070312" class="blocklyFieldRect" fill="#fff" fill-opacity=".6" stroke="none"/><text class="blocklyFieldText" fill="#000" style="font: normal 11pt sans-serif;" x="5" y="16">0</text></g></g><g data-id="W9SjK1DBX`2(#JG[rK%." style="display: block;" transform="translate(175.42803955078125,210)"><path class="blocklyPathDark" transform="translate(1,1)" fill="#ffdba9" d=" m 8,0  h 69.26272583007812  v 5  H 77.26272583007812  V 5  H 77.26272583007812  V 25  H 77.26272583007812  V 25  V 29  h -69.26272583007812  H 8  V 20  c 0,-10  -8,8  -8,-7.5  s 8,2.5  8,-7.5 z&#10;"/><path class="blocklyPath" stroke="none" fill="#ffdba9" d=" m 8,0  h 69.26272583007812  v 5  H 77.26272583007812  V 5  H 77.26272583007812  V 25  H 77.26272583007812  V 25  V 29  h -69.26272583007812  H 8  V 20  c 0,-10  -8,8  -8,-7.5  s 8,2.5  8,-7.5 z&#10;"/><g class="blocklyEditableText" transform="translate(13,5)" style="cursor: default;"><rect rx="4" ry="4" x="0" y="0" height="20" width="59.262725830078125" class="blocklyFieldRect blocklyDropdownRect" fill="#fff" fill-opacity=".6" stroke="none"/><text class="blocklyFieldText blocklyDropdownText" fill="#000" style="font: normal 11pt sans-serif;" text-anchor="start" x="5" y="16">Mon<tspan style="fill: rgb(255, 219, 169);"> ▾</tspan></text><image style="display: none;"/></g></g><g data-id="GxM:+l!_F_*#nyfYgQ3Y" class="" style="display: block;" transform="translate(175.42803955078125,240)"><path class="blocklyPathDark" transform="translate(1,1)" fill="#9acef9" d=" m 8,0  h 28.597000122070312  v 5  H 36.59700012207031  V 5  H 36.59700012207031  V 25  H 36.59700012207031  V 25  V 29  h -28.597000122070312  H 8  V 20  c 0,-10  -8,8  -8,-7.5  s 8,2.5  8,-7.5 z&#10;"/><path class="blocklyPath" stroke="none" fill="#9acef9" d=" m 8,0  h 28.597000122070312  v 5  H 36.59700012207031  V 5  H 36.59700012207031  V 25  H 36.59700012207031  V 25  V 29  h -28.597000122070312  H 8  V 20  c 0,-10  -8,8  -8,-7.5  s 8,2.5  8,-7.5 z&#10;"/><g class="blocklyEditableText" transform="translate(13,5)" style="cursor: text;"><rect rx="4" ry="4" x="0" y="0" height="20" width="18.597000122070312" class="blocklyFieldRect" fill="#fff" fill-opacity=".6" stroke="none"/><text class="blocklyFieldText" fill="#000" style="font: normal 11pt sans-serif;" x="5" y="16">1</text></g></g><g transform="translate(18,5)"><text class="blocklyText" fill="#fff" style="font: normal 11pt sans-serif;" x="0" y="16">get time stamp since</text></g><g transform="translate(134.7286834716797,35)"><text class="blocklyText" fill="#fff" style="font: normal 11pt sans-serif;" x="0" y="16">year</text></g><g transform="translate(117.84963989257812,65)"><text class="blocklyText" fill="#fff" style="font: normal 11pt sans-serif;" x="0" y="16">month</text></g><g transform="translate(125.45164489746094,95)"><text class="blocklyText" fill="#fff" style="font: normal 11pt sans-serif;" x="0" y="16">mday</text></g><g transform="translate(131.45022583007812,125)"><text class="blocklyText" fill="#fff" style="font: normal 11pt sans-serif;" x="0" y="16">hour</text></g><g transform="translate(115.06510925292969,155)"><text class="blocklyText" fill="#fff" style="font: normal 11pt sans-serif;" x="0" y="16">minute</text></g><g transform="translate(114.24191284179688,185)"><text class="blocklyText" fill="#fff" style="font: normal 11pt sans-serif;" x="0" y="16">second</text></g><g transform="translate(103.28269958496094,215)"><text class="blocklyText" fill="#fff" style="font: normal 11pt sans-serif;" x="0" y="16">weekday</text></g><g transform="translate(109.69645690917969,245)"><text class="blocklyText" fill="#fff" style="font: normal 11pt sans-serif;" x="0" y="16">yearday</text></g></g></svg>