<svg xmlns="http://www.w3.org/2000/svg" width="203.90048217773438" height="38"><g data-id="hs))F%|Q.pQ@:Qd*d0t*" class="blocklyDraggable" transform="translate(2,2)"><path class="blocklyPathDark" transform="translate(1,1)" fill="#cc851f" d=" m 8,0  h 186.90048217773438  v 5  H 194.90048217773438  V 5  H 194.90048217773438  V 25  H 194.90048217773438  V 25  V 29  h -186.90048217773438  H 8  V 20  c 0,-10  -8,8  -8,-7.5  s 8,2.5  8,-7.5 z&#10;"/><path class="blocklyPath" stroke="none" fill="#ffa627" d=" m 8,0  h 186.90048217773438  v 5  H 194.90048217773438  V 5  H 194.90048217773438  V 25  H 194.90048217773438  V 25  V 29  h -186.90048217773438  H 8  V 20  c 0,-10  -8,8  -8,-7.5  s 8,2.5  8,-7.5 z&#10;"/><g transform="translate(18,5)"><text class="blocklyText" fill="#fff" style="font: normal 11pt sans-serif;" x="0" y="16">get ticks in milliseconds</text></g></g></svg>