<svg xmlns="http://www.w3.org/2000/svg" width="174.5733642578125" height="38"><g data-id="C=H*C+/3X+KzqZo6P(Ae" class="blocklyDraggable" transform="translate(2,2)"><path class="blocklyPathDark" transform="translate(1,1)" fill="#cc851f" d=" m 8,0  h 157.5733642578125  v 5  H 165.5733642578125  V 5  H 165.5733642578125  V 25  H 165.5733642578125  V 25  V 29  h -157.5733642578125  H 8  V 20  c 0,-10  -8,8  -8,-7.5  s 8,2.5  8,-7.5 z&#10;"/><path class="blocklyPath" stroke="none" fill="#ffa627" d=" m 8,0  h 157.5733642578125  v 5  H 165.5733642578125  V 5  H 165.5733642578125  V 25  H 165.5733642578125  V 25  V 29  h -157.5733642578125  H 8  V 20  c 0,-10  -8,8  -8,-7.5  s 8,2.5  8,-7.5 z&#10;"/><g transform="translate(18,5)"><text class="blocklyText" fill="#fff" style="font: normal 11pt sans-serif;" x="0" y="16">get CPU ticks count</text></g></g></svg>