<svg xmlns="http://www.w3.org/2000/svg" width="186.45669555664062" height="49"><g data-id="+kbiV/K!fC2+TGygE=B-" class="blocklyDraggable" transform="translate(2,2)"><path class="blocklyPathDark" transform="translate(1,1)" fill="#cc851f" d=" m 8,0  h 169.45669555664062  v 5  H 177.45669555664062  V 5  H 177.45669555664062  V 36  H 177.45669555664062  V 36  V 40  h -169.45669555664062  H 8  V 20  c 0,-10  -8,8  -8,-7.5  s 8,2.5  8,-7.5 z&#10; M 93.2626953125,5  v 5  c 0,10  -8,-8  -8,7.5  s 8,-2.5  8,7.5  v 11  h 30.597000122070312  v -31 z M 136.8596954345703,5  v 5  c 0,10  -8,-8  -8,7.5  s 8,-2.5  8,7.5  v 11  h 30.597000122070312  v -31 z"/><path class="blocklyPath" stroke="none" fill="#ffa627" d=" m 8,0  h 169.45669555664062  v 5  H 177.45669555664062  V 5  H 177.45669555664062  V 36  H 177.45669555664062  V 36  V 40  h -169.45669555664062  H 8  V 20  c 0,-10  -8,8  -8,-7.5  s 8,2.5  8,-7.5 z&#10; M 93.2626953125,5  v 5  c 0,10  -8,-8  -8,7.5  s 8,-2.5  8,7.5  v 11  h 30.597000122070312  v -31 z M 136.8596954345703,5  v 5  c 0,10  -8,-8  -8,7.5  s 8,-2.5  8,7.5  v 11  h 30.597000122070312  v -31 z"/><g data-id="PyVpTSQQ1T;Yd4$:{W?{" style="display: block;" transform="translate(86.2626953125,6)"><path class="blocklyPathDark" transform="translate(1,1)" fill="#9acef9" d=" m 8,0  h 28.597000122070312  v 5  H 36.59700012207031  V 5  H 36.59700012207031  V 25  H 36.59700012207031  V 25  V 29  h -28.597000122070312  H 8  V 20  c 0,-10  -8,8  -8,-7.5  s 8,2.5  8,-7.5 z&#10;"/><path class="blocklyPath" stroke="none" fill="#9acef9" d=" m 8,0  h 28.597000122070312  v 5  H 36.59700012207031  V 5  H 36.59700012207031  V 25  H 36.59700012207031  V 25  V 29  h -28.597000122070312  H 8  V 20  c 0,-10  -8,8  -8,-7.5  s 8,2.5  8,-7.5 z&#10;"/><g class="blocklyEditableText" transform="translate(13,5)" style="cursor: text;"><rect rx="4" ry="4" x="0" y="0" height="20" width="18.597000122070312" class="blocklyFieldRect" fill="#fff" fill-opacity=".6" stroke="none"/><text class="blocklyFieldText" fill="#000" style="font: normal 11pt sans-serif;" x="5" y="16">1</text></g></g><g data-id="H0k=C$!%@xcP8_7OI(kR" style="display: block;" transform="translate(129.8596954345703,6)"><path class="blocklyPathDark" transform="translate(1,1)" fill="#9acef9" d=" m 8,0  h 28.597000122070312  v 5  H 36.59700012207031  V 5  H 36.59700012207031  V 25  H 36.59700012207031  V 25  V 29  h -28.597000122070312  H 8  V 20  c 0,-10  -8,8  -8,-7.5  s 8,2.5  8,-7.5 z&#10;"/><path class="blocklyPath" stroke="none" fill="#9acef9" d=" m 8,0  h 28.597000122070312  v 5  H 36.59700012207031  V 5  H 36.59700012207031  V 25  H 36.59700012207031  V 25  V 29  h -28.597000122070312  H 8  V 20  c 0,-10  -8,8  -8,-7.5  s 8,2.5  8,-7.5 z&#10;"/><g class="blocklyEditableText" transform="translate(13,5)" style="cursor: text;"><rect rx="4" ry="4" x="0" y="0" height="20" width="18.597000122070312" class="blocklyFieldRect" fill="#fff" fill-opacity=".6" stroke="none"/><text class="blocklyFieldText" fill="#000" style="font: normal 11pt sans-serif;" x="5" y="16">1</text></g></g><g transform="translate(18,10)"><text class="blocklyText" fill="#fff" style="font: normal 11pt sans-serif;" x="0" y="16">ticks diff</text></g></g></svg>