<svg xmlns="http://www.w3.org/2000/svg" width="214.25840759277344" height="38"><g data-id="?flnPz*Ja_GNz[5wlrdH" class="blocklyDraggable" transform="translate(2,2)"><path class="blocklyPathDark" transform="translate(1,1)" fill="#cc851f" d=" m 8,0  h 197.25840759277344  v 5  H 205.25840759277344  V 5  H 205.25840759277344  V 25  H 205.25840759277344  V 25  V 29  h -197.25840759277344  H 8  V 20  c 0,-10  -8,8  -8,-7.5  s 8,2.5  8,-7.5 z&#10;"/><path class="blocklyPath" stroke="none" fill="#ffa627" d=" m 8,0  h 197.25840759277344  v 5  H 205.25840759277344  V 5  H 205.25840759277344  V 25  H 205.25840759277344  V 25  V 29  h -197.25840759277344  H 8  V 20  c 0,-10  -8,8  -8,-7.5  s 8,2.5  8,-7.5 z&#10;"/><g transform="translate(18,5)"><text class="blocklyText" fill="#fff" style="font: normal 11pt sans-serif;" x="0" y="16">get ticks in microseconds</text></g></g></svg>