<svg xmlns="http://www.w3.org/2000/svg" width="245.95489501953125" height="38"><g data-id="P+-37H{P[Qkpj}0Rs{qb" class="blocklyDraggable" transform="translate(2,2)"><path class="blocklyPathDark" transform="translate(1,1)" fill="#cc851f" d=" m 8,0  h 228.95489501953125  v 5  H 236.95489501953125  V 5  H 236.95489501953125  V 25  H 236.95489501953125  V 25  V 29  h -228.95489501953125  H 8  V 20  c 0,-10  -8,8  -8,-7.5  s 8,2.5  8,-7.5 z&#10;"/><path class="blocklyPath" stroke="none" fill="#ffa627" d=" m 8,0  h 228.95489501953125  v 5  H 236.95489501953125  V 5  H 236.95489501953125  V 25  H 236.95489501953125  V 25  V 29  h -228.95489501953125  H 8  V 20  c 0,-10  -8,8  -8,-7.5  s 8,2.5  8,-7.5 z&#10;"/><g transform="translate(18,5)"><text class="blocklyText" fill="#fff" style="font: normal 11pt sans-serif;" x="0" y="16">get system uptime in seconds</text></g></g></svg>