<svg xmlns="http://www.w3.org/2000/svg" width="317.138916015625" height="72">
  <g data-id="FZ~73L8sPL3FZL~)onXM" class="blocklyDraggable" transform="translate(2,2)">
    <path class="blocklyPathDark" transform="translate(1,1)" fill="#59aa53"
      d=" m 0,0  m 0,8 a 8 8 0 0,1 8,-8  h 300.138916015625  v 5  H 308.138916015625  V 5  H 308.138916015625  V 25  H 308.138916015625  V 29  H 50  l -6,4  -3,0  -6,-4  h -7 a 8 8 0 0,0 -8,8  v 8 a 8 8 0 0,0 8,8  H 50  H 50  V 53  V 63  h -42 a 8 8 0 0,1 -8,-8 z&#10;" />
    <path class="blocklyPath" stroke="none" fill="#6fd568"
      d=" m 0,0  m 0,8 a 8 8 0 0,1 8,-8  h 300.138916015625  v 5  H 308.138916015625  V 5  H 308.138916015625  V 25  H 308.138916015625  V 29  H 50  l -6,4  -3,0  -6,-4  h -7 a 8 8 0 0,0 -8,8  v 8 a 8 8 0 0,0 8,8  H 50  H 50  V 53  V 63  h -42 a 8 8 0 0,1 -8,-8 z&#10;" />
    <g transform="translate(10,5)"><text class="blocklyText" fill="#fff" style="font: normal 11pt sans-serif;" x="0"
        y="16">When button</text></g>
    <g class="blocklyEditableText" transform="translate(108.18540954589844,5)" style="cursor: default;">
      <rect rx="4" ry="4" x="0" y="0" height="20" width="84.03724670410156" class="blocklyFieldRect blocklyDropdownRect"
        fill="#fff" fill-opacity=".6" stroke="none" /><text class="blocklyFieldText blocklyDropdownText" fill="#000"
        style="font: normal 11pt sans-serif;" text-anchor="start" x="5" y="16">BtnPWR<tspan
          style="fill: rgb(111, 213, 104);"> ▾</tspan></text>
      <image style="display: none;" />
    </g>
    <g transform="translate(197.22265625,5)"><text class="blocklyText" fill="#fff" style="font: normal 11pt sans-serif;"
        x="0" y="16">was</text></g>
    <g class="blocklyEditableText" transform="translate(228.68650817871094,5)" style="cursor: default;">
      <rect rx="4" ry="4" x="0" y="0" height="20" width="74.45240783691406" class="blocklyFieldRect blocklyDropdownRect"
        fill="#fff" fill-opacity=".6" stroke="none" /><text class="blocklyFieldText blocklyDropdownText" fill="#000"
        style="font: normal 11pt sans-serif;" text-anchor="start" x="5" y="16">clicked<tspan
          style="fill: rgb(111, 213, 104);"> ▾</tspan></text>
      <image style="display: none;" />
    </g>
  </g>
</svg>