<svg xmlns="http://www.w3.org/2000/svg" width="133.4352264404297" height="38"><g data-id="fP$Qg09m`[+GqRcr]+J)" class="blocklyDraggable" transform="translate(2,2)"><path class="blocklyPathDark" transform="translate(1,1)" fill="#cc6473" d=" m 8,0  h 116.43522644042969  v 5  H 124.43522644042969  V 5  H 124.43522644042969  V 25  H 124.43522644042969  V 25  V 29  h -116.43522644042969  H 8  V 20  c 0,-10  -8,8  -8,-7.5  s 8,2.5  8,-7.5 z&#10;"/><path class="blocklyPath" stroke="none" fill="#ff7d90" d=" m 8,0  h 116.43522644042969  v 5  H 124.43522644042969  V 5  H 124.43522644042969  V 25  H 124.43522644042969  V 25  V 29  h -116.43522644042969  H 8  V 20  c 0,-10  -8,8  -8,-7.5  s 8,2.5  8,-7.5 z&#10;"/><g transform="translate(18,5)"><text class="blocklyText" fill="#fff" style="font: normal 11pt sans-serif;" x="0" y="16">IMU get accel</text></g></g></svg>