<svg xmlns="http://www.w3.org/2000/svg" width="130.2570037841797" height="38"><g data-id="+`DMUBW%[rhPs4n}LlkN" class="blocklyDraggable" transform="translate(2,2)"><path class="blocklyPathDark" transform="translate(1,1)" fill="#cc6473" d=" m 8,0  h 113.25700378417969  v 5  H 121.25700378417969  V 5  H 121.25700378417969  V 25  H 121.25700378417969  V 25  V 29  h -113.25700378417969  H 8  V 20  c 0,-10  -8,8  -8,-7.5  s 8,2.5  8,-7.5 z&#10;"/><path class="blocklyPath" stroke="none" fill="#ff7d90" d=" m 8,0  h 113.25700378417969  v 5  H 121.25700378417969  V 5  H 121.25700378417969  V 25  H 121.25700378417969  V 25  V 29  h -113.25700378417969  H 8  V 20  c 0,-10  -8,8  -8,-7.5  s 8,2.5  8,-7.5 z&#10;"/><g transform="translate(18,5)"><text class="blocklyText" fill="#fff" style="font: normal 11pt sans-serif;" x="0" y="16">IMU get gyro</text></g></g></svg>