<svg xmlns="http://www.w3.org/2000/svg" width="157.4752960205078" height="42"><g data-id="+^7%hkp^]L6xTPgFMYLp" class="blocklyDraggable" transform="translate(2,2)"><path class="blocklyPathDark" transform="translate(1,1)" fill="#026ac0" d=" m 0,0  m 0,8 a 8 8 0 0,1 8,-8  h 7  l 6,4  3,0  6,-4  h 118.47529602050781  v 5  H 148.4752960205078  V 5  H 148.4752960205078  V 25  H 148.4752960205078  V 25  V 29  h -118.97529602050781  l -6,4  -3,0  -6,-4  h -6.5 a 8 8 0 0,1 -8,-8 z&#10;"/><path class="blocklyPath" stroke="none" fill="#0284f0" d=" m 0,0  m 0,8 a 8 8 0 0,1 8,-8  h 7  l 6,4  3,0  6,-4  h 118.47529602050781  v 5  H 148.4752960205078  V 5  H 148.4752960205078  V 25  H 148.4752960205078  V 25  V 29  h -118.97529602050781  l -6,4  -3,0  -6,-4  h -6.5 a 8 8 0 0,1 -8,-8 z&#10;"/><g class="blocklyEditableText" transform="translate(5,5)" style="cursor: default;"><rect rx="4" ry="4" x="0" y="0" height="20" width="88.48245239257812" class="blocklyFieldRect blocklyDropdownRect" fill="#fff" fill-opacity=".6" stroke="none"/><text class="blocklyFieldText blocklyDropdownText" fill="#000" style="font: normal 11pt sans-serif;" text-anchor="start" x="5" y="16">buzzer_0<tspan style="fill: rgb(2, 132, 240);"> ▾</tspan></text><image style="display: none;"/></g><g transform="translate(98.48245239257812,5)"><text class="blocklyText" fill="#fff" style="font: normal 11pt sans-serif;" x="0" y="16">deinit</text></g></g></svg>