<svg xmlns="http://www.w3.org/2000/svg" width="140.18824768066406" height="42"><g data-id="E^~c#m==)DwWM]D_A(a$" class="blocklyDraggable" transform="translate(2,2)"><path class="blocklyPathDark" transform="translate(1,1)" fill="#026ac0" d=" m 0,0  m 0,8 a 8 8 0 0,1 8,-8  h 7  l 6,4  3,0  6,-4  h 101.18824768066406  v 5  H 131.18824768066406  V 5  H 131.18824768066406  V 25  H 131.18824768066406  V 25  V 29  h -101.68824768066406  l -6,4  -3,0  -6,-4  h -6.5 a 8 8 0 0,1 -8,-8 z&#10;"/><path class="blocklyPath" stroke="none" fill="#0284f0" d=" m 0,0  m 0,8 a 8 8 0 0,1 8,-8  h 7  l 6,4  3,0  6,-4  h 101.18824768066406  v 5  H 131.18824768066406  V 5  H 131.18824768066406  V 25  H 131.18824768066406  V 25  V 29  h -101.68824768066406  l -6,4  -3,0  -6,-4  h -6.5 a 8 8 0 0,1 -8,-8 z&#10;"/><g transform="translate(10,5)"><text class="blocklyText" fill="#fff" style="font: normal 11pt sans-serif;" x="0" y="16">Init</text></g><g class="blocklyEditableText" transform="translate(37.70579528808594,5)" style="cursor: default;"><rect rx="4" ry="4" x="0" y="0" height="20" width="88.48245239257812" class="blocklyFieldRect blocklyDropdownRect" fill="#fff" fill-opacity=".6" stroke="none"/><text class="blocklyFieldText blocklyDropdownText" fill="#000" style="font: normal 11pt sans-serif;" text-anchor="start" x="5" y="16">buzzer_0<tspan style="fill: rgb(2, 132, 240);"> ▾</tspan></text><image style="display: none;"/></g></g></svg>