<svg xmlns="http://www.w3.org/2000/svg" width="282.6600036621094" height="132"><g data-id="t]!H-m[KfjjU#cb__}uE" class="blocklyDraggable" transform="translate(2,2)"><path class="blocklyPathDark" transform="translate(1,1)" fill="#026ac0" d=" m 0,0  m 0,8 a 8 8 0 0,1 8,-8  h 7  l 6,4  3,0  6,-4  h 188.27200317382812  v 5  H 218.27200317382812  V 5  H 218.27200317382812  V 25  H 218.27200317382812  V 35  H 218.27200317382812  c 0,10  -8,-8  -8,7.5  s 8,-2.5  8,7.5  v 5  H 218.27200317382812  V 65  H 218.27200317382812  c 0,10  -8,-8  -8,7.5  s 8,-2.5  8,7.5  v 5  H 218.27200317382812  V 95  H 218.27200317382812  c 0,10  -8,-8  -8,7.5  s 8,-2.5  8,7.5  v 5  H 218.27200317382812  V 115  V 119  h -188.77200317382812  l -6,4  -3,0  -6,-4  h -6.5 a 8 8 0 0,1 -8,-8 z&#10;"/><path class="blocklyPath" stroke="none" fill="#0284f0" d=" m 0,0  m 0,8 a 8 8 0 0,1 8,-8  h 7  l 6,4  3,0  6,-4  h 188.27200317382812  v 5  H 218.27200317382812  V 5  H 218.27200317382812  V 25  H 218.27200317382812  V 35  H 218.27200317382812  c 0,10  -8,-8  -8,7.5  s 8,-2.5  8,7.5  v 5  H 218.27200317382812  V 65  H 218.27200317382812  c 0,10  -8,-8  -8,7.5  s 8,-2.5  8,7.5  v 5  H 218.27200317382812  V 95  H 218.27200317382812  c 0,10  -8,-8  -8,7.5  s 8,-2.5  8,7.5  v 5  H 218.27200317382812  V 115  V 119  h -188.77200317382812  l -6,4  -3,0  -6,-4  h -6.5 a 8 8 0 0,1 -8,-8 z&#10;"/><g data-id=")sWH6Al;aI6J%rv9sU!." class="" style="display: block;" transform="translate(211.27200317382812,30)"><path class="blocklyPathDark" transform="translate(1,1)" fill="#9acef9" d=" m 8,0  h 54.38800048828125  v 5  H 62.38800048828125  V 5  H 62.38800048828125  V 25  H 62.38800048828125  V 25  V 29  h -54.38800048828125  H 8  V 20  c 0,-10  -8,8  -8,-7.5  s 8,2.5  8,-7.5 z&#10;"/><path class="blocklyPath" stroke="none" fill="#9acef9" d=" m 8,0  h 54.38800048828125  v 5  H 62.38800048828125  V 5  H 62.38800048828125  V 25  H 62.38800048828125  V 25  V 29  h -54.38800048828125  H 8  V 20  c 0,-10  -8,8  -8,-7.5  s 8,2.5  8,-7.5 z&#10;"/><g class="blocklyEditableText" transform="translate(13,5)" style="cursor: text;"><rect rx="4" ry="4" x="0" y="0" height="20" width="44.38800048828125" class="blocklyFieldRect" fill="#fff" fill-opacity=".6" stroke="none"/><text class="blocklyFieldText" fill="#000" style="font: normal 11pt sans-serif;" x="5" y="16">4000</text></g></g><g data-id="#^$c`n]DNO~S[?(=$Hu?" class="" style="display: block;" transform="translate(211.27200317382812,60)"><path class="blocklyPathDark" transform="translate(1,1)" fill="#9acef9" d=" m 8,0  h 37.194000244140625  v 5  H 45.194000244140625  V 5  H 45.194000244140625  V 25  H 45.194000244140625  V 25  V 29  h -37.194000244140625  H 8  V 20  c 0,-10  -8,8  -8,-7.5  s 8,2.5  8,-7.5 z&#10;"/><path class="blocklyPath" stroke="none" fill="#9acef9" d=" m 8,0  h 37.194000244140625  v 5  H 45.194000244140625  V 5  H 45.194000244140625  V 25  H 45.194000244140625  V 25  V 29  h -37.194000244140625  H 8  V 20  c 0,-10  -8,8  -8,-7.5  s 8,2.5  8,-7.5 z&#10;"/><g class="blocklyEditableText" transform="translate(13,5)" style="cursor: text;"><rect rx="4" ry="4" x="0" y="0" height="20" width="27.194000244140625" class="blocklyFieldRect" fill="#fff" fill-opacity=".6" stroke="none"/><text class="blocklyFieldText" fill="#000" style="font: normal 11pt sans-serif;" x="5" y="16">50</text></g></g><g data-id="?`H(/Nf!wJ|)50LgX7#|" style="display: block;" transform="translate(211.27200317382812,90)"><path class="blocklyPathDark" transform="translate(1,1)" fill="#9acef9" d=" m 8,0  h 37.194000244140625  v 5  H 45.194000244140625  V 5  H 45.194000244140625  V 25  H 45.194000244140625  V 25  V 29  h -37.194000244140625  H 8  V 20  c 0,-10  -8,8  -8,-7.5  s 8,2.5  8,-7.5 z&#10;"/><path class="blocklyPath" stroke="none" fill="#9acef9" d=" m 8,0  h 37.194000244140625  v 5  H 45.194000244140625  V 5  H 45.194000244140625  V 25  H 45.194000244140625  V 25  V 29  h -37.194000244140625  H 8  V 20  c 0,-10  -8,8  -8,-7.5  s 8,2.5  8,-7.5 z&#10;"/><g class="blocklyEditableText" transform="translate(13,5)" style="cursor: text;"><rect rx="4" ry="4" x="0" y="0" height="20" width="27.194000244140625" class="blocklyFieldRect" fill="#fff" fill-opacity=".6" stroke="none"/><text class="blocklyFieldText" fill="#000" style="font: normal 11pt sans-serif;" x="5" y="16">50</text></g></g><g class="blocklyEditableText" transform="translate(5,5)" style="cursor: default;"><rect rx="4" ry="4" x="0" y="0" height="20" width="88.48245239257812" class="blocklyFieldRect blocklyDropdownRect" fill="#fff" fill-opacity=".6" stroke="none"/><text class="blocklyFieldText blocklyDropdownText" fill="#000" style="font: normal 11pt sans-serif;" text-anchor="start" x="5" y="16">buzzer_0<tspan style="fill: rgb(2, 132, 240);"> ▾</tspan></text><image style="display: none;"/></g><g transform="translate(98.48245239257812,5)"><text class="blocklyText" fill="#fff" style="font: normal 11pt sans-serif;" x="0" y="16">play once with</text></g><g transform="translate(10,35)"><text class="blocklyText" fill="#fff" style="font: normal 11pt sans-serif;" x="0" y="16">freq (100 ~ 10000 Hz)</text></g><g transform="translate(10,65)"><text class="blocklyText" fill="#fff" style="font: normal 11pt sans-serif;" x="0" y="16">duty (%)</text></g><g transform="translate(10,95)"><text class="blocklyText" fill="#fff" style="font: normal 11pt sans-serif;" x="0" y="16">duration (ms)</text></g></g></svg>