<svg xmlns="http://www.w3.org/2000/svg" width="177.5397186279297" height="42"><g data-id="}S,U}~EsrdYK-K;M~8`!" class="blocklyDraggable" transform="translate(2,2)"><path class="blocklyPathDark" transform="translate(1,1)" fill="#cc5295" d=" m 0,0  m 0,8 a 8 8 0 0,1 8,-8  h 7  l 6,4  3,0  6,-4  h 138.5397186279297  v 5  H 168.5397186279297  V 5  H 168.5397186279297  V 25  H 168.5397186279297  V 25  V 29  h -139.0397186279297  l -6,4  -3,0  -6,-4  h -6.5 a 8 8 0 0,1 -8,-8 z&#10;"/><path class="blocklyPath" stroke="none" fill="#ff67ba" d=" m 0,0  m 0,8 a 8 8 0 0,1 8,-8  h 7  l 6,4  3,0  6,-4  h 138.5397186279297  v 5  H 168.5397186279297  V 5  H 168.5397186279297  V 25  H 168.5397186279297  V 25  V 29  h -139.0397186279297  l -6,4  -3,0  -6,-4  h -6.5 a 8 8 0 0,1 -8,-8 z&#10;"/><g transform="translate(10,5)"><text class="blocklyText" fill="#fff" style="font: normal 11pt sans-serif;" x="0" y="16">Init</text></g><g class="blocklyEditableText" transform="translate(37.70579528808594,5)" style="cursor: default;"><rect rx="4" ry="4" x="0" y="0" height="20" width="125.83392333984375" class="blocklyFieldRect blocklyDropdownRect" fill="#fff" fill-opacity=".6" stroke="none"/><text class="blocklyFieldText blocklyDropdownText" fill="#000" style="font: normal 11pt sans-serif;" text-anchor="start" x="5" y="16">hat_vibrator_0<tspan style="fill: rgb(255, 103, 186);"> ▾</tspan></text><image style="display: none;"/></g></g></svg>