<svg xmlns="http://www.w3.org/2000/svg" width="302.8174743652344" height="132"><g data-id="0S1g[He*UKPD[$2`=Z)|" class="blocklyDraggable" transform="translate(2,2)"><path class="blocklyPathDark" transform="translate(1,1)" fill="#cc5295" d=" m 0,0  m 0,8 a 8 8 0 0,1 8,-8  h 7  l 6,4  3,0  6,-4  h 225.62347412109375  v 5  H 255.62347412109375  V 5  H 255.62347412109375  V 25  H 255.62347412109375  V 35  H 255.62347412109375  c 0,10  -8,-8  -8,7.5  s 8,-2.5  8,7.5  v 5  H 255.62347412109375  V 65  H 255.62347412109375  c 0,10  -8,-8  -8,7.5  s 8,-2.5  8,7.5  v 5  H 255.62347412109375  V 95  H 255.62347412109375  c 0,10  -8,-8  -8,7.5  s 8,-2.5  8,7.5  v 5  H 255.62347412109375  V 115  V 119  h -226.12347412109375  l -6,4  -3,0  -6,-4  h -6.5 a 8 8 0 0,1 -8,-8 z&#10;"/><path class="blocklyPath" stroke="none" fill="#ff67ba" d=" m 0,0  m 0,8 a 8 8 0 0,1 8,-8  h 7  l 6,4  3,0  6,-4  h 225.62347412109375  v 5  H 255.62347412109375  V 5  H 255.62347412109375  V 25  H 255.62347412109375  V 35  H 255.62347412109375  c 0,10  -8,-8  -8,7.5  s 8,-2.5  8,7.5  v 5  H 255.62347412109375  V 65  H 255.62347412109375  c 0,10  -8,-8  -8,7.5  s 8,-2.5  8,7.5  v 5  H 255.62347412109375  V 95  H 255.62347412109375  c 0,10  -8,-8  -8,7.5  s 8,-2.5  8,7.5  v 5  H 255.62347412109375  V 115  V 119  h -226.12347412109375  l -6,4  -3,0  -6,-4  h -6.5 a 8 8 0 0,1 -8,-8 z&#10;"/><g data-id=".10kLcuW3o;o{J5r_uC#" class="" style="display: block;" transform="translate(248.62347412109375,30)"><path class="blocklyPathDark" transform="translate(1,1)" fill="#9acef9" d=" m 8,0  h 37.194000244140625  v 5  H 45.194000244140625  V 5  H 45.194000244140625  V 25  H 45.194000244140625  V 25  V 29  h -37.194000244140625  H 8  V 20  c 0,-10  -8,8  -8,-7.5  s 8,2.5  8,-7.5 z&#10;"/><path class="blocklyPath" stroke="none" fill="#9acef9" d=" m 8,0  h 37.194000244140625  v 5  H 45.194000244140625  V 5  H 45.194000244140625  V 25  H 45.194000244140625  V 25  V 29  h -37.194000244140625  H 8  V 20  c 0,-10  -8,8  -8,-7.5  s 8,2.5  8,-7.5 z&#10;"/><g class="blocklyEditableText" transform="translate(13,5)" style="cursor: text;"><rect rx="4" ry="4" x="0" y="0" height="20" width="27.194000244140625" class="blocklyFieldRect" fill="#fff" fill-opacity=".6" stroke="none"/><text class="blocklyFieldText" fill="#000" style="font: normal 11pt sans-serif;" x="5" y="16">10</text></g></g><g data-id="5!Ho/_uD;k5di%c?mu9^" class="" style="display: block;" transform="translate(248.62347412109375,60)"><path class="blocklyPathDark" transform="translate(1,1)" fill="#9acef9" d=" m 8,0  h 37.194000244140625  v 5  H 45.194000244140625  V 5  H 45.194000244140625  V 25  H 45.194000244140625  V 25  V 29  h -37.194000244140625  H 8  V 20  c 0,-10  -8,8  -8,-7.5  s 8,2.5  8,-7.5 z&#10;"/><path class="blocklyPath" stroke="none" fill="#9acef9" d=" m 8,0  h 37.194000244140625  v 5  H 45.194000244140625  V 5  H 45.194000244140625  V 25  H 45.194000244140625  V 25  V 29  h -37.194000244140625  H 8  V 20  c 0,-10  -8,8  -8,-7.5  s 8,2.5  8,-7.5 z&#10;"/><g class="blocklyEditableText" transform="translate(13,5)" style="cursor: text;"><rect rx="4" ry="4" x="0" y="0" height="20" width="27.194000244140625" class="blocklyFieldRect" fill="#fff" fill-opacity=".6" stroke="none"/><text class="blocklyFieldText" fill="#000" style="font: normal 11pt sans-serif;" x="5" y="16">50</text></g></g><g data-id="2Kdwac0MPqiTJmd(=K,L" style="display: block;" transform="translate(248.62347412109375,90)"><path class="blocklyPathDark" transform="translate(1,1)" fill="#9acef9" d=" m 8,0  h 37.194000244140625  v 5  H 45.194000244140625  V 5  H 45.194000244140625  V 25  H 45.194000244140625  V 25  V 29  h -37.194000244140625  H 8  V 20  c 0,-10  -8,8  -8,-7.5  s 8,2.5  8,-7.5 z&#10;"/><path class="blocklyPath" stroke="none" fill="#9acef9" d=" m 8,0  h 37.194000244140625  v 5  H 45.194000244140625  V 5  H 45.194000244140625  V 25  H 45.194000244140625  V 25  V 29  h -37.194000244140625  H 8  V 20  c 0,-10  -8,8  -8,-7.5  s 8,2.5  8,-7.5 z&#10;"/><g class="blocklyEditableText" transform="translate(13,5)" style="cursor: text;"><rect rx="4" ry="4" x="0" y="0" height="20" width="27.194000244140625" class="blocklyFieldRect" fill="#fff" fill-opacity=".6" stroke="none"/><text class="blocklyFieldText" fill="#000" style="font: normal 11pt sans-serif;" x="5" y="16">50</text></g></g><g class="blocklyEditableText" transform="translate(5,5)" style="cursor: default;"><rect rx="4" ry="4" x="0" y="0" height="20" width="125.83392333984375" class="blocklyFieldRect blocklyDropdownRect" fill="#fff" fill-opacity=".6" stroke="none"/><text class="blocklyFieldText blocklyDropdownText" fill="#000" style="font: normal 11pt sans-serif;" text-anchor="start" x="5" y="16">hat_vibrator_0<tspan style="fill: rgb(255, 103, 186);"> ▾</tspan></text><image style="display: none;"/></g><g transform="translate(135.83392333984375,5)"><text class="blocklyText" fill="#fff" style="font: normal 11pt sans-serif;" x="0" y="16">play once with</text></g><g transform="translate(10,35)"><text class="blocklyText" fill="#fff" style="font: normal 11pt sans-serif;" x="0" y="16">freq (10 ~ 55 Hz)</text></g><g transform="translate(10,65)"><text class="blocklyText" fill="#fff" style="font: normal 11pt sans-serif;" x="0" y="16">duty (%)</text></g><g transform="translate(10,95)"><text class="blocklyText" fill="#fff" style="font: normal 11pt sans-serif;" x="0" y="16">duration (ms)</text></g></g></svg>