<svg xmlns="http://www.w3.org/2000/svg" width="383.06298828125" height="38"><g data-id="=Db.`:1|kJ0sW@We(f%E" class="blocklyDraggable" transform="translate(2,2)"><path class="blocklyPathDark" transform="translate(1,1)" fill="#cc6473" d=" m 8,0  h 366.06298828125  v 5  H 374.06298828125  V 5  H 374.06298828125  V 25  H 374.06298828125  V 25  V 29  h -366.06298828125  H 8  V 20  c 0,-10  -8,8  -8,-7.5  s 8,2.5  8,-7.5 z&#10;"/><path class="blocklyPath" stroke="none" fill="#ff7d90" d=" m 8,0  h 366.06298828125  v 5  H 374.06298828125  V 5  H 374.06298828125  V 25  H 374.06298828125  V 25  V 29  h -366.06298828125  H 8  V 20  c 0,-10  -8,8  -8,-7.5  s 8,2.5  8,-7.5 z&#10;"/><g transform="translate(18,5)"><text class="blocklyText" fill="#fff" style="font: normal 11pt sans-serif;" x="0" y="16">get</text></g><g class="blocklyEditableText" transform="translate(46.156768798828125,5)" style="cursor: default;"><rect rx="4" ry="4" x="0" y="0" height="20" width="120.15750122070312" class="blocklyFieldRect blocklyDropdownRect" fill="#fff" fill-opacity=".6" stroke="none"/><text class="blocklyFieldText blocklyDropdownText" fill="#000" style="font: normal 11pt sans-serif;" text-anchor="start" x="5" y="16">extencoder_0<tspan style="fill: rgb(255, 125, 144);"> ▾</tspan></text><image style="display: none;"/></g><g transform="translate(171.31427001953125,5)"><text class="blocklyText" fill="#fff" style="font: normal 11pt sans-serif;" x="0" y="16">zero pulse value (return int)</text></g></g></svg>