<svg xmlns="http://www.w3.org/2000/svg" width="280.5390319824219" height="42"><g data-id="h%q#@1YDm0hYTSIM.88F" class="blocklyDraggable" transform="translate(2,2)"><path class="blocklyPathDark" transform="translate(1,1)" fill="#cc6473" d=" m 0,0  m 0,8 a 8 8 0 0,1 8,-8  h 7  l 6,4  3,0  6,-4  h 241.53903198242188  v 5  H 271.5390319824219  V 5  H 271.5390319824219  V 25  H 271.5390319824219  V 25  V 29  h -242.03903198242188  l -6,4  -3,0  -6,-4  h -6.5 a 8 8 0 0,1 -8,-8 z&#10;"/><path class="blocklyPath" stroke="none" fill="#ff7d90" d=" m 0,0  m 0,8 a 8 8 0 0,1 8,-8  h 7  l 6,4  3,0  6,-4  h 241.53903198242188  v 5  H 271.5390319824219  V 5  H 271.5390319824219  V 25  H 271.5390319824219  V 25  V 29  h -242.03903198242188  l -6,4  -3,0  -6,-4  h -6.5 a 8 8 0 0,1 -8,-8 z&#10;"/><g transform="translate(10,5)"><text class="blocklyText" fill="#fff" style="font: normal 11pt sans-serif;" x="0" y="16">Reset</text></g><g class="blocklyEditableText" transform="translate(53.01002502441406,5)" style="cursor: default;"><rect rx="4" ry="4" x="0" y="0" height="20" width="120.15750122070312" class="blocklyFieldRect blocklyDropdownRect" fill="#fff" fill-opacity=".6" stroke="none"/><text class="blocklyFieldText blocklyDropdownText" fill="#000" style="font: normal 11pt sans-serif;" text-anchor="start" x="5" y="16">extencoder_0<tspan style="fill: rgb(255, 125, 144);"> ▾</tspan></text><image style="display: none;"/></g><g transform="translate(178.1675262451172,5)"><text class="blocklyText" fill="#fff" style="font: normal 11pt sans-serif;" x="0" y="16">rotary value</text></g></g></svg>